<?xml version="1.0" standalone="no"?>
<!DOCTYPE svg PUBLIC "-//W3C//DTD SVG 1.1//EN" "http://www.w3.org/Graphics/SVG/1.1/DTD/svg11.dtd" >
<svg>
<metadata>
Created by FontForge 20090914 at Sun Aug  4 13:15:47 2013
 By www-data
Copyright (c) 2011 by Anna Giedrys (http://ancymonic.com), with Reserved Font Names "Signika".
</metadata>
<defs>
<font id="SignikaNegative-Regular" horiz-adv-x="398" >
  <font-face 
    font-family="Signika Negative"
    font-weight="400"
    font-stretch="normal"
    units-per-em="1000"
    panose-1="2 1 0 3 2 6 0 0 0 4"
    ascent="800"
    descent="-200"
    x-height="493.001"
    cap-height="687"
    bbox="-127 -260.002 953.999 898.999"
    underline-thickness="50"
    underline-position="-100"
    unicode-range="U+000D-U+20AC"
  />
<missing-glyph horiz-adv-x="186" 
 />
    <glyph glyph-name=".notdef" horiz-adv-x="186" 
 />
    <glyph glyph-name=".null" horiz-adv-x="0" 
 />
    <glyph glyph-name=".null" horiz-adv-x="0" 
 />
    <glyph glyph-name="CR" unicode="&#xd;" horiz-adv-x="186" 
 />
    <glyph glyph-name="space" unicode=" " horiz-adv-x="220" 
 />
    <glyph glyph-name="exclam" unicode="!" horiz-adv-x="285" 
d="M103 193l-11 469c25.333 18.667 60 28 104 28l6 -7l-23 -490c-10 -3.33301 -22.667 -5 -38 -5s-28 1.66699 -38 5zM87 94c13.333 8 31.5 12 54.5 12s41.167 -4 54.5 -12c5.33301 -9.33301 8 -24.5 8 -45.5s-2.66699 -35.833 -8 -44.5c-13.333 -8 -31.5 -12 -54.5 -12
s-41.167 4 -54.5 12c-5.33301 8.66699 -8 23.5 -8 44.5s2.66699 36.167 8 45.5z" />
    <glyph glyph-name="quotedbl" unicode="&#x22;" horiz-adv-x="382" 
d="M223 711c0 10 1.99902 22.332 5.99902 36.999c14 8 30.833 12 50.5 12s35.834 -4 48.501 -12c4.66699 -17.333 7 -30.5 7 -39.5s-1.66699 -22.5 -5 -40.5c-12.667 -66 -21.334 -118.667 -26.001 -158c-5.33301 -3.33301 -13.5 -5 -24.5 -5s-19.833 1.66699 -26.5 5
c-5.33301 44.667 -11.666 86.834 -18.999 126.501s-11 64.5 -11 74.5zM47.999 710.999c0 10 1.99902 22.332 5.99902 36.999c14 8 30.833 12 50.5 12s35.834 -4 48.501 -12c4.66699 -17.333 7 -30.5 7 -39.5s-1.66699 -22.5 -5 -40.5
c-12.667 -66 -21.334 -118.667 -26.001 -158c-5.33301 -3.33301 -13.5 -5 -24.5 -5s-19.833 1.66699 -26.5 5c-5.33301 44.667 -11.666 86.834 -18.999 126.501s-11 64.5 -11 74.5z" />
    <glyph glyph-name="numbersign" unicode="#" horiz-adv-x="637" 
d="M423 493l32.0029 144c11.333 4.66699 26.166 7 44.499 7s33.166 -2.33301 44.499 -7l-33 -144h98c4 -11.333 6 -25 6 -41s-2 -29.333 -6 -40h-116l-38 -173h107c4 -11.333 6 -25 6 -41s-2 -29.667 -6 -41h-126l-32 -144c-10.667 -4.66699 -25.5 -7 -44.5 -7
s-33.5 2.33301 -43.5 7l32 144h-127l-32 -144c-10.667 -4.66699 -25.5 -7 -44.5 -7s-33.5 2.33301 -43.5 7l32 144h-103c-4 11.333 -6 25 -6 41s2 29.667 6 41h122l38 173h-113c-4 10.667 -6 24 -6 40s2 29.667 6 41h131l33 144c11.333 4.66699 26.166 7 44.499 7
s32.833 -2.33301 43.5 -7l-33 -144h127zM278.003 412l-38 -173h126l39 173h-127z" />
    <glyph glyph-name="dollar" unicode="$" horiz-adv-x="498" 
d="M34 99c0.666992 13.333 5.00488 27.5 13.0049 42.5s17 25.833 27 32.5c66 -37.333 126.333 -56 181 -56c28.667 0 52.667 6.16699 72 18.5s29 28.5 29 48.5s-6.83301 37.333 -20.5 52s-32.167 26 -55.5 34l-101 36c-81.333 30.667 -122 78.667 -122 144
c0 39.333 13.167 73 39.5 101s62.166 45.667 107.499 53v83c10 2 23.167 3 39.5 3s29.5 -1 39.5 -3v-81c51.333 -4 103.333 -18.333 156 -43c0 -31.333 -11.667 -57 -35 -77c-56.667 26 -108.334 39 -155.001 39c-28 0 -50.333 -6 -67 -18s-25 -27.5 -25 -46.5
s5.5 -33.167 16.5 -42.5s29.167 -18.333 54.5 -27l98 -36c39.333 -14 71.166 -34.5 95.499 -61.5s36.5 -61 36.5 -102s-16 -76 -48 -105s-75.667 -45.5 -131 -49.5v-77c-6.66699 -1.33301 -19.834 -2 -39.501 -2s-32.834 0.666992 -39.501 2v79
c-64.667 9.33301 -120 29 -166 59z" />
    <glyph glyph-name="percent" unicode="%" horiz-adv-x="897" 
d="M849 192c0 -75.333 -16.332 -129.667 -48.999 -163c-26.667 -27.333 -62.334 -41 -107.001 -41s-80.667 13.667 -108 41c-32 34 -48 88.5 -48 163.5s16 128.5 48 160.5c26 28 61.833 42 107.5 42s81.5 -14 107.5 -42c32.667 -32 49 -85.667 49 -161zM693.001 329.999
c-48 0 -72 -46.167 -72 -138.5s24 -138.5 72 -138.5s72 46.167 72 138.5s-24 138.5 -72 138.5zM360.001 491.999c0 -75.333 -16.332 -129.333 -48.999 -162c-27.333 -28 -63 -42 -107 -42s-79.667 14 -107 42c-32.667 32.667 -49 86.5 -49 161.5s16.333 129.167 49 162.5
c26.667 27.333 62.667 41 108 41s80.666 -13.667 105.999 -41c32.667 -32.667 49 -86.667 49 -162zM205.002 629.999c-48.667 0 -73 -46.167 -73 -138.5s24.333 -138.5 73 -138.5c47.333 0 71 46.167 71 138.5s-23.667 138.5 -71 138.5zM212.002 -0.000976562l377 683
c11.333 4 22 6 32 6c31.333 0 52.333 -2 63 -6l-376 -683c-11.333 -4 -22 -6 -32 -6c-32 0 -53.333 2 -64 6z" />
    <glyph glyph-name="ampersand" unicode="&#x26;" horiz-adv-x="618" 
d="M495 320l1 -61.998v-108c0 -26 2 -76 6 -150c-13.333 -3.33301 -28.166 -5 -44.499 -5s-31.833 1.33301 -46.5 4l-8 41c-48.667 -35.333 -102.834 -53 -162.501 -53s-106.167 17.833 -139.5 53.5s-50 82.167 -50 139.5c0 44 12.833 83.167 38.5 117.5
s56.834 57.166 93.501 68.499c-30 10.667 -54.667 30 -74 58s-29 59.333 -29 94c0 50.667 18.667 93 56 127s88.666 51 153.999 51s124.666 -9.66699 177.999 -29v-6c0 -29.333 -8.66699 -53 -26 -71c-56.667 16.667 -104 25 -142 25s-66.833 -9.5 -86.5 -28.5
s-29.5 -44.5 -29.5 -76.5s10.333 -57.667 31 -77s52.334 -29 95.001 -29h183c40.667 0 72 5 94 15c8.66699 -10.667 13 -26.334 13 -47.001c0 -34.667 -24.333 -52 -73 -52h-32zM399 257.002c0 26.667 0.333008 47.667 1 63h-100c-48.667 0 -85 -13.333 -109 -40
s-36 -58.5 -36 -95.5s9.83301 -65.833 29.5 -86.5s46.167 -31 79.5 -31c52.667 0 97.667 16 135 48v142z" />
    <glyph glyph-name="quotesingle" unicode="'" horiz-adv-x="207" 
d="M44 711c0 10 1.99902 22.332 5.99902 36.999c14 8 30.833 12 50.5 12s35.834 -4 48.501 -12c4.66699 -17.333 7 -30.5 7 -39.5s-1.66699 -22.5 -5 -40.5c-12.667 -66 -21.334 -118.667 -26.001 -158c-5.33301 -3.33301 -13.5 -5 -24.5 -5s-19.833 1.66699 -26.5 5
c-5.33301 44.667 -11.666 86.834 -18.999 126.501s-11 64.5 -11 74.5z" />
    <glyph glyph-name="parenleft" unicode="(" horiz-adv-x="326" 
d="M311 774c-95.333 -122.667 -143 -272.501 -143 -449.501s47.667 -326.833 143 -449.5c-12 -26 -31.333 -43.667 -58 -53c-59.333 58.667 -105.833 134.334 -139.5 227.001s-50.5 184.667 -50.5 276s16.833 183.333 50.5 276s80.167 168 139.5 226
c26.667 -8 46 -25.667 58 -53z" />
    <glyph glyph-name="parenright" unicode=")" horiz-adv-x="326" 
d="M15 -125c96 124 144 273.834 144 449.501s-48 325.5 -144 449.5c12 27.333 31.667 45 59 53c59.333 -58 105.666 -133.333 138.999 -226s50 -184.667 50 -276s-16.667 -183.333 -50 -276s-79.666 -168.334 -138.999 -227.001c-27.333 9.33301 -47 27 -59 53z" />
    <glyph glyph-name="asterisk" unicode="*" horiz-adv-x="502" 
d="M46 551l0.00195312 12c0 6 2.5 16.667 7.5 32s11.5 27.666 19.5 36.999l51 -17c23.333 -8 57.333 -25.667 102 -53c-11.333 49.333 -17 87.333 -17 114l-1 55c10.667 4.66699 25 7 43 7s32.333 -2.33301 43 -7v-55c-0.666992 -21.333 -7 -59.333 -19 -114
c37.333 24 71.666 41.667 102.999 53l52 16c7.33301 -8 13.833 -20.5 19.5 -37.5s8.16699 -31.5 7.5 -43.5l-52 -16c-22.667 -7.33301 -61 -13.333 -115 -18c37.333 -30.667 64.666 -58 81.999 -82l32 -44c-5.33301 -10 -15.166 -20.167 -29.499 -30.5
s-27.5 -16.833 -39.5 -19.5l-31 44c-14 18 -31.667 52.333 -53 103c-19.333 -47.333 -37 -81.666 -53 -102.999l-31 -44c-11.333 2.66699 -24.166 9.16699 -38.499 19.5s-24.833 20.833 -31.5 31.5l32 43c17.333 22.667 44.666 50 81.999 82
c-50.667 2.66699 -88.334 8.66699 -113.001 18z" />
    <glyph glyph-name="plus" unicode="+" horiz-adv-x="530" 
d="M221 334l-1 47v128c14 2 29.167 3 45.5 3s31.166 -1 44.499 -3v-128l-1 -47l46 1h118c2.66699 -12.667 4 -27.167 4 -43.5s-1.33301 -29.833 -4 -40.5h-118l-46 1l1 -46v-129c-13.333 -2 -28.166 -3 -44.499 -3s-31.5 1 -45.5 3v129l1 46l-46 -1h-118
c-2.66699 10.667 -4 24.5 -4 41.5s1.33301 31.167 4 42.5h118z" />
    <glyph glyph-name="comma" unicode="," horiz-adv-x="266" 
d="M60 -159c-16.667 9.33301 -24.999 23.6631 -24.999 42.9961v7c23.333 10.667 42.5 24.834 57.5 42.501s22.833 36.834 23.5 57.501c-20 5.33301 -33 10 -39 14c-6 10.667 -9 27.167 -9 49.5s3 37.833 9 46.5c16 8.66699 36.5 13 61.5 13s43.5 -4.33301 55.5 -13
c6.66699 -15.333 10 -36.666 10 -63.999c0 -43.333 -12.333 -82.666 -37 -117.999s-60.334 -61.333 -107.001 -78z" />
    <glyph glyph-name="hyphen" unicode="-" horiz-adv-x="347" 
d="M295 224h-244c-2.66699 11.333 -4 25.166 -4 41.499s1.33301 30.833 4 43.5h244c3.33301 -11.333 5 -25.666 5 -42.999s-1.66699 -31.333 -5 -42z" />
    <glyph glyph-name="period" unicode="." horiz-adv-x="260" 
d="M62 53c0 20.667 3.00195 37 9.00195 49c14.667 8 34.5 12 59.5 12s44.5 -4 58.5 -12c6 -12 9 -28.333 9 -49s-3 -37 -9 -49c-12.667 -8 -31.834 -12 -57.501 -12s-45.834 4 -60.501 12c-6 12 -9 28.333 -9 49z" />
    <glyph glyph-name="slash" unicode="/" horiz-adv-x="419" 
d="M8 -78l316 838c32.667 -2.66699 60.667 -13 84 -31l-316 -839c-32 2 -60 12.667 -84 32z" />
    <glyph glyph-name="zero" unicode="0" horiz-adv-x="530" 
d="M63.5 155.5c-10.333 43.667 -15.501 100.003 -15.501 169.003s5 125.167 15 168.5s29.333 80.333 58 111c36.667 38 84.334 57 143.001 57s107 -19 145 -57c28 -30.667 47.167 -67.834 57.5 -111.501s15.5 -99.834 15.5 -168.501s-5.16699 -124.834 -15.5 -168.501
s-29.5 -80.834 -57.5 -111.501c-38 -38 -86 -57 -144 -57s-106 19 -144 57c-28 30.667 -47.167 67.834 -57.5 111.501zM149.999 324.003c0 -115.333 13.667 -190.333 41 -225c17.333 -23.333 42 -35 74 -35s56.667 11.667 74 35c27.333 34.667 41 109.667 41 225
s-13.667 190.333 -41 225c-17.333 23.333 -42 35 -74 35s-56.667 -11.667 -74 -35c-27.333 -34.667 -41 -109.667 -41 -225z" />
    <glyph glyph-name="one" unicode="1" horiz-adv-x="530" 
d="M246 81l-0.999023 65.999v240c0 12.667 1.66699 53 5 121c-38.667 -48 -87.334 -84.333 -146.001 -109c-22 12.667 -36 32 -42 58c94.667 58.667 157 122.334 187 191.001c13.333 3.33301 28.5 5 45.5 5s32.5 -1.66699 46.5 -5v-501l-1 -66l58 1h70
c3.33301 -14.667 5 -28.167 5 -40.5s-1.66699 -26.166 -5 -41.499h-371c-3.33301 15.333 -5 29.166 -5 41.499s1.66699 25.833 5 40.5h93z" />
    <glyph glyph-name="two" unicode="2" horiz-adv-x="530" 
d="M473 86c0 -16.667 -0.666992 -29.332 -2 -37.999c-5.33301 -32 -26.333 -48 -63 -48h-312c-26.667 23.333 -40 44 -40 62c0 56 42 119.667 126 191l97 85c52 44.667 78 91 78 139c0 31.333 -9.5 56.333 -28.5 75s-42.5 28 -70.5 28s-52.833 -8.83301 -74.5 -26.5
s-38.5 -40.834 -50.5 -69.501c-34.667 2.66699 -58 14 -70 34c15.333 40.667 40.833 74.667 76.5 102s80 41 133 41s97 -17.167 132 -51.5s52.5 -78.833 52.5 -133.5c0 -31.333 -6.5 -60.666 -19.5 -87.999s-27 -48.833 -42 -64.5s-36.167 -35.167 -63.5 -58.5l-77 -67
c-59.333 -50.667 -93 -90.334 -101 -119.001c44.667 4.66699 88 7 130 7h189z" />
    <glyph glyph-name="three" unicode="3" horiz-adv-x="530" 
d="M429 541l-108.999 -116c-12.667 -13.333 -25 -24 -37 -32c54.667 -1.33301 100 -18.166 136 -50.499s54 -80.833 54 -145.5s-22.5 -115.834 -67.5 -153.501s-97.833 -56.5 -158.5 -56.5c-80 0 -145.667 21.667 -197 65c6 26.667 20.333 48.667 43 66
c45.333 -34 90.333 -51 135 -51s79.667 12.167 105 36.5s38 57 38 98s-10.333 72 -31 93s-46.334 31.5 -77.001 31.5s-56.334 -5.66699 -77.001 -17c-19.333 8.66699 -32.666 26.334 -39.999 53.001l129 140c20 22.667 42.667 44.667 68 66l-4 4
c-27.333 -6 -66.333 -9 -117 -9h-144c-4 11.333 -6 24.666 -6 39.999s3 30.333 9 45h347c14 -25.333 21 -46 21 -62s-6.66699 -31 -20 -45z" />
    <glyph glyph-name="four" unicode="4" horiz-adv-x="530" 
d="M388 141l0.998047 -49.998v-91c-13.333 -2.66699 -29.166 -4 -47.499 -4s-34.166 1.33301 -47.499 4v91l1 50l-51 -1h-181c-14.667 24.667 -22 43.167 -22 55.5s6.66699 34.166 20 65.499l170 393c6.66699 1.33301 14 2 22 2c30 0 53 -6.66699 69 -20l-121 -278
c-27.333 -64 -49 -109.333 -65 -136l2 -3c38 2 75.667 3 113 3h44c-0.666992 7.33301 -1 18.666 -1 33.999v84c0 23.333 5.66699 41.5 17 54.5s27 19.5 47 19.5h27l4 -4v-137l-1 -51l45 1h56c2 -8.66699 3 -21 3 -37s-2.33301 -31 -7 -45h-97z" />
    <glyph glyph-name="five" unicode="5" horiz-adv-x="530" 
d="M437 648c4.66699 -13.333 7.00195 -26.666 7.00195 -39.999c0 -29.333 -14.333 -44 -43 -44h-216c0 -27.333 -0.333008 -45 -1 -53l-4 -73c0 -6.66699 -1 -16 -3 -28c31.333 13.333 62.333 20 93 20c61.333 0 110.166 -18.333 146.499 -55s54.5 -90.167 54.5 -160.5
s-22.167 -125.833 -66.5 -166.5s-100.5 -61 -168.5 -61s-127.333 21 -178 63c5.33301 26.667 19.333 48.667 42 66c46.667 -32.667 90.667 -49 132 -49s74.666 12.833 99.999 38.5s38 62.667 38 111s-12.5 83.166 -37.5 104.499s-56.333 32 -94 32s-74.5 -15.333 -110.5 -46
c-8.66699 1.33301 -17.667 5.33301 -27 12s-16 13.667 -20 21l14 301l7 7h335z" />
    <glyph glyph-name="six" unicode="6" horiz-adv-x="530" 
d="M424.5 50.5c-39.667 -42.333 -91.165 -63.5 -154.498 -63.5s-112.333 21 -147 63c-7.33301 8.66699 -12.333 14.834 -15 18.501s-8.33398 13.834 -17.001 30.501s-15 33.667 -19 51c-13.333 53.333 -20 112.666 -20 177.999c0 103.333 22 184.666 66 243.999
s107.333 89 190 89c58.667 0 106 -10.667 142 -32c-2.66699 -30 -14.334 -53 -35.001 -69c-33.333 14.667 -67.333 22 -102 22c-52 0 -91 -19.167 -117 -57.5s-40 -88.833 -42 -151.5c42.667 39.333 92 59 148 59s100.333 -18.167 133 -54.5s49 -89.333 49 -159
s-19.833 -125.667 -59.5 -168zM277.002 350c-44.667 0 -85.665 -19.667 -122.998 -59v-16c0 -79.333 14.333 -137.333 43 -174c19.333 -25.333 45.666 -38 78.999 -38s59.666 13.167 78.999 39.5s29 61.833 29 106.5c0 94 -35.667 141 -107 141z" />
    <glyph glyph-name="seven" unicode="7" horiz-adv-x="530" 
d="M70 648l394.002 0.000976562c12.667 -24 19 -43.5 19 -58.5s-5.33301 -29.833 -16 -44.5l-33 -48c-52 -76.667 -92.167 -150.167 -120.5 -220.5s-46.833 -150.833 -55.5 -241.5l-3 -35c-14.667 -3.33301 -31.334 -5 -50.001 -5s-35.667 1.66699 -51 5l4 40
c15.333 157.333 70.333 304.666 165 441.999l11 16c10.667 16.667 29 40 55 70l-3 4c-26.667 -6 -78.334 -9 -155.001 -9h-165c-2.66699 10 -4 22.333 -4 37s2.66699 30.667 8 48z" />
    <glyph glyph-name="eight" unicode="8" horiz-adv-x="530" 
d="M46 163c0 37.333 11.1689 71.335 33.502 102.002s50.5 54.667 84.5 72c-66.667 36.667 -100 87.667 -100 153c0 49.333 19.167 90.166 57.5 122.499s86.5 48.5 144.5 48.5s105.667 -15.5 143 -46.5s56 -70.833 56 -119.5c0 -32 -9 -60.667 -27 -86s-41.667 -46 -71 -62
c77.333 -40.667 116 -99.334 116 -176.001c-0.666992 -56 -22.334 -100.667 -65.001 -134s-95.834 -50 -159.501 -50s-115 15.5 -154 46.5s-58.5 74.167 -58.5 129.5zM237.002 307.002l-2.00098 -0.000976562c-28.667 -15.333 -50.667 -35.166 -66 -59.499s-23 -52 -23 -83
s11.167 -56.333 33.5 -76s50.333 -29.5 84 -29.5s61.834 10.333 84.501 31s34 48 34 82c0 62 -43 105.333 -129 130zM162.001 492.001c0 -52.667 39.668 -89.998 119.001 -111.998l12 -4c50 27.333 75 65.666 75 114.999c0 30 -9.83301 53.667 -29.5 71
s-44.334 26 -74.001 26s-54.167 -8.83301 -73.5 -26.5s-29 -40.834 -29 -69.501z" />
    <glyph glyph-name="nine" unicode="9" horiz-adv-x="530" 
d="M105.5 597.5c39.667 42.333 91.165 63.5 154.498 63.5s112.333 -21 147 -63c7.33301 -8.66699 12.333 -14.834 15 -18.501s8.33398 -13.834 17.001 -30.501s15 -33.667 19 -51c13.333 -53.333 20 -112.666 20 -177.999c0 -103.333 -22 -184.666 -66 -243.999
s-107.333 -89 -190 -89c-58.667 0 -106 10.667 -142 32c2.66699 30 14.334 53 35.001 69c33.333 -14.667 67.333 -22 102 -22c52 0 91 19 117 57s39.667 88.333 41 151c-42 -38.667 -91 -58 -147 -58s-100.333 18.167 -133 54.5s-49 89.333 -49 159s19.833 125.667 59.5 168
zM252.998 298c44.667 0 85.665 19.667 122.998 59v16c0 79.333 -14.333 137.333 -43 174c-19.333 25.333 -45.666 38 -78.999 38s-59.666 -13.167 -78.999 -39.5s-29 -61.833 -29 -106.5c0 -94 35.667 -141 107 -141z" />
    <glyph glyph-name="colon" unicode=":" horiz-adv-x="265" 
d="M65 53c0 20.667 3.00195 37 9.00195 49c14.667 8 34.5 12 59.5 12s44.5 -4 58.5 -12c6 -12 9 -28.333 9 -49s-3 -37 -9 -49c-12.667 -8 -31.834 -12 -57.501 -12s-45.834 4 -60.501 12c-6 12 -9 28.333 -9 49zM65.002 385c0 20.667 3.00195 37 9.00195 49
c14.667 8 34.5 12 59.5 12s44.5 -4 58.5 -12c6 -12 9 -28.333 9 -49s-3 -37 -9 -49c-12.667 -8 -31.834 -12 -57.501 -12s-45.834 4 -60.501 12c-6 12 -9 28.333 -9 49z" />
    <glyph glyph-name="semicolon" unicode=";" horiz-adv-x="269" 
d="M59 -159c-16.667 9.33301 -24.999 23.6631 -24.999 42.9961v7c23.333 10.667 42.5 24.834 57.5 42.501s22.833 36.834 23.5 57.501c-20.667 5.33301 -33.667 10 -39 14c-6 10.667 -9 27.167 -9 49.5s3 37.833 9 46.5c16 8.66699 36.5 13 61.5 13s43.5 -4.33301 55.5 -13
c6.66699 -15.333 10 -36.666 10 -63.999c0 -43.333 -12.333 -82.666 -37 -117.999s-60.334 -61.333 -107.001 -78zM67.001 384.997c0 20.667 3.00195 37 9.00195 49c14.667 8 34.5 12 59.5 12s44.5 -4 58.5 -12c6 -12 9 -28.333 9 -49s-3 -37 -9 -49
c-12.667 -8 -31.834 -12 -57.501 -12s-45.834 4 -60.501 12c-6 12 -9 28.333 -9 49z" />
    <glyph glyph-name="less" unicode="&#x3c;" horiz-adv-x="530" 
d="M54 331l371 202.999c26.667 -16 41.667 -41.333 45 -76l-244 -129c-26.667 -13.333 -50.667 -24.666 -72 -33.999v-6c34 -14.667 58 -26 72 -34l244 -128c-3.33301 -34 -18.333 -59.667 -45 -77l-371 203c-4 15.333 -6 29.333 -6 42s2 24.667 6 36z" />
    <glyph glyph-name="equal" unicode="=" horiz-adv-x="530" 
d="M473 158h-416c-2.66699 11.333 -4 25.166 -4 41.499s1.33301 30.833 4 43.5h416c2.66699 -12.667 4 -27.167 4 -43.5s-1.33301 -30.166 -4 -41.499zM473 346h-416c-2.66699 11.333 -4 25.166 -4 41.499s1.33301 30.833 4 43.5h416c2.66699 -12.667 4 -27.167 4 -43.5
s-1.33301 -30.166 -4 -41.499z" />
    <glyph glyph-name="greater" unicode="&#x3e;" horiz-adv-x="530" 
d="M476 254l-371 -202.999c-26.667 16 -41.667 41.333 -45 76l244 129c26.667 13.333 50.667 24.666 72 33.999v6c-34 14.667 -58 26 -72 34l-244 128c3.33301 34 18.333 59.667 45 77l371 -203c4 -14.667 6 -28.5 6 -41.5s-2 -25.167 -6 -36.5z" />
    <glyph glyph-name="question" unicode="?" horiz-adv-x="393" 
d="M12 646c60.667 32.667 121.167 49 181.5 49s107.166 -15.333 140.499 -46s50 -71.667 50 -123c0 -80 -43.333 -144.333 -130 -193l-63 -35l-8 -105c-9.33301 -3.33301 -21.666 -5 -36.999 -5s-28 1.66699 -38 5l-5 149l8 11l48 24c80.667 42 121 88.667 121 140
c0 28 -8.83301 50.333 -26.5 67s-44.667 25 -81 25s-77.833 -12.333 -124.5 -37c-8.66699 8 -16.667 19 -24 33s-11.333 27.667 -12 41zM92 93c12.667 8 30.834 12 54.501 12s41.834 -4 54.501 -12c6 -10.667 9 -26 9 -46s-3 -34.667 -9 -44
c-12.667 -8 -30.834 -12 -54.501 -12s-41.834 4 -54.501 12c-5.33301 8.66699 -8 23.5 -8 44.5s2.66699 36.167 8 45.5z" />
    <glyph glyph-name="at" unicode="@" horiz-adv-x="945" 
d="M659 412l-0.998047 -256.001c0 -48 14.667 -72 44 -72s54 16.833 74 50.5s30 86.167 30 157.5c0 94 -28.833 169.5 -86.5 226.5s-135.834 85.5 -234.501 85.5s-179.334 -35.667 -242.001 -107s-94 -161.166 -94 -269.499s27.333 -191.833 82 -250.5s127.667 -88 219 -88
c76 0 144 12.333 204 37c18 -16.667 27 -39.667 27 -69c-78 -29.333 -156.667 -44 -236 -44c-118 0 -213 35.833 -285 107.5s-108 172.834 -108 303.501s41 238.667 123 324s185.5 128 310.5 128s225.667 -35.167 302 -105.5s114.5 -164.166 114.5 -281.499
c0 -86.667 -20 -154.834 -60 -204.501s-87.667 -74.5 -143 -74.5s-94.333 21 -117 63c-41.333 -44.667 -87.333 -67 -138 -67s-90.167 19.833 -118.5 59.5s-42.5 94.667 -42.5 165s18 129.666 54 177.999s86.5 72.5 151.5 72.5s121.833 -23 170.5 -69zM462.002 82.999
c17.333 0 35.6699 6 55.0029 18s35.666 27 48.999 45v232c-20.667 20.667 -47.834 31 -81.501 31s-59.834 -17 -78.501 -51s-28 -77 -28 -129c0 -97.333 28 -146 84 -146z" />
    <glyph glyph-name="A" unicode="A" horiz-adv-x="608" 
d="M429 169l-60.999 -1h-137l-61 1l-54 -170c-10.667 -2.66699 -24.5 -4 -41.5 -4s-33.833 2.33301 -50.5 7l-3 5l227 676c13.333 2.66699 32.666 4 57.999 4s43.666 -1.33301 54.999 -4l226 -677c-14.667 -8.66699 -32.167 -13 -52.5 -13s-34.666 3.66699 -42.999 11
s-15.833 21.333 -22.5 42zM196.001 250l53.002 1h103c1.33301 0 8.66602 -0.166992 21.999 -0.5s23 -0.5 29 -0.5l-49 155c-20 60.667 -37.333 120 -52 178h-6c-10.667 -48 -23.334 -94.333 -38.001 -139z" />
    <glyph glyph-name="B" unicode="B" horiz-adv-x="604" 
d="M316 -4l-216.999 3l-7 7v671l7 7l205 3c72 0 126.167 -15.833 162.5 -47.5s54.5 -76.167 54.5 -133.5c0 -31.333 -8.83301 -60 -26.5 -86s-40.834 -44.333 -69.501 -55c36 -10 66.333 -31 91 -63s37 -69 37 -111c0 -58 -19.5 -105 -58.5 -141s-98.5 -54 -178.5 -54z
M310.001 320l-119.002 0.000976562v-248c29.333 0.666992 64.333 1 105 1s70.334 3.83301 89.001 11.5s32.334 18.167 41.001 31.5c16 24.667 24 52.167 24 82.5s-10.833 58.166 -32.5 83.499s-57.5 38 -107.5 38zM190.999 610.001v-212h109c44 0 74.833 10.333 92.5 31
s26.5 45.667 26.5 75c0 70 -39 105 -117 105c-51.333 0 -88.333 0.333008 -111 1z" />
    <glyph glyph-name="C" unicode="C" horiz-adv-x="603" 
d="M464 451l0.000976562 23.5c0 13.667 -3.83301 31.667 -11.5 54s-22.834 42.166 -45.501 59.499s-51.334 26 -86.001 26c-54 0 -95 -23.333 -123 -70s-42 -113.5 -42 -200.5s15 -153.667 45 -200s72.667 -69.5 128 -69.5s114 25.667 176 77
c26.667 -17.333 43.334 -39 50.001 -65c-28.667 -29.333 -64.667 -53.166 -108 -71.499s-88.5 -27.5 -135.5 -27.5s-87.667 9.83301 -122 29.5s-61.5 46.167 -81.5 79.5c-38 66 -57 146.667 -57 242c0 118 25.667 207.167 77 267.5s114.333 90.5 189 90.5
s134.167 -19.333 178.5 -58s66.5 -84 66.5 -136c0 -38 -19 -57 -57 -57c-12 0 -25.667 2 -41 6z" />
    <glyph glyph-name="D" unicode="D" horiz-adv-x="646" 
d="M571 513c14.667 -48 21.998 -105.498 21.998 -172.498s-7.16699 -124.333 -21.5 -172s-42.166 -88.5 -83.499 -122.5c-20 -16.667 -46.5 -29.334 -79.5 -38.001s-63.833 -13 -92.5 -13s-101 1.33301 -217 4l-7 7v671l7 7c57.333 2 129.333 3 216 3
c29.333 0 60.5 -4.33301 93.5 -13s59.5 -21.334 79.5 -38.001c40.667 -34 68.334 -75 83.001 -123zM191.998 77.002l122 -1c29.333 0 54.833 5.5 76.5 16.5s38.667 24.833 51 41.5s22.166 37.334 29.499 62.001s12.166 48.167 14.499 70.5s3.5 47.166 3.5 74.499
s-1.16699 52.166 -3.5 74.499s-7.16602 45.833 -14.499 70.5s-17.166 45.334 -29.499 62.001s-29.333 30.5 -51 41.5s-47.167 16.5 -76.5 16.5l-122 1v-530z" />
    <glyph glyph-name="E" unicode="E" horiz-adv-x="565" 
d="M190 386l61.998 0.999023h192c3.33301 -15.333 5 -29.333 5 -42s-1.66699 -26.667 -5 -42h-192c-26 0 -46.667 0.333008 -62 1v-174c0 -5.33301 -0.166992 -13.166 -0.5 -23.499s-0.5 -18.5 -0.5 -24.5c18.667 2 40.334 3 65.001 3h262
c0 -17.333 -0.666992 -30.333 -2 -39c-6 -31.333 -27.333 -47 -64 -47h-301c-17.333 0 -31.166 5.5 -41.499 16.5s-15.5 26.167 -15.5 45.5v616l6 6h399c2 -10 3 -23.167 3 -39.5s-2.33301 -31.5 -7 -45.5h-241c-26.667 0 -47.667 0.333008 -63 1l1 -65v-148z" />
    <glyph glyph-name="F" unicode="F" horiz-adv-x="520" 
d="M191 598l1 -122v-91c10.667 0.666992 25.667 1 45 1h202c3.33301 -14.667 5 -28.5 5 -41.5s-1.66699 -27.167 -5 -42.5h-202c-19.333 0 -34.333 0.333008 -45 1v-303c-13.333 -2.66699 -30 -4 -50 -4s-36.667 1.33301 -50 4v677l7 6h392c4 -12 6 -25.333 6 -40
c0 -30.667 -19 -46 -57 -46h-150c-47.333 0 -80.333 0.333008 -99 1z" />
    <glyph glyph-name="G" unicode="G" horiz-adv-x="642" 
d="M351 356l153.999 0.00195312c26 0 44.5 -5.5 55.5 -16.5s16.5 -27.5 16.5 -49.5v-260c-74.667 -28.667 -156.334 -43 -245.001 -43c-50 0 -93.667 9.5 -131 28.5s-66.333 45.167 -87 78.5c-42 65.333 -63 146.333 -63 243c0 61.333 8.33301 115.666 25 162.999
s39.334 84.666 68.001 111.999c56.667 56 123.334 84 200.001 84c91.333 0 168.666 -24.667 231.999 -74c-5.33301 -31.333 -22 -56.333 -50 -75c-54 42 -115 63 -183 63c-56 0 -101.333 -22 -136 -66s-52 -113.333 -52 -208c0 -176.667 65 -265 195 -265
c46.667 0 90.334 6 131.001 18v117c0 29.333 0.333008 50.333 1 63h-92c-31.333 0 -47 15 -47 45c0 12 2.66699 26 8 42z" />
    <glyph glyph-name="H" unicode="H" horiz-adv-x="673" 
d="M482 395l-0.999023 74v214c12.667 2.66699 29.167 4 49.5 4s37.166 -1.33301 50.499 -4v-683c-14 -2.66699 -30.833 -4 -50.5 -4s-36.167 1.33301 -49.5 4v237l1 74l-58 -1h-175l-58 1l1 -74v-237c-13.333 -2.66699 -30 -4 -50 -4s-36.667 1.33301 -50 4v683
c13.333 2.66699 30 4 50 4s36.667 -1.33301 50 -4v-214l-1 -74l58 1h175z" />
    <glyph glyph-name="I" unicode="I" horiz-adv-x="292" 
d="M96 0v683c12.667 2.66699 29.167 4 49.5 4s37.166 -1.33301 50.499 -4v-683c-13.333 -2.66699 -30.166 -4 -50.499 -4s-36.833 1.33301 -49.5 4z" />
    <glyph glyph-name="J" unicode="J" horiz-adv-x="446" 
d="M48 107c36.667 -22 74.1689 -33 112.502 -33s65.5 12.167 81.5 36.5s24 64.833 24 121.5v451c13.333 2.66699 30.166 4 50.499 4s36.833 -1.33301 49.5 -4v-436c0 -40 -2.5 -74.167 -7.5 -102.5s-14.5 -54.833 -28.5 -79.5c-28.667 -50 -83.667 -75 -165 -75
c-58.667 0 -110.334 14 -155.001 42c5.33301 28.667 18 53.667 38 75z" />
    <glyph glyph-name="K" unicode="K" horiz-adv-x="594" 
d="M576 26c-14 -21.333 -36.6699 -32 -68.0029 -32c-18.667 0 -32.667 4.66699 -42 14s-17.666 25.333 -24.999 48l-56 149c-14.667 38.667 -31 65.834 -49 81.501s-42.333 23.5 -73 23.5c-14 0 -37.667 -1 -71 -3v-307c-13.333 -2.66699 -30 -4 -50 -4
s-36.667 1.33301 -50 4v683c13.333 2.66699 30 4 50 4s36.667 -1.33301 50 -4v-289l60 1c14.667 0 27 9.33301 37 28l133 221c8 15.333 16.167 26.166 24.5 32.499s21 9.5 38 9.5s35.5 -1 55.5 -3l6 -9l-155 -260c-12 -20 -24.667 -35.667 -38 -47
c32 -5.33301 56.833 -17.833 74.5 -37.5s33.834 -48.5 48.501 -86.5l56 -147c12.667 -32.667 27.334 -56 44.001 -70z" />
    <glyph glyph-name="L" unicode="L" horiz-adv-x="511" 
d="M280 86h202.001c0 -18 -0.666992 -31.333 -2 -40c-6 -31.333 -27.667 -47 -65 -47h-265c-17.333 0 -31.333 5.5 -42 16.5s-16 26.5 -16 46.5v619l6 6h39c20 0 34.167 -5 42.5 -15s12.5 -26.333 12.5 -49v-540c31.333 2 60.666 3 87.999 3z" />
    <glyph glyph-name="M" unicode="M" horiz-adv-x="804" 
d="M76 1l53.001 682.001c15.333 2.66699 37.333 4 66 4s50.334 -1.33301 65.001 -4l100 -322c5.33301 -15.333 12.666 -42 21.999 -80s15 -63.333 17 -76h6c6.66699 42 20 94 40 156l99 322c16.667 2.66699 38.667 4 66 4s49 -1.33301 65 -4l53 -682
c-14 -4 -30.167 -6 -48.5 -6s-33.833 1.33301 -46.5 4l-25 377c-4.66699 75.333 -7.33398 142 -8.00098 200h-6l-141 -471c-14 -2.66699 -31.167 -4 -51.5 -4s-36.833 1.33301 -49.5 4l-142 471h-6c-4 -114.667 -6.66699 -181.334 -8 -200.001l-24 -377
c-13.333 -2.66699 -29.333 -4 -48 -4s-34.667 2 -48 6z" />
    <glyph glyph-name="N" unicode="N" horiz-adv-x="678" 
d="M181 565l-3.99902 0.000976562c5.33301 -90.667 8 -170.334 8 -239.001v-326c-15.333 -2.66699 -30.833 -4 -46.5 -4s-31.167 1.33301 -46.5 4v682c18.667 3.33301 39.167 5 61.5 5s41.833 -1.33301 58.5 -4l218 -427c10 -19.333 22.667 -45.833 38 -79.5
s25.333 -54.834 30 -63.501v-1l3 1c-5.33301 84 -8 166.333 -8 247v264c0 22.667 3.83301 38.834 11.5 48.501s21.834 14.5 42.501 14.5h32l7 -5v-681c-18.667 -3.33301 -39.334 -5 -62.001 -5s-42.334 1.33301 -59.001 4l-219 427c-20 39.333 -41.667 85.333 -65 138z" />
    <glyph glyph-name="O" unicode="O" horiz-adv-x="657" 
d="M156 342c0 -34.667 2.50098 -66.6699 7.50098 -96.0029s13.333 -58.166 25 -86.499s29.334 -50.666 53.001 -66.999s50.834 -24.5 81.501 -24.5s56.5 5.66699 77.5 17s37.667 25.833 50 43.5s22.166 38.834 29.499 63.501c13.333 42.667 20 87 20 133
s-2.33301 83.5 -7 112.5s-12.834 57.667 -24.501 86s-29.5 50.666 -53.5 66.999s-53 24.5 -87 24.5s-62.833 -8.16699 -86.5 -24.5s-41.334 -38.666 -53.001 -66.999s-20 -57 -25 -86s-7.5 -60.833 -7.5 -95.5zM157.001 46.9971c-70.667 61.333 -106 159.5 -106 294.5
s35.333 233.167 106 294.5c45.333 40 102.333 60 171 60s125.667 -20 171 -60c71.333 -61.333 107 -159.5 107 -294.5s-35.667 -233.167 -107 -294.5c-45.333 -40 -102.333 -60 -171 -60s-125.667 20 -171 60z" />
    <glyph glyph-name="P" unicode="P" horiz-adv-x="565" 
d="M99 684l202 3c68.667 0 123.834 -19 165.501 -57s62.5 -92.5 62.5 -163.5s-20.833 -125.667 -62.5 -164s-96.834 -57.5 -165.501 -57.5h-109v-245c-13.333 -2.66699 -30 -4 -50 -4s-36.667 1.33301 -50 4v677zM192 324l107 1.00195c32 0 57.833 7.83301 77.5 23.5
s32.5 33.167 38.5 52.5s9 44.666 9 75.999s-9.33301 60.666 -28 87.999s-51.667 41 -99 41s-82.333 0.333008 -105 1v-283z" />
    <glyph glyph-name="Q" unicode="Q" horiz-adv-x="650" 
d="M455 -100l-115 88.001c-2.66699 -0.666992 -6.33398 -1 -11.001 -1c-71.333 0 -129.666 19.333 -174.999 58c-68.667 60.667 -103 159.5 -103 296.5s34.333 235.833 103 296.5c44 38.667 100.833 58 170.5 58s126.5 -19.333 170.5 -58
c68.667 -60.667 103 -157.834 103 -291.501s-30.667 -229.5 -92 -287.5c-18.667 -18.667 -38 -32 -58 -40l22 -15c51.333 -37.333 93.666 -56.333 126.999 -57c-1.33301 -23.333 -8.66602 -41.333 -21.999 -54s-31 -19 -53 -19s-44.333 8.66699 -67 26zM325 615.001
c-113.333 0 -170 -90.833 -170 -272.5s56.667 -272.5 170 -272.5c112 0 168 90.833 168 272.5s-56 272.5 -168 272.5z" />
    <glyph glyph-name="R" unicode="R" horiz-adv-x="599" 
d="M99 684l211.999 3.00098c70 0 125 -17.833 165 -53.5s60 -85.834 60 -150.501c0 -44.667 -12 -83 -36 -115s-55 -54.333 -93 -67c30 -10.667 53.333 -38.667 70 -84l46 -121c13.333 -35.333 28 -59.333 44 -72c-13.333 -20.667 -35.666 -31 -66.999 -31
c-18 0 -31.667 4.83301 -41 14.5s-18 25.5 -26 47.5l-52 139c-10 27.333 -22.5 48 -37.5 62s-36.833 21 -65.5 21h-86v-277c-13.333 -2.66699 -30 -4 -50 -4s-36.667 1.33301 -50 4v677zM191.999 608.001l-0.000976562 -250.999c39.333 2 79.833 3 121.5 3
s71.834 11.667 90.501 35s28 52.666 28 87.999c0 82.667 -41.667 124 -125 124c-54 0 -92.333 0.333008 -115 1z" />
    <glyph glyph-name="S" unicode="S" horiz-adv-x="556" 
d="M32 62c3.33301 32 17.665 57.667 42.998 77c69.333 -45.333 136.333 -68 201 -68c40.667 0 73 9.16699 97 27.5s36 42.166 36 71.499c0 46 -31.667 83 -95 111l-117 50c-91.333 40 -137 97.667 -137 173c0 54.667 20.833 100.334 62.5 137.001s96.834 55 165.501 55
s137 -17 205 -51c-1.33301 -32 -13.666 -58.333 -36.999 -79c-62.667 31.333 -116 47 -160 47s-77.333 -9.16699 -100 -27.5s-34 -40 -34 -65s7.33301 -44.833 22 -59.5s36 -28 64 -40l116 -49c99.333 -44 149 -106 149 -186c0 -59.333 -20.667 -107.333 -62 -144
s-103.5 -55 -186.5 -55s-160.5 25 -232.5 75z" />
    <glyph glyph-name="T" unicode="T" horiz-adv-x="490" 
d="M295 600l1 -74.001v-526c-14 -2.66699 -30.833 -4 -50.5 -4s-36.167 1.33301 -49.5 4v600l-57 -1h-121c-2.66699 12.667 -4 26.5 -4 41.5s1.33301 29.167 4 42.5h455c4 -11.333 6 -24.666 6 -39.999c0 -29.333 -18.667 -44 -56 -44h-70l-57 1h-1z" />
    <glyph glyph-name="U" unicode="U" horiz-adv-x="668" 
d="M584 683l0.000976562 -445c0 -80.667 -22.5 -142.667 -67.5 -186s-105.833 -65 -182.5 -65s-137.5 21.667 -182.5 65s-67.5 105.333 -67.5 186v443l6 6h38c20.667 0 35.167 -5 43.5 -15s12.5 -26.333 12.5 -49v-384c0 -56 12.667 -98.5 38 -127.5
s62.666 -43.5 111.999 -43.5s86.833 14.5 112.5 43.5s38.5 71.5 38.5 127.5v444c12.667 2.66699 29.167 4 49.5 4s36.833 -1.33301 49.5 -4z" />
    <glyph glyph-name="V" unicode="V" horiz-adv-x="571" 
d="M298 91l162 592c11.333 2.66699 25.833 4 43.5 4s32.834 -2 45.501 -6l4 -7l-200 -675c-32 -2.66699 -57.333 -4 -76 -4s-33.5 3.16699 -44.5 9.5s-19.167 19.5 -24.5 39.5l-186 630c22.667 10.667 43 16 61 16c27.333 0 45.666 -16.333 54.999 -49l107 -370
c6 -20 20.667 -77 44 -171c1.33301 -6 4.33301 -9 9 -9z" />
    <glyph glyph-name="W" unicode="W" horiz-adv-x="844" 
d="M158 46l-126 632.001c16.667 8 34.167 12 52.5 12s31.5 -4 39.5 -12s13.667 -22 17 -42l65 -349l33 -193c0.666992 -5.33301 1.5 -8.5 2.5 -9.5s2.83301 -1.5 5.5 -1.5l113 586c16.667 2.66699 38.834 4 66.501 4s48.5 -1.33301 62.5 -4l103 -575
c0.666992 -5.33301 1.66699 -8.5 3 -9.5s3.33301 -1.5 6 -1.5c8.66699 57.333 20.667 125.666 36 204.999l80 395c11.333 2.66699 26 4 44 4s34.333 -2 49 -6l5 -7l-145 -673c-24 -4 -49.333 -6 -76 -6s-45 3.33301 -55 10s-17 20 -21 40l-49 274
c-12 62.667 -26 145.667 -42 249h-7c-16 -94.667 -31 -177.667 -45 -249l-64 -319c-26.667 -3.33301 -55.334 -5 -86.001 -5c-38 0 -60.333 17 -67 51z" />
    <glyph glyph-name="X" unicode="X" horiz-adv-x="584" 
d="M447 683c8.66699 3.33301 23.0029 5 43.0029 5s36.667 -3 50 -9l3 -7l-192 -311l214 -346c-20.667 -14.667 -43.334 -22 -68.001 -22s-45.334 13.333 -62.001 40l-150 243l-167 -276c-10 -3.33301 -24.833 -5 -44.5 -5s-36.834 3 -51.501 9l-3 7l216 347l-191 310
c20.667 14.667 43.167 22 67.5 22s44.833 -13.333 61.5 -40l128 -208z" />
    <glyph glyph-name="Y" unicode="Y" horiz-adv-x="498" 
d="M301 447l92.999 235.999c11.333 3.33301 25.166 5 41.499 5s32.833 -2.33301 49.5 -7l5 -7l-190 -454v-220c-13.333 -2.66699 -30.166 -4 -50.499 -4s-36.833 1.33301 -49.5 4v222l-190 450c21.333 12 40.5 18 57.5 18s29.667 -3.5 38 -10.5s15.5 -18.167 21.5 -33.5
l83 -201c10.667 -26.667 24.667 -67.667 42 -123h5c10.667 36.667 25.334 78.334 44.001 125.001z" />
    <glyph glyph-name="Z" unicode="Z" horiz-adv-x="560" 
d="M62 108l257 387.998c19.333 28.667 45.333 64.334 78 107.001l-3 3c-27.333 -5.33301 -79.333 -8 -156 -8h-163c-2.66699 10.667 -4 23.5 -4 38.5s2.33301 30.5 7 46.5h409c10 -34 15 -56.667 15 -68s-4.66699 -24 -14 -38l-255 -384c-24 -36.667 -50 -73 -78 -109l3 -3
c42 4 81 6 117 6h110c52.667 0 92 6 118 18c5.33301 -14.667 8 -31 8 -49c0 -37.333 -23.333 -56 -70 -56h-379c-8.66699 32 -13 54.333 -13 67s4.33301 26.334 13 41.001z" />
    <glyph glyph-name="bracketleft" unicode="[" horiz-adv-x="337" 
d="M303 -140l-197 -8l-7 7v948l7 7l197 -8c2.66699 -7.33301 4 -16.833 4 -28.5s-2.66699 -25.5 -8 -41.5l-102 -3v-800l102 -2c5.33301 -18 8 -32.333 8 -43s-1.33301 -20 -4 -28z" />
    <glyph glyph-name="backslash" unicode="\" horiz-adv-x="419" 
d="M327 -110l-316 839.001c24.667 19.333 52.667 29.666 84 30.999l316 -838c-23.333 -18 -51.333 -28.667 -84 -32z" />
    <glyph glyph-name="bracketright" unicode="]" horiz-adv-x="337" 
d="M231 -148l-197 8c-2 6 -3 16 -3 30s2.66699 27.667 8 41l102 2v800l-102 3c-5.33301 12 -8 25.333 -8 40s1 24.667 3 30l197 8l7 -7v-948z" />
    <glyph glyph-name="asciicircum" unicode="^" horiz-adv-x="530" 
d="M317 648l167 -342c-10.667 -3.33301 -26.167 -5 -46.5 -5s-36.833 1.66699 -49.5 5l-86 183c-4 8 -15.333 35 -34 81h-6c-18.667 -46 -30 -73 -34 -81l-86 -183c-12.667 -3.33301 -29.167 -5 -49.5 -5s-35.833 1.66699 -46.5 5l167 342c12 2.66699 29.167 4 51.5 4
s39.833 -1.33301 52.5 -4z" />
    <glyph glyph-name="underscore" unicode="_" horiz-adv-x="525" 
d="M526 -152h-526c-2.66699 10 -4 22.5 -4 37.5s1.33301 27.833 4 38.5h526c2.66699 -16 4 -29 4 -39s-1.33301 -22.333 -4 -37z" />
    <glyph glyph-name="grave" unicode="`" 
d="M135 735l142 -158.001c-7.33301 -19.333 -21.666 -32.666 -42.999 -39.999l-169 133c5.33301 14 14.666 27.167 27.999 39.5s27.333 20.833 42 25.5z" />
    <glyph glyph-name="a" unicode="a" horiz-adv-x="506" 
d="M458 43c-6.66699 -23.333 -19.332 -39.999 -37.999 -49.999c-36.667 7.33301 -62 28.666 -76 63.999c-48 -46.667 -97 -70 -147 -70s-87.833 14.667 -113.5 44s-38.5 63.666 -38.5 102.999c0 54.667 17.5 95.834 52.5 123.501s81.167 41.5 138.5 41.5
c34 0 67 -2.33301 99 -7v41c0 60.667 -28 91 -84 91c-43.333 0 -96.333 -13 -159 -39c-18 18 -27.667 42 -29 72c70 30.667 138.333 46 205 46c51.333 0 91.166 -14 119.499 -42s42.5 -69.667 42.5 -125v-205c0 -42.667 9.33301 -72 28 -88zM212.002 65.001
c44.667 0 85.667 21.667 123 65v96c-26 3.33301 -56 5 -90 5s-59.667 -8 -77 -24s-26 -36.667 -26 -62s6.16699 -45 18.5 -59s29.5 -21 51.5 -21z" />
    <glyph glyph-name="b" unicode="b" horiz-adv-x="527" 
d="M437 433c30 -45.333 45.001 -107.667 45.001 -187s-21 -141.5 -63 -186.5s-94.333 -67.5 -157 -67.5s-123.334 11 -182.001 33v704l7 6h35c20 0 33.833 -4.66699 41.5 -14s11.5 -25.333 11.5 -48v-225c40.667 35.333 87 53 139 53s93 -22.667 123 -68zM289.001 419.999
c-44 0 -81.998 -20.001 -113.998 -60.001v-282c25.333 -8.66699 55.166 -13 89.499 -13s62.666 16 84.999 48s33.5 77.333 33.5 136s-8.66699 101.834 -26 129.501s-40 41.5 -68 41.5z" />
    <glyph glyph-name="c" unicode="c" horiz-adv-x="471" 
d="M343 306l-0.000976562 9.99902c0 76.667 -30.667 115 -92 115c-33.333 0 -59.166 -16 -77.499 -48s-27.5 -78.667 -27.5 -140c0 -117.333 38.667 -176 116 -176c35.333 0 76.333 17.333 123 52c9.33301 -5.33301 18 -13.666 26 -24.999s13.333 -22.333 16 -33
c-49.333 -49.333 -108.333 -74 -177 -74s-119.834 24.333 -153.501 73s-50.5 113 -50.5 193s20 142.167 60 186.5s88.667 66.5 146 66.5s101.833 -15.5 133.5 -46.5s47.5 -65 47.5 -102s-16.667 -55.5 -50 -55.5c-15.333 0 -28.666 1.33301 -39.999 4z" />
    <glyph glyph-name="d" unicode="d" horiz-adv-x="529" 
d="M90 56c-29.333 46 -44 109.167 -44 189.5s18.833 143 56.5 188s82.167 67.5 133.5 67.5c37.333 0 76 -11.333 116 -34v262l6 6h37c20 0 33.667 -4.83301 41 -14.5s11 -25.5 11 -47.5v-533c0 -48 9.33301 -80.333 28 -97c-6.66699 -23.333 -19.334 -40 -38.001 -50
c-36 7.33301 -60.667 28.333 -74 63c-40 -46 -88.167 -69 -144.5 -69s-99.166 23 -128.499 69zM238 68c44 0 82 22.001 114 66.001v251c-37.333 25.333 -71.5 38 -102.5 38s-56.333 -15.5 -76 -46.5s-29.5 -75.833 -29.5 -134.5s8.83301 -102.334 26.5 -131.001
s40.167 -43 67.5 -43z" />
    <glyph glyph-name="e" unicode="e" horiz-adv-x="501" 
d="M443 216l-296.999 -0.000976562c2 -47.333 12 -84 30 -110s48 -39 90 -39s88.333 13 139 39c16.667 -16 27 -37 31 -63c-53.333 -37.333 -115.833 -56 -187.5 -56s-123.334 24 -155.001 72s-47.5 110.5 -47.5 187.5s17.833 139.5 53.5 187.5s85.667 72 150 72
s113.833 -20.167 148.5 -60.5s52 -91.5 52 -153.5c0 -25.333 -2.33301 -50.666 -7 -75.999zM330.501 396.499c-17 25 -42.5 37.501 -76.5 37.501s-60 -12.833 -78 -38.5s-28 -61.834 -30 -108.501h210v13c0 39.333 -8.5 71.5 -25.5 96.5z" />
    <glyph glyph-name="f" unicode="f" horiz-adv-x="331" 
d="M102 0l0.000976562 422.998l-86 -1c-2.66699 14.667 -4 26.334 -4 35.001s1.33301 21 4 37l82 -1c-4.66699 37.333 -7 68.333 -7 93c0 44.667 13.5 81.334 40.5 110.001s63.5 43 109.5 43s88.333 -7.66699 127 -23c0 -27.333 -7.33301 -49 -22 -65c-34 10 -63 15 -87 15
s-42.667 -7.5 -56 -22.5s-20 -35.667 -20 -62s2.66699 -56.166 8 -89.499l142 2c2.66699 -16 4 -28.333 4 -37s-1.33301 -20.334 -4 -35.001l-136 1v-423c-12.667 -2.66699 -28.334 -4 -47.001 -4s-34.667 1.33301 -48 4z" />
    <glyph glyph-name="g" unicode="g" horiz-adv-x="527" 
d="M90.5 59.5c-29.667 45.667 -44.5029 108.998 -44.5029 189.998s18.833 144 56.5 189s82.334 67.5 134.001 67.5s97.5 -17.667 137.5 -53c14 24.667 35.333 40.334 64 47.001c18.667 -10 31.334 -26.667 38.001 -50c-18.667 -16.667 -28 -49 -28 -97v-300
c0 -100.667 -15.667 -170 -47 -208c-35.333 -43.333 -89.666 -65 -162.999 -65c-59.333 0 -116.333 11 -171 33c0 30 8.66699 54.667 26 74c44 -21.333 89.667 -32 137 -32s80 12.833 98 38.5s27 60.834 27 105.501v49c-40.667 -38 -87.5 -57 -140.5 -57
s-94.333 22.833 -124 68.5zM354.997 135.998l0.00195312 244c-34.667 31.333 -68.667 47 -102 47s-59.833 -15.333 -79.5 -46s-29.5 -75.5 -29.5 -134.5s8.66699 -102.667 26 -131s39.666 -42.5 66.999 -42.5c45.333 0 84.666 21 117.999 63z" />
    <glyph glyph-name="h" unicode="h" horiz-adv-x="544" 
d="M468 339l-0.000976562 -235.999c0 -38.667 5.33301 -68.334 16 -89.001c-17.333 -14 -37.666 -21 -60.999 -21c-34 0 -51 20.667 -51 62v259c0 36 -4.66699 61.667 -14 77s-25.5 23 -48.5 23s-46.667 -6 -71 -18s-45.5 -27.667 -63.5 -47v-349
c-11.333 -2.66699 -26.833 -4 -46.5 -4s-35.834 1.33301 -48.501 4v729l7 6h36c20 0 33.667 -4.83301 41 -14.5s11 -25.5 11 -47.5v-239c49.333 44.667 103 67 161 67c44.667 0 77.834 -15 99.501 -45s32.5 -69 32.5 -117z" />
    <glyph glyph-name="i" unicode="i" horiz-adv-x="268" 
d="M189 411v-411c-11.333 -2.66699 -27.333 -4 -48 -4s-36.667 1.33301 -48 4v371c0 18 -3.16699 31 -9.5 39s-17.5 12 -33.5 12h-11c-2.66699 10 -4 21.333 -4 34s1.33301 24.667 4 36c21.333 2.66699 41.333 4 60 4h13c24 0 42.833 -7.5 56.5 -22.5
s20.5 -35.833 20.5 -62.5zM62 630c0 16.667 2.66602 31 7.99902 43c14 8 32.333 12 55 12s39.667 -4 51 -12c5.33301 -12 8 -26.333 8 -43s-2.66699 -31 -8 -43c-11.333 -8 -28.666 -12 -51.999 -12s-41.333 4 -54 12c-5.33301 12 -8 26.333 -8 43z" />
    <glyph glyph-name="j" unicode="j" horiz-adv-x="275" 
d="M196 411l0.000976562 -393.999c0 -57.333 -3 -98.166 -9 -122.499s-13.667 -42.5 -23 -54.5c-22.667 -26.667 -58.334 -46.334 -107.001 -59.001c-15.333 14 -25 34 -29 60c28 14 47 29.667 57 47s15 42.666 15 75.999v407c0 18.667 -3.16699 31.834 -9.5 39.501
s-17.5 11.5 -33.5 11.5h-20c-2.66699 14.667 -4 25.667 -4 33s1.33301 19.666 4 36.999c24 2.66699 47.667 4 71 4h12c23.333 0 41.833 -7.5 55.5 -22.5s20.5 -35.833 20.5 -62.5zM68.001 630.001c0 16.667 2.66602 31 7.99902 43c14 8 32.333 12 55 12s39.667 -4 51 -12
c5.33301 -12 8 -26.333 8 -43s-2.66699 -31 -8 -43c-11.333 -8 -28.666 -12 -51.999 -12s-41.333 4 -54 12c-5.33301 12 -8 26.333 -8 43z" />
    <glyph glyph-name="k" unicode="k" horiz-adv-x="499" 
d="M398 185l35.0029 -84.002c16 -40 32 -66 48 -78c-16 -20 -37.667 -30 -65 -30c-16.667 0 -29.167 4.33301 -37.5 13s-16.833 23.334 -25.5 44.001l-42 99c-11.333 26.667 -22.833 44.667 -34.5 54s-27.334 14 -47.001 14s-37.834 -1 -54.501 -3v-214
c-11.333 -2.66699 -26.833 -4 -46.5 -4s-35.834 1.33301 -48.501 4v729l7 6h36c20 0 33.667 -4.83301 41 -14.5s11 -25.5 11 -47.5v-378l36 2c8.66699 0 16.667 5 24 15l92 142c8.66699 14.667 17.667 25.334 27 32.001s23.5 10 42.5 10s34.5 -0.333008 46.5 -1l6 -8
l-113 -176c-8.66699 -14 -19 -26 -31 -36c40.667 -10.667 71.667 -40.667 93 -90z" />
    <glyph glyph-name="l" unicode="l" horiz-adv-x="291" 
d="M212 73h39.001c5.33301 -14.667 8 -28 8 -40s-0.666992 -22 -2 -30c-26.667 -4.66699 -54.334 -7 -83.001 -7c-63.333 0 -95 32.667 -95 98v635l6 6h36c20 0 33.667 -4.66699 41 -14s11 -25.333 11 -48v-556c0 -29.333 13 -44 39 -44z" />
    <glyph glyph-name="m" unicode="m" horiz-adv-x="796" 
d="M352 315c0 35.333 -5.00098 60.667 -15.001 76s-25.667 23 -47 23c-38 0 -75.667 -21.333 -113 -64v-350c-11.333 -2.66699 -27.166 -4 -47.499 -4s-36.833 1.33301 -49.5 4v490l7 7h36c34 0 52 -21 54 -63c44 45.333 92.333 68 145 68s89.667 -24.667 111 -74
c52.667 49.333 106 74 160 74c41.333 0 72.833 -14.667 94.5 -44s32.5 -66.666 32.5 -111.999v-243c0 -38.667 5.33301 -68.334 16 -89.001c-16 -14 -36.333 -21 -61 -21c-34 0 -51 20.667 -51 62v261c0 35.333 -5 60.5 -15 75.5s-25.667 22.5 -47 22.5
c-39.333 0 -77.333 -21.667 -114 -65v-349c-11.333 -2.66699 -27.333 -4 -48 -4s-36.667 1.33301 -48 4v315z" />
    <glyph glyph-name="n" unicode="n" horiz-adv-x="546" 
d="M470 340l-0.00195312 -237c0 -40 5 -69.667 15 -89c-16.667 -14 -36.667 -21 -60 -21c-34.667 0 -52 20.667 -52 62v260c0 36 -4.5 61.5 -13.5 76.5s-25 22.5 -48 22.5s-46.667 -6 -71 -18s-45.5 -27.667 -63.5 -47v-349c-11.333 -2.66699 -27.166 -4 -47.499 -4
s-36.833 1.33301 -49.5 4v491l7 6h36c34 0 52 -21 54 -63c50 45.333 103.667 68 161 68c44.667 0 77.834 -15 99.501 -45s32.5 -69 32.5 -117z" />
    <glyph glyph-name="o" unicode="o" horiz-adv-x="520" 
d="M404 451c46.667 -47.333 70 -115.5 70 -204.5s-23.333 -157.167 -70 -204.5c-36.667 -36.667 -84.667 -55 -144 -55s-107.333 18.333 -144 55c-46.667 47.333 -70 115.5 -70 204.5s23.333 157.167 70 204.5c36.667 36.667 84.667 55 144 55s107.333 -18.333 144 -55z
M146 246c0 -122.667 38 -184 114 -184s114 61.333 114 184c0 34.667 -3.16699 65 -9.5 91s-18.333 48.333 -36 67s-40.5 28 -68.5 28s-50.833 -9.33301 -68.5 -28s-29.667 -41 -36 -67s-9.5 -56.333 -9.5 -91z" />
    <glyph glyph-name="p" unicode="p" horiz-adv-x="529" 
d="M439 437c29.333 -46 44.002 -109.333 44.002 -190s-18.833 -143.5 -56.5 -188.5s-82.167 -67.5 -133.5 -67.5c-40 0 -79.333 11.667 -118 35v-179c0 -22 -3.66699 -37.833 -11 -47.5s-21 -14.5 -41 -14.5h-36l-7 6v700l7 6h30c32 0 50.667 -17.333 56 -52
c39.333 40.667 86.166 61 140.499 61s96.166 -23 125.499 -69zM291.002 424c-46.667 0 -85.333 -23 -116 -69v-246c36.667 -26 71 -39 103 -39s57.833 15.5 77.5 46.5s29.5 75.833 29.5 134.5s-8.83301 102.167 -26.5 130.5s-40.167 42.5 -67.5 42.5z" />
    <glyph glyph-name="q" unicode="q" horiz-adv-x="528" 
d="M353 -153v199c-40.667 -36.667 -87.167 -55 -139.5 -55s-93.333 22.833 -123 68.5s-44.5 109 -44.5 190s18.833 144 56.5 189s82.5 67.5 134.5 67.5s97.333 -17 136 -51c15.333 23.333 37 38.333 65 45c17.333 -10 30 -26.667 38 -50c-18.667 -16 -28 -48.333 -28 -97
v-562l-7 -6h-36c-20 0 -33.667 4.83301 -41 14.5s-11 25.5 -11 47.5zM237 73c44 0 82.666 20 115.999 60v249c-34.667 30 -68.167 45 -100.5 45s-58.5 -15.5 -78.5 -46.5s-30 -75.667 -30 -134s8.83301 -101.833 26.5 -130.5s39.834 -43 66.501 -43z" />
    <glyph glyph-name="r" unicode="r" horiz-adv-x="365" 
d="M53 448c5.33301 22.667 17.334 40.001 36.001 52.001c44 -10.667 73 -40.334 87 -89.001c27.333 59.333 71 89 131 89c16 0 33.333 -2 52 -6c0 -36 -7.66699 -66.333 -23 -91c-4 0.666992 -17.333 2 -40 4c-46.667 0 -83.334 -26 -110.001 -78v-329
c-11.333 -2.66699 -27.5 -4 -48.5 -4s-37.167 1.33301 -48.5 4v346c0 45.333 -12 79.333 -36 102z" />
    <glyph glyph-name="s" unicode="s" horiz-adv-x="437" 
d="M32 37c0.666992 11.333 4.16406 23.6709 10.4971 37.0039s13.833 23.666 22.5 30.999c54.667 -30 98.834 -45 132.501 -45s58.834 6.16699 75.501 18.5s25.334 28.166 26.001 47.499c0 30.667 -21.667 54.334 -65 71.001l-56 22c-85.333 32 -128 79 -128 141
c0 44.667 16.5 80.167 49.5 106.5s76.333 39.5 130 39.5s105.834 -11.667 156.501 -35c0.666992 -12.667 -1.83301 -26 -7.5 -40s-12.834 -24.667 -21.501 -32c-48.667 21.333 -93 32 -133 32c-22.667 0 -41 -5.5 -55 -16.5s-21 -24.833 -21 -41.5
s5.16699 -29.834 15.5 -39.501s26.833 -18.834 49.5 -27.501l60 -22c84 -32.667 126 -82.667 126 -150c0 -44.667 -17.5 -80.334 -52.5 -107.001s-82.333 -40 -142 -40s-117.167 16.667 -172.5 50z" />
    <glyph glyph-name="t" unicode="t" horiz-adv-x="348" 
d="M318 494c2.66699 -11.333 4.00098 -23.5 4.00098 -36.5s-1.33301 -24.833 -4 -35.5l-125 1v-307c0 -28.667 13.667 -43 41 -43h70c5.33301 -12.667 8 -26.5 8 -41.5s-0.333008 -24.5 -1 -28.5c-38.667 -4.66699 -75.334 -7 -110.001 -7c-68 0 -102 32.667 -102 98v329
l-73 -1c-2.66699 10.667 -4 22.5 -4 35.5s1.33301 25.167 4 36.5l73 -1v91c0 22.667 3.66699 38.667 11 48s21 14 41 14h36l6 -6v-148z" />
    <glyph glyph-name="u" unicode="u" horiz-adv-x="547" 
d="M76 153v236.999c0 38.667 -5.33301 68.334 -16 89.001c15.333 13.333 34 20 56 20s36.833 -5 44.5 -15s11.5 -25.667 11.5 -47v-259c0 -36 4.66699 -61.667 14 -77s25.5 -23 48.5 -23s46.5 6 70.5 18s45.333 28 64 48v349c17.333 2.66699 33.333 4 48 4
s30.667 -1.33301 48 -4v-354c0 -48 9.33301 -80.333 28 -97c-6 -22 -18.333 -38.333 -37 -49c-40.667 8.66699 -67 33 -79 73c-50 -50 -106.667 -75 -170 -75c-44 0 -76.833 15 -98.5 45s-32.5 69 -32.5 117z" />
    <glyph glyph-name="v" unicode="v" horiz-adv-x="453" 
d="M235 79l121.003 414c8.66699 2.66699 21.667 4 39 4s33 -2.33301 47 -7l3 -4c-66 -212.667 -118.333 -374.667 -157 -486c-17.333 -3.33301 -38.333 -5 -63 -5s-41.834 3.5 -51.501 10.5s-18.167 21.833 -25.5 44.5l-141 436c20.667 9.33301 39.334 14 56.001 14
c27.333 0 44.666 -13.333 51.999 -40l70 -224c15.333 -48 28.666 -97.667 39.999 -149c1.33301 -5.33301 4.66602 -8 9.99902 -8z" />
    <glyph glyph-name="w" unicode="w" horiz-adv-x="718" 
d="M129 50l-104.001 437c19.333 8.66699 38.333 13 57 13c24.667 0 39.667 -13 45 -39l47 -213l33 -167c1.33301 -6 4 -9 8 -9l88 419c16.667 3.33301 36.334 5 59.001 5s41.667 -1.66699 57 -5l84 -410c1.33301 -6 4 -9 8 -9c3.33301 14 7.33301 32.667 12 56
c7.33301 36.667 16 76.667 26 120l55 245c10 2.66699 24.667 4 44 4s34.666 -2.33301 45.999 -7l3 -5l-122 -486c-16.667 -2.66699 -38.167 -4 -64.5 -4s-44.833 3.5 -55.5 10.5s-18 21.5 -22 43.5l-30 143l-40 210h-5c-6.66699 -37.333 -20.667 -107 -42 -209l-42 -193
c-24.667 -3.33301 -48.5 -5 -71.5 -5s-39.667 3.66699 -50 11s-18.166 22 -23.499 44z" />
    <glyph glyph-name="x" unicode="x" horiz-adv-x="458" 
d="M332 493c10.667 2.66699 24.6709 4 42.0039 4s32.333 -2.33301 45 -7l3 -7l-141 -221l162 -247c-24 -15.333 -46.333 -23 -67 -23s-37.334 10 -50.001 30l-104 159l-112 -182c-8 -2.66699 -21.833 -4 -41.5 -4s-35.834 2.66699 -48.501 8l-4 7l158 246l-145 223
c21.333 14.667 42.666 22 63.999 22s38.666 -9.66699 51.999 -29l89 -137z" />
    <glyph glyph-name="y" unicode="y" horiz-adv-x="464" 
d="M452 485l-134 -468.997c-24 -83.333 -51.333 -143.166 -82 -179.499s-76.667 -54.5 -138 -54.5c-32.667 0 -63.334 5 -92.001 15v9c0 22.667 7 43 21 61c21.333 -8 46.833 -12 76.5 -12s53.5 10.667 71.5 32s33.667 53.666 47 96.999l3 11
c-20.667 1.33301 -36.667 5.66602 -48 12.999s-20 20.666 -26 39.999l-133 438c20.667 9.33301 40 14 58 14c24.667 0 41.334 -14.333 50.001 -43l70 -235c4 -12.667 17 -62.334 39 -149.001c1.33301 -4.66699 4.33301 -7 9 -7l113 427c10.667 2.66699 25 4 43 4
s34 -2.33301 48 -7z" />
    <glyph glyph-name="z" unicode="z" horiz-adv-x="446" 
d="M52 93l168.002 230c27.333 35.333 53.666 67.666 78.999 96.999l-3 3c-36 -4 -80.333 -6 -133 -6h-109c-2 10.667 -3 21.834 -3 33.501s1.66699 25.834 5 42.501h333c10 -28 15 -47.167 15 -57.5s-4.33301 -21.833 -13 -34.5l-168 -227c-4 -6 -29.667 -38.667 -77 -98
l3 -4c29.333 2.66699 60.666 4 93.999 4h49c52 0 88.333 4.33301 109 13c6.66699 -14 10 -28.333 10 -43c0 -30.667 -21 -46 -63 -46h-298c-9.33301 27.333 -14 46.166 -14 56.499s5.33301 22.5 16 36.5z" />
    <glyph glyph-name="braceleft" unicode="{" horiz-adv-x="340" 
d="M313 817c12.667 -14 19 -31.999 19 -53.999c0 -5.33301 -0.666992 -10 -2 -14l-48 -15c-40 -12.667 -60 -42 -60 -88v-168c0 -32 -7.5 -61.833 -22.5 -89.5s-34.833 -47.5 -59.5 -59.5v-8c24.667 -12 44.5 -31.833 59.5 -59.5s22.5 -57.5 22.5 -89.5v-168
c0 -47.333 20 -76.666 60 -87.999l48 -16c1.33301 -4 2 -8.83301 2 -14.5s-1.5 -14 -4.5 -25s-7.83301 -20.167 -14.5 -27.5l-49 8c-42.667 7.33301 -76.667 24.666 -102 51.999s-38 64 -38 110v171c0 29.333 -7.66699 54.5 -23 75.5s-35 35.5 -59 43.5
c-2.66699 7.33301 -4 18 -4 32s1.33301 24.667 4 32c24 8 43.667 22.5 59 43.5s23 46.167 23 75.5v171c0 46 12.667 82.667 38 110s59.333 44.666 102 51.999z" />
    <glyph glyph-name="bar" unicode="|" horiz-adv-x="254" 
d="M81 -141l0.00195312 915c11.333 3.33301 26.333 5 45 5s34 -1.66699 46 -5v-915c-12.667 -2.66699 -27.834 -4 -45.501 -4s-32.834 1.33301 -45.501 4z" />
    <glyph glyph-name="braceright" unicode="}" horiz-adv-x="340" 
d="M27 -167c-12.667 14 -19 32.001 -19 54.001c0 4.66699 0.666992 9 2 13l48 16c40 11.333 60 40.666 60 87.999v168c0 32 7.5 61.833 22.5 89.5s34.833 47.5 59.5 59.5v8c-24.667 12 -44.5 31.833 -59.5 59.5s-22.5 57.5 -22.5 89.5v168c0 46 -20 75.333 -60 88l-48 15
c-1.33301 4 -2 9 -2 15s1.5 14.5 4.5 25.5s7.83301 20.167 14.5 27.5l50 -8c42 -7.33301 75.667 -24.833 101 -52.5s38 -64.167 38 -109.5v-171c0 -29.333 7.66699 -54.5 23 -75.5s35 -35.5 59 -43.5c2.66699 -7.33301 4 -18 4 -32s-1.33301 -24.667 -4 -32
c-24 -8 -43.667 -22.5 -59 -43.5s-23 -46.167 -23 -75.5v-171c0 -45.333 -12.667 -81.833 -38 -109.5s-59 -45.167 -101 -52.5z" />
    <glyph glyph-name="asciitilde" unicode="~" horiz-adv-x="580" 
d="M272 352l79 -34.999c18 -8 36.833 -12 56.5 -12s38.5 11 56.5 33l18 21c11.333 -1.33301 22.833 -5.33301 34.5 -12s19.5 -15.334 23.5 -26.001l-13 -22c-31.333 -57.333 -76.333 -86 -135 -86c-26 0 -54 7 -84 21l-79 35c-18 8 -36.833 12 -56.5 12s-38.5 -11 -56.5 -33
l-18 -21c-10.667 0.666992 -21.667 4.5 -33 11.5s-19.333 15.5 -24 25.5l12 23c30.667 56.667 75.667 85 135 85c28 0 56 -6.66699 84 -20z" />
    <glyph glyph-name="exclamdown" unicode="&#xa1;" horiz-adv-x="285" 
d="M182 300l11.001 -469c-25.333 -18.667 -60 -28 -104 -28l-6 7l24 490c10 3.33301 22.667 5 38 5s27.666 -1.66699 36.999 -5zM144.001 386c-22.667 0 -40.667 4.33301 -54 13c-6 9.33301 -9 24 -9 44s3 35.333 9 46c14 8 32 12 54 12s40.333 -4 55 -12
c5.33301 -9.33301 8 -24.5 8 -45.5s-2.66699 -35.833 -8 -44.5c-14 -8.66699 -32.333 -13 -55 -13z" />
    <glyph glyph-name="cent" unicode="&#xa2;" horiz-adv-x="469" 
d="M208 -31l0.00292969 100c-56.667 9.33301 -98.167 37.833 -124.5 85.5s-39.5 106.5 -39.5 176.5s15.667 126.833 47 170.5s71.333 70.5 120 80.5v99c9.33301 2 22.166 3 38.499 3s29.833 -1 40.5 -3v-98c44.667 -6.66699 79 -24.334 103 -53.001s36 -58.667 36 -90
c0 -38.667 -17 -58 -51 -58c-14.667 0 -27.334 1.33301 -38.001 4v12c0 28.667 -6.66699 54.5 -20 77.5s-37.333 34.5 -72 34.5c-68 0 -102 -60.5 -102 -181.5s38.333 -181.5 115 -181.5c39.333 0 79.666 17.667 120.999 53c21.333 -14 36 -32.333 44 -55
c-36 -41.333 -82.333 -66.666 -139 -75.999v-100c-7.33301 -1.33301 -20.833 -2 -40.5 -2s-32.5 0.666992 -38.5 2z" />
    <glyph glyph-name="sterling" unicode="&#xa3;" horiz-adv-x="528" 
d="M212 342l184.999 0.99707c3.33301 -12 5 -24.167 5 -36.5s-1.66699 -24.833 -5 -37.5c-75.333 0 -132 0.333008 -170 1v-7c0 -58 -22.667 -118.667 -68 -182l3 -3c60 3.33301 105 5 135 5h192c0 -15.333 -0.666992 -27.333 -2 -36c-4.66699 -32 -26 -48 -64 -48h-354
c-8.66699 32 -13 54.833 -13 68.5s4.33301 26.5 13 38.5l17 25c32.667 48.667 49 93.334 49 134.001v4h-76c-4 11.333 -6 23.333 -6 36s2 25.334 6 38.001c6 0 15.667 -0.166992 29 -0.5s23.333 -0.5 30 -0.5c-2 6 -6.33301 16.833 -13 32.5s-11.667 27.834 -15 36.501
c-8.66699 26 -13 50 -13 72c0 46.667 17 88 51 124s82.667 54 146 54c76.667 0 142.334 -24.333 197.001 -73c-1.33301 -13.333 -7 -26.5 -17 -39.5s-21.333 -21.5 -34 -25.5c-44 36.667 -90.333 55 -139 55c-30.667 0 -56 -8.83301 -76 -26.5s-30 -42.167 -30 -73.5
c0 -24 5.66699 -51.167 17 -81.5s18 -48.5 20 -54.5z" />
    <glyph glyph-name="currency" unicode="&#xa4;" horiz-adv-x="573" 
d="M104 213c-23.333 36 -35.002 76.833 -35.002 122.5s11.667 85.834 35 120.501l-71 77c10.667 20 28.667 38 54 54l77 -72c36.667 22.667 77.5 34 122.5 34s85.167 -11.333 120.5 -34l79 73c22 -12 39.667 -29.667 53 -53l-72 -79c24 -35.333 36 -75.833 36 -121.5
s-12 -86.167 -36 -121.5l72 -78c-11.333 -20.667 -29 -38.334 -53 -53.001l-79 72c-35.333 -22 -75.666 -33 -120.999 -33s-85.666 11 -120.999 33l-78 -72c-22 12.667 -40 30.667 -54 54zM199.498 434c-21.667 -27.333 -32.5 -60.501 -32.5 -99.501s10.833 -72 32.5 -99
s50.667 -40.5 87 -40.5s65.166 13.333 86.499 40s32 59.834 32 99.501s-10.667 73 -32 100s-50.166 40.5 -86.499 40.5s-65.333 -13.667 -87 -41z" />
    <glyph glyph-name="yen" unicode="&#xa5;" horiz-adv-x="512" 
d="M454 174l-151.001 -0.000976562v-174c-13.333 -2.66699 -29.5 -4 -48.5 -4s-34.833 1.33301 -47.5 4v174h-151c-3.33301 13.333 -5 24.166 -5 32.499s1.66699 19.833 5 34.5h146l-36 81h-110c-3.33301 14.667 -5 26 -5 34s1.66699 19.333 5 34h80l-111 249
c24.667 12.667 46.834 19 66.501 19s35.167 -12.667 46.5 -38l77 -188c11.333 -24.667 25 -62.334 41 -113.001h6c19.333 58 33.333 96 42 114l91 217c14 4 28 6 42 6s29.667 -2 47 -6l4 -6l-114 -254h80c2.66699 -11.333 4 -22.666 4 -33.999s-1.33301 -22.666 -4 -33.999
h-110l-37 -81h147c2.66699 -11.333 4 -22.666 4 -33.999s-1.33301 -22.333 -4 -33z" />
    <glyph glyph-name="brokenbar" unicode="&#xa6;" horiz-adv-x="248" 
d="M79 -141v387c10.667 3.33301 25.5 5 44.5 5s34.167 -1.66699 45.5 -5v-387c-12.667 -2.66699 -28 -4 -46 -4s-32.667 1.33301 -44 4zM79 387v387c10.667 3.33301 25.5 5 44.5 5s34.167 -1.66699 45.5 -5v-387c-12.667 -2.66699 -28 -4 -46 -4s-32.667 1.33301 -44 4z" />
    <glyph glyph-name="section" unicode="&#xa7;" horiz-adv-x="484" 
d="M410 401c28 -24.667 41.998 -54.998 41.998 -90.998c0 -64.667 -35.667 -116.334 -107 -155.001c46.667 -30.667 70 -68.667 70 -114s-17.167 -81.333 -51.5 -108s-81.333 -40 -141 -40s-111.5 14 -155.5 42c-0.666992 12 2.33301 25 9 39s14.334 24.333 23.001 31
c46.667 -24.667 91.334 -37 134.001 -37c25.333 0 45.666 5.66699 60.999 17s23 26.333 23 45c0 28 -21.667 50.333 -65 67l-59 24c-50.667 20 -90.167 42.333 -118.5 67s-42.5 57.334 -42.5 98.001c0 59.333 35.667 108.666 107 147.999c-46 30 -69 67.833 -69 113.5
s16.833 81.834 50.5 108.501s76.167 40 127.5 40s102.333 -11.667 153 -35c0.666992 -12.667 -1.66602 -25.834 -6.99902 -39.501s-12.333 -24.167 -21 -31.5c-46.667 20.667 -85.167 31 -115.5 31s-52.833 -5.66699 -67.5 -17s-22 -26.333 -22 -45
c0 -26.667 21.667 -49 65 -67l59 -23c50.667 -20.667 90 -43.334 118 -68.001zM250.998 383.002l-42.998 17.001c-52.667 -26 -79 -59.333 -79 -100c0 -21.333 9.16699 -39 27.5 -53s44.166 -27.667 77.499 -41l42 -16c53.333 24.667 80 57.667 80 99
c0 21.333 -9.33301 39.166 -28 53.499s-44.334 27.833 -77.001 40.5z" />
    <glyph glyph-name="dieresis" unicode="&#xa8;" 
d="M237 611c0 13.333 2.66699 25.999 8 37.999c11.333 7.33301 26.833 11 46.5 11s35.167 -3.66699 46.5 -11c4.66699 -12.667 7 -25.667 7 -39s-2.33301 -25.666 -7 -36.999c-12.667 -8 -28.5 -12 -47.5 -12s-34.167 4 -45.5 12c-5.33301 12 -8 24.667 -8 38zM53 610.999
c0 12.667 2.33301 25.332 7 37.999c11.333 7.33301 26.833 11 46.5 11s35.167 -3.66699 46.5 -11c5.33301 -12 8 -25 8 -39s-2.66699 -26.333 -8 -37c-11.333 -8 -26.5 -12 -45.5 -12s-34.833 4 -47.5 12c-4.66699 12.667 -7 25.334 -7 38.001z" />
    <glyph glyph-name="copyright" unicode="&#xa9;" horiz-adv-x="804" 
d="M41 341c0 102 34.666 187.667 103.999 257s154.833 104 256.5 104s187.334 -34.667 257.001 -104s104.5 -155 104.5 -257s-34.667 -187.5 -104 -256.5s-155 -103.5 -257 -103.5s-187.667 34.5 -257 103.5s-104 154.5 -104 256.5zM203.499 547.5
c-53 -56.333 -79.5 -125.001 -79.5 -206.001s26.5 -149.667 79.5 -206s119.167 -84.5 198.5 -84.5s145.5 28.167 198.5 84.5s79.5 124.833 79.5 205.5s-26.5 149.334 -79.5 206.001s-119.167 85 -198.5 85s-145.5 -28.167 -198.5 -84.5zM475.999 381.999l0.000976562 10
c0 21.333 -5.66699 40.833 -17 58.5s-30.666 26.5 -57.999 26.5s-48.666 -11.667 -63.999 -35s-23 -56.5 -23 -99.5s8.66699 -76 26 -99s42.166 -34.5 74.499 -34.5s65.166 13.667 98.499 41c17.333 -8.66699 29.333 -24.334 36 -47.001
c-17.333 -17.333 -39.833 -31.666 -67.5 -42.999s-54.834 -17 -81.501 -17c-54.667 0 -97 18.333 -127 55s-45 86 -45 148s17.5 110 52.5 144s76 51 123 51s83.667 -12.5 110 -37.5s39.5 -52.333 39.5 -82s-14.333 -44.5 -43 -44.5c-12.667 0 -24 1.66699 -34 5z" />
    <glyph glyph-name="ordfeminine" unicode="&#xaa;" horiz-adv-x="420" 
d="M374 341c-1.33301 -7.33301 -5.66797 -15.167 -13.001 -23.5s-15 -14.5 -23 -18.5c-28.667 4.66699 -49 20 -61 46c-38.667 -33.333 -77.5 -50 -116.5 -50s-68.833 11.333 -89.5 34s-31 49.667 -31 81c0 42.667 13.667 74.5 41 95.5s64 31.5 110 31.5
c16 0 41.333 -1.33301 76 -4v29c0 43.333 -20 65 -60 65c-38 0 -80.333 -9 -127 -27c-15.333 14.667 -23.666 34.667 -24.999 60c58.667 24 111 36 157 36c92 0 138 -43.667 138 -131v-154c0 -34 8 -57.333 24 -70zM174.998 359.999c32 0 62.667 15.334 92 46.001v69
c-32 2.66699 -57.667 4 -77 4s-35.333 -5.66699 -48 -17s-19 -25.833 -19 -43.5s4.66699 -31.834 14 -42.501s22 -16 38 -16z" />
    <glyph glyph-name="guillemotleft" unicode="&#xab;" horiz-adv-x="551" 
d="M509 419l-141 -162.001l146 -167c-4 -10.667 -11.333 -21.167 -22 -31.5s-21.667 -17.166 -33 -20.499l-197 186c-3.33301 8 -5 18.333 -5 31s1.66699 23 5 31l192 184c11.333 -3.33301 22.333 -10 33 -20s18 -20.333 22 -31zM287 418.999l-141 -162.001l146 -167
c-4 -10.667 -11.333 -21.167 -22 -31.5s-21.667 -17.166 -33 -20.499l-197 186c-3.33301 8 -5 18.333 -5 31s1.66699 23 5 31l192 184c11.333 -3.33301 22.333 -10 33 -20s18 -20.333 22 -31z" />
    <glyph glyph-name="logicalnot" unicode="&#xac;" horiz-adv-x="530" 
d="M383 257l-46 -0.999023h-285c-2.66699 11.333 -4 25.166 -4 41.499s1.33301 30.833 4 43.5h414l6 -6v-221c-11.333 -2.66699 -25.833 -4 -43.5 -4s-33.167 1.33301 -46.5 4v99z" />
    <glyph glyph-name="uni00AD" unicode="&#xad;" horiz-adv-x="347" 
d="M295 224h-244c-2.66699 11.333 -4 25.166 -4 41.499s1.33301 30.833 4 43.5h244c3.33301 -11.333 5 -25.666 5 -42.999s-1.66699 -31.333 -5 -42z" />
    <glyph glyph-name="registered" unicode="&#xae;" horiz-adv-x="592" 
d="M35 482c0 72.667 25.166 134.333 75.499 185s111.833 76 184.5 76s134.334 -25.167 185.001 -75.5s76 -112 76 -185s-25.167 -134.667 -75.5 -185s-112 -75.5 -185 -75.5s-134.667 25.167 -185 75.5s-75.5 111.833 -75.5 184.5zM156.999 624.499
c-37.333 -39 -56 -86.333 -56 -142s18.667 -103 56 -142s83.5 -58.5 138.5 -58.5s101.167 19.5 138.5 58.5s56 86.333 56 142s-18.667 103 -56 142s-83.5 58.5 -138.5 58.5s-101.167 -19.5 -138.5 -58.5zM396.999 536.999c0 -33.333 -17.001 -55.334 -51.001 -66.001
c10.667 -4 21.667 -17 33 -39l14 -27c7.33301 -14 14.666 -23.333 21.999 -28c-10 -14.667 -23 -22 -39 -22s-28.667 10.333 -38 31l-25 47c-7.33301 12.667 -17.666 19 -30.999 19h-24v-92c-10 -2.66699 -19.833 -4 -29.5 -4s-19.5 1.33301 -29.5 4v247l3 3
c42.667 1.33301 77.834 2 105.501 2s49.5 -6.66699 65.5 -20s24 -31.666 24 -54.999zM257.998 566.998v-68h37c27.333 0 41 11.333 41 34c0 10 -3.33301 18.167 -10 24.5s-16 9.5 -28 9.5h-40z" />
    <glyph glyph-name="macron" unicode="&#xaf;" 
d="M338 576h-278c-2.66699 10.667 -4 23.667 -4 39s1.33301 28.666 4 39.999h278c2.66699 -11.333 4 -24.666 4 -39.999s-1.33301 -28.333 -4 -39z" />
    <glyph glyph-name="degree" unicode="&#xb0;" horiz-adv-x="324" 
d="M18 526c0 41.333 13.667 75.833 41 103.5s61.666 41.5 102.999 41.5s75.666 -13.833 102.999 -41.5s41 -62.167 41 -103.5s-13.667 -75.833 -41 -103.5s-61.666 -41.5 -102.999 -41.5s-75.666 13.833 -102.999 41.5s-41 62.167 -41 103.5zM93 526
c0 -22.667 6.33301 -41.334 19 -56.001s29.167 -22 49.5 -22s36.833 7.33301 49.5 22s19 33.334 19 56.001s-6.33301 41.334 -19 56.001s-29.167 22 -49.5 22s-36.833 -7.33301 -49.5 -22s-19 -33.334 -19 -56.001z" />
    <glyph glyph-name="plusminus" unicode="&#xb1;" horiz-adv-x="530" 
d="M222 382l-1 47v107c11.333 2.66699 26.166 4 44.499 4s33.166 -1.33301 44.499 -4v-107l-1 -47l45 1h109c2.66699 -12.667 4 -26.167 4 -40.5s-1.33301 -27.833 -4 -40.5h-109l-45 1l1 -47v-108c-11.333 -2.66699 -26.166 -4 -44.499 -4s-33.166 1.33301 -44.499 4v108
l1 47l-46 -1h-109c-2.66699 12.667 -4 26.167 -4 40.5s1.33301 27.833 4 40.5h109zM463 0h-396c-2.66699 12.667 -4 26.167 -4 40.5s1.33301 28.166 4 41.499h396c2.66699 -13.333 4 -27.166 4 -41.499s-1.33301 -27.833 -4 -40.5z" />
    <glyph glyph-name="twosuperior" unicode="&#xb2;" horiz-adv-x="420" 
d="M351 416c0 -17.333 -0.333984 -29.333 -1.00098 -36c-4 -26 -19.333 -39 -46 -39h-219c-18.667 22.667 -28 39.667 -28 51c0 36 25.667 75 77 117l71 58c31.333 24.667 47 49.667 47 75c0 16 -5.16699 29.333 -15.5 40s-23.833 16 -40.5 16
c-30 0 -53.333 -19.333 -70 -58c-11.333 1.33301 -23.5 5 -36.5 11s-21.833 12.667 -26.5 20c9.33301 28.667 26.333 52.667 51 72s55.834 29 93.501 29s69.167 -12.167 94.5 -36.5s38 -52.5 38 -84.5s-6.66699 -58.5 -20 -79.5s-34 -42.167 -62 -63.5l-56 -44
c-31.333 -24.667 -50 -42.667 -56 -54c30 4 57.333 6 82 6h123z" />
    <glyph glyph-name="threesuperior" unicode="&#xb3;" horiz-adv-x="420" 
d="M316 685l-60.0029 -58.9961c-7.33301 -7.33301 -17.333 -15 -30 -23h2c34.667 0 63.5 -11.667 86.5 -35s34.5 -55.5 34.5 -96.5s-15.667 -73.667 -47 -98s-71.666 -36.5 -120.999 -36.5s-92 14 -128 42c4 24 15 43.667 33 59c32.667 -22 62.667 -33 90 -33
s48.5 6.16699 63.5 18.5s22.5 29.666 22.5 51.999s-6 40.166 -18 53.499s-27 20 -45 20s-34.333 -3.33301 -49 -10c-7.33301 3.33301 -14.166 9.33301 -20.499 18s-10.166 17.667 -11.499 27l80 82c13.333 13.333 26 23.666 38 30.999l-3 3c-18 -3.33301 -44 -5 -78 -5h-82
c-3.33301 11.333 -5 23.666 -5 36.999s2 24.333 6 33h242c10.667 -20 16 -35.833 16 -47.5s-5.33301 -22.5 -16 -32.5z" />
    <glyph glyph-name="acute" unicode="&#xb4;" 
d="M126 577l142 158.001c14.667 -4.66699 28.667 -13.167 42 -25.5s22.666 -25.5 27.999 -39.5l-169 -133c-21.333 7.33301 -35.666 20.666 -42.999 39.999z" />
    <glyph glyph-name="paragraph" unicode="&#xb6;" horiz-adv-x="661" 
d="M288 60l-0.00195312 193h-19c-67.333 0 -121.666 18.833 -162.999 56.5s-62 91.834 -62 162.501s20.833 124.334 62.5 161.001s96.834 55 165.501 55c16.667 0 53 -1.33301 109 -4l6 -6v-603c0 -42.667 -3 -77.834 -9 -105.501s-17.667 -51.5 -35 -71.5
c-31.333 -35.333 -79 -53 -143 -53c-48 0 -90.667 8 -128 24c0 28 8 53 24 75c34.667 -14.667 68 -22 100 -22s55.333 9.66699 70 29s22 55.666 22 108.999zM452.998 -133v810l6 6h173c3.33301 -10 5 -24.333 5 -43s-1.66699 -33 -5 -43h-41c-18 0 -31 0.333008 -39 1v-731
c-13.333 -2.66699 -30 -4 -50 -4s-36.333 1.33301 -49 4z" />
    <glyph glyph-name="periodcentered" unicode="&#xb7;" horiz-adv-x="302" 
d="M87 283c0 20.667 3.00098 37 9.00098 49c14 8 32.5 12 55.5 12s41.5 -4 55.5 -12c5.33301 -12.667 8 -29 8 -49s-2.66699 -36.333 -8 -49c-12.667 -8 -30.834 -12 -54.501 -12s-42.5 4 -56.5 12c-6 12 -9 28.333 -9 49z" />
    <glyph glyph-name="cedilla" unicode="&#xb8;" 
d="M146 -74c7.33301 27.333 16 52 26 74h64c-11.333 -22 -17.333 -34.333 -18 -37c27.333 -2 49.666 -10.833 66.999 -26.5s26 -36.834 26 -63.501s-11.167 -49.167 -33.5 -67.5s-50 -27.5 -83 -27.5s-59.5 6.33301 -79.5 19c0.666992 18 7.33398 35 20.001 51
c15.333 -9.33301 31.333 -14 48 -14s28.834 3.83301 36.501 11.5s11.5 17.334 11.5 29.001s-3.83301 21.167 -11.5 28.5s-16.834 11 -27.501 11s-20 -1.66699 -28 -5c-8.66699 3.33301 -14.667 9 -18 17z" />
    <glyph glyph-name="onesuperior" unicode="&#xb9;" horiz-adv-x="420" 
d="M143 415l47.001 -0.999023v168c0 6 0.5 17 1.5 33s1.5 26 1.5 30c-20.667 -27.333 -52 -50.333 -94 -69c-20 9.33301 -32 27 -36 53c61.333 34.667 105 80 131 136c11.333 2.66699 23.666 4 36.999 4s27 -1.33301 41 -4v-351l49 1h33c2.66699 -10 4 -21.833 4 -35.5
s-1.33301 -25.834 -4 -36.501h-266c-2.66699 17.333 -4 30 -4 38s1.33301 19.333 4 34h55z" />
    <glyph glyph-name="ordmasculine" unicode="&#xba;" horiz-adv-x="407" 
d="M316 655c37.333 -39.333 56 -92.833 56 -160.5s-18.667 -120.5 -56 -158.5c-28.667 -27.333 -66.167 -41 -112.5 -41s-83.833 13.667 -112.5 41c-37.333 38 -56 90.833 -56 158.5s18.667 121.167 56 160.5c28.667 27.333 66.167 41 112.5 41s83.833 -13.667 112.5 -41z
M120 496c0 -90 28 -135 84 -135c28.667 0 49.667 12.5 63 37.5s20 57.333 20 97s-6.66699 72 -20 97s-34.5 37.5 -63.5 37.5s-50.167 -12.5 -63.5 -37.5s-20 -57.167 -20 -96.5z" />
    <glyph glyph-name="guillemotright" unicode="&#xbb;" horiz-adv-x="551" 
d="M43 90l140 162.001l-146 167c4 10.667 11.333 21 22 31s21.667 16.667 33 20l198 -185c4 -10.667 6 -21.167 6 -31.5s-2 -20.5 -6 -30.5l-193 -185c-11.333 3.33301 -22.333 10.166 -33 20.499s-17.667 20.833 -21 31.5zM265 90.001l140 162.001l-146 167
c4 10.667 11.333 21 22 31s21.667 16.667 33 20l198 -185c4 -10.667 6 -21.167 6 -31.5s-2 -20.5 -6 -30.5l-193 -185c-11.333 3.33301 -22.333 10.166 -33 20.499s-17.667 20.833 -21 31.5z" />
    <glyph glyph-name="onequarter" unicode="&#xbc;" horiz-adv-x="932" 
d="M117 333l47.001 -0.999023v168c0 6 0.5 17 1.5 33s1.5 26 1.5 30c-20.667 -27.333 -52 -50.333 -94 -69c-20 9.33301 -32 27 -36 53c61.333 34.667 105 80 131 136c11.333 2.66699 23.666 4 36.999 4s27 -1.33301 41 -4v-351l49 1h33c2.66699 -10 4 -21.833 4 -35.5
s-1.33301 -25.834 -4 -36.501h-266c-2.66699 17.333 -4 30 -4 38s1.33301 19.333 4 34h55zM266.001 0.000976562l376 683c11.333 4 22 6 32 6c32 0 53.333 -2 64 -6l-377 -683c-11.333 -4 -22 -6 -32 -6c-31.333 0 -52.333 2 -63 6zM858.001 81.001l-31.002 1.00098v-79
c-9.33301 -3.33301 -22.5 -5 -39.5 -5s-30.5 1.66699 -40.5 5v79l-39 -1h-121c-12 20 -18 36.5 -18 49.5s5 28.167 15 45.5l117 252c4.66699 0.666992 10.334 1 17.001 1s16.5 -1.5 29.5 -4.5s23.833 -7.83301 32.5 -14.5l-79 -171c-21.333 -44 -37 -73 -47 -87l1 -2
c16 1.33301 38.667 2 68 2h24v60c0 18.667 4.83301 33.167 14.5 43.5s22.834 15.5 39.501 15.5h24l2 -3v-116h62c2 -8.66699 3 -19.834 3 -33.501s-2.33301 -26.167 -7 -37.5h-27z" />
    <glyph glyph-name="onehalf" unicode="&#xbd;" horiz-adv-x="932" 
d="M252 0l376 683c11.333 4 22 6 32 6c32 0 53.333 -2 64 -6l-377 -683c-11.333 -4 -22 -6 -32 -6c-31.333 0 -52.333 2 -63 6zM117 333l47.001 -0.999023v168c0 6 0.5 17 1.5 33s1.5 26 1.5 30c-20.667 -27.333 -52 -50.333 -94 -69c-20 9.33301 -32 27 -36 53
c61.333 34.667 105 80 131 136c11.333 2.66699 23.666 4 36.999 4s27 -1.33301 41 -4v-351l49 1h33c2.66699 -10 4 -21.833 4 -35.5s-1.33301 -25.834 -4 -36.501h-266c-2.66699 17.333 -4 30 -4 38s1.33301 19.333 4 34h55zM883.001 75.001
c0 -17.333 -0.333984 -29.333 -1.00098 -36c-4 -26 -19.333 -39 -46 -39h-219c-18.667 22.667 -28 39.667 -28 51c0 36 25.667 75 77 117l71 58c31.333 24.667 47 49.667 47 75c0 16 -5.16699 29.333 -15.5 40s-23.833 16 -40.5 16c-30 0 -53.333 -19.333 -70 -58
c-11.333 1.33301 -23.5 5 -36.5 11s-21.833 12.667 -26.5 20c9.33301 28.667 26.333 52.667 51 72s55.834 29 93.501 29s69.167 -12.167 94.5 -36.5s38 -52.5 38 -84.5s-6.66699 -58.5 -20 -79.5s-34 -42.167 -62 -63.5l-56 -44c-31.333 -24.667 -50 -42.667 -56 -54
c30 4 57.333 6 82 6h123z" />
    <glyph glyph-name="threequarters" unicode="&#xbe;" horiz-adv-x="932" 
d="M253 0l376 683c11.333 4 22 6 32 6c32 0 53.333 -2 64 -6l-377 -683c-11.333 -4 -22 -6 -32 -6c-31.333 0 -52.333 2 -63 6zM315 605l-60.0029 -58.9961c-7.33301 -7.33301 -17.333 -15 -30 -23h2c34.667 0 63.5 -11.667 86.5 -35s34.5 -55.5 34.5 -96.5
s-15.667 -73.667 -47 -98s-71.666 -36.5 -120.999 -36.5s-92 14 -128 42c4 24 15 43.667 33 59c32.667 -22 62.667 -33 90 -33s48.5 6.16699 63.5 18.5s22.5 29.666 22.5 51.999s-6 40.166 -18 53.499s-27 20 -45 20s-34.333 -3.33301 -49 -10
c-7.33301 3.33301 -14.166 9.33301 -20.499 18s-10.166 17.667 -11.499 27l80 82c13.333 13.333 26 23.666 38 30.999l-3 3c-18 -3.33301 -44 -5 -78 -5h-82c-3.33301 11.333 -5 23.666 -5 36.999s2 24.333 6 33h242c10.667 -20 16 -35.833 16 -47.5
s-5.33301 -22.5 -16 -32.5zM854.997 81.0039l-31.002 1.00098v-79c-9.33301 -3.33301 -22.5 -5 -39.5 -5s-30.5 1.66699 -40.5 5v79l-39 -1h-121c-12 20 -18 36.5 -18 49.5s5 28.167 15 45.5l117 252c4.66699 0.666992 10.334 1 17.001 1s16.5 -1.5 29.5 -4.5
s23.833 -7.83301 32.5 -14.5l-79 -171c-21.333 -44 -37 -73 -47 -87l1 -2c16 1.33301 38.667 2 68 2h24v60c0 18.667 4.83301 33.167 14.5 43.5s22.834 15.5 39.501 15.5h24l2 -3v-116h62c2 -8.66699 3 -19.834 3 -33.501s-2.33301 -26.167 -7 -37.5h-27z" />
    <glyph glyph-name="questiondown" unicode="&#xbf;" horiz-adv-x="393" 
d="M383 -154c-62 -33.333 -122.832 -49.999 -182.499 -49.999s-106.167 15.333 -139.5 46s-50 71.667 -50 123c0 80 43.333 144.667 130 194l63 35l8 105c9.33301 3.33301 21.666 5 36.999 5s28 -1.66699 38 -5l5 -149l-8 -11l-48 -24
c-80.667 -42.667 -121 -89.334 -121 -140.001c0 -28 9 -50.5 27 -67.5s44.667 -25.5 80 -25.5s77 12.667 125 38c8.66699 -8 16.667 -19 24 -33s11.333 -27.667 12 -41zM303.001 399.001c-14 -8.66699 -32.1689 -13 -54.502 -13s-40.5 4.33301 -54.5 13
c-5.33301 8.66699 -8 23.5 -8 44.5s2.66699 36.167 8 45.5c14.667 8 32.834 12 54.501 12s39.834 -4 54.501 -12c5.33301 -9.33301 8 -24.5 8 -45.5s-2.66699 -35.833 -8 -44.5z" />
    <glyph glyph-name="Agrave" unicode="&#xc0;" horiz-adv-x="608" 
d="M429 169l-60.999 -1h-137l-61 1l-54 -170c-10.667 -2.66699 -24.5 -4 -41.5 -4s-33.833 2.33301 -50.5 7l-3 5l227 676c13.333 2.66699 32.666 4 57.999 4s43.666 -1.33301 54.999 -4l226 -677c-14.667 -8.66699 -32.167 -13 -52.5 -13s-34.666 3.66699 -42.999 11
s-15.833 21.333 -22.5 42zM196.001 250l53.002 1h103c1.33301 0 8.66602 -0.166992 21.999 -0.5s23 -0.5 29 -0.5l-49 155c-20 60.667 -37.333 120 -52 178h-6c-10.667 -48 -23.334 -94.333 -38.001 -139zM216.003 898l200 -118.999c-4 -24 -13.667 -41 -29 -51l-215 89
c2 16 7.33301 31.667 16 47s18 26.666 28 33.999z" />
    <glyph glyph-name="Aacute" unicode="&#xc1;" horiz-adv-x="608" 
d="M429 169l-60.999 -1h-137l-61 1l-54 -170c-10.667 -2.66699 -24.5 -4 -41.5 -4s-33.833 2.33301 -50.5 7l-3 5l227 676c13.333 2.66699 32.666 4 57.999 4s43.666 -1.33301 54.999 -4l226 -677c-14.667 -8.66699 -32.167 -13 -52.5 -13s-34.666 3.66699 -42.999 11
s-15.833 21.333 -22.5 42zM196.001 250l53.002 1h103c1.33301 0 8.66602 -0.166992 21.999 -0.5s23 -0.5 29 -0.5l-49 155c-20 60.667 -37.333 120 -52 178h-6c-10.667 -48 -23.334 -94.333 -38.001 -139zM207.003 779l200.001 118.999
c10 -7.33301 19.333 -18.666 28 -33.999s14 -31 16 -47l-215 -89c-16.667 11.333 -26.334 28.333 -29.001 51z" />
    <glyph glyph-name="Acircumflex" unicode="&#xc2;" horiz-adv-x="608" 
d="M429 169l-60.999 -1h-137l-61 1l-54 -170c-10.667 -2.66699 -24.5 -4 -41.5 -4s-33.833 2.33301 -50.5 7l-3 5l227 676c13.333 2.66699 32.666 4 57.999 4s43.666 -1.33301 54.999 -4l226 -677c-14.667 -8.66699 -32.167 -13 -52.5 -13s-34.666 3.66699 -42.999 11
s-15.833 21.333 -22.5 42zM196.001 250l53.002 1h103c1.33301 0 8.66602 -0.166992 21.999 -0.5s23 -0.5 29 -0.5l-49 155c-20 60.667 -37.333 120 -52 178h-6c-10.667 -48 -23.334 -94.333 -38.001 -139zM416.003 737l-112 75.002l-114 -82
c-8.66699 3.33301 -17.334 9.16602 -26.001 17.499s-14.334 17.166 -17.001 26.499l114 111c14 3.33301 28.333 5 43 5s29.334 -1.66699 44.001 -5l111 -105c-3.33301 -10 -9.16602 -19 -17.499 -27s-16.833 -13.333 -25.5 -16z" />
    <glyph glyph-name="Atilde" unicode="&#xc3;" horiz-adv-x="608" 
d="M429 169l-60.999 -1h-137l-61 1l-54 -170c-10.667 -2.66699 -24.5 -4 -41.5 -4s-33.833 2.33301 -50.5 7l-3 5l227 676c13.333 2.66699 32.666 4 57.999 4s43.666 -1.33301 54.999 -4l226 -677c-14.667 -8.66699 -32.167 -13 -52.5 -13s-34.666 3.66699 -42.999 11
s-15.833 21.333 -22.5 42zM196.001 250l53.002 1h103c1.33301 0 8.66602 -0.166992 21.999 -0.5s23 -0.5 29 -0.5l-49 155c-20 60.667 -37.333 120 -52 178h-6c-10.667 -48 -23.334 -94.333 -38.001 -139zM317.003 756l-57.001 27.001c-13.333 6 -25.833 9 -37.5 9
s-23.5 -8.33301 -35.5 -25l-12 -14c-10 0 -19.667 2.83301 -29 8.5s-15.666 12.5 -18.999 20.5l8 20c9.33301 22 23 39.333 41 52s37 19 57 19s40 -5 60 -15l57 -27c10.667 -6 22.334 -9 35.001 -9s25.334 8.33301 38.001 25l12 14c9.33301 0 18.666 -2.83301 27.999 -8.5
s16 -12.834 20 -21.501l-8 -19c-10.667 -22.667 -24.834 -40.167 -42.501 -52.5s-35.667 -18.5 -54 -18.5s-38.833 5 -61.5 15z" />
    <glyph glyph-name="Adieresis" unicode="&#xc4;" horiz-adv-x="608" 
d="M429 169l-60.999 -1h-137l-61 1l-54 -170c-10.667 -2.66699 -24.5 -4 -41.5 -4s-33.833 2.33301 -50.5 7l-3 5l227 676c13.333 2.66699 32.666 4 57.999 4s43.666 -1.33301 54.999 -4l226 -677c-14.667 -8.66699 -32.167 -13 -52.5 -13s-34.666 3.66699 -42.999 11
s-15.833 21.333 -22.5 42zM196.001 250l53.002 1h103c1.33301 0 8.66602 -0.166992 21.999 -0.5s23 -0.5 29 -0.5l-49 155c-20 60.667 -37.333 120 -52 178h-6c-10.667 -48 -23.334 -94.333 -38.001 -139zM409.003 839c18 0 33.667 -3.66699 47 -11
c5.33301 -11.333 8 -24.833 8 -40.5s-2.66699 -29.167 -8 -40.5c-11.333 -7.33301 -27 -11 -47 -11s-35.667 3.66699 -47 11c-6 11.333 -9 24.833 -9 40.5s3 29.167 9 40.5c13.333 7.33301 29 11 47 11zM201.003 839c18 0 33.667 -3.66699 47 -11
c6 -11.333 9 -24.833 9 -40.5s-3 -29.167 -9 -40.5c-11.333 -7.33301 -27 -11 -47 -11s-35.667 3.66699 -47 11c-5.33301 11.333 -8 24.833 -8 40.5s2.66699 29.167 8 40.5c13.333 7.33301 29 11 47 11z" />
    <glyph glyph-name="Aring" unicode="&#xc5;" horiz-adv-x="608" 
d="M429 169l-60.999 -0.999023h-137l-61 1l-54 -170c-10.667 -2.66699 -24.5 -4 -41.5 -4s-33.833 2.33301 -50.5 7l-3 5l226 674c-40.667 20.667 -61 53.667 -61 99c0 31.333 11.167 57.666 33.5 78.999s50.666 32 84.999 32s62.666 -10.833 84.999 -32.5
s33.5 -45.5 33.5 -71.5c0 -50.667 -20.667 -86 -62 -106l226 -675c-14.667 -8.66699 -32.167 -13 -52.5 -13s-34.666 3.66699 -42.999 11s-15.833 21.333 -22.5 42zM196.001 250.001l53.002 1h103c1.33301 0 8.66602 -0.166992 21.999 -0.5s23 -0.5 29 -0.5l-49 155
c-20 60.667 -37.333 120 -52 178h-6c-10.667 -48 -23.334 -94.333 -38.001 -139zM268.503 819.001c-9.66699 -10.667 -14.5 -23.834 -14.5 -39.501s4.83301 -28.667 14.5 -39s21.834 -15.5 36.501 -15.5s26.667 5.16699 36 15.5s14 23.333 14 39s-4.66699 28.834 -14 39.501
s-21.333 16 -36 16s-26.834 -5.33301 -36.501 -16z" />
    <glyph glyph-name="AE" unicode="&#xc6;" horiz-adv-x="875" 
d="M402 169l-57.002 -1.00098h-89l-55 1l-83 -170c-12.667 -2.66699 -28.334 -4 -47.001 -4s-35.667 2.33301 -51 7l-4 5l333 666c12.667 6.66699 32.334 10 59.001 10h399c2 -10 3 -23.167 3 -39.5s-2.33301 -31.5 -7 -45.5h-242c-26.667 0 -47.667 0.333008 -63 1l1 -65
v-148l62 1h192c3.33301 -12 5 -26.167 5 -42.5s-1.66699 -30.166 -5 -41.499h-192c-26 0 -46.667 0.333008 -62 1v-173c0 -5.33301 -0.166992 -13.333 -0.5 -24s-0.5 -19 -0.5 -25c18.667 2 40.334 3 65.001 3h263c0 -17.333 -0.666992 -30.333 -2 -39
c-6 -31.333 -27.333 -47 -64 -47h-301c-17.333 0 -31.166 5.5 -41.499 16.5s-15.5 26.167 -15.5 45.5v108zM345.998 250.999l56 -1v333h-5c-18 -44.667 -38.333 -91 -61 -139l-95 -194l41 1h64z" />
    <glyph glyph-name="Ccedilla" unicode="&#xc7;" horiz-adv-x="603" 
d="M263 -74c6.66699 22.667 13.666 43.6689 20.999 63.002c-40.667 3.33301 -76.5 15.333 -107.5 36s-55.167 47.667 -72.5 81c-35.333 65.333 -53 142.666 -53 231.999c0 118 25.667 207.167 77 267.5s114.333 90.5 189 90.5s134.167 -19.333 178.5 -58s66.5 -84 66.5 -136
c0 -38 -19 -57 -57 -57c-12 0 -25.667 2 -41 6v23.5c0 13.667 -3.83301 31.667 -11.5 54s-22.834 42.166 -45.501 59.499s-51.334 26 -86.001 26c-54 0 -95 -23.333 -123 -70s-42 -113.5 -42 -200.5s15 -153.667 45 -200s72.667 -69.5 128 -69.5s114 25.667 176 77
c26.667 -17.333 43.334 -39 50.001 -65c-56 -56 -125.667 -88.333 -209 -97c-6 -12 -9.66699 -20.667 -11 -26c27.333 -2 49.5 -11 66.5 -27s25.5 -37.333 25.5 -64s-11.167 -49 -33.5 -67s-49.666 -27 -81.999 -27s-59.166 6.33301 -80.499 19
c0.666992 17.333 7.66699 34.333 21 51c14 -9.33301 29.667 -14 47 -14s29.833 3.83301 37.5 11.5s11.5 17.167 11.5 28.5s-3.83301 20.833 -11.5 28.5s-17 11.5 -28 11.5s-20.5 -1.66699 -28.5 -5c-8 3.33301 -13.667 9 -17 17z" />
    <glyph glyph-name="Egrave" unicode="&#xc8;" horiz-adv-x="565" 
d="M190 386l61.998 0.999023h192c3.33301 -15.333 5 -29.333 5 -42s-1.66699 -26.667 -5 -42h-192c-26 0 -46.667 0.333008 -62 1v-174c0 -5.33301 -0.166992 -13.166 -0.5 -23.499s-0.5 -18.5 -0.5 -24.5c18.667 2 40.334 3 65.001 3h262
c0 -17.333 -0.666992 -30.333 -2 -39c-6 -31.333 -27.333 -47 -64 -47h-301c-17.333 0 -31.166 5.5 -41.499 16.5s-15.5 26.167 -15.5 45.5v616l6 6h399c2 -10 3 -23.167 3 -39.5s-2.33301 -31.5 -7 -45.5h-241c-26.667 0 -47.667 0.333008 -63 1l1 -65v-148z
M209.998 897.999l200 -118.999c-4 -24 -13.667 -41 -29 -51l-215 89c2 16 7.33301 31.667 16 47s18 26.666 28 33.999z" />
    <glyph glyph-name="Eacute" unicode="&#xc9;" horiz-adv-x="565" 
d="M190 386l61.998 0.999023h192c3.33301 -15.333 5 -29.333 5 -42s-1.66699 -26.667 -5 -42h-192c-26 0 -46.667 0.333008 -62 1v-174c0 -5.33301 -0.166992 -13.166 -0.5 -23.499s-0.5 -18.5 -0.5 -24.5c18.667 2 40.334 3 65.001 3h262
c0 -17.333 -0.666992 -30.333 -2 -39c-6 -31.333 -27.333 -47 -64 -47h-301c-17.333 0 -31.166 5.5 -41.499 16.5s-15.5 26.167 -15.5 45.5v616l6 6h399c2 -10 3 -23.167 3 -39.5s-2.33301 -31.5 -7 -45.5h-241c-26.667 0 -47.667 0.333008 -63 1l1 -65v-148z
M200.998 778.999l200.001 118.999c10 -7.33301 19.333 -18.666 28 -33.999s14 -31 16 -47l-215 -89c-16.667 11.333 -26.334 28.333 -29.001 51z" />
    <glyph glyph-name="Ecircumflex" unicode="&#xca;" horiz-adv-x="565" 
d="M190 386l61.998 0.999023h192c3.33301 -15.333 5 -29.333 5 -42s-1.66699 -26.667 -5 -42h-192c-26 0 -46.667 0.333008 -62 1v-174c0 -5.33301 -0.166992 -13.166 -0.5 -23.499s-0.5 -18.5 -0.5 -24.5c18.667 2 40.334 3 65.001 3h262
c0 -17.333 -0.666992 -30.333 -2 -39c-6 -31.333 -27.333 -47 -64 -47h-301c-17.333 0 -31.166 5.5 -41.499 16.5s-15.5 26.167 -15.5 45.5v616l6 6h399c2 -10 3 -23.167 3 -39.5s-2.33301 -31.5 -7 -45.5h-241c-26.667 0 -47.667 0.333008 -63 1l1 -65v-148z
M409.998 736.999l-112 75.002l-114 -82c-8.66699 3.33301 -17.334 9.16602 -26.001 17.499s-14.334 17.166 -17.001 26.499l114 111c14 3.33301 28.333 5 43 5s29.334 -1.66699 44.001 -5l111 -105c-3.33301 -10 -9.16602 -19 -17.499 -27s-16.833 -13.333 -25.5 -16z" />
    <glyph glyph-name="Edieresis" unicode="&#xcb;" horiz-adv-x="565" 
d="M190 386l61.998 0.999023h192c3.33301 -15.333 5 -29.333 5 -42s-1.66699 -26.667 -5 -42h-192c-26 0 -46.667 0.333008 -62 1v-174c0 -5.33301 -0.166992 -13.166 -0.5 -23.499s-0.5 -18.5 -0.5 -24.5c18.667 2 40.334 3 65.001 3h262
c0 -17.333 -0.666992 -30.333 -2 -39c-6 -31.333 -27.333 -47 -64 -47h-301c-17.333 0 -31.166 5.5 -41.499 16.5s-15.5 26.167 -15.5 45.5v616l6 6h399c2 -10 3 -23.167 3 -39.5s-2.33301 -31.5 -7 -45.5h-241c-26.667 0 -47.667 0.333008 -63 1l1 -65v-148z
M402.998 838.999c18 0 33.667 -3.66699 47 -11c5.33301 -11.333 8 -24.833 8 -40.5s-2.66699 -29.167 -8 -40.5c-11.333 -7.33301 -27 -11 -47 -11s-35.667 3.66699 -47 11c-6 11.333 -9 24.833 -9 40.5s3 29.167 9 40.5c13.333 7.33301 29 11 47 11zM194.998 838.999
c18 0 33.667 -3.66699 47 -11c6 -11.333 9 -24.833 9 -40.5s-3 -29.167 -9 -40.5c-11.333 -7.33301 -27 -11 -47 -11s-35.667 3.66699 -47 11c-5.33301 11.333 -8 24.833 -8 40.5s2.66699 29.167 8 40.5c13.333 7.33301 29 11 47 11z" />
    <glyph glyph-name="Igrave" unicode="&#xcc;" horiz-adv-x="292" 
d="M96 0v683c12.667 2.66699 29.167 4 49.5 4s37.166 -1.33301 50.499 -4v-683c-13.333 -2.66699 -30.166 -4 -50.499 -4s-36.833 1.33301 -49.5 4zM57 898l200 -118.999c-4 -24 -13.667 -41 -29 -51l-215 89c2 16 7.33301 31.667 16 47s18 26.666 28 33.999z" />
    <glyph glyph-name="Iacute" unicode="&#xcd;" horiz-adv-x="292" 
d="M96 0v683c12.667 2.66699 29.167 4 49.5 4s37.166 -1.33301 50.499 -4v-683c-13.333 -2.66699 -30.166 -4 -50.499 -4s-36.833 1.33301 -49.5 4zM48 779l200.001 118.999c10 -7.33301 19.333 -18.666 28 -33.999s14 -31 16 -47l-215 -89
c-16.667 11.333 -26.334 28.333 -29.001 51z" />
    <glyph glyph-name="Icircumflex" unicode="&#xce;" horiz-adv-x="292" 
d="M96 0v683c12.667 2.66699 29.167 4 49.5 4s37.166 -1.33301 50.499 -4v-683c-13.333 -2.66699 -30.166 -4 -50.499 -4s-36.833 1.33301 -49.5 4zM257 737l-112 75.002l-114 -82c-8.66699 3.33301 -17.334 9.16602 -26.001 17.499s-14.334 17.166 -17.001 26.499l114 111
c14.667 3.33301 29.334 5 44.001 5s29 -1.66699 43 -5l111 -105c-3.33301 -10 -9.16602 -19 -17.499 -27s-16.833 -13.333 -25.5 -16z" />
    <glyph glyph-name="Idieresis" unicode="&#xcf;" horiz-adv-x="292" 
d="M96 0v683c12.667 2.66699 29.167 4 49.5 4s37.166 -1.33301 50.499 -4v-683c-13.333 -2.66699 -30.166 -4 -50.499 -4s-36.833 1.33301 -49.5 4zM250 839c18 0 33.667 -3.66699 47 -11c5.33301 -11.333 8 -24.833 8 -40.5s-2.66699 -29.167 -8 -40.5
c-11.333 -7.33301 -27 -11 -47 -11s-35.667 3.66699 -47 11c-6 11.333 -9 24.833 -9 40.5s3 29.167 9 40.5c13.333 7.33301 29 11 47 11zM42 839c18 0 33.667 -3.66699 47 -11c6 -11.333 9 -24.833 9 -40.5s-3 -29.167 -9 -40.5c-11.333 -7.33301 -27 -11 -47 -11
s-35.667 3.66699 -47 11c-5.33301 11.333 -8 24.833 -8 40.5s2.66699 29.167 8 40.5c13.333 7.33301 29 11 47 11z" />
    <glyph glyph-name="Eth" unicode="&#xd0;" horiz-adv-x="662" 
d="M587 513c14.667 -48 21.998 -105.331 21.998 -171.998s-7.16699 -124 -21.5 -172s-42.166 -89 -83.499 -123c-20 -16.667 -46.5 -29.334 -79.5 -38.001s-64 -13 -93 -13s-101.5 1.33301 -217.5 4l-6 7v299h-78c-2.66699 10.667 -4 24 -4 40s1.33301 30.333 4 43h78v289
l6 7c58 2 130.333 3 217 3c29.333 0 60.5 -4.33301 93.5 -13s59.5 -21.334 79.5 -38.001c40.667 -34 68.334 -75 83.001 -123zM329.998 606.002l-123 0.99707v-219h157c3.33301 -15.333 5 -29.666 5 -42.999s-1.66699 -26.666 -5 -39.999h-157v-228l123 -1
c72.667 0 121 29.667 145 89c20 49.333 30 108.333 30 177s-10 127.334 -30 176.001c-24 58.667 -72.333 88 -145 88z" />
    <glyph glyph-name="Ntilde" unicode="&#xd1;" horiz-adv-x="678" 
d="M181 565l-3.99902 0.000976562c5.33301 -90.667 8 -170.334 8 -239.001v-326c-15.333 -2.66699 -30.833 -4 -46.5 -4s-31.167 1.33301 -46.5 4v682c18.667 3.33301 39.167 5 61.5 5s41.833 -1.33301 58.5 -4l218 -427c10 -19.333 22.667 -45.833 38 -79.5
s25.333 -54.834 30 -63.501v-1l3 1c-5.33301 84 -8 166.333 -8 247v264c0 22.667 3.83301 38.834 11.5 48.501s21.834 14.5 42.501 14.5h32l7 -5v-681c-18.667 -3.33301 -39.334 -5 -62.001 -5s-42.334 1.33301 -59.001 4l-219 427c-20 39.333 -41.667 85.333 -65 138z
M354.001 756.001l-57.001 27.001c-13.333 6 -25.833 9 -37.5 9s-23.5 -8.33301 -35.5 -25l-12 -14c-10 0 -19.667 2.83301 -29 8.5s-15.666 12.5 -18.999 20.5l8 20c9.33301 22 23 39.333 41 52s37 19 57 19s40 -5 60 -15l57 -27c10.667 -6 22.334 -9 35.001 -9
s25.334 8.33301 38.001 25l12 14c9.33301 0 18.666 -2.83301 27.999 -8.5s16 -12.834 20 -21.501l-8 -19c-10.667 -22.667 -24.834 -40.167 -42.501 -52.5s-35.667 -18.5 -54 -18.5s-38.833 5 -61.5 15z" />
    <glyph glyph-name="Ograve" unicode="&#xd2;" horiz-adv-x="657" 
d="M156 342c0 -34.667 2.50098 -66.6699 7.50098 -96.0029s13.333 -58.166 25 -86.499s29.334 -50.666 53.001 -66.999s50.834 -24.5 81.501 -24.5s56.5 5.66699 77.5 17s37.667 25.833 50 43.5s22.166 38.834 29.499 63.501c13.333 42.667 20 87 20 133
s-2.33301 83.5 -7 112.5s-12.834 57.667 -24.501 86s-29.5 50.666 -53.5 66.999s-53 24.5 -87 24.5s-62.833 -8.16699 -86.5 -24.5s-41.334 -38.666 -53.001 -66.999s-20 -57 -25 -86s-7.5 -60.833 -7.5 -95.5zM157.001 46.9971c-70.667 61.333 -106 159.5 -106 294.5
s35.333 233.167 106 294.5c45.333 40 102.333 60 171 60s125.667 -20 171 -60c71.333 -61.333 107 -159.5 107 -294.5s-35.667 -233.167 -107 -294.5c-45.333 -40 -102.333 -60 -171 -60s-125.667 20 -171 60zM239.001 897.997l200 -118.999c-4 -24 -13.667 -41 -29 -51
l-215 89c2 16 7.33301 31.667 16 47s18 26.666 28 33.999z" />
    <glyph glyph-name="Oacute" unicode="&#xd3;" horiz-adv-x="657" 
d="M156 342c0 -34.667 2.50098 -66.6699 7.50098 -96.0029s13.333 -58.166 25 -86.499s29.334 -50.666 53.001 -66.999s50.834 -24.5 81.501 -24.5s56.5 5.66699 77.5 17s37.667 25.833 50 43.5s22.166 38.834 29.499 63.501c13.333 42.667 20 87 20 133
s-2.33301 83.5 -7 112.5s-12.834 57.667 -24.501 86s-29.5 50.666 -53.5 66.999s-53 24.5 -87 24.5s-62.833 -8.16699 -86.5 -24.5s-41.334 -38.666 -53.001 -66.999s-20 -57 -25 -86s-7.5 -60.833 -7.5 -95.5zM157.001 46.9971c-70.667 61.333 -106 159.5 -106 294.5
s35.333 233.167 106 294.5c45.333 40 102.333 60 171 60s125.667 -20 171 -60c71.333 -61.333 107 -159.5 107 -294.5s-35.667 -233.167 -107 -294.5c-45.333 -40 -102.333 -60 -171 -60s-125.667 20 -171 60zM230.001 778.997l200.001 118.999
c10 -7.33301 19.333 -18.666 28 -33.999s14 -31 16 -47l-215 -89c-16.667 11.333 -26.334 28.333 -29.001 51z" />
    <glyph glyph-name="Ocircumflex" unicode="&#xd4;" horiz-adv-x="657" 
d="M156 342c0 -34.667 2.50098 -66.6699 7.50098 -96.0029s13.333 -58.166 25 -86.499s29.334 -50.666 53.001 -66.999s50.834 -24.5 81.501 -24.5s56.5 5.66699 77.5 17s37.667 25.833 50 43.5s22.166 38.834 29.499 63.501c13.333 42.667 20 87 20 133
s-2.33301 83.5 -7 112.5s-12.834 57.667 -24.501 86s-29.5 50.666 -53.5 66.999s-53 24.5 -87 24.5s-62.833 -8.16699 -86.5 -24.5s-41.334 -38.666 -53.001 -66.999s-20 -57 -25 -86s-7.5 -60.833 -7.5 -95.5zM157.001 46.9971c-70.667 61.333 -106 159.5 -106 294.5
s35.333 233.167 106 294.5c45.333 40 102.333 60 171 60s125.667 -20 171 -60c71.333 -61.333 107 -159.5 107 -294.5s-35.667 -233.167 -107 -294.5c-45.333 -40 -102.333 -60 -171 -60s-125.667 20 -171 60zM439.001 736.997l-111.999 75.002l-114 -82
c-8.66699 3.33301 -17.334 9.16602 -26.001 17.499s-14.334 17.166 -17.001 26.499l114 111c14.667 3.33301 29.167 5 43.5 5s28.833 -1.66699 43.5 -5l111 -105c-3.33301 -10 -9.16602 -19 -17.499 -27s-16.833 -13.333 -25.5 -16z" />
    <glyph glyph-name="Otilde" unicode="&#xd5;" horiz-adv-x="657" 
d="M156 342c0 -34.667 2.50098 -66.6699 7.50098 -96.0029s13.333 -58.166 25 -86.499s29.334 -50.666 53.001 -66.999s50.834 -24.5 81.501 -24.5s56.5 5.66699 77.5 17s37.667 25.833 50 43.5s22.166 38.834 29.499 63.501c13.333 42.667 20 87 20 133
s-2.33301 83.5 -7 112.5s-12.834 57.667 -24.501 86s-29.5 50.666 -53.5 66.999s-53 24.5 -87 24.5s-62.833 -8.16699 -86.5 -24.5s-41.334 -38.666 -53.001 -66.999s-20 -57 -25 -86s-7.5 -60.833 -7.5 -95.5zM157.001 46.9971c-70.667 61.333 -106 159.5 -106 294.5
s35.333 233.167 106 294.5c45.333 40 102.333 60 171 60s125.667 -20 171 -60c71.333 -61.333 107 -159.5 107 -294.5s-35.667 -233.167 -107 -294.5c-45.333 -40 -102.333 -60 -171 -60s-125.667 20 -171 60zM339.001 761.997l-56.0029 27.999c-16 5.33301 -26.667 8 -32 8
c-14 0 -27.333 -8 -40 -24l-11 -15c-10 0 -19.667 2.83301 -29 8.5s-15.666 12.834 -18.999 21.501l9 19c20.667 47.333 53 71 97 71c16.667 0 35.667 -5.33301 57 -16l56 -26c10.667 -6 22 -9 34 -9s24.667 8.33301 38 25l11 14c24 -1.33301 40 -11.333 48 -30l-9 -19
c-10 -22.667 -23.667 -40.167 -41 -52.5s-35.166 -18.5 -53.499 -18.5s-38.166 5 -59.499 15z" />
    <glyph glyph-name="Odieresis" unicode="&#xd6;" horiz-adv-x="657" 
d="M156 342c0 -34.667 2.50098 -66.6699 7.50098 -96.0029s13.333 -58.166 25 -86.499s29.334 -50.666 53.001 -66.999s50.834 -24.5 81.501 -24.5s56.5 5.66699 77.5 17s37.667 25.833 50 43.5s22.166 38.834 29.499 63.501c13.333 42.667 20 87 20 133
s-2.33301 83.5 -7 112.5s-12.834 57.667 -24.501 86s-29.5 50.666 -53.5 66.999s-53 24.5 -87 24.5s-62.833 -8.16699 -86.5 -24.5s-41.334 -38.666 -53.001 -66.999s-20 -57 -25 -86s-7.5 -60.833 -7.5 -95.5zM157.001 46.9971c-70.667 61.333 -106 159.5 -106 294.5
s35.333 233.167 106 294.5c45.333 40 102.333 60 171 60s125.667 -20 171 -60c71.333 -61.333 107 -159.5 107 -294.5s-35.667 -233.167 -107 -294.5c-45.333 -40 -102.333 -60 -171 -60s-125.667 20 -171 60zM432.001 838.997c18 0 33.667 -3.66699 47 -11
c5.33301 -11.333 8 -24.833 8 -40.5s-2.66699 -29.167 -8 -40.5c-11.333 -7.33301 -27 -11 -47 -11s-35.667 3.66699 -47 11c-6 11.333 -9 24.833 -9 40.5s3 29.167 9 40.5c13.333 7.33301 29 11 47 11zM224.001 838.997c18 0 33.667 -3.66699 47 -11
c6 -11.333 9 -24.833 9 -40.5s-3 -29.167 -9 -40.5c-11.333 -7.33301 -27 -11 -47 -11s-35.667 3.66699 -47 11c-5.33301 11.333 -8 24.833 -8 40.5s2.66699 29.167 8 40.5c13.333 7.33301 29 11 47 11z" />
    <glyph glyph-name="multiply" unicode="&#xd7;" horiz-adv-x="530" 
d="M236 204l-101.003 -103c-11.333 5.33301 -22.666 13.333 -33.999 24s-20.666 23.334 -27.999 38.001l103 101c8.66699 9.33301 18.334 19 29.001 29c-10.667 9.33301 -20.334 19 -29.001 29l-103 101c17.333 32 38 52.333 62 61l101 -102
c6.66699 -6 16.334 -16 29.001 -30l28 30l102 102c12 -4.66699 23.667 -12.667 35 -24c11.333 -10 20 -22.333 26 -37l-131 -130l131 -130c-6 -14 -14.5 -26.5 -25.5 -37.5s-22.833 -18.833 -35.5 -23.5l-130 131c-10 -10.667 -19.667 -20.334 -29 -29.001z" />
    <glyph glyph-name="Oslash" unicode="&#xd8;" horiz-adv-x="658" 
d="M51 342c0 59.333 8.66699 115.167 26 167.5s44.333 94.5 81 126.5c45.333 40 102.333 60 171 60c49.333 0 92 -10 128 -30l39 68c28 -4 50 -16 66 -36l-44 -80c59.333 -64 89 -156 89 -276c0 -134.667 -35.667 -233 -107 -295c-45.333 -40 -102.333 -60 -171 -60
c-49.333 0 -92.333 9.66699 -129 29l-38 -66c-28 4 -50 16 -66 36l44 78c-59.333 64 -89 156.667 -89 278zM189 155.001l227.001 436c-24.667 17.333 -53.834 26 -87.501 26s-62.667 -8.33301 -87 -25s-42.5 -39.334 -54.5 -68.001
c-22.667 -53.333 -34 -116.666 -34 -189.999s12 -133 36 -179zM469.001 527.001l-228 -435.001c24.667 -17.333 54 -26 88 -26s63 8.33301 87 25s42 39.334 54 68.001c22.667 52 34 114.5 34 187.5s-11.667 133.167 -35 180.5z" />
    <glyph glyph-name="Ugrave" unicode="&#xd9;" horiz-adv-x="668" 
d="M584 683l0.000976562 -445c0 -80.667 -22.5 -142.667 -67.5 -186s-105.833 -65 -182.5 -65s-137.5 21.667 -182.5 65s-67.5 105.333 -67.5 186v443l6 6h38c20.667 0 35.167 -5 43.5 -15s12.5 -26.333 12.5 -49v-384c0 -56 12.667 -98.5 38 -127.5
s62.666 -43.5 111.999 -43.5s86.833 14.5 112.5 43.5s38.5 71.5 38.5 127.5v444c12.667 2.66699 29.167 4 49.5 4s36.833 -1.33301 49.5 -4zM244.001 898l200 -118.999c-4 -24 -13.667 -41 -29 -51l-215 89c2 16 7.33301 31.667 16 47s18 26.666 28 33.999z" />
    <glyph glyph-name="Uacute" unicode="&#xda;" horiz-adv-x="668" 
d="M584 683l0.000976562 -445c0 -80.667 -22.5 -142.667 -67.5 -186s-105.833 -65 -182.5 -65s-137.5 21.667 -182.5 65s-67.5 105.333 -67.5 186v443l6 6h38c20.667 0 35.167 -5 43.5 -15s12.5 -26.333 12.5 -49v-384c0 -56 12.667 -98.5 38 -127.5
s62.666 -43.5 111.999 -43.5s86.833 14.5 112.5 43.5s38.5 71.5 38.5 127.5v444c12.667 2.66699 29.167 4 49.5 4s36.833 -1.33301 49.5 -4zM235.001 779l200.001 118.999c10 -7.33301 19.333 -18.666 28 -33.999s14 -31 16 -47l-215 -89
c-16.667 11.333 -26.334 28.333 -29.001 51z" />
    <glyph glyph-name="Ucircumflex" unicode="&#xdb;" horiz-adv-x="668" 
d="M584 683l0.000976562 -445c0 -80.667 -22.5 -142.667 -67.5 -186s-105.833 -65 -182.5 -65s-137.5 21.667 -182.5 65s-67.5 105.333 -67.5 186v443l6 6h38c20.667 0 35.167 -5 43.5 -15s12.5 -26.333 12.5 -49v-384c0 -56 12.667 -98.5 38 -127.5
s62.666 -43.5 111.999 -43.5s86.833 14.5 112.5 43.5s38.5 71.5 38.5 127.5v444c12.667 2.66699 29.167 4 49.5 4s36.833 -1.33301 49.5 -4zM444.001 737l-111.999 75.002l-114 -82c-8.66699 3.33301 -17.334 9.16602 -26.001 17.499s-14.334 17.166 -17.001 26.499l114 111
c14.667 3.33301 29.167 5 43.5 5s28.833 -1.66699 43.5 -5l111 -105c-3.33301 -10 -9.16602 -19 -17.499 -27s-16.833 -13.333 -25.5 -16z" />
    <glyph glyph-name="Udieresis" unicode="&#xdc;" horiz-adv-x="668" 
d="M584 683l0.000976562 -445c0 -80.667 -22.5 -142.667 -67.5 -186s-105.833 -65 -182.5 -65s-137.5 21.667 -182.5 65s-67.5 105.333 -67.5 186v443l6 6h38c20.667 0 35.167 -5 43.5 -15s12.5 -26.333 12.5 -49v-384c0 -56 12.667 -98.5 38 -127.5
s62.666 -43.5 111.999 -43.5s86.833 14.5 112.5 43.5s38.5 71.5 38.5 127.5v444c12.667 2.66699 29.167 4 49.5 4s36.833 -1.33301 49.5 -4zM437.001 839c18 0 33.667 -3.66699 47 -11c5.33301 -11.333 8 -24.833 8 -40.5s-2.66699 -29.167 -8 -40.5
c-11.333 -7.33301 -27 -11 -47 -11s-35.667 3.66699 -47 11c-6 11.333 -9 24.833 -9 40.5s3 29.167 9 40.5c13.333 7.33301 29 11 47 11zM229.001 839c18 0 33.667 -3.66699 47 -11c6 -11.333 9 -24.833 9 -40.5s-3 -29.167 -9 -40.5c-11.333 -7.33301 -27 -11 -47 -11
s-35.667 3.66699 -47 11c-5.33301 11.333 -8 24.833 -8 40.5s2.66699 29.167 8 40.5c13.333 7.33301 29 11 47 11z" />
    <glyph glyph-name="Yacute" unicode="&#xdd;" horiz-adv-x="495" 
d="M299 447l92.998 235.999c12 3.33301 26 5 42 5s32.333 -2.33301 49 -7l5 -7l-190 -454v-220c-13.333 -2.66699 -30.166 -4 -50.499 -4s-36.833 1.33301 -49.5 4v222l-190 450c21.333 12 40.5 18 57.5 18s29.667 -3.5 38 -10.5s15.5 -18.167 21.5 -33.5l83 -201
c10.667 -26.667 24.667 -67.667 42 -123h5c10.667 36.667 25.334 78.334 44.001 125.001zM152.998 778.999l200.001 118.999c10 -7.33301 19.333 -18.666 28 -33.999s14 -31 16 -47l-215 -89c-16.667 11.333 -26.334 28.333 -29.001 51z" />
    <glyph glyph-name="Thorn" unicode="&#xde;" horiz-adv-x="568" 
d="M92 0l-0.000976562 683c13.333 2.66699 30 4 50 4s36.667 -1.33301 50 -4v-103c46.667 1.33301 82.334 2 107.001 2c68.667 0 123.834 -18.5 165.501 -55.5s62.5 -91 62.5 -162s-20.833 -125.167 -62.5 -162.5s-96.834 -56 -165.501 -56h-107v-146
c-13.333 -2.66699 -30 -4 -50 -4s-36.667 1.33301 -50 4zM296.999 501l-105 0.999023v-276c26 0.666992 61.5 1 106.5 1s77 13.5 96 40.5s28.5 59.333 28.5 97s-9.5 69.834 -28.5 96.501s-51.5 40 -97.5 40z" />
    <glyph glyph-name="germandbls" unicode="&#xdf;" horiz-adv-x="623" 
d="M106 0l0.00292969 394.995l-86 -2c-2.66699 10.667 -4 23.834 -4 39.501s1.33301 29.167 4 40.5l86 -2v36c0 60.667 19.667 107.834 59 141.501s91.666 50.5 156.999 50.5s117.666 -18 156.999 -54s59 -84 59 -144c0 -24.667 -5 -50.667 -15 -78h-2l2 -1
c-28 -6.66699 -49 -17.167 -63 -31.5s-21 -29.666 -21 -45.999s13 -35.166 39 -56.499l37 -33c49.333 -44 74 -86.667 74 -128s-16.667 -75 -50 -101s-74.833 -39 -124.5 -39s-93.834 9.66699 -132.501 29c0.666992 11.333 4.16699 24 10.5 38s13.833 24.667 22.5 32
c28.667 -15.333 56.5 -23 83.5 -23s48.333 5.66699 64 17s23.5 27.166 23.5 47.499s-14 42.833 -42 67.5l-40 35c-44.667 38.667 -67 75.334 -67 110.001c0 24.667 9 47.834 27 69.501s42 38.167 72 49.5c2.66699 16 4 28.333 4 37c0 36.667 -10.167 67.167 -30.5 91.5
s-50 36.5 -89 36.5s-68.167 -11.167 -87.5 -33.5s-29 -53.5 -29 -93.5v-497c-12.667 -2.66699 -29 -4 -49 -4s-36.333 1.33301 -49 4z" />
    <glyph glyph-name="agrave" unicode="&#xe0;" horiz-adv-x="506" 
d="M458 43c-6.66699 -23.333 -19.332 -39.999 -37.999 -49.999c-36.667 7.33301 -62 28.666 -76 63.999c-48 -46.667 -97 -70 -147 -70s-87.833 14.667 -113.5 44s-38.5 63.666 -38.5 102.999c0 54.667 17.5 95.834 52.5 123.501s81.167 41.5 138.5 41.5
c34 0 67 -2.33301 99 -7v41c0 60.667 -28 91 -84 91c-43.333 0 -96.333 -13 -159 -39c-18 18 -27.667 42 -29 72c70 30.667 138.333 46 205 46c51.333 0 91.166 -14 119.499 -42s42.5 -69.667 42.5 -125v-205c0 -42.667 9.33301 -72 28 -88zM212.002 65.001
c44.667 0 85.667 21.667 123 65v96c-26 3.33301 -56 5 -90 5s-59.667 -8 -77 -24s-26 -36.667 -26 -62s6.16699 -45 18.5 -59s29.5 -21 51.5 -21zM183.002 735.001l142 -158.001c-7.33301 -19.333 -21.666 -32.666 -42.999 -39.999l-169 133
c5.33301 14 14.666 27.167 27.999 39.5s27.333 20.833 42 25.5z" />
    <glyph glyph-name="aacute" unicode="&#xe1;" horiz-adv-x="506" 
d="M458 43c-6.66699 -23.333 -19.332 -39.999 -37.999 -49.999c-36.667 7.33301 -62 28.666 -76 63.999c-48 -46.667 -97 -70 -147 -70s-87.833 14.667 -113.5 44s-38.5 63.666 -38.5 102.999c0 54.667 17.5 95.834 52.5 123.501s81.167 41.5 138.5 41.5
c34 0 67 -2.33301 99 -7v41c0 60.667 -28 91 -84 91c-43.333 0 -96.333 -13 -159 -39c-18 18 -27.667 42 -29 72c70 30.667 138.333 46 205 46c51.333 0 91.166 -14 119.499 -42s42.5 -69.667 42.5 -125v-205c0 -42.667 9.33301 -72 28 -88zM212.002 65.001
c44.667 0 85.667 21.667 123 65v96c-26 3.33301 -56 5 -90 5s-59.667 -8 -77 -24s-26 -36.667 -26 -62s6.16699 -45 18.5 -59s29.5 -21 51.5 -21zM171.002 577.001l142 158.001c14.667 -4.66699 28.667 -13.167 42 -25.5s22.666 -25.5 27.999 -39.5l-169 -133
c-21.333 7.33301 -35.666 20.666 -42.999 39.999z" />
    <glyph glyph-name="acircumflex" unicode="&#xe2;" horiz-adv-x="506" 
d="M458 43c-6.66699 -23.333 -19.332 -39.999 -37.999 -49.999c-36.667 7.33301 -62 28.666 -76 63.999c-48 -46.667 -97 -70 -147 -70s-87.833 14.667 -113.5 44s-38.5 63.666 -38.5 102.999c0 54.667 17.5 95.834 52.5 123.501s81.167 41.5 138.5 41.5
c34 0 67 -2.33301 99 -7v41c0 60.667 -28 91 -84 91c-43.333 0 -96.333 -13 -159 -39c-18 18 -27.667 42 -29 72c70 30.667 138.333 46 205 46c51.333 0 91.166 -14 119.499 -42s42.5 -69.667 42.5 -125v-205c0 -42.667 9.33301 -72 28 -88zM212.002 65.001
c44.667 0 85.667 21.667 123 65v96c-26 3.33301 -56 5 -90 5s-59.667 -8 -77 -24s-26 -36.667 -26 -62s6.16699 -45 18.5 -59s29.5 -21 51.5 -21zM339.002 546.001l-94.001 91l-100 -97c-19.333 8 -34.333 21.667 -45 41l106 134c10.667 3.33301 22.834 5 36.501 5
s29.167 -1.66699 46.5 -5l98 -126c-10 -22 -26 -36.333 -48 -43z" />
    <glyph glyph-name="atilde" unicode="&#xe3;" horiz-adv-x="506" 
d="M458 43c-6.66699 -23.333 -19.332 -39.999 -37.999 -49.999c-36.667 7.33301 -62 28.666 -76 63.999c-48 -46.667 -97 -70 -147 -70s-87.833 14.667 -113.5 44s-38.5 63.666 -38.5 102.999c0 54.667 17.5 95.834 52.5 123.501s81.167 41.5 138.5 41.5
c34 0 67 -2.33301 99 -7v41c0 60.667 -28 91 -84 91c-43.333 0 -96.333 -13 -159 -39c-18 18 -27.667 42 -29 72c70 30.667 138.333 46 205 46c51.333 0 91.166 -14 119.499 -42s42.5 -69.667 42.5 -125v-205c0 -42.667 9.33301 -72 28 -88zM212.002 65.001
c44.667 0 85.667 21.667 123 65v96c-26 3.33301 -56 5 -90 5s-59.667 -8 -77 -24s-26 -36.667 -26 -62s6.16699 -45 18.5 -59s29.5 -21 51.5 -21zM256.002 571.001l-56.001 28.002c-13.333 6 -25.333 9 -36 9s-22.667 -8.33301 -36 -25l-11 -15
c-10 0 -19.667 2.83301 -29 8.5s-15.666 12.834 -18.999 21.501l9 20c9.33301 22 22.666 39.5 39.999 52.5s35.333 19.5 54 19.5s38.667 -5.33301 60 -16l56 -27c10.667 -6 22 -9 34 -9s24.667 8.33301 38 25l11 15c10 -0.666992 19.667 -3.83398 29 -9.50098
s15.666 -12.834 18.999 -21.501l-9 -19c-10 -22.667 -23.667 -40.334 -41 -53.001s-35.166 -19 -53.499 -19s-38.166 5 -59.499 15z" />
    <glyph glyph-name="adieresis" unicode="&#xe4;" horiz-adv-x="506" 
d="M458 43c-6.66699 -23.333 -19.332 -39.999 -37.999 -49.999c-36.667 7.33301 -62 28.666 -76 63.999c-48 -46.667 -97 -70 -147 -70s-87.833 14.667 -113.5 44s-38.5 63.666 -38.5 102.999c0 54.667 17.5 95.834 52.5 123.501s81.167 41.5 138.5 41.5
c34 0 67 -2.33301 99 -7v41c0 60.667 -28 91 -84 91c-43.333 0 -96.333 -13 -159 -39c-18 18 -27.667 42 -29 72c70 30.667 138.333 46 205 46c51.333 0 91.166 -14 119.499 -42s42.5 -69.667 42.5 -125v-205c0 -42.667 9.33301 -72 28 -88zM212.002 65.001
c44.667 0 85.667 21.667 123 65v96c-26 3.33301 -56 5 -90 5s-59.667 -8 -77 -24s-26 -36.667 -26 -62s6.16699 -45 18.5 -59s29.5 -21 51.5 -21zM282.002 611.001c0 13.333 2.66699 25.999 8 37.999c11.333 7.33301 26.833 11 46.5 11s35.167 -3.66699 46.5 -11
c4.66699 -12.667 7 -25.667 7 -39s-2.33301 -25.666 -7 -36.999c-12.667 -8 -28.5 -12 -47.5 -12s-34.167 4 -45.5 12c-5.33301 12 -8 24.667 -8 38zM98.002 611c0 12.667 2.33301 25.332 7 37.999c11.333 7.33301 26.833 11 46.5 11s35.167 -3.66699 46.5 -11
c5.33301 -12 8 -25 8 -39s-2.66699 -26.333 -8 -37c-11.333 -8 -26.5 -12 -45.5 -12s-34.833 4 -47.5 12c-4.66699 12.667 -7 25.334 -7 38.001z" />
    <glyph glyph-name="aring" unicode="&#xe5;" horiz-adv-x="506" 
d="M458 43c-6.66699 -23.333 -19.332 -39.999 -37.999 -49.999c-36.667 7.33301 -62 28.666 -76 63.999c-48 -46.667 -97 -70 -147 -70s-87.833 14.667 -113.5 44s-38.5 63.666 -38.5 102.999c0 54.667 17.5 95.834 52.5 123.501s81.167 41.5 138.5 41.5
c34 0 67 -2.33301 99 -7v41c0 60.667 -28 91 -84 91c-43.333 0 -96.333 -13 -159 -39c-18 18 -27.667 42 -29 72c70 30.667 138.333 46 205 46c51.333 0 91.166 -14 119.499 -42s42.5 -69.667 42.5 -125v-205c0 -42.667 9.33301 -72 28 -88zM212.002 65.001
c44.667 0 85.667 21.667 123 65v96c-26 3.33301 -56 5 -90 5s-59.667 -8 -77 -24s-26 -36.667 -26 -62s6.16699 -45 18.5 -59s29.5 -21 51.5 -21zM126.002 650.001c0 31.333 11 57.666 33 78.999s50.333 32 85 32s63 -10.667 85 -32s33 -47.666 33 -78.999
s-11 -57.833 -33 -79.5s-50.333 -32.5 -85 -32.5s-63 10.833 -85 32.5s-33 48.167 -33 79.5zM208.002 689.001c-9.33301 -10.667 -14 -23.834 -14 -39.501s4.66699 -28.667 14 -39s21.333 -15.5 36 -15.5s26.667 5.16699 36 15.5s14 23.333 14 39
s-4.66699 28.834 -14 39.501s-21.333 16 -36 16s-26.667 -5.33301 -36 -16z" />
    <glyph glyph-name="ae" unicode="&#xe6;" horiz-adv-x="785" 
d="M728 216l-295.998 -0.000976562c2 -47.333 12 -84 30 -110s48 -39 90 -39s88 13.333 138 40c16.667 -16.667 27 -38 31 -64c-53.333 -37.333 -116.5 -56 -189.5 -56s-126.167 28.667 -159.5 86c-50.667 -57.333 -110.667 -86 -180 -86
c-46.667 0 -82.834 14.667 -108.501 44s-38.5 64 -38.5 104c0 54 17.333 94.833 52 122.5s81 41.5 139 41.5c30.667 0 63.667 -2.66699 99 -8v42c0 60.667 -28 91 -84 91c-43.333 0 -96.333 -13 -159 -39c-18 18 -27.667 42 -29 72c70 30.667 136.5 46 199.5 46
s107.833 -21 134.5 -63c37.333 44 85.666 66 144.999 66s106.333 -20.167 141 -60.5s52 -91.5 52 -153.5c0 -25.333 -2.33301 -50.666 -7 -75.999zM160.502 86.499c12.333 -14.333 29.668 -21.5 52.001 -21.5s45.666 6.33301 69.999 19s45.5 31 63.5 55
c-6 25.333 -10 53.666 -12 84.999c-35.333 4.66699 -67.5 7 -96.5 7s-52.167 -7.83301 -69.5 -23.5s-26 -36.167 -26 -61.5s6.16699 -45.166 18.5 -59.499zM538.004 433.999c-65.333 0 -100.666 -49 -105.999 -147h208v12c0 40 -8.33301 72.5 -25 97.5
s-42.334 37.5 -77.001 37.5z" />
    <glyph glyph-name="ccedilla" unicode="&#xe7;" horiz-adv-x="471" 
d="M196 -74c4 17.333 10.9932 38.334 20.9932 63.001c-57.333 7.33301 -100.166 34.666 -128.499 81.999s-42.5 104.666 -42.5 171.999c0 86.667 20 152.167 60 196.5s88.667 66.5 146 66.5s101.833 -15.5 133.5 -46.5s47.5 -65 47.5 -102s-16.667 -55.5 -50 -55.5
c-15.333 0 -28.666 1.33301 -39.999 4v10c0 76.667 -30.667 115 -92 115c-33.333 0 -59.166 -16 -77.499 -48s-27.5 -78.667 -27.5 -140c0 -117.333 38.667 -176 116 -176c35.333 0 76.333 17.333 123 52c9.33301 -5.33301 18 -13.666 26 -24.999s13.333 -22.333 16 -33
c-41.333 -41.333 -90.666 -65.333 -147.999 -72c-6 -12 -9.66699 -20.667 -11 -26c27.333 -2 49.5 -11 66.5 -27s25.5 -37.333 25.5 -64s-11.167 -49 -33.5 -67s-49.666 -27 -81.999 -27s-59.166 6.33301 -80.499 19c0.666992 18 7.33398 35 20.001 51
c15.333 -9.33301 31.5 -14 48.5 -14s29.167 3.83301 36.5 11.5s11 17.167 11 28.5s-3.66699 20.833 -11 28.5s-16.5 11.5 -27.5 11.5s-20.5 -1.66699 -28.5 -5c-9.33301 3.33301 -15 9 -17 17z" />
    <glyph glyph-name="egrave" unicode="&#xe8;" horiz-adv-x="501" 
d="M443 216l-296.999 -0.000976562c2 -47.333 12 -84 30 -110s48 -39 90 -39s88.333 13 139 39c16.667 -16 27 -37 31 -63c-53.333 -37.333 -115.833 -56 -187.5 -56s-123.334 24 -155.001 72s-47.5 110.5 -47.5 187.5s17.833 139.5 53.5 187.5s85.667 72 150 72
s113.833 -20.167 148.5 -60.5s52 -91.5 52 -153.5c0 -25.333 -2.33301 -50.666 -7 -75.999zM330.501 396.499c-17 25 -42.5 37.501 -76.5 37.501s-60 -12.833 -78 -38.5s-28 -61.834 -30 -108.501h210v13c0 39.333 -8.5 71.5 -25.5 96.5zM194.001 735l142 -158.001
c-7.33301 -19.333 -21.666 -32.666 -42.999 -39.999l-169 133c5.33301 14 14.666 27.167 27.999 39.5s27.333 20.833 42 25.5z" />
    <glyph glyph-name="eacute" unicode="&#xe9;" horiz-adv-x="501" 
d="M443 216l-296.999 -0.000976562c2 -47.333 12 -84 30 -110s48 -39 90 -39s88.333 13 139 39c16.667 -16 27 -37 31 -63c-53.333 -37.333 -115.833 -56 -187.5 -56s-123.334 24 -155.001 72s-47.5 110.5 -47.5 187.5s17.833 139.5 53.5 187.5s85.667 72 150 72
s113.833 -20.167 148.5 -60.5s52 -91.5 52 -153.5c0 -25.333 -2.33301 -50.666 -7 -75.999zM330.501 396.499c-17 25 -42.5 37.501 -76.5 37.501s-60 -12.833 -78 -38.5s-28 -61.834 -30 -108.501h210v13c0 39.333 -8.5 71.5 -25.5 96.5zM183.001 577l142 158.001
c14.667 -4.66699 28.667 -13.167 42 -25.5s22.666 -25.5 27.999 -39.5l-169 -133c-21.333 7.33301 -35.666 20.666 -42.999 39.999z" />
    <glyph glyph-name="ecircumflex" unicode="&#xea;" horiz-adv-x="501" 
d="M443 216l-296.999 -0.000976562c2 -47.333 12 -84 30 -110s48 -39 90 -39s88.333 13 139 39c16.667 -16 27 -37 31 -63c-53.333 -37.333 -115.833 -56 -187.5 -56s-123.334 24 -155.001 72s-47.5 110.5 -47.5 187.5s17.833 139.5 53.5 187.5s85.667 72 150 72
s113.833 -20.167 148.5 -60.5s52 -91.5 52 -153.5c0 -25.333 -2.33301 -50.666 -7 -75.999zM330.501 396.499c-17 25 -42.5 37.501 -76.5 37.501s-60 -12.833 -78 -38.5s-28 -61.834 -30 -108.501h210v13c0 39.333 -8.5 71.5 -25.5 96.5zM350.001 546l-94.001 91l-100 -97
c-19.333 8 -34.333 21.667 -45 41l106 134c10.667 3.33301 22.834 5 36.501 5s29.167 -1.66699 46.5 -5l98 -126c-10 -22 -26 -36.333 -48 -43z" />
    <glyph glyph-name="edieresis" unicode="&#xeb;" horiz-adv-x="501" 
d="M443 216l-296.999 -0.000976562c2 -47.333 12 -84 30 -110s48 -39 90 -39s88.333 13 139 39c16.667 -16 27 -37 31 -63c-53.333 -37.333 -115.833 -56 -187.5 -56s-123.334 24 -155.001 72s-47.5 110.5 -47.5 187.5s17.833 139.5 53.5 187.5s85.667 72 150 72
s113.833 -20.167 148.5 -60.5s52 -91.5 52 -153.5c0 -25.333 -2.33301 -50.666 -7 -75.999zM330.501 396.499c-17 25 -42.5 37.501 -76.5 37.501s-60 -12.833 -78 -38.5s-28 -61.834 -30 -108.501h210v13c0 39.333 -8.5 71.5 -25.5 96.5zM293.001 611
c0 13.333 2.66699 25.999 8 37.999c11.333 7.33301 26.833 11 46.5 11s35.167 -3.66699 46.5 -11c4.66699 -12.667 7 -25.667 7 -39s-2.33301 -25.666 -7 -36.999c-12.667 -8 -28.5 -12 -47.5 -12s-34.167 4 -45.5 12c-5.33301 12 -8 24.667 -8 38zM109.001 610.999
c0 12.667 2.33301 25.332 7 37.999c11.333 7.33301 26.833 11 46.5 11s35.167 -3.66699 46.5 -11c5.33301 -12 8 -25 8 -39s-2.66699 -26.333 -8 -37c-11.333 -8 -26.5 -12 -45.5 -12s-34.833 4 -47.5 12c-4.66699 12.667 -7 25.334 -7 38.001z" />
    <glyph glyph-name="igrave" unicode="&#xec;" horiz-adv-x="265" 
d="M187 411v-411c-11.333 -2.66699 -27.333 -4 -48 -4s-36.667 1.33301 -48 4v371c0 18 -3.16699 31 -9.5 39s-17.5 12 -33.5 12h-11c-2.66699 10 -4 21.333 -4 34s1.33301 24.667 4 36c21.333 2.66699 41.333 4 60 4h13c24 0 42.833 -7.5 56.5 -22.5
s20.5 -35.833 20.5 -62.5zM59 735l142 -158.001c-7.33301 -19.333 -21.666 -32.666 -42.999 -39.999l-169 133c5.33301 14 14.666 27.167 27.999 39.5s27.333 20.833 42 25.5z" />
    <glyph glyph-name="iacute" unicode="&#xed;" horiz-adv-x="265" 
d="M187 411v-411c-11.333 -2.66699 -27.333 -4 -48 -4s-36.667 1.33301 -48 4v371c0 18 -3.16699 31 -9.5 39s-17.5 12 -33.5 12h-11c-2.66699 10 -4 21.333 -4 34s1.33301 24.667 4 36c21.333 2.66699 41.333 4 60 4h13c24 0 42.833 -7.5 56.5 -22.5
s20.5 -35.833 20.5 -62.5zM47 577l142 158.001c14.667 -4.66699 28.667 -13.167 42 -25.5s22.666 -25.5 27.999 -39.5l-169 -133c-21.333 7.33301 -35.666 20.666 -42.999 39.999z" />
    <glyph glyph-name="icircumflex" unicode="&#xee;" horiz-adv-x="265" 
d="M187 411v-411c-11.333 -2.66699 -27.333 -4 -48 -4s-36.667 1.33301 -48 4v371c0 18 -3.16699 31 -9.5 39s-17.5 12 -33.5 12h-11c-2.66699 10 -4 21.333 -4 34s1.33301 24.667 4 36c21.333 2.66699 41.333 4 60 4h13c24 0 42.833 -7.5 56.5 -22.5
s20.5 -35.833 20.5 -62.5zM215 546l-94 91l-100 -97c-19.333 8 -34.333 21.667 -45 41l106 134c10.667 3.33301 23 5 37 5s29.333 -1.66699 46 -5l98 -126c-10 -22 -26 -36.333 -48 -43z" />
    <glyph glyph-name="idieresis" unicode="&#xef;" horiz-adv-x="265" 
d="M187 411v-411c-11.333 -2.66699 -27.333 -4 -48 -4s-36.667 1.33301 -48 4v371c0 18 -3.16699 31 -9.5 39s-17.5 12 -33.5 12h-11c-2.66699 10 -4 21.333 -4 34s1.33301 24.667 4 36c21.333 2.66699 41.333 4 60 4h13c24 0 42.833 -7.5 56.5 -22.5
s20.5 -35.833 20.5 -62.5zM158 611c0 13.333 2.66699 25.999 8 37.999c11.333 7.33301 26.833 11 46.5 11s35.167 -3.66699 46.5 -11c4.66699 -12.667 7 -25.667 7 -39s-2.33301 -25.666 -7 -36.999c-12.667 -8 -28.5 -12 -47.5 -12s-34.167 4 -45.5 12
c-5.33301 12 -8 24.667 -8 38zM-26 610.999c0 12.667 2.33301 25.332 7 37.999c11.333 7.33301 26.833 11 46.5 11s35.167 -3.66699 46.5 -11c5.33301 -12 8 -25 8 -39s-2.66699 -26.333 -8 -37c-11.333 -8 -26.5 -12 -45.5 -12s-34.833 4 -47.5 12
c-4.66699 12.667 -7 25.334 -7 38.001z" />
    <glyph glyph-name="eth" unicode="&#xf0;" horiz-adv-x="517" 
d="M115 572l88.002 59.999c-27.333 21.333 -55 39 -83 53c5.33301 30 18.333 50.667 39 62c40 -17.333 78 -39.666 114 -66.999l87 61c7.33301 -5.33301 14.833 -13.166 22.5 -23.499s12.167 -19.833 13.5 -28.5l-74 -51c100 -101.333 150 -232.666 150 -393.999
c0 -87.333 -23.333 -154.666 -70 -201.999c-36.667 -36.667 -84.667 -55 -144 -55s-107.333 18.333 -144 55c-46.667 47.333 -70 112.666 -70 195.999s23.667 148.666 71 195.999c36.667 35.333 83 53 139 53c24 0 49.667 -6.33301 77 -19
c-14.667 40.667 -41.334 81 -80.001 121l-100 -69c-8 5.33301 -15.833 13.166 -23.5 23.499s-11.834 19.833 -12.501 28.5zM363.502 154.499c6.33301 25.667 9.49805 60 9.49805 103s-5.66699 84.833 -17 125.5c-29.333 20.667 -61.666 31 -96.999 31
c-76.667 0 -115 -58 -115 -174c0 -52 8.83301 -94.833 26.5 -128.5s46.834 -50.5 87.501 -50.5c28 0 51 9.16699 69 27.5s30.167 40.333 36.5 66z" />
    <glyph glyph-name="ntilde" unicode="&#xf1;" horiz-adv-x="546" 
d="M470 340l-0.00195312 -237c0 -40 5 -69.667 15 -89c-16.667 -14 -36.667 -21 -60 -21c-34.667 0 -52 20.667 -52 62v260c0 36 -4.5 61.5 -13.5 76.5s-25 22.5 -48 22.5s-46.667 -6 -71 -18s-45.5 -27.667 -63.5 -47v-349c-11.333 -2.66699 -27.166 -4 -47.499 -4
s-36.833 1.33301 -49.5 4v491l7 6h36c34 0 52 -21 54 -63c50 45.333 103.667 68 161 68c44.667 0 77.834 -15 99.501 -45s32.5 -69 32.5 -117zM289.998 571l-56.001 28.002c-13.333 6 -25.333 9 -36 9s-22.667 -8.33301 -36 -25l-11 -15c-10 0 -19.667 2.83301 -29 8.5
s-15.666 12.834 -18.999 21.501l9 20c9.33301 22 22.666 39.5 39.999 52.5s35.333 19.5 54 19.5s38.667 -5.33301 60 -16l56 -27c10.667 -6 22 -9 34 -9s24.667 8.33301 38 25l11 15c10 -0.666992 19.667 -3.83398 29 -9.50098s15.666 -12.834 18.999 -21.501l-9 -19
c-10 -22.667 -23.667 -40.334 -41 -53.001s-35.166 -19 -53.499 -19s-38.166 5 -59.499 15z" />
    <glyph glyph-name="ograve" unicode="&#xf2;" horiz-adv-x="520" 
d="M404 451c46.667 -47.333 70 -115.5 70 -204.5s-23.333 -157.167 -70 -204.5c-36.667 -36.667 -84.667 -55 -144 -55s-107.333 18.333 -144 55c-46.667 47.333 -70 115.5 -70 204.5s23.333 157.167 70 204.5c36.667 36.667 84.667 55 144 55s107.333 -18.333 144 -55z
M146 246c0 -122.667 38 -184 114 -184s114 61.333 114 184c0 34.667 -3.16699 65 -9.5 91s-18.333 48.333 -36 67s-40.5 28 -68.5 28s-50.833 -9.33301 -68.5 -28s-29.667 -41 -36 -67s-9.5 -56.333 -9.5 -91zM198 735l142 -158.001
c-7.33301 -19.333 -21.666 -32.666 -42.999 -39.999l-169 133c5.33301 14 14.666 27.167 27.999 39.5s27.333 20.833 42 25.5z" />
    <glyph glyph-name="oacute" unicode="&#xf3;" horiz-adv-x="520" 
d="M404 451c46.667 -47.333 70 -115.5 70 -204.5s-23.333 -157.167 -70 -204.5c-36.667 -36.667 -84.667 -55 -144 -55s-107.333 18.333 -144 55c-46.667 47.333 -70 115.5 -70 204.5s23.333 157.167 70 204.5c36.667 36.667 84.667 55 144 55s107.333 -18.333 144 -55z
M146 246c0 -122.667 38 -184 114 -184s114 61.333 114 184c0 34.667 -3.16699 65 -9.5 91s-18.333 48.333 -36 67s-40.5 28 -68.5 28s-50.833 -9.33301 -68.5 -28s-29.667 -41 -36 -67s-9.5 -56.333 -9.5 -91zM187 577l142 158.001c14.667 -4.66699 28.667 -13.167 42 -25.5
s22.666 -25.5 27.999 -39.5l-169 -133c-21.333 7.33301 -35.666 20.666 -42.999 39.999z" />
    <glyph glyph-name="ocircumflex" unicode="&#xf4;" horiz-adv-x="520" 
d="M404 451c46.667 -47.333 70 -115.5 70 -204.5s-23.333 -157.167 -70 -204.5c-36.667 -36.667 -84.667 -55 -144 -55s-107.333 18.333 -144 55c-46.667 47.333 -70 115.5 -70 204.5s23.333 157.167 70 204.5c36.667 36.667 84.667 55 144 55s107.333 -18.333 144 -55z
M146 246c0 -122.667 38 -184 114 -184s114 61.333 114 184c0 34.667 -3.16699 65 -9.5 91s-18.333 48.333 -36 67s-40.5 28 -68.5 28s-50.833 -9.33301 -68.5 -28s-29.667 -41 -36 -67s-9.5 -56.333 -9.5 -91zM355 546l-94.001 91l-100 -97c-19.333 8 -34.333 21.667 -45 41
l106 134c10.667 3.33301 22.834 5 36.501 5s29.167 -1.66699 46.5 -5l98 -126c-10 -22 -26 -36.333 -48 -43z" />
    <glyph glyph-name="otilde" unicode="&#xf5;" horiz-adv-x="520" 
d="M404 451c46.667 -47.333 70 -115.5 70 -204.5s-23.333 -157.167 -70 -204.5c-36.667 -36.667 -84.667 -55 -144 -55s-107.333 18.333 -144 55c-46.667 47.333 -70 115.5 -70 204.5s23.333 157.167 70 204.5c36.667 36.667 84.667 55 144 55s107.333 -18.333 144 -55z
M146 246c0 -122.667 38 -184 114 -184s114 61.333 114 184c0 34.667 -3.16699 65 -9.5 91s-18.333 48.333 -36 67s-40.5 28 -68.5 28s-50.833 -9.33301 -68.5 -28s-29.667 -41 -36 -67s-9.5 -56.333 -9.5 -91zM272 571l-56.001 28.002c-13.333 6 -25.333 9 -36 9
s-22.667 -8.33301 -36 -25l-11 -15c-10 0 -19.667 2.83301 -29 8.5s-15.666 12.834 -18.999 21.501l9 20c9.33301 22 22.666 39.5 39.999 52.5s35.333 19.5 54 19.5s38.667 -5.33301 60 -16l56 -27c10.667 -6 22 -9 34 -9s24.667 8.33301 38 25l11 15
c10 -0.666992 19.667 -3.83398 29 -9.50098s15.666 -12.834 18.999 -21.501l-9 -19c-10 -22.667 -23.667 -40.334 -41 -53.001s-35.166 -19 -53.499 -19s-38.166 5 -59.499 15z" />
    <glyph glyph-name="odieresis" unicode="&#xf6;" horiz-adv-x="520" 
d="M404 451c46.667 -47.333 70 -115.5 70 -204.5s-23.333 -157.167 -70 -204.5c-36.667 -36.667 -84.667 -55 -144 -55s-107.333 18.333 -144 55c-46.667 47.333 -70 115.5 -70 204.5s23.333 157.167 70 204.5c36.667 36.667 84.667 55 144 55s107.333 -18.333 144 -55z
M146 246c0 -122.667 38 -184 114 -184s114 61.333 114 184c0 34.667 -3.16699 65 -9.5 91s-18.333 48.333 -36 67s-40.5 28 -68.5 28s-50.833 -9.33301 -68.5 -28s-29.667 -41 -36 -67s-9.5 -56.333 -9.5 -91zM298 611c0 13.333 2.66699 25.999 8 37.999
c11.333 7.33301 26.833 11 46.5 11s35.167 -3.66699 46.5 -11c4.66699 -12.667 7 -25.667 7 -39s-2.33301 -25.666 -7 -36.999c-12.667 -8 -28.5 -12 -47.5 -12s-34.167 4 -45.5 12c-5.33301 12 -8 24.667 -8 38zM114 610.999c0 12.667 2.33301 25.332 7 37.999
c11.333 7.33301 26.833 11 46.5 11s35.167 -3.66699 46.5 -11c5.33301 -12 8 -25 8 -39s-2.66699 -26.333 -8 -37c-11.333 -8 -26.5 -12 -45.5 -12s-34.833 4 -47.5 12c-4.66699 12.667 -7 25.334 -7 38.001z" />
    <glyph glyph-name="divide" unicode="&#xf7;" horiz-adv-x="530" 
d="M214 429c-5.33301 13.333 -8.00195 27.168 -8.00195 41.501s2.66699 28.166 8 41.499c12.667 7.33301 30 11 52 11s38.333 -3.66699 49 -11c6 -12 9 -25.833 9 -41.5s-3 -29.5 -9 -41.5c-9.33301 -7.33301 -25.666 -11 -48.999 -11s-40.666 3.66699 -51.999 11z
M205.998 114.002c0 14 2.66699 27.667 8 41c14 8 31.5 12 52.5 12s37.167 -4 48.5 -12c6 -12 9 -25.667 9 -41s-3 -29 -9 -41c-10 -8 -26.167 -12 -48.5 -12s-39.833 4 -52.5 12c-5.33301 13.333 -8 27 -8 41zM472.998 251.002h-416c-2.66699 11.333 -4 25.166 -4 41.499
s1.33301 30.833 4 43.5h416c2.66699 -12.667 4 -27.167 4 -43.5s-1.33301 -30.166 -4 -41.499z" />
    <glyph glyph-name="oslash" unicode="&#xf8;" horiz-adv-x="521" 
d="M405 449c46.667 -46.667 69.999 -114.5 69.999 -203.5s-23.667 -156.833 -71 -203.5c-36.667 -36.667 -84.667 -55 -144 -55c-36 0 -67 6.33301 -93 19l-35 -61c-10 1.33301 -20.667 5 -32 11s-19.666 13 -24.999 21l39 68c-45.333 46 -68 113.5 -68 202.5
s23.667 156.833 71 203.5c36.667 36.667 84.334 55 143.001 55c33.333 0 63.666 -6 90.999 -18l35 61c24 -3.33301 43.333 -14 58 -32zM359.999 368l-154.998 -295c15.333 -9.33301 34.166 -14 56.499 -14s41.666 5.33301 57.999 16s28.833 25 37.5 43
c16.667 35.333 25 78 25 128s-7.33301 90.667 -22 122zM167.501 381.5c-19 -35.667 -28.5 -79.5 -28.5 -131.5s6.66699 -93 20 -123l155 294c-15.333 9.33301 -33 14 -53 14c-43.333 0 -74.5 -17.833 -93.5 -53.5z" />
    <glyph glyph-name="ugrave" unicode="&#xf9;" horiz-adv-x="547" 
d="M76 153v236.999c0 38.667 -5.33301 68.334 -16 89.001c15.333 13.333 34 20 56 20s36.833 -5 44.5 -15s11.5 -25.667 11.5 -47v-259c0 -36 4.66699 -61.667 14 -77s25.5 -23 48.5 -23s46.5 6 70.5 18s45.333 28 64 48v349c17.333 2.66699 33.333 4 48 4
s30.667 -1.33301 48 -4v-354c0 -48 9.33301 -80.333 28 -97c-6 -22 -18.333 -38.333 -37 -49c-40.667 8.66699 -67 33 -79 73c-50 -50 -106.667 -75 -170 -75c-44 0 -76.833 15 -98.5 45s-32.5 69 -32.5 117zM207 734.999l142 -158.001
c-7.33301 -19.333 -21.666 -32.666 -42.999 -39.999l-169 133c5.33301 14 14.666 27.167 27.999 39.5s27.333 20.833 42 25.5z" />
    <glyph glyph-name="uacute" unicode="&#xfa;" horiz-adv-x="547" 
d="M76 153v236.999c0 38.667 -5.33301 68.334 -16 89.001c15.333 13.333 34 20 56 20s36.833 -5 44.5 -15s11.5 -25.667 11.5 -47v-259c0 -36 4.66699 -61.667 14 -77s25.5 -23 48.5 -23s46.5 6 70.5 18s45.333 28 64 48v349c17.333 2.66699 33.333 4 48 4
s30.667 -1.33301 48 -4v-354c0 -48 9.33301 -80.333 28 -97c-6 -22 -18.333 -38.333 -37 -49c-40.667 8.66699 -67 33 -79 73c-50 -50 -106.667 -75 -170 -75c-44 0 -76.833 15 -98.5 45s-32.5 69 -32.5 117zM195 576.999l142 158.001
c14.667 -4.66699 28.667 -13.167 42 -25.5s22.666 -25.5 27.999 -39.5l-169 -133c-21.333 7.33301 -35.666 20.666 -42.999 39.999z" />
    <glyph glyph-name="ucircumflex" unicode="&#xfb;" horiz-adv-x="547" 
d="M76 153v236.999c0 38.667 -5.33301 68.334 -16 89.001c15.333 13.333 34 20 56 20s36.833 -5 44.5 -15s11.5 -25.667 11.5 -47v-259c0 -36 4.66699 -61.667 14 -77s25.5 -23 48.5 -23s46.5 6 70.5 18s45.333 28 64 48v349c17.333 2.66699 33.333 4 48 4
s30.667 -1.33301 48 -4v-354c0 -48 9.33301 -80.333 28 -97c-6 -22 -18.333 -38.333 -37 -49c-40.667 8.66699 -67 33 -79 73c-50 -50 -106.667 -75 -170 -75c-44 0 -76.833 15 -98.5 45s-32.5 69 -32.5 117zM363 545.999l-94.001 91l-100 -97
c-19.333 8 -34.333 21.667 -45 41l106 134c10.667 3.33301 22.834 5 36.501 5s29.167 -1.66699 46.5 -5l98 -126c-10 -22 -26 -36.333 -48 -43z" />
    <glyph glyph-name="udieresis" unicode="&#xfc;" horiz-adv-x="547" 
d="M76 153v236.999c0 38.667 -5.33301 68.334 -16 89.001c15.333 13.333 34 20 56 20s36.833 -5 44.5 -15s11.5 -25.667 11.5 -47v-259c0 -36 4.66699 -61.667 14 -77s25.5 -23 48.5 -23s46.5 6 70.5 18s45.333 28 64 48v349c17.333 2.66699 33.333 4 48 4
s30.667 -1.33301 48 -4v-354c0 -48 9.33301 -80.333 28 -97c-6 -22 -18.333 -38.333 -37 -49c-40.667 8.66699 -67 33 -79 73c-50 -50 -106.667 -75 -170 -75c-44 0 -76.833 15 -98.5 45s-32.5 69 -32.5 117zM306 610.999c0 13.333 2.66699 25.999 8 37.999
c11.333 7.33301 26.833 11 46.5 11s35.167 -3.66699 46.5 -11c4.66699 -12.667 7 -25.667 7 -39s-2.33301 -25.666 -7 -36.999c-12.667 -8 -28.5 -12 -47.5 -12s-34.167 4 -45.5 12c-5.33301 12 -8 24.667 -8 38zM122 610.998c0 12.667 2.33301 25.332 7 37.999
c11.333 7.33301 26.833 11 46.5 11s35.167 -3.66699 46.5 -11c5.33301 -12 8 -25 8 -39s-2.66699 -26.333 -8 -37c-11.333 -8 -26.5 -12 -45.5 -12s-34.833 4 -47.5 12c-4.66699 12.667 -7 25.334 -7 38.001z" />
    <glyph glyph-name="yacute" unicode="&#xfd;" horiz-adv-x="464" 
d="M452 485l-134 -468.997c-24 -83.333 -51.333 -143.166 -82 -179.499s-76.667 -54.5 -138 -54.5c-32.667 0 -63.334 5 -92.001 15v9c0 22.667 7 43 21 61c21.333 -8 46.833 -12 76.5 -12s53.5 10.667 71.5 32s33.667 53.666 47 96.999l3 11
c-20.667 1.33301 -36.667 5.66602 -48 12.999s-20 20.666 -26 39.999l-133 438c20.667 9.33301 40 14 58 14c24.667 0 41.334 -14.333 50.001 -43l70 -235c4 -12.667 17 -62.334 39 -149.001c1.33301 -4.66699 4.33301 -7 9 -7l113 427c10.667 2.66699 25 4 43 4
s34 -2.33301 48 -7zM159 577.003l142 158.001c14.667 -4.66699 28.667 -13.167 42 -25.5s22.666 -25.5 27.999 -39.5l-169 -133c-21.333 7.33301 -35.666 20.666 -42.999 39.999z" />
    <glyph glyph-name="thorn" unicode="&#xfe;" horiz-adv-x="527" 
d="M437 433.5c30 -45 45 -107.5 45 -187.5s-19 -142.5 -57 -187.5s-82 -67.5 -132 -67.5c-39.333 0 -79 11.667 -119 35v-179c0 -22 -3.66699 -37.833 -11 -47.5s-21 -14.5 -41 -14.5h-35l-7 6v938l7 6h35c20 0 33.667 -4.83301 41 -14.5s11 -25.5 11 -47.5v-230
c37.333 38.667 83 58 137 58s96 -22.5 126 -67.5zM289 420c-46 0 -84.335 -22.333 -115.002 -67v-245c38.667 -25.333 73.334 -38 104.001 -38s55.834 15.333 75.501 46s29.5 75 29.5 133s-8.83301 101 -26.5 129s-40.167 42 -67.5 42z" />
    <glyph glyph-name="ydieresis" unicode="&#xff;" horiz-adv-x="464" 
d="M452 485l-134 -468.997c-24 -83.333 -51.333 -143.166 -82 -179.499s-76.667 -54.5 -138 -54.5c-32.667 0 -63.334 5 -92.001 15v9c0 22.667 7 43 21 61c21.333 -8 46.833 -12 76.5 -12s53.5 10.667 71.5 32s33.667 53.666 47 96.999l3 11
c-20.667 1.33301 -36.667 5.66602 -48 12.999s-20 20.666 -26 39.999l-133 438c20.667 9.33301 40 14 58 14c24.667 0 41.334 -14.333 50.001 -43l70 -235c4 -12.667 17 -62.334 39 -149.001c1.33301 -4.66699 4.33301 -7 9 -7l113 427c10.667 2.66699 25 4 43 4
s34 -2.33301 48 -7zM269 611.003c0 13.333 2.66699 25.999 8 37.999c11.333 7.33301 26.833 11 46.5 11s35.167 -3.66699 46.5 -11c4.66699 -12.667 7 -25.667 7 -39s-2.33301 -25.666 -7 -36.999c-12.667 -8 -28.5 -12 -47.5 -12s-34.167 4 -45.5 12
c-5.33301 12 -8 24.667 -8 38zM85 611.002c0 12.667 2.33301 25.332 7 37.999c11.333 7.33301 26.833 11 46.5 11s35.167 -3.66699 46.5 -11c5.33301 -12 8 -25 8 -39s-2.66699 -26.333 -8 -37c-11.333 -8 -26.5 -12 -45.5 -12s-34.833 4 -47.5 12
c-4.66699 12.667 -7 25.334 -7 38.001z" />
    <glyph glyph-name="Aogonek" unicode="&#x104;" horiz-adv-x="608" 
d="M231 168l-60.999 0.999023l-54 -170c-10.667 -2.66699 -24.5 -4 -41.5 -4s-33.833 2.33301 -50.5 7l-3 5l227 676c13.333 2.66699 32.666 4 57.999 4s43.666 -1.33301 54.999 -4l226 -677c-59.333 -37.333 -89 -74.333 -89 -111c0 -14.667 4.5 -26 13.5 -34
s22.5 -12 40.5 -12s36.333 5.66699 55 17c14.667 -13.333 22.334 -29.666 23.001 -48.999c-27.333 -22.667 -59.5 -34 -96.5 -34s-65.333 8.33301 -85 25s-29.5 39.334 -29.5 68.001c0 46 24.333 88.333 73 127c-9.33301 7.33301 -17 21.666 -23 42.999l-40 123l-61 -1h-137
zM196.001 249.999l53.002 1h103c1.33301 0 8.66602 -0.166992 21.999 -0.5s23 -0.5 29 -0.5l-49 155c-20 60.667 -37.333 120 -52 178h-6c-10.667 -48 -23.334 -94.333 -38.001 -139z" />
    <glyph glyph-name="aogonek" unicode="&#x105;" horiz-adv-x="536" 
d="M465 -134c14.667 -13.333 22.0029 -29.667 22.0029 -49c-27.333 -22.667 -59.333 -34 -96 -34s-64.834 8.33301 -84.501 25s-29.5 39.334 -29.5 68.001c0 52 31.333 100 94 144c-11.333 10 -20 22.667 -26 38c-47.333 -47.333 -96.333 -71 -147 -71
s-88.834 14.667 -114.501 44s-38.5 63.666 -38.5 102.999c0 54.667 17.5 95.834 52.5 123.501s81.167 41.5 138.5 41.5c34 0 67 -2.33301 99 -7v41c0 60.667 -28 91 -84 91c-43.333 0 -96.333 -13 -159 -39c-18 18 -27.667 42 -29 72c70 30.667 138.333 46 205 46
c51.333 0 91.166 -14 119.499 -42s42.5 -69.667 42.5 -125v-205c0 -38.667 10.667 -67.334 32 -86.001c-6.66699 -17.333 -21 -35.666 -43 -54.999c-42 -34.667 -63 -66.334 -63 -95.001c0 -14.667 4.5 -26 13.5 -34s22.167 -12 39.5 -12s36 5.66699 56 17zM212.003 64.999
c44.667 0 85.667 21.667 123 65v96c-26 3.33301 -56 5 -90 5s-59.667 -8 -77 -24s-26 -36.667 -26 -62s6.16699 -45 18.5 -59s29.5 -21 51.5 -21z" />
    <glyph glyph-name="Cacute" unicode="&#x106;" horiz-adv-x="603" 
d="M464 451l0.000976562 23.5c0 13.667 -3.83301 31.667 -11.5 54s-22.834 42.166 -45.501 59.499s-51.334 26 -86.001 26c-54 0 -95 -23.333 -123 -70s-42 -113.5 -42 -200.5s15 -153.667 45 -200s72.667 -69.5 128 -69.5s114 25.667 176 77
c26.667 -17.333 43.334 -39 50.001 -65c-28.667 -29.333 -64.667 -53.166 -108 -71.499s-88.5 -27.5 -135.5 -27.5s-87.667 9.83301 -122 29.5s-61.5 46.167 -81.5 79.5c-38 66 -57 146.667 -57 242c0 118 25.667 207.167 77 267.5s114.333 90.5 189 90.5
s134.167 -19.333 178.5 -58s66.5 -84 66.5 -136c0 -38 -19 -57 -57 -57c-12 0 -25.667 2 -41 6zM223.001 780l200.001 118.999c10 -7.33301 19.333 -18.666 28 -33.999s14 -31 16 -47l-215 -89c-16.667 11.333 -26.334 28.333 -29.001 51z" />
    <glyph glyph-name="cacute" unicode="&#x107;" horiz-adv-x="471" 
d="M343 306l-0.000976562 9.99902c0 76.667 -30.667 115 -92 115c-33.333 0 -59.166 -16 -77.499 -48s-27.5 -78.667 -27.5 -140c0 -117.333 38.667 -176 116 -176c35.333 0 76.333 17.333 123 52c9.33301 -5.33301 18 -13.666 26 -24.999s13.333 -22.333 16 -33
c-49.333 -49.333 -108.333 -74 -177 -74s-119.834 24.333 -153.501 73s-50.5 113 -50.5 193s20 142.167 60 186.5s88.667 66.5 146 66.5s101.833 -15.5 133.5 -46.5s47.5 -65 47.5 -102s-16.667 -55.5 -50 -55.5c-15.333 0 -28.666 1.33301 -39.999 4zM178.999 576.999
l142 158.001c14.667 -4.66699 28.667 -13.167 42 -25.5s22.666 -25.5 27.999 -39.5l-169 -133c-21.333 7.33301 -35.666 20.666 -42.999 39.999z" />
    <glyph glyph-name="Ccaron" unicode="&#x10c;" horiz-adv-x="603" 
d="M464 451l0.000976562 23.5c0 13.667 -3.83301 31.667 -11.5 54s-22.834 42.166 -45.501 59.499s-51.334 26 -86.001 26c-54 0 -95 -23.333 -123 -70s-42 -113.5 -42 -200.5s15 -153.667 45 -200s72.667 -69.5 128 -69.5s114 25.667 176 77
c26.667 -17.333 43.334 -39 50.001 -65c-28.667 -29.333 -64.667 -53.166 -108 -71.499s-88.5 -27.5 -135.5 -27.5s-87.667 9.83301 -122 29.5s-61.5 46.167 -81.5 79.5c-38 66 -57 146.667 -57 242c0 118 25.667 207.167 77 267.5s114.333 90.5 189 90.5
s134.167 -19.333 178.5 -58s66.5 -84 66.5 -136c0 -38 -19 -57 -57 -57c-12 0 -25.667 2 -41 6zM208.001 890l110.996 -75l115 82c8.66699 -3.33301 17.334 -9.16602 26.001 -17.499s14.334 -16.833 17.001 -25.5l-114 -112c-16 -2.66699 -31.167 -4 -45.5 -4
s-28.166 1.33301 -41.499 4l-112 105c6.66699 21.333 21.334 35.666 44.001 42.999z" />
    <glyph glyph-name="ccaron" unicode="&#x10d;" horiz-adv-x="471" 
d="M343 306l-0.000976562 9.99902c0 76.667 -30.667 115 -92 115c-33.333 0 -59.166 -16 -77.499 -48s-27.5 -78.667 -27.5 -140c0 -117.333 38.667 -176 116 -176c35.333 0 76.333 17.333 123 52c9.33301 -5.33301 18 -13.666 26 -24.999s13.333 -22.333 16 -33
c-49.333 -49.333 -108.333 -74 -177 -74s-119.834 24.333 -153.501 73s-50.5 113 -50.5 193s20 142.167 60 186.5s88.667 66.5 146 66.5s101.833 -15.5 133.5 -46.5s47.5 -65 47.5 -102s-16.667 -55.5 -50 -55.5c-15.333 0 -28.666 1.33301 -39.999 4zM156.999 723.999
l93.999 -92.001l101 98c19.333 -8 34.333 -21.667 45 -41l-107 -134c-10.667 -4 -23 -6 -37 -6s-29 1.66699 -45 5l-98 126c10.667 22.667 26.334 37.334 47.001 44.001z" />
    <glyph glyph-name="Dcaron" unicode="&#x10e;" horiz-adv-x="646" 
d="M571 513c14.667 -48 21.998 -105.498 21.998 -172.498s-7.16699 -124.333 -21.5 -172s-42.166 -88.5 -83.499 -122.5c-20 -16.667 -46.5 -29.334 -79.5 -38.001s-63.833 -13 -92.5 -13s-101 1.33301 -217 4l-7 7v671l7 7c57.333 2 129.333 3 216 3
c29.333 0 60.5 -4.33301 93.5 -13s59.5 -21.334 79.5 -38.001c40.667 -34 68.334 -75 83.001 -123zM191.998 77.002l122 -1c29.333 0 54.833 5.5 76.5 16.5s38.667 24.833 51 41.5s22.166 37.334 29.499 62.001s12.166 48.167 14.499 70.5s3.5 47.166 3.5 74.499
s-1.16699 52.166 -3.5 74.499s-7.16602 45.833 -14.499 70.5s-17.166 45.334 -29.499 62.001s-29.333 30.5 -51 41.5s-47.167 16.5 -76.5 16.5l-122 1v-530zM193.998 889.002l110.996 -75l115 82c8.66699 -3.33301 17.334 -9.16602 26.001 -17.499
s14.334 -16.833 17.001 -25.5l-114 -112c-16 -2.66699 -31.167 -4 -45.5 -4s-28.166 1.33301 -41.499 4l-112 105c6.66699 21.333 21.334 35.666 44.001 42.999z" />
    <glyph glyph-name="dcaron" unicode="&#x10f;" horiz-adv-x="588" 
d="M90 56c-29.333 46 -44 109.167 -44 189.5s18.833 143 56.5 188s82.167 67.5 133.5 67.5c37.333 0 76 -11.333 116 -34v262l6 6h37c20 0 33.667 -4.83301 41 -14.5s11 -25.5 11 -47.5v-533c0 -48 9.33301 -80.333 28 -97c-6.66699 -23.333 -19.334 -40 -38.001 -50
c-36 7.33301 -60.667 28.333 -74 63c-40 -46 -88.167 -69 -144.5 -69s-99.166 23 -128.499 69zM238 68c44 0 82 22.001 114 66.001v251c-37.333 25.333 -71.5 38 -102.5 38s-56.333 -15.5 -76 -46.5s-29.5 -75.833 -29.5 -134.5s8.83301 -102.334 26.5 -131.001
s40.167 -43 67.5 -43zM509 565.001l12 211c8 2 16 3 24 3c28.667 0 51.334 -5.33301 68.001 -16l-47 -202c-8.66699 -3.33301 -17.834 -5 -27.501 -5s-19.5 3 -29.5 9z" />
    <glyph glyph-name="Eogonek" unicode="&#x118;" horiz-adv-x="570" 
d="M190 386l61.999 0.99707h192c3.33301 -15.333 5 -29.333 5 -42s-1.66699 -26.667 -5 -42h-192c-26 0 -46.667 0.333008 -62 1v-174c0 -5.33301 -0.166992 -13.166 -0.5 -23.499s-0.5 -18.5 -0.5 -24.5c18.667 2 40.334 3 65.001 3h262
c0 -17.333 -0.666992 -30.333 -2 -39c-4 -21.333 -15 -35.333 -33 -42c-0.666992 0 -1 -0.166992 -1 -0.5s-0.333008 -0.5 -1 -0.5c-28.667 -12 -51.5 -28 -68.5 -48s-25.5 -38.667 -25.5 -56s4.5 -30 13.5 -38s22.167 -12 39.5 -12s36 5.66699 56 17
c14.667 -13.333 22 -29.666 22 -48.999c-27.333 -22.667 -59.333 -34 -96 -34s-64.834 8.33301 -84.501 25s-29.5 39.334 -29.5 68.001c0 46.667 24 87.667 72 123h-229c-17.333 0 -31.166 5.5 -41.499 16.5s-15.5 26.167 -15.5 45.5v616l6 6h399c2 -10 3 -23.167 3 -39.5
s-2.33301 -31.5 -7 -45.5h-241c-26.667 0 -47.667 0.333008 -63 1l1 -65v-148z" />
    <glyph glyph-name="eogonek" unicode="&#x119;" horiz-adv-x="501" 
d="M274 -12l-24 -1.00293c-72.667 0 -124.834 24 -156.501 72s-47.5 110.5 -47.5 187.5s17.833 139.5 53.5 187.5s85.667 72 150 72s113.833 -20.167 148.5 -60.5s52 -91.5 52 -153.5c0 -25.333 -2.33301 -50.666 -7 -75.999h-297c2 -47.333 12 -84 30 -110s48 -39 90 -39
s88.333 13 139 39c16.667 -16 27 -37 31 -63c-21.333 -15.333 -45 -27.333 -71 -36c-46.667 -37.333 -70 -74.666 -70 -111.999c0 -14.667 4.5 -26 13.5 -34s22.5 -12 40.5 -12s36.333 5.66699 55 17c14.667 -13.333 22.334 -29.666 23.001 -48.999
c-27.333 -22.667 -59.5 -34 -96.5 -34s-65.333 8.33301 -85 25s-29.5 39.667 -29.5 69c0 38.667 19.333 75.667 58 111zM330.5 396.497c-17 25 -42.5 37.501 -76.5 37.501s-60 -12.833 -78 -38.5s-28 -61.834 -30 -108.501h210v13c0 39.333 -8.5 71.5 -25.5 96.5z" />
    <glyph glyph-name="Ecaron" unicode="&#x11a;" horiz-adv-x="565" 
d="M190 386l61.998 0.999023h192c3.33301 -15.333 5 -29.333 5 -42s-1.66699 -26.667 -5 -42h-192c-26 0 -46.667 0.333008 -62 1v-174c0 -5.33301 -0.166992 -13.166 -0.5 -23.499s-0.5 -18.5 -0.5 -24.5c18.667 2 40.334 3 65.001 3h262
c0 -17.333 -0.666992 -30.333 -2 -39c-6 -31.333 -27.333 -47 -64 -47h-301c-17.333 0 -31.166 5.5 -41.499 16.5s-15.5 26.167 -15.5 45.5v616l6 6h399c2 -10 3 -23.167 3 -39.5s-2.33301 -31.5 -7 -45.5h-241c-26.667 0 -47.667 0.333008 -63 1l1 -65v-148z
M185.998 888.999l110.996 -75l115 82c8.66699 -3.33301 17.334 -9.16602 26.001 -17.499s14.334 -16.833 17.001 -25.5l-114 -112c-16 -2.66699 -31.167 -4 -45.5 -4s-28.166 1.33301 -41.499 4l-112 105c6.66699 21.333 21.334 35.666 44.001 42.999z" />
    <glyph glyph-name="ecaron" unicode="&#x11b;" horiz-adv-x="501" 
d="M443 216l-296.999 -0.000976562c2 -47.333 12 -84 30 -110s48 -39 90 -39s88.333 13 139 39c16.667 -16 27 -37 31 -63c-53.333 -37.333 -115.833 -56 -187.5 -56s-123.334 24 -155.001 72s-47.5 110.5 -47.5 187.5s17.833 139.5 53.5 187.5s85.667 72 150 72
s113.833 -20.167 148.5 -60.5s52 -91.5 52 -153.5c0 -25.333 -2.33301 -50.666 -7 -75.999zM330.501 396.499c-17 25 -42.5 37.501 -76.5 37.501s-60 -12.833 -78 -38.5s-28 -61.834 -30 -108.501h210v13c0 39.333 -8.5 71.5 -25.5 96.5zM161.001 724l93.999 -92.001l101 98
c19.333 -8 34.333 -21.667 45 -41l-107 -134c-10.667 -4 -23 -6 -37 -6s-29 1.66699 -45 5l-98 126c10.667 22.667 26.334 37.334 47.001 44.001z" />
    <glyph glyph-name="Hbar" unicode="&#x126;" horiz-adv-x="683" 
d="M196 310l1 -74.002v-236c-13.333 -2.66699 -30.166 -4 -50.499 -4s-36.833 1.33301 -49.5 4v495h-72c-2.66699 10.667 -4 23.334 -4 38.001s1.33301 28.334 4 41.001h72v109c12.667 2.66699 29.167 4 49.5 4s37.166 -1.33301 50.499 -4v-109h288v109
c13.333 2.66699 30 4 50 4s36.667 -1.33301 50 -4v-109h72c3.33301 -15.333 5 -29 5 -41s-1.66699 -24.667 -5 -38h-72v-495c-13.333 -2.66699 -30 -4 -50 -4s-36.667 1.33301 -50 4v236l1 74l-57 -1h-175zM196 392.998l58 1h175l57 -1l-1 75v27h-288v-27z" />
    <glyph glyph-name="hbar" unicode="&#x127;" horiz-adv-x="547" 
d="M178 673l-0.000976562 -37.999l161 2c2.66699 -10.667 4 -22 4 -34s-1.33301 -23.333 -4 -34l-161 2v-137c49.333 44.667 103 67 161 67c44.667 0 77.834 -15 99.501 -45s32.5 -69 32.5 -117v-236c0 -38.667 5.33301 -68.334 16 -89.001
c-17.333 -14 -37.666 -21 -60.999 -21c-34 0 -51 20.667 -51 62v259c0 36 -4.66699 61.667 -14 77s-25.5 23 -48.5 23s-46.667 -6 -71 -18s-45.5 -27.667 -63.5 -47v-349c-11.333 -2.66699 -26.833 -4 -46.5 -4s-35.834 1.33301 -48.501 4v570l-70 -1
c-2.66699 10.667 -4 22 -4 34s1.33301 23.333 4 34l70 -1v93l7 6h36c20 0 33.667 -4.83301 41 -14.5s11 -25.5 11 -47.5z" />
    <glyph glyph-name="Itilde" unicode="&#x128;" horiz-adv-x="292" 
d="M96 0v683c12.667 2.66699 29.167 4 49.5 4s37.166 -1.33301 50.499 -4v-683c-13.333 -2.66699 -30.166 -4 -50.499 -4s-36.833 1.33301 -49.5 4zM158 756l-57.001 27.001c-13.333 6 -25.833 9 -37.5 9s-23.5 -8.33301 -35.5 -25l-12 -14c-10 0 -19.667 2.83301 -29 8.5
s-15.666 12.5 -18.999 20.5l8 20c9.33301 22 23 39.333 41 52s37 19 57 19s40 -5 60 -15l57 -27c10.667 -6 22.334 -9 35.001 -9s25.334 8.33301 38.001 25l12 14c9.33301 0 18.666 -2.83301 27.999 -8.5s16 -12.834 20 -21.501l-8 -19
c-10.667 -22.667 -24.834 -40.167 -42.501 -52.5s-35.667 -18.5 -54 -18.5s-38.833 5 -61.5 15z" />
    <glyph glyph-name="itilde" unicode="&#x129;" horiz-adv-x="265" 
d="M187 411v-411c-11.333 -2.66699 -27.333 -4 -48 -4s-36.667 1.33301 -48 4v371c0 18 -3.16699 31 -9.5 39s-17.5 12 -33.5 12h-11c-2.66699 10 -4 21.333 -4 34s1.33301 24.667 4 36c21.333 2.66699 41.333 4 60 4h13c24 0 42.833 -7.5 56.5 -22.5
s20.5 -35.833 20.5 -62.5zM132 571l-56.001 28.002c-13.333 6 -25.333 9 -36 9s-22.667 -8.33301 -36 -25l-11 -15c-10 0 -19.667 2.83301 -29 8.5s-15.666 12.834 -18.999 21.501l9 20c9.33301 22 22.666 39.5 39.999 52.5s35.333 19.5 54 19.5s38.667 -5.33301 60 -16
l56 -27c10.667 -6 22 -9 34 -9s24.667 8.33301 38 25l11 15c10 -0.666992 19.667 -3.83398 29 -9.50098s15.666 -12.834 18.999 -21.501l-9 -19c-10 -22.667 -23.667 -40.334 -41 -53.001s-35.166 -19 -53.499 -19s-38.166 5 -59.499 15z" />
    <glyph glyph-name="dotlessi" unicode="&#x131;" horiz-adv-x="268" 
d="M189 411v-411c-11.333 -2.66699 -27.333 -4 -48 -4s-36.667 1.33301 -48 4v371c0 18 -3.16699 31 -9.5 39s-17.5 12 -33.5 12h-11c-2.66699 10 -4 21.333 -4 34s1.33301 24.667 4 36c21.333 2.66699 41.333 4 60 4h13c24 0 42.833 -7.5 56.5 -22.5
s20.5 -35.833 20.5 -62.5z" />
    <glyph glyph-name="IJ" unicode="&#x132;" horiz-adv-x="735" 
d="M96 0v683c12.667 2.66699 29.167 4 49.5 4s37.166 -1.33301 50.499 -4v-683c-13.333 -2.66699 -30.166 -4 -50.499 -4s-36.833 1.33301 -49.5 4zM337 107c36.667 -22 74.1689 -33 112.502 -33s65.5 12.167 81.5 36.5s24 64.833 24 121.5v451
c13.333 2.66699 30.166 4 50.499 4s36.833 -1.33301 49.5 -4v-436c0 -40 -2.5 -74.167 -7.5 -102.5s-14.5 -54.833 -28.5 -79.5c-28.667 -50 -83.667 -75 -165 -75c-58.667 0 -110.334 14 -155.001 42c5.33301 28.667 18 53.667 38 75z" />
    <glyph glyph-name="ij" unicode="&#x133;" horiz-adv-x="540" 
d="M189 411v-411c-11.333 -2.66699 -27.333 -4 -48 -4s-36.667 1.33301 -48 4v371c0 18 -3.16699 31 -9.5 39s-17.5 12 -33.5 12h-11c-2.66699 10 -4 21.333 -4 34s1.33301 24.667 4 36c21.333 2.66699 41.333 4 60 4h13c24 0 42.833 -7.5 56.5 -22.5
s20.5 -35.833 20.5 -62.5zM62 630c0 16.667 2.66602 31 7.99902 43c14 8 32.333 12 55 12s39.667 -4 51 -12c5.33301 -12 8 -26.333 8 -43s-2.66699 -31 -8 -43c-11.333 -8 -28.666 -12 -51.999 -12s-41.333 4 -54 12c-5.33301 12 -8 26.333 -8 43zM460.999 411v-393.999
c0 -57.333 -3 -98.166 -9 -122.499s-14 -42.5 -24 -54.5c-22 -26.667 -57.333 -46.334 -106 -59.001c-15.333 14 -25 34 -29 60c28 14 47 29.667 57 47s15 42.666 15 75.999v407c0 18.667 -3.16699 31.834 -9.5 39.501s-17.5 11.5 -33.5 11.5h-20
c-2.66699 14.667 -4 25.667 -4 33s1.33301 19.666 4 36.999c24 2.66699 47.667 4 71 4h12c23.333 0 41.833 -7.5 55.5 -22.5s20.5 -35.833 20.5 -62.5zM332.999 630.001c0 16.667 2.66602 31 7.99902 43c14 8 32.333 12 55 12s39.667 -4 51 -12c5.33301 -12 8 -26.333 8 -43
s-2.66699 -31 -8 -43c-11.333 -8 -28.666 -12 -51.999 -12s-41.333 4 -54 12c-5.33301 12 -8 26.333 -8 43z" />
    <glyph glyph-name="Jcircumflex" unicode="&#x134;" horiz-adv-x="446" 
d="M48 107c36.667 -22 74.1689 -33 112.502 -33s65.5 12.167 81.5 36.5s24 64.833 24 121.5v451c13.333 2.66699 30.166 4 50.499 4s36.833 -1.33301 49.5 -4v-436c0 -40 -2.5 -74.167 -7.5 -102.5s-14.5 -54.833 -28.5 -79.5c-28.667 -50 -83.667 -75 -165 -75
c-58.667 0 -110.334 14 -155.001 42c5.33301 28.667 18 53.667 38 75zM428.002 737l-112 75.002l-114 -82c-8.66699 3.33301 -17.334 9.16602 -26.001 17.499s-14.334 17.166 -17.001 26.499l114 111c14 3.33301 28.333 5 43 5s29.334 -1.66699 44.001 -5l111 -105
c-3.33301 -10 -9.16602 -19 -17.499 -27s-16.833 -13.333 -25.5 -16z" />
    <glyph glyph-name="jcircumflex" unicode="&#x135;" horiz-adv-x="271" 
d="M193 411v-393.999c0 -57.333 -3 -98.166 -9 -122.499s-14 -42.5 -24 -54.5c-22 -26.667 -57.333 -46.334 -106 -59.001c-15.333 14 -25 34 -29 60c28 14 47 29.667 57 47s15 42.666 15 75.999v407c0 18.667 -3.16699 31.834 -9.5 39.501s-17.5 11.5 -33.5 11.5h-20
c-2.66699 14.667 -4 25.667 -4 33s1.33301 19.666 4 36.999c24 2.66699 47.667 4 71 4h12c23.333 0 41.833 -7.5 55.5 -22.5s20.5 -35.833 20.5 -62.5zM220 546.001l-94.001 91l-100 -97c-19.333 8 -34.333 21.667 -45 41l106 134c10.667 3.33301 22.834 5 36.501 5
s29.167 -1.66699 46.5 -5l98 -126c-10 -22 -26 -36.333 -48 -43z" />
    <glyph glyph-name="Kcommaaccent" unicode="&#x136;" horiz-adv-x="594" 
d="M576 26c-14 -21.333 -36.6699 -32 -68.0029 -32c-18.667 0 -32.667 4.66699 -42 14s-17.666 25.333 -24.999 48l-56 149c-14.667 38.667 -31 65.834 -49 81.501s-42.333 23.5 -73 23.5c-14 0 -37.667 -1 -71 -3v-307c-13.333 -2.66699 -30 -4 -50 -4
s-36.667 1.33301 -50 4v683c13.333 2.66699 30 4 50 4s36.667 -1.33301 50 -4v-289l60 1c14.667 0 27 9.33301 37 28l133 221c8 15.333 16.167 26.166 24.5 32.499s21 9.5 38 9.5s35.5 -1 55.5 -3l6 -9l-155 -260c-12 -20 -24.667 -35.667 -38 -47
c32 -5.33301 56.833 -17.833 74.5 -37.5s33.834 -48.5 48.501 -86.5l56 -147c12.667 -32.667 27.334 -56 44.001 -70zM266.997 -70c17.333 11.333 35.5 16.999 54.5 16.999s33.167 -1.66699 42.5 -5c6 -13.333 9 -33.333 9 -60s-10.667 -53.167 -32 -79.5
s-50.666 -47.166 -87.999 -62.499c-16.667 6 -27.334 20 -32.001 42c39.333 25.333 59 57 59 95c0 19.333 -4.33301 37 -13 53z" />
    <glyph glyph-name="kcommaaccent" unicode="&#x137;" horiz-adv-x="499" 
d="M398 185l35.0029 -84.002c16 -40 32 -66 48 -78c-16 -20 -37.667 -30 -65 -30c-16.667 0 -29.167 4.33301 -37.5 13s-16.833 23.334 -25.5 44.001l-42 99c-11.333 26.667 -22.833 44.667 -34.5 54s-27.334 14 -47.001 14s-37.834 -1 -54.501 -3v-214
c-11.333 -2.66699 -26.833 -4 -46.5 -4s-35.834 1.33301 -48.501 4v729l7 6h36c20 0 33.667 -4.83301 41 -14.5s11 -25.5 11 -47.5v-378l36 2c8.66699 0 16.667 5 24 15l92 142c8.66699 14.667 17.667 25.334 27 32.001s23.5 10 42.5 10s34.5 -0.333008 46.5 -1l6 -8
l-113 -176c-8.66699 -14 -19 -26 -31 -36c40.667 -10.667 71.667 -40.667 93 -90zM224.003 -70.002c17.333 11.333 35.5 16.999 54.5 16.999s33.167 -1.66699 42.5 -5c6 -13.333 9 -33.333 9 -60s-10.667 -53.167 -32 -79.5s-50.666 -47.166 -87.999 -62.499
c-16.667 6 -27.334 20 -32.001 42c39.333 25.333 59 57 59 95c0 19.333 -4.33301 37 -13 53z" />
    <glyph glyph-name="kgreenlandic" unicode="&#x138;" horiz-adv-x="499" 
d="M398 185l35.0029 -84.002c16 -40 32 -66 48 -78c-16 -20 -37.667 -30 -65 -30c-16.667 0 -29.167 4.33301 -37.5 13s-16.833 23.334 -25.5 44.001l-42 99c-11.333 26.667 -22.833 44.667 -34.5 54s-27.334 14 -47.001 14s-37.834 -1 -54.501 -3v-214
c-11.333 -2.66699 -26.833 -4 -46.5 -4s-35.834 1.33301 -48.501 4v491l7 6h36c20 0 33.667 -4.83301 41 -14.5s11 -25.5 11 -47.5v-140l36 2c8.66699 0 16.667 5 24 15l92 142c8.66699 14.667 17.667 25.334 27 32.001s23.5 10 42.5 10s34.5 -0.333008 46.5 -1l6 -8
l-113 -176c-8.66699 -14 -19 -26 -31 -36c40.667 -10.667 71.667 -40.667 93 -90z" />
    <glyph glyph-name="Ldot" unicode="&#x13f;" horiz-adv-x="511" 
d="M280 86h202.001c0 -18 -0.666992 -31.333 -2 -40c-6 -31.333 -27.667 -47 -65 -47h-265c-17.333 0 -31.333 5.5 -42 16.5s-16 26.5 -16 46.5v619l6 6h39c20 0 34.167 -5 42.5 -15s12.5 -26.333 12.5 -49v-540c31.333 2 60.666 3 87.999 3zM336.001 353
c0 18.667 2.66797 34 8.00098 46c11.333 7.33301 28.166 11 50.499 11s38.833 -3.66699 49.5 -11c4.66699 -10 7 -25.333 7 -46s-2.33301 -36 -7 -46c-10 -8 -26 -12 -48 -12s-39.333 4 -52 12c-5.33301 12 -8 27.333 -8 46z" />
    <glyph glyph-name="ldot" unicode="&#x140;" horiz-adv-x="343" 
d="M212 73h39.001c5.33301 -14.667 8 -28 8 -40s-0.666992 -22 -2 -30c-26.667 -4.66699 -54.334 -7 -83.001 -7c-63.333 0 -95 32.667 -95 98v635l6 6h36c20 0 33.667 -4.66699 41 -14s11 -25.333 11 -48v-556c0 -29.333 13 -44 39 -44zM239.001 353
c0 18.667 2.66797 34 8.00098 46c11.333 7.33301 28.166 11 50.499 11s38.833 -3.66699 49.5 -11c4.66699 -10 7 -25.333 7 -46s-2.33301 -36 -7 -46c-10 -8 -26 -12 -48 -12s-39.333 4 -52 12c-5.33301 12 -8 27.333 -8 46z" />
    <glyph glyph-name="Lslash" unicode="&#x141;" horiz-adv-x="517" 
d="M198 623l0.000976562 -222.999l179 60l7 -4c4 -13.333 6 -26.333 6 -39s-1.66699 -25.334 -5 -38.001l-187 -61v-235c31.333 2 60.666 3 87.999 3h202c0 -18 -0.666992 -31.333 -2 -40c-6 -31.333 -27.667 -47 -65 -47h-265c-17.333 0 -31.333 5.5 -42 16.5
s-16 26.5 -16 46.5v226l-68 -24l-7 4c-4 12 -6 24.5 -6 37.5s1.33301 26.167 4 39.5l77 25v311l6 6h39c20 0 34.167 -5 42.5 -15s12.5 -26.333 12.5 -49z" />
    <glyph glyph-name="lslash" unicode="&#x142;" horiz-adv-x="327" 
d="M240 73l37.999 0.000976562c5.33301 -14.667 8 -29 8 -43s-0.666992 -23 -2 -27c-25.333 -4.66699 -52.666 -7 -81.999 -7c-63.333 0 -95 32.667 -95 98v217l-70 -37l-7 4c-4 12 -6 24.167 -6 36.5s1.33301 24.5 4 36.5l79 41v337l6 6h36c20 0 33.667 -4.83301 41 -14.5
s11 -25.5 11 -47.5v-231l80 42l7 -3c3.33301 -11.333 5 -23.333 5 -36s-1.33301 -25.334 -4 -38.001l-88 -47v-243c0 -29.333 13 -44 39 -44z" />
    <glyph glyph-name="Nacute" unicode="&#x143;" horiz-adv-x="678" 
d="M181 565l-3.99902 0.000976562c5.33301 -90.667 8 -170.334 8 -239.001v-326c-15.333 -2.66699 -30.833 -4 -46.5 -4s-31.167 1.33301 -46.5 4v682c18.667 3.33301 39.167 5 61.5 5s41.833 -1.33301 58.5 -4l218 -427c10 -19.333 22.667 -45.833 38 -79.5
s25.333 -54.834 30 -63.501v-1l3 1c-5.33301 84 -8 166.333 -8 247v264c0 22.667 3.83301 38.834 11.5 48.501s21.834 14.5 42.501 14.5h32l7 -5v-681c-18.667 -3.33301 -39.334 -5 -62.001 -5s-42.334 1.33301 -59.001 4l-219 427c-20 39.333 -41.667 85.333 -65 138z
M244.001 779.001l200.001 118.999c10 -7.33301 19.333 -18.666 28 -33.999s14 -31 16 -47l-215 -89c-16.667 11.333 -26.334 28.333 -29.001 51z" />
    <glyph glyph-name="nacute" unicode="&#x144;" horiz-adv-x="546" 
d="M470 340l-0.00195312 -237c0 -40 5 -69.667 15 -89c-16.667 -14 -36.667 -21 -60 -21c-34.667 0 -52 20.667 -52 62v260c0 36 -4.5 61.5 -13.5 76.5s-25 22.5 -48 22.5s-46.667 -6 -71 -18s-45.5 -27.667 -63.5 -47v-349c-11.333 -2.66699 -27.166 -4 -47.499 -4
s-36.833 1.33301 -49.5 4v491l7 6h36c34 0 52 -21 54 -63c50 45.333 103.667 68 161 68c44.667 0 77.834 -15 99.501 -45s32.5 -69 32.5 -117zM205.998 577l142 158.001c14.667 -4.66699 28.667 -13.167 42 -25.5s22.666 -25.5 27.999 -39.5l-169 -133
c-21.333 7.33301 -35.666 20.666 -42.999 39.999z" />
    <glyph glyph-name="Ncaron" unicode="&#x147;" horiz-adv-x="678" 
d="M181 565l-3.99902 0.000976562c5.33301 -90.667 8 -170.334 8 -239.001v-326c-15.333 -2.66699 -30.833 -4 -46.5 -4s-31.167 1.33301 -46.5 4v682c18.667 3.33301 39.167 5 61.5 5s41.833 -1.33301 58.5 -4l218 -427c10 -19.333 22.667 -45.833 38 -79.5
s25.333 -54.834 30 -63.501v-1l3 1c-5.33301 84 -8 166.333 -8 247v264c0 22.667 3.83301 38.834 11.5 48.501s21.834 14.5 42.501 14.5h32l7 -5v-681c-18.667 -3.33301 -39.334 -5 -62.001 -5s-42.334 1.33301 -59.001 4l-219 427c-20 39.333 -41.667 85.333 -65 138z
M229.001 889.001l110.998 -75l115 82c8.66699 -3.33301 17.334 -9.16602 26.001 -17.499s14.334 -16.833 17.001 -25.5l-114 -112c-16 -2.66699 -31.333 -4 -46 -4s-28.334 1.33301 -41.001 4l-112 105c6.66699 21.333 21.334 35.666 44.001 42.999z" />
    <glyph glyph-name="ncaron" unicode="&#x148;" horiz-adv-x="546" 
d="M470 340l-0.00195312 -237c0 -40 5 -69.667 15 -89c-16.667 -14 -36.667 -21 -60 -21c-34.667 0 -52 20.667 -52 62v260c0 36 -4.5 61.5 -13.5 76.5s-25 22.5 -48 22.5s-46.667 -6 -71 -18s-45.5 -27.667 -63.5 -47v-349c-11.333 -2.66699 -27.166 -4 -47.499 -4
s-36.833 1.33301 -49.5 4v491l7 6h36c34 0 52 -21 54 -63c50 45.333 103.667 68 161 68c44.667 0 77.834 -15 99.501 -45s32.5 -69 32.5 -117zM183.998 724l93.999 -92.001l101 98c19.333 -8 34.333 -21.667 45 -41l-107 -134c-10.667 -4 -23 -6 -37 -6s-29 1.66699 -45 5
l-98 126c10.667 22.667 26.334 37.334 47.001 44.001z" />
    <glyph glyph-name="OE" unicode="&#x152;" horiz-adv-x="894" 
d="M521 130l-1 -47c25.333 1.33301 47.333 2 66 2h262c0 -17.333 -1 -30.333 -3 -39c-5.33301 -31.333 -26.333 -47 -63 -47h-329c-57.333 -8 -98.333 -12 -123 -12c-69.333 0 -126.666 20 -171.999 60c-71.333 62 -107 160.333 -107 295
c0 59.333 8.66699 115.166 26 167.499s44.333 94.5 81 126.5c45.333 40 102.666 60 171.999 60c18 0 60 -4.33301 126 -13h373c2 -10 3 -23.333 3 -40s-2.66699 -31.667 -8 -45h-241c-26.667 0 -47.667 0.333008 -63 1l1 -65v-148l62 1h192c3.33301 -12 5 -26.167 5 -42.5
s-1.66699 -30.166 -5 -41.499h-192c-26 0 -46.667 0.333008 -62 1v-174zM242 92.5c24 -16.333 51.833 -24.5029 83.5 -24.5029s64.5 4 98.5 12v522c-37.333 8.66699 -70.833 13 -100.5 13s-56.667 -8.16699 -81 -24.5s-42.5 -38.666 -54.5 -66.999
s-20.5 -57.166 -25.5 -86.499s-7.5 -61 -7.5 -95s2.5 -65.833 7.5 -95.5s13.5 -58.667 25.5 -87s30 -50.666 54 -66.999z" />
    <glyph glyph-name="oe" unicode="&#x153;" horiz-adv-x="832" 
d="M776 216l-295.999 -0.00292969c2 -47.333 12 -84 30 -110s47.833 -39 89.5 -39s87.834 13 138.501 39c16.667 -15.333 27 -36 31 -62c-53.333 -38 -116.333 -57 -189 -57s-124.667 28.333 -156 85c-34.667 -56.667 -89.334 -85 -164.001 -85
c-59.333 0 -107.333 18.333 -144 55c-46.667 46.667 -70 114.834 -70 204.501s23.333 157.834 70 204.501c36.667 36.667 84.667 55 144 55c75.333 0 130.666 -29.667 165.999 -89c34.667 59.333 88 89 160 89c62 0 110.167 -20.167 144.5 -60.5s51.5 -91.5 51.5 -153.5
c0 -29.333 -2 -54.666 -6 -75.999zM155.501 336.997c-6.33301 -26 -9.5 -56.167 -9.5 -90.5s3.16699 -64.5 9.5 -90.5s18.333 -48.167 36 -66.5s40.5 -27.5 68.5 -27.5s50.833 9.16699 68.5 27.5s29.667 40.5 36 66.5s9.5 56.167 9.5 90.5s-3.16699 64.5 -9.5 90.5
s-18.333 48.333 -36 67s-40.5 28 -68.5 28s-50.833 -9.33301 -68.5 -28s-29.667 -41 -36 -67zM586.001 433.997c-65.333 0 -100.666 -49 -105.999 -147h208v12c0 40 -8.33301 72.5 -25 97.5s-42.334 37.5 -77.001 37.5z" />
    <glyph glyph-name="Racute" unicode="&#x154;" horiz-adv-x="599" 
d="M99 684l211.999 3.00098c70 0 125 -17.833 165 -53.5s60 -85.834 60 -150.501c0 -44.667 -12 -83 -36 -115s-55 -54.333 -93 -67c30 -10.667 53.333 -38.667 70 -84l46 -121c13.333 -35.333 28 -59.333 44 -72c-13.333 -20.667 -35.666 -31 -66.999 -31
c-18 0 -31.667 4.83301 -41 14.5s-18 25.5 -26 47.5l-52 139c-10 27.333 -22.5 48 -37.5 62s-36.833 21 -65.5 21h-86v-277c-13.333 -2.66699 -30 -4 -50 -4s-36.667 1.33301 -50 4v677zM191.999 608.001l-0.000976562 -250.999c39.333 2 79.833 3 121.5 3
s71.834 11.667 90.501 35s28 52.666 28 87.999c0 82.667 -41.667 124 -125 124c-54 0 -92.333 0.333008 -115 1zM199.998 779.002l200.001 118.999c10 -7.33301 19.333 -18.666 28 -33.999s14 -31 16 -47l-215 -89c-16.667 11.333 -26.334 28.333 -29.001 51z" />
    <glyph glyph-name="racute" unicode="&#x155;" horiz-adv-x="365" 
d="M53 448c5.33301 22.667 17.334 40.001 36.001 52.001c44 -10.667 73 -40.334 87 -89.001c27.333 59.333 71 89 131 89c16 0 33.333 -2 52 -6c0 -36 -7.66699 -66.333 -23 -91c-4 0.666992 -17.333 2 -40 4c-46.667 0 -83.334 -26 -110.001 -78v-329
c-11.333 -2.66699 -27.5 -4 -48.5 -4s-37.167 1.33301 -48.5 4v346c0 45.333 -12 79.333 -36 102zM128.001 577.001l142 158.001c14.667 -4.66699 28.667 -13.167 42 -25.5s22.666 -25.5 27.999 -39.5l-169 -133c-21.333 7.33301 -35.666 20.666 -42.999 39.999z" />
    <glyph glyph-name="Rcommaaccent" unicode="&#x156;" horiz-adv-x="599" 
d="M99 684l211.999 3.00098c70 0 125 -17.833 165 -53.5s60 -85.834 60 -150.501c0 -44.667 -12 -83 -36 -115s-55 -54.333 -93 -67c30 -10.667 53.333 -38.667 70 -84l46 -121c13.333 -35.333 28 -59.333 44 -72c-13.333 -20.667 -35.666 -31 -66.999 -31
c-18 0 -31.667 4.83301 -41 14.5s-18 25.5 -26 47.5l-52 139c-10 27.333 -22.5 48 -37.5 62s-36.833 21 -65.5 21h-86v-277c-13.333 -2.66699 -30 -4 -50 -4s-36.667 1.33301 -50 4v677zM191.999 608.001l-0.000976562 -250.999c39.333 2 79.833 3 121.5 3
s71.834 11.667 90.501 35s28 52.666 28 87.999c0 82.667 -41.667 124 -125 124c-54 0 -92.333 0.333008 -115 1zM265.998 -69.998c17.333 11.333 35.5 16.999 54.5 16.999s33.167 -1.66699 42.5 -5c6 -13.333 9 -33.333 9 -60s-10.667 -53.167 -32 -79.5
s-50.666 -47.166 -87.999 -62.499c-16.667 6 -27.334 20 -32.001 42c39.333 25.333 59 57 59 95c0 19.333 -4.33301 37 -13 53z" />
    <glyph glyph-name="rcommaaccent" unicode="&#x157;" horiz-adv-x="365" 
d="M53 448c5.33301 22.667 17.334 40.001 36.001 52.001c44 -10.667 73 -40.334 87 -89.001c27.333 59.333 71 89 131 89c16 0 33.333 -2 52 -6c0 -36 -7.66699 -66.333 -23 -91c-4 0.666992 -17.333 2 -40 4c-46.667 0 -83.334 -26 -110.001 -78v-329
c-11.333 -2.66699 -27.5 -4 -48.5 -4s-37.167 1.33301 -48.5 4v346c0 45.333 -12 79.333 -36 102zM94.001 -69.999c17.333 11.333 35.5 16.999 54.5 16.999s33.167 -1.66699 42.5 -5c6 -13.333 9 -33.333 9 -60s-10.667 -53.167 -32 -79.5s-50.666 -47.166 -87.999 -62.499
c-16.667 6 -27.334 20 -32.001 42c39.333 25.333 59 57 59 95c0 19.333 -4.33301 37 -13 53z" />
    <glyph glyph-name="Rcaron" unicode="&#x158;" horiz-adv-x="599" 
d="M99 684l211.999 3.00098c70 0 125 -17.833 165 -53.5s60 -85.834 60 -150.501c0 -44.667 -12 -83 -36 -115s-55 -54.333 -93 -67c30 -10.667 53.333 -38.667 70 -84l46 -121c13.333 -35.333 28 -59.333 44 -72c-13.333 -20.667 -35.666 -31 -66.999 -31
c-18 0 -31.667 4.83301 -41 14.5s-18 25.5 -26 47.5l-52 139c-10 27.333 -22.5 48 -37.5 62s-36.833 21 -65.5 21h-86v-277c-13.333 -2.66699 -30 -4 -50 -4s-36.667 1.33301 -50 4v677zM191.999 608.001l-0.000976562 -250.999c39.333 2 79.833 3 121.5 3
s71.834 11.667 90.501 35s28 52.666 28 87.999c0 82.667 -41.667 124 -125 124c-54 0 -92.333 0.333008 -115 1zM184.998 889.002l110.998 -75l115 82c8.66699 -3.33301 17.334 -9.16602 26.001 -17.499s14.334 -16.833 17.001 -25.5l-114 -112
c-16 -2.66699 -31.333 -4 -46 -4s-28.334 1.33301 -41.001 4l-112 105c6.66699 21.333 21.334 35.666 44.001 42.999z" />
    <glyph glyph-name="rcaron" unicode="&#x159;" horiz-adv-x="365" 
d="M53 448c5.33301 22.667 17.334 40.001 36.001 52.001c44 -10.667 73 -40.334 87 -89.001c27.333 59.333 71 89 131 89c16 0 33.333 -2 52 -6c0 -36 -7.66699 -66.333 -23 -91c-4 0.666992 -17.333 2 -40 4c-46.667 0 -83.334 -26 -110.001 -78v-329
c-11.333 -2.66699 -27.5 -4 -48.5 -4s-37.167 1.33301 -48.5 4v346c0 45.333 -12 79.333 -36 102zM107.001 724.001l93.999 -92.001l101 98c19.333 -8 34.333 -21.667 45 -41l-107 -134c-10.667 -4 -23 -6 -37 -6s-29 1.66699 -45 5l-98 126
c10.667 22.667 26.334 37.334 47.001 44.001z" />
    <glyph glyph-name="Sacute" unicode="&#x15a;" horiz-adv-x="556" 
d="M32 62c3.33301 32 17.665 57.667 42.998 77c69.333 -45.333 136.333 -68 201 -68c40.667 0 73 9.16699 97 27.5s36 42.166 36 71.499c0 46 -31.667 83 -95 111l-117 50c-91.333 40 -137 97.667 -137 173c0 54.667 20.833 100.334 62.5 137.001s96.834 55 165.501 55
s137 -17 205 -51c-1.33301 -32 -13.666 -58.333 -36.999 -79c-62.667 31.333 -116 47 -160 47s-77.333 -9.16699 -100 -27.5s-34 -40 -34 -65s7.33301 -44.833 22 -59.5s36 -28 64 -40l116 -49c99.333 -44 149 -106 149 -186c0 -59.333 -20.667 -107.333 -62 -144
s-103.5 -55 -186.5 -55s-160.5 25 -232.5 75zM188.999 779l200.001 118.999c10 -7.33301 19.333 -18.666 28 -33.999s14 -31 16 -47l-215 -89c-16.667 11.333 -26.334 28.333 -29.001 51z" />
    <glyph glyph-name="sacute" unicode="&#x15b;" horiz-adv-x="437" 
d="M32 37c0.666992 11.333 4.16406 23.6709 10.4971 37.0039s13.833 23.666 22.5 30.999c54.667 -30 98.834 -45 132.501 -45s58.834 6.16699 75.501 18.5s25.334 28.166 26.001 47.499c0 30.667 -21.667 54.334 -65 71.001l-56 22c-85.333 32 -128 79 -128 141
c0 44.667 16.5 80.167 49.5 106.5s76.333 39.5 130 39.5s105.834 -11.667 156.501 -35c0.666992 -12.667 -1.83301 -26 -7.5 -40s-12.834 -24.667 -21.501 -32c-48.667 21.333 -93 32 -133 32c-22.667 0 -41 -5.5 -55 -16.5s-21 -24.833 -21 -41.5
s5.16699 -29.834 15.5 -39.501s26.833 -18.834 49.5 -27.501l60 -22c84 -32.667 126 -82.667 126 -150c0 -44.667 -17.5 -80.334 -52.5 -107.001s-82.333 -40 -142 -40s-117.167 16.667 -172.5 50zM146.997 577.005l142 158.001c14.667 -4.66699 28.667 -13.167 42 -25.5
s22.666 -25.5 27.999 -39.5l-169 -133c-21.333 7.33301 -35.666 20.666 -42.999 39.999z" />
    <glyph glyph-name="Scaron" unicode="&#x160;" horiz-adv-x="556" 
d="M32 62c3.33301 32 17.665 57.667 42.998 77c69.333 -45.333 136.333 -68 201 -68c40.667 0 73 9.16699 97 27.5s36 42.166 36 71.499c0 46 -31.667 83 -95 111l-117 50c-91.333 40 -137 97.667 -137 173c0 54.667 20.833 100.334 62.5 137.001s96.834 55 165.501 55
s137 -17 205 -51c-1.33301 -32 -13.666 -58.333 -36.999 -79c-62.667 31.333 -116 47 -160 47s-77.333 -9.16699 -100 -27.5s-34 -40 -34 -65s7.33301 -44.833 22 -59.5s36 -28 64 -40l116 -49c99.333 -44 149 -106 149 -186c0 -59.333 -20.667 -107.333 -62 -144
s-103.5 -55 -186.5 -55s-160.5 25 -232.5 75zM173.999 889l110.996 -75l115 82c8.66699 -3.33301 17.334 -9.16602 26.001 -17.499s14.334 -16.833 17.001 -25.5l-114 -112c-16 -2.66699 -31.167 -4 -45.5 -4s-28.166 1.33301 -41.499 4l-112 105
c6.66699 21.333 21.334 35.666 44.001 42.999z" />
    <glyph glyph-name="scaron" unicode="&#x161;" horiz-adv-x="437" 
d="M32 37c0.666992 11.333 4.16406 23.6709 10.4971 37.0039s13.833 23.666 22.5 30.999c54.667 -30 98.834 -45 132.501 -45s58.834 6.16699 75.501 18.5s25.334 28.166 26.001 47.499c0 30.667 -21.667 54.334 -65 71.001l-56 22c-85.333 32 -128 79 -128 141
c0 44.667 16.5 80.167 49.5 106.5s76.333 39.5 130 39.5s105.834 -11.667 156.501 -35c0.666992 -12.667 -1.83301 -26 -7.5 -40s-12.834 -24.667 -21.501 -32c-48.667 21.333 -93 32 -133 32c-22.667 0 -41 -5.5 -55 -16.5s-21 -24.833 -21 -41.5
s5.16699 -29.834 15.5 -39.501s26.833 -18.834 49.5 -27.501l60 -22c84 -32.667 126 -82.667 126 -150c0 -44.667 -17.5 -80.334 -52.5 -107.001s-82.333 -40 -142 -40s-117.167 16.667 -172.5 50zM124.997 724.005l93.999 -92.001l101 98c19.333 -8 34.333 -21.667 45 -41
l-107 -134c-10.667 -4 -23 -6 -37 -6s-29 1.66699 -45 5l-98 126c10.667 22.667 26.334 37.334 47.001 44.001z" />
    <glyph glyph-name="Tcaron" unicode="&#x164;" horiz-adv-x="490" 
d="M295 600l1 -74.001v-526c-14 -2.66699 -30.833 -4 -50.5 -4s-36.167 1.33301 -49.5 4v600l-57 -1h-121c-2.66699 12.667 -4 26.5 -4 41.5s1.33301 29.167 4 42.5h455c4 -11.333 6 -24.666 6 -39.999c0 -29.333 -18.667 -44 -56 -44h-70l-57 1h-1zM132 888.999
l110.996 -75l115 82c8.66699 -3.33301 17.334 -9.16602 26.001 -17.499s14.334 -16.833 17.001 -25.5l-114 -112c-16 -2.66699 -31.167 -4 -45.5 -4s-28.166 1.33301 -41.499 4l-112 105c6.66699 21.333 21.334 35.666 44.001 42.999z" />
    <glyph glyph-name="tcaron" unicode="&#x165;" horiz-adv-x="359" 
d="M318 494c2.66699 -11.333 4.00098 -23.5 4.00098 -36.5s-1.33301 -24.833 -4 -35.5l-125 1v-307c0 -28.667 13.667 -43 41 -43h70c5.33301 -12.667 8 -26.5 8 -41.5s-0.333008 -24.5 -1 -28.5c-38.667 -4.66699 -75.334 -7 -110.001 -7c-68 0 -102 32.667 -102 98v329
l-73 -1c-2.66699 10.667 -4 22.5 -4 35.5s1.33301 25.167 4 36.5l73 -1v91c0 22.667 3.66699 38.667 11 48s21 14 41 14h36l6 -6v-148zM256.001 565l12 211c8 2 16 3 24 3c28.667 0 51.334 -5.33301 68.001 -16l-47 -202c-8.66699 -3.33301 -17.834 -5 -27.501 -5
s-19.5 3 -29.5 9z" />
    <glyph glyph-name="Uring" unicode="&#x16e;" horiz-adv-x="668" 
d="M584 683l0.000976562 -445c0 -80.667 -22.5 -142.667 -67.5 -186s-105.833 -65 -182.5 -65s-137.5 21.667 -182.5 65s-67.5 105.333 -67.5 186v443l6 6h38c20.667 0 35.167 -5 43.5 -15s12.5 -26.333 12.5 -49v-384c0 -56 12.667 -98.5 38 -127.5
s62.666 -43.5 111.999 -43.5s86.833 14.5 112.5 43.5s38.5 71.5 38.5 127.5v444c12.667 2.66699 29.167 4 49.5 4s36.833 -1.33301 49.5 -4zM215.001 780c0 31.333 11 57.666 33 78.999s50.333 32 85 32s63 -10.667 85 -32s33 -47.666 33 -78.999s-11 -57.833 -33 -79.5
s-50.333 -32.5 -85 -32.5s-63 10.833 -85 32.5s-33 48.167 -33 79.5zM297.001 819c-9.33301 -10.667 -14 -23.834 -14 -39.501s4.66699 -28.667 14 -39s21.333 -15.5 36 -15.5s26.667 5.16699 36 15.5s14 23.333 14 39s-4.66699 28.834 -14 39.501s-21.333 16 -36 16
s-26.667 -5.33301 -36 -16z" />
    <glyph glyph-name="uring" unicode="&#x16f;" horiz-adv-x="547" 
d="M76 153v236.999c0 38.667 -5.33301 68.334 -16 89.001c15.333 13.333 34 20 56 20s36.833 -5 44.5 -15s11.5 -25.667 11.5 -47v-259c0 -36 4.66699 -61.667 14 -77s25.5 -23 48.5 -23s46.5 6 70.5 18s45.333 28 64 48v349c17.333 2.66699 33.333 4 48 4
s30.667 -1.33301 48 -4v-354c0 -48 9.33301 -80.333 28 -97c-6 -22 -18.333 -38.333 -37 -49c-40.667 8.66699 -67 33 -79 73c-50 -50 -106.667 -75 -170 -75c-44 0 -76.833 15 -98.5 45s-32.5 69 -32.5 117zM150 649.999c0 31.333 11 57.666 33 78.999s50.333 32 85 32
s63 -10.667 85 -32s33 -47.666 33 -78.999s-11 -57.833 -33 -79.5s-50.333 -32.5 -85 -32.5s-63 10.833 -85 32.5s-33 48.167 -33 79.5zM232 688.999c-9.33301 -10.667 -14 -23.834 -14 -39.501s4.66699 -28.667 14 -39s21.333 -15.5 36 -15.5s26.667 5.16699 36 15.5
s14 23.333 14 39s-4.66699 28.834 -14 39.501s-21.333 16 -36 16s-26.667 -5.33301 -36 -16z" />
    <glyph glyph-name="Ydieresis" unicode="&#x178;" horiz-adv-x="495" 
d="M299 447l92.998 235.999c12 3.33301 26 5 42 5s32.333 -2.33301 49 -7l5 -7l-190 -454v-220c-13.333 -2.66699 -30.166 -4 -50.499 -4s-36.833 1.33301 -49.5 4v222l-190 450c21.333 12 40.5 18 57.5 18s29.667 -3.5 38 -10.5s15.5 -18.167 21.5 -33.5l83 -201
c10.667 -26.667 24.667 -67.667 42 -123h5c10.667 36.667 25.334 78.334 44.001 125.001zM354.998 838.999c18 0 33.667 -3.66699 47 -11c5.33301 -11.333 8 -24.833 8 -40.5s-2.66699 -29.167 -8 -40.5c-11.333 -7.33301 -27 -11 -47 -11s-35.667 3.66699 -47 11
c-6 11.333 -9 24.833 -9 40.5s3 29.167 9 40.5c13.333 7.33301 29 11 47 11zM146.998 838.999c18 0 33.667 -3.66699 47 -11c6 -11.333 9 -24.833 9 -40.5s-3 -29.167 -9 -40.5c-11.333 -7.33301 -27 -11 -47 -11s-35.667 3.66699 -47 11c-5.33301 11.333 -8 24.833 -8 40.5
s2.66699 29.167 8 40.5c13.333 7.33301 29 11 47 11z" />
    <glyph glyph-name="Zacute" unicode="&#x179;" horiz-adv-x="560" 
d="M62 108l257 387.998c19.333 28.667 45.333 64.334 78 107.001l-3 3c-27.333 -5.33301 -79.333 -8 -156 -8h-163c-2.66699 10.667 -4 23.5 -4 38.5s2.33301 30.5 7 46.5h409c10 -34 15 -56.667 15 -68s-4.66699 -24 -14 -38l-255 -384c-24 -36.667 -50 -73 -78 -109l3 -3
c42 4 81 6 117 6h110c52.667 0 92 6 118 18c5.33301 -14.667 8 -31 8 -49c0 -37.333 -23.333 -56 -70 -56h-379c-8.66699 32 -13 54.333 -13 67s4.33301 26.334 13 41.001zM185 778.998l200.001 118.999c10 -7.33301 19.333 -18.666 28 -33.999s14 -31 16 -47l-215 -89
c-16.667 11.333 -26.334 28.333 -29.001 51z" />
    <glyph glyph-name="zacute" unicode="&#x17a;" horiz-adv-x="446" 
d="M52 93l168.002 230c27.333 35.333 53.666 67.666 78.999 96.999l-3 3c-36 -4 -80.333 -6 -133 -6h-109c-2 10.667 -3 21.834 -3 33.501s1.66699 25.834 5 42.501h333c10 -28 15 -47.167 15 -57.5s-4.33301 -21.833 -13 -34.5l-168 -227c-4 -6 -29.667 -38.667 -77 -98
l3 -4c29.333 2.66699 60.666 4 93.999 4h49c52 0 88.333 4.33301 109 13c6.66699 -14 10 -28.333 10 -43c0 -30.667 -21 -46 -63 -46h-298c-9.33301 27.333 -14 46.166 -14 56.499s5.33301 22.5 16 36.5zM152.002 577l142 158.001c14.667 -4.66699 28.667 -13.167 42 -25.5
s22.666 -25.5 27.999 -39.5l-169 -133c-21.333 7.33301 -35.666 20.666 -42.999 39.999z" />
    <glyph glyph-name="Zdotaccent" unicode="&#x17b;" horiz-adv-x="560" 
d="M62 108l257 387.998c19.333 28.667 45.333 64.334 78 107.001l-3 3c-27.333 -5.33301 -79.333 -8 -156 -8h-163c-2.66699 10.667 -4 23.5 -4 38.5s2.33301 30.5 7 46.5h409c10 -34 15 -56.667 15 -68s-4.66699 -24 -14 -38l-255 -384c-24 -36.667 -50 -73 -78 -109l3 -3
c42 4 81 6 117 6h110c52.667 0 92 6 118 18c5.33301 -14.667 8 -31 8 -49c0 -37.333 -23.333 -56 -70 -56h-379c-8.66699 32 -13 54.333 -13 67s4.33301 26.334 13 41.001zM222 797.998c0 16.667 2.66602 31 7.99902 43c14 8 32.333 12 55 12s39.667 -4 51 -12
c5.33301 -12 8 -26.333 8 -43s-2.66699 -31 -8 -43c-11.333 -8 -28.666 -12 -51.999 -12s-41.333 4 -54 12c-5.33301 12 -8 26.333 -8 43z" />
    <glyph glyph-name="zdotaccent" unicode="&#x17c;" horiz-adv-x="446" 
d="M52 93l168.002 230c27.333 35.333 53.666 67.666 78.999 96.999l-3 3c-36 -4 -80.333 -6 -133 -6h-109c-2 10.667 -3 21.834 -3 33.501s1.66699 25.834 5 42.501h333c10 -28 15 -47.167 15 -57.5s-4.33301 -21.833 -13 -34.5l-168 -227c-4 -6 -29.667 -38.667 -77 -98
l3 -4c29.333 2.66699 60.666 4 93.999 4h49c52 0 88.333 4.33301 109 13c6.66699 -14 10 -28.333 10 -43c0 -30.667 -21 -46 -63 -46h-298c-9.33301 27.333 -14 46.166 -14 56.499s5.33301 22.5 16 36.5zM163.002 630c0 16.667 2.66602 31 7.99902 43c14 8 32.333 12 55 12
s39.667 -4 51 -12c5.33301 -12 8 -26.333 8 -43s-2.66699 -31 -8 -43c-11.333 -8 -28.666 -12 -51.999 -12s-41.333 4 -54 12c-5.33301 12 -8 26.333 -8 43z" />
    <glyph glyph-name="Zcaron" unicode="&#x17d;" horiz-adv-x="560" 
d="M62 108l257 387.998c19.333 28.667 45.333 64.334 78 107.001l-3 3c-27.333 -5.33301 -79.333 -8 -156 -8h-163c-2.66699 10.667 -4 23.5 -4 38.5s2.33301 30.5 7 46.5h409c10 -34 15 -56.667 15 -68s-4.66699 -24 -14 -38l-255 -384c-24 -36.667 -50 -73 -78 -109l3 -3
c42 4 81 6 117 6h110c52.667 0 92 6 118 18c5.33301 -14.667 8 -31 8 -49c0 -37.333 -23.333 -56 -70 -56h-379c-8.66699 32 -13 54.333 -13 67s4.33301 26.334 13 41.001zM170 888.998l110.996 -75l115 82c8.66699 -3.33301 17.334 -9.16602 26.001 -17.499
s14.334 -16.833 17.001 -25.5l-114 -112c-16 -2.66699 -31.167 -4 -45.5 -4s-28.166 1.33301 -41.499 4l-112 105c6.66699 21.333 21.334 35.666 44.001 42.999z" />
    <glyph glyph-name="zcaron" unicode="&#x17e;" horiz-adv-x="446" 
d="M52 93l168.002 230c27.333 35.333 53.666 67.666 78.999 96.999l-3 3c-36 -4 -80.333 -6 -133 -6h-109c-2 10.667 -3 21.834 -3 33.501s1.66699 25.834 5 42.501h333c10 -28 15 -47.167 15 -57.5s-4.33301 -21.833 -13 -34.5l-168 -227c-4 -6 -29.667 -38.667 -77 -98
l3 -4c29.333 2.66699 60.666 4 93.999 4h49c52 0 88.333 4.33301 109 13c6.66699 -14 10 -28.333 10 -43c0 -30.667 -21 -46 -63 -46h-298c-9.33301 27.333 -14 46.166 -14 56.499s5.33301 22.5 16 36.5zM130.002 724l93.999 -92.001l101 98
c19.333 -8 34.333 -21.667 45 -41l-107 -134c-10.667 -4 -23 -6 -37 -6s-29 1.66699 -45 5l-98 126c10.667 22.667 26.334 37.334 47.001 44.001z" />
    <glyph glyph-name="dotlessj" unicode="&#x237;" horiz-adv-x="275" 
d="M196 411l0.000976562 -393.999c0 -57.333 -3 -98.166 -9 -122.499s-13.667 -42.5 -23 -54.5c-22.667 -26.667 -58.334 -46.334 -107.001 -59.001c-15.333 14 -25 34 -29 60c28 14 47 29.667 57 47s15 42.666 15 75.999v407c0 18.667 -3.16699 31.834 -9.5 39.501
s-17.5 11.5 -33.5 11.5h-20c-2.66699 14.667 -4 25.667 -4 33s1.33301 19.666 4 36.999c24 2.66699 47.667 4 71 4h12c23.333 0 41.833 -7.5 55.5 -22.5s20.5 -35.833 20.5 -62.5z" />
    <glyph glyph-name="circumflex" unicode="&#x2c6;" 
d="M294 546l-94.001 91l-100 -97c-19.333 8 -34.333 21.667 -45 41l106 134c10.667 3.33301 22.834 5 36.501 5s29.167 -1.66699 46.5 -5l98 -126c-10 -22 -26 -36.333 -48 -43z" />
    <glyph glyph-name="caron" unicode="&#x2c7;" 
d="M105 724l93.999 -92.001l101 98c19.333 -8 34.333 -21.667 45 -41l-107 -134c-10.667 -4 -23 -6 -37 -6s-29 1.66699 -45 5l-98 126c10.667 22.667 26.334 37.334 47.001 44.001z" />
    <glyph glyph-name="dotaccent" unicode="&#x2d9;" 
d="M138 630c0 16.667 2.66602 31 7.99902 43c14 8 32.333 12 55 12s39.667 -4 51 -12c5.33301 -12 8 -26.333 8 -43s-2.66699 -31 -8 -43c-11.333 -8 -28.666 -12 -51.999 -12s-41.333 4 -54 12c-5.33301 12 -8 26.333 -8 43z" />
    <glyph glyph-name="ring" unicode="&#x2da;" 
d="M81 650c0 31.333 11 57.666 33 78.999s50.333 32 85 32s63 -10.667 85 -32s33 -47.666 33 -78.999s-11 -57.833 -33 -79.5s-50.333 -32.5 -85 -32.5s-63 10.833 -85 32.5s-33 48.167 -33 79.5zM163 689c-9.33301 -10.667 -14 -23.834 -14 -39.501s4.66699 -28.667 14 -39
s21.333 -15.5 36 -15.5s26.667 5.16699 36 15.5s14 23.333 14 39s-4.66699 28.834 -14 39.501s-21.333 16 -36 16s-26.667 -5.33301 -36 -16z" />
    <glyph glyph-name="tilde" unicode="&#x2dc;" 
d="M211 571l-56.001 28.002c-13.333 6 -25.333 9 -36 9s-22.667 -8.33301 -36 -25l-11 -15c-10 0 -19.667 2.83301 -29 8.5s-15.666 12.834 -18.999 21.501l9 20c9.33301 22 22.666 39.5 39.999 52.5s35.333 19.5 54 19.5s38.667 -5.33301 60 -16l56 -27
c10.667 -6 22 -9 34 -9s24.667 8.33301 38 25l11 15c10 -0.666992 19.667 -3.83398 29 -9.50098s15.666 -12.834 18.999 -21.501l-9 -19c-10 -22.667 -23.667 -40.334 -41 -53.001s-35.166 -19 -53.499 -19s-38.166 5 -59.499 15z" />
    <glyph glyph-name="mu" unicode="&#x3bc;" horiz-adv-x="554" 
d="M472 493l0.00195312 -353.002c0 -49.333 9.33301 -82 28 -98c-2.66699 -9.33301 -7.66699 -18.666 -15 -27.999s-15 -16.333 -23 -21c-37.333 8.66699 -62.666 30.334 -75.999 65.001c-34 -45.333 -77 -68 -129 -68c-33.333 0 -62 10 -86 30v-173
c0 -22 -3.33301 -38.333 -10 -49s-20.334 -16 -41.001 -16s-39 6.33301 -55 19c10 19.333 15 49.333 15 90v602c17.333 2.66699 33.166 4 47.499 4s30.166 -1.33301 47.499 -4v-320c0.666992 -31.333 9.5 -55.5 26.5 -72.5s39.167 -25.5 66.5 -25.5
c40.667 0 76.334 20.667 107.001 62v356c17.333 2.66699 33.166 4 47.499 4s30.833 -1.33301 49.5 -4z" />
    <glyph glyph-name="germandbls.cap" unicode="&#x1e9e;" horiz-adv-x="623" 
d="M106 0l0.00292969 394.995l-86 -2c-2.66699 10.667 -4 23.834 -4 39.501s1.33301 29.167 4 40.5l86 -2v36c0 60.667 19.667 107.834 59 141.501s91.666 50.5 156.999 50.5s117.666 -18 156.999 -54s59 -84 59 -144c0 -24.667 -5 -50.667 -15 -78h-2l2 -1
c-28 -6.66699 -49 -17.167 -63 -31.5s-21 -29.666 -21 -45.999s13 -35.166 39 -56.499l37 -33c49.333 -44 74 -86.667 74 -128s-16.667 -75 -50 -101s-74.833 -39 -124.5 -39s-93.834 9.66699 -132.501 29c0.666992 11.333 4.16699 24 10.5 38s13.833 24.667 22.5 32
c28.667 -15.333 56.5 -23 83.5 -23s48.333 5.66699 64 17s23.5 27.166 23.5 47.499s-14 42.833 -42 67.5l-40 35c-44.667 38.667 -67 75.334 -67 110.001c0 24.667 9 47.834 27 69.501s42 38.167 72 49.5c2.66699 16 4 28.333 4 37c0 36.667 -10.167 67.167 -30.5 91.5
s-50 36.5 -89 36.5s-68.167 -11.167 -87.5 -33.5s-29 -53.5 -29 -93.5v-497c-12.667 -2.66699 -29 -4 -49 -4s-36.333 1.33301 -49 4z" />
    <glyph glyph-name="endash" unicode="&#x2013;" horiz-adv-x="528" 
d="M463 225h-397c-3.33301 10 -5 23 -5 39s1.66699 29.667 5 41h397c2.66699 -12.667 4 -26.5 4 -41.5s-1.33301 -27.833 -4 -38.5z" />
    <glyph glyph-name="emdash" unicode="&#x2014;" horiz-adv-x="797" 
d="M717 225h-637c-2.66699 10.667 -4 23.5 -4 38.5s1.33301 28.833 4 41.5h637c2.66699 -12.667 4 -26.5 4 -41.5s-1.33301 -27.833 -4 -38.5z" />
    <glyph glyph-name="quoteleft" unicode="&#x2018;" horiz-adv-x="223" 
d="M54 520c-7.33301 16.667 -11 37.999 -11 63.999c0 40.667 10.833 76.334 32.5 107.001s53.5 53.667 95.5 69c8.66699 -4 15.167 -10.167 19.5 -18.5s6.5 -14.833 6.5 -19.5v-10c-18.667 -8.66699 -34.5 -20.5 -47.5 -35.5s-19.833 -31.5 -20.5 -49.5
c19.333 -1.33301 33.333 -5 42 -11c6 -10.667 9 -27 9 -49s-3 -37.667 -9 -47c-16 -8.66699 -36.5 -13 -61.5 -13s-43.5 4.33301 -55.5 13z" />
    <glyph glyph-name="quoteright" unicode="&#x2019;" horiz-adv-x="223" 
d="M169 746c7.33301 -16.667 11 -37.999 11 -63.999c0 -40.667 -10.833 -76.334 -32.5 -107.001s-53.5 -53.667 -95.5 -69c-8.66699 4 -15.167 10.167 -19.5 18.5s-6.5 14.833 -6.5 19.5v10c18.667 8.66699 34.5 20.5 47.5 35.5s19.833 31.5 20.5 49.5
c-19.333 1.33301 -33.333 5 -42 11c-6 10.667 -9 27 -9 49s3 37.667 9 47c16 8.66699 36.5 13 61.5 13s43.5 -4.33301 55.5 -13z" />
    <glyph glyph-name="quotesinglbase" unicode="&#x201a;" horiz-adv-x="224" 
d="M174 99c7.33301 -18 11 -39.668 11 -65.001c0 -40 -10.833 -75.333 -32.5 -106s-53.5 -54 -95.5 -70c-8.66699 4 -15.167 10.167 -19.5 18.5s-6.5 14.833 -6.5 19.5v10c43.333 21.333 66 49.666 68 84.999c-22 3.33301 -36 7 -42 11c-6 10.667 -9 27.334 -9 50.001
s3 38.334 9 47.001c14.667 8 34.667 12 60 12s44.333 -4 57 -12z" />
    <glyph glyph-name="quotedblleft" unicode="&#x201c;" horiz-adv-x="412" 
d="M53 520c-7.33301 16.667 -11 37.998 -11 63.998c0 40.667 10.833 76.334 32.5 107.001s53.5 53.667 95.5 69c8.66699 -4 15.5 -10.667 20.5 -20s6.83301 -18.666 5.5 -27.999c-18.667 -8.66699 -34.5 -20.5 -47.5 -35.5s-19.833 -31.5 -20.5 -49.5
c19.333 -1.33301 33.333 -5 42 -11c6 -10.667 9 -27 9 -49s-3 -37.667 -9 -47c-16 -8.66699 -36.5 -13 -61.5 -13s-43.5 4.33301 -55.5 13zM242 519.998c-7.33301 16.667 -11 37.999 -11 63.999c0 40.667 10.833 76.334 32.5 107.001s53.5 53.667 95.5 69
c8.66699 -4 15.167 -10.167 19.5 -18.5s6.5 -14.833 6.5 -19.5v-10c-18.667 -8.66699 -34.5 -20.5 -47.5 -35.5s-19.833 -31.5 -20.5 -49.5c19.333 -1.33301 33.333 -5 42 -11c6 -10.667 9 -27 9 -49s-3 -37.667 -9 -47c-16 -8.66699 -36.5 -13 -61.5 -13
s-43.5 4.33301 -55.5 13z" />
    <glyph glyph-name="quotedblright" unicode="&#x201d;" horiz-adv-x="412" 
d="M170 746c7.33301 -16.667 11 -37.999 11 -63.999c0 -40.667 -10.833 -76.334 -32.5 -107.001s-53.5 -53.667 -95.5 -69c-8.66699 4 -15.167 10.167 -19.5 18.5s-6.5 14.833 -6.5 19.5v10c18.667 8.66699 34.5 20.5 47.5 35.5s19.833 31.5 20.5 49.5
c-19.333 1.33301 -33.333 5 -42 11c-6 10.667 -9 27 -9 49s3 37.667 9 47c16 8.66699 36.5 13 61.5 13s43.5 -4.33301 55.5 -13zM360 746.001c7.33301 -16.667 11 -37.999 11 -63.999c0 -40.667 -10.833 -76.334 -32.5 -107.001s-53.5 -53.667 -95.5 -69
c-8.66699 4 -15.167 10.167 -19.5 18.5s-6.5 14.833 -6.5 19.5v10c18.667 8.66699 34.5 20.5 47.5 35.5s19.833 31.5 20.5 49.5c-19.333 1.33301 -33.333 5 -42 11c-6 10.667 -9 27 -9 49s3 37.667 9 47c16 8.66699 36.5 13 61.5 13s43.5 -4.33301 55.5 -13z" />
    <glyph glyph-name="quotedblbase" unicode="&#x201e;" horiz-adv-x="413" 
d="M174 99c7.33301 -18 11 -39.668 11 -65.001c0 -40 -10.833 -75.333 -32.5 -106s-53.5 -54 -95.5 -70c-8.66699 4 -15.167 10.167 -19.5 18.5s-6.5 14.833 -6.5 19.5v10c43.333 21.333 66 49.666 68 84.999c-22 3.33301 -36 7 -42 11c-6 10.667 -9 27.334 -9 50.001
s3 38.334 9 47.001c14.667 8 34.667 12 60 12s44.333 -4 57 -12zM363 98.999c7.33301 -18 11 -39.668 11 -65.001c0 -40 -10.833 -75.333 -32.5 -106s-53.5 -54 -95.5 -70c-8.66699 4 -15.167 10.167 -19.5 18.5s-6.5 14.833 -6.5 19.5v10
c43.333 21.333 66 49.666 68 84.999c-22 3.33301 -36 7 -42 11c-6 10.667 -9 27.334 -9 50.001s3 38.334 9 47.001c14.667 8 34.667 12 60 12s44.333 -4 57 -12z" />
    <glyph glyph-name="bullet" unicode="&#x2022;" horiz-adv-x="445" 
d="M127 186c-10 20.667 -15.001 49.167 -15.001 85.5s5 64.833 15 85.5c24.667 14 57.5 21 98.5 21s72.5 -7 94.5 -21c10 -20.667 15 -49 15 -85s-5 -64.667 -15 -86c-21.333 -14 -52.666 -21 -93.999 -21s-74.333 7 -99 21z" />
    <glyph glyph-name="guilsinglleft" unicode="&#x2039;" horiz-adv-x="329" 
d="M287 419l-141 -162.001l146 -167c-4 -10.667 -11.333 -21.167 -22 -31.5s-21.667 -17.166 -33 -20.499l-197 186c-3.33301 8 -5 18.333 -5 31s1.66699 23 5 31l192 184c11.333 -3.33301 22.333 -10 33 -20s18 -20.333 22 -31z" />
    <glyph glyph-name="guilsinglright" unicode="&#x203a;" horiz-adv-x="329" 
d="M43 90l140 162.001l-146 167c4 10.667 11.333 21 22 31s21.667 16.667 33 20l198 -185c4 -10.667 6 -21.167 6 -31.5s-2 -20.5 -6 -30.5l-193 -185c-11.333 3.33301 -22.333 10.166 -33 20.499s-17.667 20.833 -21 31.5z" />
    <glyph glyph-name="fraction" unicode="&#x2044;" horiz-adv-x="218" 
d="M-127 0l376 683c11.333 4 22 6 32 6c32 0 53.333 -2 64 -6l-377 -683c-11.333 -4 -22 -6 -32 -6c-31.333 0 -52.333 2 -63 6z" />
    <glyph glyph-name="foursuperior" unicode="&#x2074;" horiz-adv-x="420" 
d="M336 421l-31.002 0.998047v-79c-9.33301 -3.33301 -22.5 -5 -39.5 -5s-30.5 1.66699 -40.5 5v79l-39 -1h-121c-12 20 -18 36.5 -18 49.5s5 28.167 15 45.5l117 252c4.66699 0.666992 10.334 1 17.001 1s16.5 -1.5 29.5 -4.5s23.833 -7.83301 32.5 -14.5l-79 -171
c-21.333 -44 -37 -73 -47 -87l1 -2c16 1.33301 38.667 2 68 2h24v60c0 18.667 4.83301 33.167 14.5 43.5s22.834 15.5 39.501 15.5h24l2 -3v-116h62c2 -9.33301 3 -20.666 3 -33.999s-2.33301 -25.666 -7 -36.999h-27z" />
    <glyph glyph-name="Euro" unicode="&#x20ac;" horiz-adv-x="566" 
d="M496 519c-51.333 39.333 -102 59 -152 59c-75.333 0 -121.666 -49.333 -138.999 -148h210c2.66699 -11.333 4 -22.666 4 -33.999s-1.33301 -22.333 -4 -33h-217c-0.666992 -8.66699 -1 -22.167 -1 -40.5s0.333008 -31.833 1 -40.5h217
c2.66699 -11.333 4 -22.666 4 -33.999s-1.33301 -22.333 -4 -33h-210c17.333 -96.667 63.666 -145 138.999 -145c50 0 100.667 19.667 152 59c24 -14 39.667 -34.667 47 -62c-64.667 -53.333 -135 -80 -211 -80c-128 0 -203.667 76 -227 228h-78
c-2.66699 10.667 -4 21.667 -4 33s1.33301 22.666 4 33.999h71c-0.666992 9.33301 -1 23 -1 41s0.333008 31.333 1 40h-71c-2.66699 10.667 -4 21.667 -4 33s1.33301 22.666 4 33.999h77c24 154 100 231 228 231c76 0 146.333 -26.667 211 -80
c-7.33301 -28 -23 -48.667 -47 -62z" />
    <glyph glyph-name="nonmarkingreturn" horiz-adv-x="333" 
 />
    <glyph glyph-name="nbspace" horiz-adv-x="220" 
 />
    <glyph glyph-name="commaaccent" 
d="M155 -70c17.333 11.333 35.5 16.999 54.5 16.999s33.167 -1.66699 42.5 -5c6 -13.333 9 -33.333 9 -60s-10.667 -53.167 -32 -79.5s-50.666 -47.166 -87.999 -62.499c-16.667 6 -27.334 20 -32.001 42c39.333 25.333 59 57 59 95c0 19.333 -4.33301 37 -13 53z" />
    <glyph glyph-name="grave.cap" 
d="M110 898l200 -118.999c-4 -24 -13.667 -41 -29 -51l-215 89c2 16 7.33301 31.667 16 47s18 26.666 28 33.999z" />
    <glyph glyph-name="acute.cap" 
d="M101 779l200.001 118.999c10 -7.33301 19.333 -18.666 28 -33.999s14 -31 16 -47l-215 -89c-16.667 11.333 -26.334 28.333 -29.001 51z" />
    <glyph glyph-name="circumflex.cap" 
d="M310 737l-112 75.002l-114 -82c-8.66699 3.33301 -17.334 9.16602 -26.001 17.499s-14.334 17.166 -17.001 26.499l114 111c14 3.33301 28.333 5 43 5s29.334 -1.66699 44.001 -5l111 -105c-3.33301 -10 -9.16602 -19 -17.499 -27s-16.833 -13.333 -25.5 -16z" />
    <glyph glyph-name="dieresis.cap" 
d="M303 839c18 0 33.667 -3.66699 47 -11c5.33301 -11.333 8 -24.833 8 -40.5s-2.66699 -29.167 -8 -40.5c-11.333 -7.33301 -27 -11 -47 -11s-35.667 3.66699 -47 11c-6 11.333 -9 24.833 -9 40.5s3 29.167 9 40.5c13.333 7.33301 29 11 47 11zM95 839
c18 0 33.667 -3.66699 47 -11c6 -11.333 9 -24.833 9 -40.5s-3 -29.167 -9 -40.5c-11.333 -7.33301 -27 -11 -47 -11s-35.667 3.66699 -47 11c-5.33301 11.333 -8 24.833 -8 40.5s2.66699 29.167 8 40.5c13.333 7.33301 29 11 47 11z" />
    <glyph glyph-name="caron.cap" 
d="M86 889l110.996 -75l115 82c8.66699 -3.33301 17.334 -9.16602 26.001 -17.499s14.334 -16.833 17.001 -25.5l-114 -112c-16 -2.66699 -31.167 -4 -45.5 -4s-28.166 1.33301 -41.499 4l-112 105c6.66699 21.333 21.334 35.666 44.001 42.999z" />
    <glyph glyph-name="ring.cap" 
d="M81 780c0 31.333 11 57.666 33 78.999s50.333 32 85 32s63 -10.667 85 -32s33 -47.666 33 -78.999s-11 -57.833 -33 -79.5s-50.333 -32.5 -85 -32.5s-63 10.833 -85 32.5s-33 48.167 -33 79.5zM163 819c-9.33301 -10.667 -14 -23.834 -14 -39.501s4.66699 -28.667 14 -39
s21.333 -15.5 36 -15.5s26.667 5.16699 36 15.5s14 23.333 14 39s-4.66699 28.834 -14 39.501s-21.333 16 -36 16s-26.667 -5.33301 -36 -16z" />
    <glyph glyph-name="tilde.cap" 
d="M211 756l-57.001 27.001c-13.333 6 -25.833 9 -37.5 9s-23.5 -8.33301 -35.5 -25l-12 -14c-10 0 -19.667 2.83301 -29 8.5s-15.666 12.5 -18.999 20.5l8 20c9.33301 22 23 39.333 41 52s37 19 57 19s40 -5 60 -15l57 -27c10.667 -6 22.334 -9 35.001 -9
s25.334 8.33301 38.001 25l12 14c9.33301 0 18.666 -2.83301 27.999 -8.5s16 -12.834 20 -21.501l-8 -19c-10.667 -22.667 -24.834 -40.167 -42.501 -52.5s-35.667 -18.5 -54 -18.5s-38.833 5 -61.5 15z" />
    <glyph glyph-name="dotaccent.cap" 
d="M138 798c0 16.667 2.66602 31 7.99902 43c14 8 32.333 12 55 12s39.667 -4 51 -12c5.33301 -12 8 -26.333 8 -43s-2.66699 -31 -8 -43c-11.333 -8 -28.666 -12 -51.999 -12s-41.333 4 -54 12c-5.33301 12 -8 26.333 -8 43z" />
    <glyph glyph-name="caron.alt" horiz-adv-x="419" 
d="M202 566l12 211c8 2 16 3 24 3c28.667 0 51.334 -5.33301 68.001 -16l-47 -202c-8.66699 -3.33301 -17.834 -5 -27.501 -5s-19.5 3 -29.5 9z" />
    <glyph glyph-name="commaaccent.cap" 
d="M155 -70c17.333 11.333 35.5 16.999 54.5 16.999s33.167 -1.66699 42.5 -5c6 -13.333 9 -33.333 9 -60s-10.667 -53.167 -32 -79.5s-50.666 -47.166 -87.999 -62.499c-16.667 6 -27.334 20 -32.001 42c39.333 25.333 59 57 59 95c0 19.333 -4.33301 37 -13 53z" />
    <glyph glyph-name="a.smcp" horiz-adv-x="540" 
d="M381 125l-52 -1h-123l-56 1l-44 -126c-11.333 -2.66699 -26 -4 -44 -4s-32.667 2.33301 -44 7l-4 5l200 538c14 2.66699 33 4 57 4s42.667 -1.33301 56 -4l199 -541c-16 -7.33301 -33.167 -11 -51.5 -11s-31.833 3.16699 -40.5 9.5s-16 18.5 -22 36.5zM178 204
l46.999 0.999023h87c1.33301 0 7.33301 -0.166992 18 -0.5s18.334 -0.5 23.001 -0.5l-37 103c-19.333 58.667 -35.333 110.334 -48 155.001h-4c-11.333 -40.667 -25 -85 -41 -133z" />
    <glyph glyph-name="b.smcp" horiz-adv-x="546" 
d="M91 545c118 2 178.667 3.00098 182 3.00098c132 0 198 -47.667 198 -143c0 -25.333 -7.33301 -48.166 -22 -68.499s-34.667 -34.833 -60 -43.5c31.333 -8.66699 57.833 -25.834 79.5 -51.501s32.5 -54.834 32.5 -87.501c0 -49.333 -18 -87.833 -54 -115.5
s-87.167 -41.5 -153.5 -41.5s-133.833 1 -202.5 3l-5 5v535zM182 70.001l106 1c42 0 71.167 8.66699 87.5 26s24.5 38 24.5 62s-9.5 45.167 -28.5 63.5s-49.833 27.5 -92.5 27.5h-97v-180zM182 476.001v-152h88c68.667 0 103 25.167 103 75.5s-33.667 75.5 -101 75.5
c-41.333 0 -71.333 0.333008 -90 1z" />
    <glyph glyph-name="c.smcp" horiz-adv-x="535" 
d="M408 335c-1.33301 95.333 -41.999 143.003 -121.999 143.003c-94.667 0 -142 -69 -142 -207c0 -65.333 13.167 -115 39.5 -149s63.333 -51 111 -51s98.5 20.333 152.5 61c10.667 -6.66699 20.667 -16.334 30 -29.001s15.333 -24.334 18 -35.001
c-60 -54 -133 -81 -219 -81c-54.667 0 -100.334 14.167 -137.001 42.5s-62.167 63 -76.5 104s-21.5 86.833 -21.5 137.5c0 94.667 23.5 166.167 70.5 214.5s105.167 72.5 174.5 72.5s122.666 -17.333 159.999 -52s56 -74.334 56 -119.001c0 -37.333 -19 -56 -57 -56
c-7.33301 0 -19.666 1.33301 -36.999 4z" />
    <glyph glyph-name="d.smcp" horiz-adv-x="581" 
d="M517.5 408.5c13 -38.333 19.5 -84.332 19.5 -137.999s-6.33301 -99.334 -19 -137.001s-37.5 -69.834 -74.5 -96.501s-90.833 -40 -161.5 -40c-51.333 0 -115 1 -191 3l-5 5v535l5 5c77.333 2 135.333 3 174 3c81.333 0 140.5 -13.667 177.5 -41s62 -60.166 75 -98.499z
M184 73.001l97 1c102.667 0 154 66 154 198s-51.333 198 -154 198c-42.667 0 -75 0.333008 -97 1v-398z" />
    <glyph glyph-name="e.smcp" horiz-adv-x="509" 
d="M183 123l-1.00195 -44c22.667 1.33301 42.334 2 59.001 2h224c0 -15.333 -0.666992 -27 -2 -35c-6 -31.333 -26.333 -47 -61 -47h-259c-17.333 0 -31.166 5.33301 -41.499 16s-15.5 25 -15.5 43v482l5 5h358c2 -9.33301 3 -21.833 3 -37.5s-2.33301 -30.167 -7 -43.5
h-263l1 -51v-98l56 1h161c2.66699 -8 4 -21.167 4 -39.5s-1.33301 -31.5 -4 -39.5h-217v-114z" />
    <glyph glyph-name="f.smcp" horiz-adv-x="466" 
d="M183 463l1.00098 -84.002v-69c8.66699 0.666992 21 1 37 1h173c2.66699 -11.333 4 -24.666 4 -39.999s-1.33301 -28.666 -4 -39.999h-210v-231c-13.333 -2.66699 -29.833 -4 -49.5 -4s-35.834 1.33301 -48.501 4v541l5 4h351c3.33301 -12 5 -24.667 5 -38
c0 -30 -17.333 -45 -52 -45h-127c-40 0 -68.333 0.333008 -85 1z" />
    <glyph glyph-name="g.smcp" horiz-adv-x="562" 
d="M296 291c58.667 1.33301 102.503 1.99902 131.503 1.99902s49.167 -4.66699 60.5 -14s17 -24 17 -44v-213c-67.333 -23.333 -139.333 -35 -216 -35c-58.667 0 -107 13.667 -145 41s-64.333 61.333 -79 102s-22 87.334 -22 140.001c0 97.333 24.833 169.666 74.5 216.999
s112 71 187 71s140.5 -18.667 196.5 -56c-2.66699 -14 -8.33398 -28 -17.001 -42s-18 -24.333 -28 -31c-46.667 30.667 -95.834 46 -147.501 46s-91.834 -16.667 -120.501 -50s-43 -85.333 -43 -156c0 -136 54.333 -204 163 -204c34 0 68.333 4.33301 103 13v82
c0 16.667 0.666992 33.334 2 50.001h-77c-30.667 0 -46 14 -46 42c0 16 2 29 6 39z" />
    <glyph glyph-name="h.smcp" horiz-adv-x="613" 
d="M430 324l-1.00293 59v162c12.667 2.66699 28.834 4 48.501 4s36.167 -1.33301 49.5 -4v-545c-13.333 -2.66699 -29.666 -4 -48.999 -4s-35.666 1.33301 -48.999 4v184l1 59l-51 -1h-145l-51 1l1 -59v-184c-13.333 -2.66699 -29.833 -4 -49.5 -4
s-35.834 1.33301 -48.501 4v545c12.667 2.66699 28.834 4 48.501 4s36.167 -1.33301 49.5 -4v-162l-1 -59l51 1h145z" />
    <glyph glyph-name="i.smcp" horiz-adv-x="277" 
d="M89 0v545c12.667 2.66699 28.834 4 48.501 4s36.5 -1.33301 50.5 -4v-545c-14 -2.66699 -30.833 -4 -50.5 -4s-35.834 1.33301 -48.501 4z" />
    <glyph glyph-name="j.smcp" horiz-adv-x="396" 
d="M38 97c32 -19.333 64.1641 -29 96.4971 -29s55.5 9.83301 69.5 29.5s21 50.5 21 92.5v355c13.333 2.66699 29.833 4 49.5 4s35.834 -1.33301 48.501 -4v-354c0 -68.667 -14.333 -119.5 -43 -152.5s-72.167 -49.5 -130.5 -49.5s-107.166 12.333 -146.499 37
c4.66699 29.333 16.334 53 35.001 71z" />
    <glyph glyph-name="k.smcp" horiz-adv-x="543" 
d="M243 241l-58.998 -3v-238c-13.333 -2.66699 -29.833 -4 -49.5 -4s-35.834 1.33301 -48.501 4v545c12.667 2.66699 28.834 4 48.501 4s36.167 -1.33301 49.5 -4v-225l44 2c10 0.666992 17 2.33398 21 5.00098s9 8.33398 15 17.001l108 166c8 14 16.167 23.833 24.5 29.5
s21.5 8.5 39.5 8.5s36 -1 54 -3l7 -8l-132 -199c-11.333 -17.333 -23.333 -31.333 -36 -42c24.667 -4.66699 44.5 -14.334 59.5 -29.001s28.5 -35.334 40.5 -62.001l51 -112c16 -34 30 -56 42 -66c-15.333 -22 -36.333 -33 -63 -33c-16.667 0 -29.334 4.16699 -38.001 12.5
s-17.334 22.166 -26.001 41.499l-58 125c-11.333 25.333 -23.833 42.833 -37.5 52.5s-32.5 14.834 -56.5 15.501z" />
    <glyph glyph-name="l.smcp" horiz-adv-x="464" 
d="M266 83l172.999 -0.000976562c0 -16.667 -0.666992 -29 -2 -37c-6 -31.333 -27 -47 -63 -47h-232c-17.333 0 -31.166 5.33301 -41.499 16s-15.5 25.334 -15.5 44.001v484l5 5h39c20 0 34.167 -4.66699 42.5 -14s12.5 -25 12.5 -47v-408c38.667 2.66699 66 4 82 4z" />
    <glyph glyph-name="m.smcp" horiz-adv-x="730" 
d="M69 1l51.9971 544c19.333 4 41.333 6 66 6s45.667 -2 63 -6l81 -257c18.667 -60.667 29.334 -99.667 32.001 -117h5c4.66699 29.333 15.334 68.333 32.001 117l79 257c16.667 4 38.334 6 65.001 6s48 -2 64 -6l52 -544c-18.667 -4 -34.667 -6 -48 -6
s-29.333 1.33301 -48 4l-23 279c-2 23.333 -4 78.333 -6 165h-5l-116 -362c-14 -2 -30.5 -3 -49.5 -3s-35.5 1 -49.5 3l-115 362h-6c0 -64 -2 -119 -6 -165l-22 -279c-20 -2.66699 -36.833 -4 -50.5 -4s-29.167 2 -46.5 6z" />
    <glyph glyph-name="n.smcp" horiz-adv-x="619" 
d="M528 549l4.99805 -6.00195v-542c-18 -3.33301 -38.167 -5 -60.5 -5s-40.166 1.33301 -53.499 4l-184 317c-15.333 26.667 -35 63.667 -59 111l-3 -1c4 -77.333 6 -139.666 6 -186.999v-240c-15.333 -2.66699 -31.166 -4 -47.499 -4s-31.5 1.33301 -45.5 4v544
c18 3.33301 38 5 60 5s39.667 -1.33301 53 -4l184 -318c4.66699 -8 25 -46.667 61 -116l5 1c-6.66699 86.667 -10 150.334 -10 191.001v188c0 21.333 4 36.333 12 45s22 13 42 13h35z" />
    <glyph glyph-name="o.smcp" horiz-adv-x="588" 
d="M144 272c0 -26 2.16699 -50.167 6.5 -72.5s11.666 -44.333 21.999 -66s25.833 -38.834 46.5 -51.501s45.667 -19 75 -19s54.333 6.33301 75 19s36 29.834 46 51.501s17.167 43.667 21.5 66s6.5 46.5 6.5 72.5s-2.16699 50.167 -6.5 72.5s-11.5 44.333 -21.5 66
s-25.333 38.834 -46 51.501s-45.667 19 -75 19s-54.333 -6.33301 -75 -19s-36.167 -29.834 -46.5 -51.501s-17.666 -43.667 -21.999 -66s-6.5 -46.5 -6.5 -72.5zM65 138c-16 42.667 -24 87.5 -24 134.5s8 91.833 24 134.5s42.5 78.5 79.5 107.5s86.5 43.5 148.5 43.5
s114 -16 156 -48c32.667 -26 57 -60.333 73 -103s24 -87.5 24 -134.5s-8 -91.833 -24 -134.5s-40.333 -77 -73 -103c-42 -32 -94 -48 -156 -48s-111.5 14.5 -148.5 43.5s-63.5 64.833 -79.5 107.5z" />
    <glyph glyph-name="p.smcp" horiz-adv-x="507" 
d="M91 545l182.001 3.00098c62.667 0 112.834 -14.833 150.501 -44.5s56.5 -73.834 56.5 -132.501s-18.833 -103 -56.5 -133s-87.834 -45 -150.501 -45h-89v-193c-13.333 -2.66699 -29.833 -4 -49.5 -4s-35.834 1.33301 -48.501 4v540zM184.001 473.001l-0.000976562 -204
h85c40 0 68.167 10 84.5 30s24.5 44 24.5 72s-8.16699 51.833 -24.5 71.5s-43.666 29.5 -81.999 29.5s-67.5 0.333008 -87.5 1z" />
    <glyph glyph-name="q.smcp" horiz-adv-x="588" 
d="M65 138c-16 42.667 -23.998 87.499 -23.998 134.499s8 91.833 24 134.5s42.5 78.5 79.5 107.5s86.5 43.5 148.5 43.5s114 -16 156 -48c32.667 -26 57 -60.333 73 -103s24 -87.667 24 -135c0 -86 -22.333 -154 -67 -204c-16.667 -18.667 -35.667 -33.667 -57 -45l8 -5
c43.333 -31.333 83.666 -47.666 120.999 -48.999c-0.666992 -22.667 -7.83398 -40.167 -21.501 -52.5s-31.5 -18.5 -53.5 -18.5s-43.667 9 -65 27l-87 66c-10.667 -2.66699 -20 -4 -28 -4c-64 0 -114.5 14.5 -151.5 43.5s-63.5 64.833 -79.5 107.5zM144.002 271.999
c0 -26 2.16699 -50.167 6.5 -72.5s11.666 -44.333 21.999 -66s25.833 -38.834 46.5 -51.501s45.667 -19 75 -19s54.333 6.33301 75 19s36 29.834 46 51.501s17.167 43.667 21.5 66s6.5 46.5 6.5 72.5s-2.16699 50.167 -6.5 72.5s-11.5 44.333 -21.5 66
s-25.333 38.834 -46 51.501s-45.667 19 -75 19s-54.333 -6.33301 -75 -19s-36.167 -29.834 -46.5 -51.501s-17.666 -43.667 -21.999 -66s-6.5 -46.5 -6.5 -72.5z" />
    <glyph glyph-name="r.smcp" horiz-adv-x="544" 
d="M489 386c0 -34.667 -11.1699 -65 -33.5029 -91s-50.166 -43 -83.499 -51c28 -11.333 50 -34.333 66 -69l39 -87c14.667 -31.333 28 -52.666 40 -63.999c-14.667 -20 -36.667 -30 -66 -30c-16 0 -28.5 4 -37.5 12s-17.5 21 -25.5 39l-49 113
c-8.66699 20.667 -19.5 35.5 -32.5 44.5s-31.833 13.5 -56.5 13.5h-66v-216c-14 -2.66699 -30.667 -4 -50 -4s-35.333 1.33301 -48 4v540l5 5c68.667 2 133.834 3 195.501 3s110.834 -13.833 147.501 -41.5s55 -67.834 55 -120.501zM183.997 293l94.001 1
c39.333 0 67.166 8.83301 83.499 26.5s24.5 39.167 24.5 64.5s-8.16699 46.333 -24.5 63s-45 25 -86 25s-71.5 0.333008 -91.5 1v-181z" />
    <glyph glyph-name="s.smcp" horiz-adv-x="493" 
d="M29 45c0 13.333 3.83203 27.334 11.499 42.001s16.834 25.334 27.501 32.001c64 -35.333 124.667 -53 182 -53c29.333 0.666992 54.333 8 75 22s31 32 31 54c0 36 -26 62.333 -78 79l-104 36c-86.667 29.333 -130 76.333 -130 141c0 45.333 17.667 83.166 53 113.499
s85 45.666 149 45.999s128 -13.167 192 -40.5c0 -32.667 -11.667 -58 -35 -76c-54 24 -106 36 -156 36c-32.667 0 -57.5 -6.5 -74.5 -19.5s-25.5 -28.5 -25.5 -46.5s5.66699 -31.5 17 -40.5s30 -18.167 56 -27.5l101 -35c93.333 -33.333 140 -85.333 140 -156
c0 -49.333 -19 -89 -57 -119c-38.667 -30.667 -95 -46 -169 -46s-142.667 19.333 -206 58z" />
    <glyph glyph-name="t.smcp" horiz-adv-x="435" 
d="M269 464l1 -58.998v-405c-11.333 -2.66699 -27.5 -4 -48.5 -4s-37.833 1.33301 -50.5 4v405l1 59l-52 -1h-107c-2.66699 13.333 -4 27.166 -4 41.499s1.33301 27.833 4 40.5h411c4 -10.667 6 -23.334 6 -38.001s-4 -25.667 -12 -33s-21.667 -11 -41 -11h-57z" />
    <glyph glyph-name="u.smcp" horiz-adv-x="604" 
d="M528 545l-0.000976562 -352c0 -66 -20 -116.833 -60 -152.5s-95.167 -53.5 -165.5 -53.5s-125.666 17.833 -165.999 53.5s-60.5 86.5 -60.5 152.5v350l6 6h37c20 0 34.333 -5 43 -15s13 -26 13 -48v-293c0 -84.667 42.333 -127 127 -127s127 42.333 127 127v352
c13.333 2.66699 29.833 4 49.5 4s36.167 -1.33301 49.5 -4z" />
    <glyph glyph-name="v.smcp" horiz-adv-x="508" 
d="M265 82l141.998 463c12.667 2.66699 27.167 4 43.5 4s30.5 -2 42.5 -6l5 -6l-178 -538c-19.333 -2.66699 -41.166 -4 -65.499 -4s-42 3.16699 -53 9.5s-19.167 18.5 -24.5 36.5l-162 498c20.667 8 40.334 12 59.001 12c26.667 0 44.667 -15.667 54 -47l87 -265
c18 -57.333 32 -107.333 42 -150c1.33301 -4.66699 4 -7 8 -7z" />
    <glyph glyph-name="w.smcp" horiz-adv-x="763" 
d="M140 42l-109.998 497.999c16.667 7.33301 34.167 11 52.5 11s31 -3.83301 38 -11.5s12.5 -21.167 16.5 -40.5l54 -263c2.66699 -13.333 11.667 -62.333 27 -147c1.33301 -6.66699 4 -10 8 -10l97 459c24 2.66699 45.167 4 63.5 4s38.833 -1.33301 61.5 -4l88 -449
c1.33301 -6.66699 4 -10 8 -10c4.66699 29.333 14.667 82 30 158l68 308c9.33301 2 24.166 3 44.499 3s36.166 -2 47.499 -6l5 -5l-128 -536c-17.333 -4 -44.5 -6 -81.5 -6s-58.167 15 -63.5 45l-43 207l-36 199h-5c-12 -63.333 -25.333 -129.666 -40 -198.999l-55 -247
c-18 -3.33301 -40.667 -5 -68 -5s-46.333 3.16699 -57 9.5s-18 18.833 -22 37.5z" />
    <glyph glyph-name="x.smcp" horiz-adv-x="515" 
d="M386 545c10 2.66699 24.834 4 44.501 4s35.5 -2.33301 47.5 -7l3 -6l-166 -245l188 -275c-18.667 -15.333 -40.5 -23 -65.5 -23s-46.167 13.333 -63.5 40l-123 180l-142 -213c-11.333 -3.33301 -26.333 -5 -45 -5s-34.667 3 -48 9l-4 5l188 279l-164 242
c21.333 14 43.666 21 66.999 21s44 -13 62 -39l100 -147z" />
    <glyph glyph-name="y.smcp" horiz-adv-x="440" 
d="M266 365l76 180c12.667 2.66699 26.5 4 41.5 4s30.167 -2 45.5 -6l5 -6l-164 -371v-166c-13.333 -2.66699 -29.833 -4 -49.5 -4s-35.834 1.33301 -48.501 4v168l-163 369c20 10 41 15 63 15s38.667 -13.333 50 -40l66 -154c14.667 -34 26.334 -68 35.001 -102h5
c18 56 30.667 92.333 38 109z" />
    <glyph glyph-name="z.smcp" horiz-adv-x="499" 
d="M55 100l220.001 285.002c10.667 13.333 35 40.666 73 81.999l-3 3c-24 -4 -71 -6 -141 -6h-139c-2.66699 10 -4 22 -4 36s2.33301 29 7 45h370c10 -34.667 15 -57 15 -67s-4.33301 -20.667 -13 -32l-220 -283c-8.66699 -12 -32.334 -39.667 -71.001 -83l2 -3
c46.667 3.33301 83 5 109 5l85 1c49.333 0 85 5 107 15c5.33301 -16 8 -30.667 8 -44c0 -36 -23 -54 -69 -54h-337c-8 31.333 -12 52.666 -12 63.999s4.33301 23.333 13 36z" />
    <glyph glyph-name="ampersand.smcp" horiz-adv-x="554" 
d="M451 107l6.00195 -110.001c-12 -4 -26.5 -6 -43.5 -6s-32.833 1.33301 -47.5 4l-6 35c-42 -28.667 -90 -43 -144 -43s-95.833 14.5 -125.5 43.5s-44.5 63.833 -44.5 104.5s11.5 74.667 34.5 102s50.833 45.333 83.5 54c-26.667 8 -48.5 23.167 -65.5 45.5
s-25.5 47.833 -25.5 76.5c0 42.667 16.833 77.5 50.5 104.5s80.167 40.5 139.5 40.5s113.333 -8.33301 162 -25v-8c0 -25.333 -8.33301 -47.666 -25 -66.999c-48.667 14.667 -89.834 22 -123.501 22s-58.834 -6.83301 -75.501 -20.5s-25 -31.5 -25 -53.5
c0 -51.333 36 -77 108 -77h163c35.333 0 62 4.66699 80 14c8.66699 -12 13 -27 13 -45c0 -33.333 -22.667 -50 -68 -50h-22c0.666992 -12.667 1 -31 1 -55v-86zM355.002 194.999c0 23.333 0.333008 41 1 53h-82c-42 0 -73.333 -9.33301 -94 -28s-31 -42 -31 -70
s8.16699 -49.5 24.5 -64.5s38.833 -22.5 67.5 -22.5c44.667 0 82.667 12 114 36v96z" />
    <glyph glyph-name="zero.smcp" horiz-adv-x="482" 
d="M45 272c0 57.333 4.33496 105.335 13.002 144.002s26 70 52 94c33.333 32 76.833 48 130.5 48s97.5 -16.333 131.5 -49c43.333 -40.667 65 -119.334 65 -236.001s-21.667 -195.334 -65 -236.001c-34.667 -33.333 -78.334 -50 -131.001 -50s-96.334 16.667 -131.001 50
c-43.333 40.667 -65 119 -65 235zM179.002 457.002c-22.667 -24.667 -34 -85.998 -34 -183.998s11.333 -159.333 34 -184c14.667 -18 35.5 -27 62.5 -27s47.833 9 62.5 27c22.667 25.333 34 86.666 34 183.999s-11.333 158.666 -34 183.999c-14.667 18 -35.5 27 -62.5 27
s-47.833 -9 -62.5 -27z" />
    <glyph glyph-name="one.smcp" horiz-adv-x="482" 
d="M165 79l52 -2v272c0 4.66699 1.66699 27 5 67c-31.333 -34.667 -73 -62.667 -125 -84c-22 10.667 -35.333 29.667 -40 57c83.333 47.333 138.333 99.333 165 156c9.33301 2 24 3 44 3s35.667 -1 47 -3v-411l-1 -57l54 2h59c2.66699 -16 4 -29.167 4 -39.5
s-1.33301 -23.5 -4 -39.5h-340c-2.66699 17.333 -4 30.833 -4 40.5s1.33301 22.5 4 38.5h80z" />
    <glyph glyph-name="two.smcp" horiz-adv-x="482" 
d="M429 83c0 -17.333 -0.666992 -29.665 -2 -36.998c-5.33301 -31.333 -26 -47 -62 -47h-276c-8.66699 6.66699 -17.167 15.834 -25.5 27.501s-12.5 22.167 -12.5 31.5c0 45.333 37 98.666 111 159.999l88 72c42.667 34 64 69 64 105c0 23.333 -7.66699 42.666 -23 57.999
s-35 23 -59 23c-44 0 -79 -26.333 -105 -79c-31.333 2.66699 -54.333 14.334 -69 35.001c13.333 35.333 36 65.166 68 89.499s71.833 36.5 119.5 36.5s87.667 -15.5 120 -46.5s48.5 -69.833 48.5 -116.5c0 -34.667 -9.66699 -65.5 -29 -92.5s-46 -54.167 -80 -81.5l-71 -57
c-48 -36.667 -75.333 -66.334 -82 -89.001c39.333 5.33301 78.333 8 117 8h160z" />
    <glyph glyph-name="three.smcp" horiz-adv-x="482" 
d="M387 444l-83.001 -81.998c-8 -8 -20 -18 -36 -30c44.667 -0.666992 82.667 -15.5 114 -44.5s47 -69.833 47 -122.5s-20.5 -95.5 -61.5 -128.5s-88.833 -49.5 -143.5 -49.5c-70 0 -129.333 18.333 -178 55c6.66699 28.667 20.667 50.667 42 66
c40 -28 79.167 -42 117.5 -42s68.333 9.5 90 28.5s32.5 44 32.5 75s-8.66699 55 -26 72s-38.833 25.5 -64.5 25.5s-48.167 -4.33301 -67.5 -13c-18 9.33301 -31.667 26.666 -41 51.999v1h2l114 112c18.667 17.333 37.334 33.333 56.001 48l-3 4
c-24.667 -4.66699 -59.667 -7 -105 -7h-125c-4 12 -6 25 -6 39s3 28 9 42h314c14 -25.333 21 -45.333 21 -60s-6.33301 -28.334 -19 -41.001z" />
    <glyph glyph-name="four.smcp" horiz-adv-x="482" 
d="M357 113l1 -48.002v-65c-13.333 -2.66699 -28.5 -4 -45.5 -4s-31.833 1.33301 -44.5 4v65l1 48l-50 -1h-158c-14.667 23.333 -22 42 -22 56s6 32.333 18 55l155 327c6 1.33301 12.667 2 20 2c28.667 0 51.667 -7 69 -21l-106 -220
c-28.667 -57.333 -49.667 -97.666 -63 -120.999l3 -3c38 3.33301 72.333 5 103 5h31c-0.666992 6.66699 -1 17.334 -1 32.001v57c0 22 5.66699 39.333 17 52s26 19 44 19h26l4 -4v-99l-2 -57l39 1h49c1.33301 -8.66699 2 -21 2 -37s-2.33301 -30.333 -7 -43h-83z" />
    <glyph glyph-name="five.smcp" horiz-adv-x="482" 
d="M53 41c2 10.667 7.00195 22.3301 15.002 34.9971s16.667 22 26 28c38 -25.333 76 -38 114 -38s67.667 9.83301 89 29.5s32 47.334 32 83.001s-10.167 62.667 -30.5 81s-45.5 27.5 -75.5 27.5s-63.667 -13 -101 -39c-18 4 -34 15 -48 33l14 258l6 6h307c4 -12 6 -25 6 -39
c0 -27.333 -15 -41 -45 -41h-187v-21l-3 -65c0 -10 -1 -22 -3 -36c29.333 10.667 56.666 16 81.999 16c52 0 94.667 -16.167 128 -48.5s50 -77.166 50 -134.499s-20.167 -103.166 -60.5 -137.499s-91.833 -51.5 -154.5 -51.5s-116.334 18 -161.001 54z" />
    <glyph glyph-name="six.smcp" horiz-adv-x="482" 
d="M248 -13c-56 0 -100.002 16.667 -132.002 50c-44.667 46 -67 127.333 -67 244c0 86.667 20 154.5 60 203.5s97.333 73.5 172 73.5c53.333 0 96.333 -9 129 -27c-3.33301 -27.333 -14.666 -49 -33.999 -65c-29.333 10.667 -59.666 16 -90.999 16
c-88 0 -133.667 -57.667 -137 -173c38 30 81.833 45 131.5 45s88.667 -15.5 117 -46.5s42.5 -74.5 42.5 -130.5s-17.833 -101.667 -53.5 -137s-81.5 -53 -137.5 -53zM251.998 278c-34.667 0 -69.333 -14.333 -104 -43v-11c0 -61.333 11.667 -106.333 35 -135
c16.667 -19.333 39 -29 67 -29s50.167 9.66699 66.5 29s24.5 46 24.5 80c0 72.667 -29.667 109 -89 109z" />
    <glyph glyph-name="seven.smcp" horiz-adv-x="482" 
d="M63 545h359c12.667 -24 19 -43 19 -57s-5 -27.333 -15 -40l-43 -60c-44.667 -60.667 -78.667 -119.167 -102 -175.5s-37.333 -121.5 -42 -195.5l-1 -17c-10 -3.33301 -26.167 -5 -48.5 -5s-38.833 1.66699 -49.5 5l1 16c6 76.667 22.5 146.5 49.5 209.5
s65.167 125.833 114.5 188.5l13 16c14 17.333 24.667 29.333 32 36l-3 3c-23.333 -4.66699 -70 -7 -140 -7h-148c-3.33301 10 -5 22.5 -5 37.5s3 30.167 9 45.5z" />
    <glyph glyph-name="eight.smcp" horiz-adv-x="482" 
d="M43 130c0 32 10.3291 61.3311 30.9961 87.998s46.667 47 78 61c-62 32 -93 75.333 -93 130c0 43.333 17.333 79 52 107s78.334 42 131.001 42s95.834 -13.167 129.501 -39.5s50.5 -60.166 50.5 -101.499c0 -55.333 -28 -96.666 -84 -123.999
c67.333 -37.333 101 -86 101 -146c0 -50.667 -19.167 -90 -57.5 -118s-86.666 -42 -144.999 -42s-105.166 12.833 -140.499 38.5s-53 60.5 -53 104.5zM230.996 246.998l-1.99902 -0.00390625c-29.333 -11.333 -51.666 -26.666 -66.999 -45.999s-23 -41.166 -23 -65.499
s9.16699 -43.666 27.5 -57.999s42.666 -21.5 72.999 -21.5s54.666 7.33301 72.999 22s27.5 35.334 27.5 62.001c0 46 -36.333 81.667 -109 107zM153.997 415.994c0 -20.667 8.16602 -37.3301 24.499 -49.9971s41.833 -25.334 76.5 -38.001l10 -4
c41.333 21.333 62 51.666 62 90.999c0 22 -7.66699 39.667 -23 53s-36.166 20 -62.499 20s-47.5 -6.83301 -63.5 -20.5s-24 -30.834 -24 -51.501z" />
    <glyph glyph-name="nine.smcp" horiz-adv-x="482" 
d="M241 558c56 0 100.001 -16.666 132.001 -49.999c44.667 -46 67 -127.333 67 -244c0 -86.667 -20 -154.5 -60 -203.5s-97.333 -73.5 -172 -73.5c-53.333 0 -96.333 9 -129 27c4 28 15.333 49.667 34 65c29.333 -10.667 59.666 -16 90.999 -16c88 0 133.667 57.333 137 172
c-36.667 -29.333 -80.167 -44 -130.5 -44s-89.5 15.333 -117.5 46s-42 74.167 -42 130.5s17.667 102.166 53 137.499s81 53 137 53zM237.001 267.001c34 0 68.667 14 104 42v12c0 61.333 -11.667 106.333 -35 135c-16.667 19.333 -39 29 -67 29s-50.167 -9.66699 -66.5 -29
s-24.5 -46 -24.5 -80c0 -72.667 29.667 -109 89 -109z" />
    <glyph glyph-name="currency.smcp" horiz-adv-x="464" 
d="M50 267c0 37.333 9 70 27 98l-58 63c10 20 27.667 37.333 53 52l64 -59c28.667 16 60.5 24 95.5 24s66.833 -8 95.5 -24l66 60c20.667 -12 38.334 -29.333 53.001 -52l-59 -65c18 -29.333 27 -62.166 27 -98.499s-9.33301 -68.5 -28 -96.5l59 -63
c-11.333 -20.667 -29 -38.334 -53 -53.001l-65 60c-27.333 -15.333 -59 -23 -95 -23s-67.667 7.66699 -95 23l-65 -59c-20.667 10.667 -38.334 28 -53.001 52l58 63c-18 28 -27 60.667 -27 98zM167 344.5c-15.333 -20.333 -23 -46.001 -23 -77.001s7.66699 -56.667 23 -77
s36.833 -30.5 64.5 -30.5s49.5 10.167 65.5 30.5s24 45.833 24 76.5s-8 56.334 -24 77.001s-37.833 31 -65.5 31s-49.167 -10.167 -64.5 -30.5z" />
    <glyph glyph-name="dollar.smcp" horiz-adv-x="441" 
d="M30 79c0.666992 12.667 4.49609 26.501 11.4961 41.501s15.5 25.5 25.5 31.5c53.333 -30 106.333 -45 159 -45s79 17 79 51c0 27.333 -20 48.333 -60 63l-87 31c-72.667 26.667 -109 68.334 -109 125.001c0 34.667 11.5 64.167 34.5 88.5s54.833 39.833 95.5 46.5v67
c9.33301 2 21.833 3 37.5 3s27.834 -1 36.501 -3v-64c45.333 -3.33301 91 -15.666 137 -36.999c-1.33301 -32 -13 -56.667 -35 -74c-48.667 23.333 -93.667 35 -135 35c-22.667 0 -40.667 -4.83301 -54 -14.5s-20 -21.667 -20 -36s4.83301 -25.333 14.5 -33
s24.834 -15.167 45.501 -22.5l76 -28c82 -29.333 123 -76 123 -140c0 -38.667 -13.833 -69.834 -41.5 -93.501s-65.5 -37.834 -113.5 -42.501v-61c-9.33301 -2 -21.666 -3 -36.999 -3s-27.666 1 -36.999 3v62c-57.333 7.33301 -106 23.666 -146 48.999z" />
    <glyph glyph-name="cent.smcp" horiz-adv-x="422" 
d="M183 -29l-0.00195312 79c-50 10 -86.333 35.833 -109 77.5s-34 92.167 -34 151.5s13.667 108 41 146s62.333 61.667 105 71v80c8.66699 2.66699 21.167 4 37.5 4s28.833 -1.33301 37.5 -4v-79c40 -6 70.833 -21 92.5 -45s32.5 -50.667 32.5 -80
c0 -37.333 -17 -56 -51 -56c-12.667 0 -25 1.66699 -37 5v10c0 62.667 -25.333 94 -76 94c-27.333 0 -48.5 -13.167 -63.5 -39.5s-22.5 -64.833 -22.5 -115.5c0 -97.333 33 -146 99 -146c32.667 0 68.334 13 107.001 39c8 -5.33301 16.167 -13 24.5 -23s13.833 -20 16.5 -30
c-31.333 -32 -72.666 -52.333 -123.999 -61v-78c-6.66699 -2 -18.5 -3 -35.5 -3s-30.5 1 -40.5 3z" />
    <glyph glyph-name="sterling.smcp" horiz-adv-x="469" 
d="M194 297l161.996 1c4 -11.333 6 -22.833 6 -34.5s-2 -23.167 -6 -34.5c-65.333 0 -114 0.333008 -146 1v-3c0 -46 -19.333 -95.667 -58 -149l3 -2c37.333 2.66699 78.666 4 123.999 4h155c0 -16.667 -0.666992 -28 -2 -34c-5.33301 -31.333 -26.666 -47 -63.999 -47h-303
c-8 29.333 -12 50.333 -12 63s4 25.667 12 39l14 21c27.333 42.667 41 78.334 41 107.001h-65c-3.33301 11.333 -5 22.666 -5 33.999s1.66699 23 5 35c4.66699 0 12.334 -0.166992 23.001 -0.5s18.334 -0.5 23.001 -0.5c-20.667 48.667 -31 85 -31 109
c0 40.667 15.5 76.167 46.5 106.5s73.833 45.5 128.5 45.5c70.667 0 129.334 -20.667 176.001 -62c-2 -12 -7.66699 -24.167 -17 -36.5s-20 -20.833 -32 -25.5c-39.333 29.333 -79.666 44 -120.999 44c-24.667 0 -45.167 -7 -61.5 -21s-24.5 -31.5 -24.5 -52.5
s9.66699 -56.833 29 -107.5z" />
    <glyph glyph-name="Euro.smcp" horiz-adv-x="501" 
d="M437 437c-42.667 27.333 -85.334 41 -128.001 41c-63.333 0 -103 -36.667 -119 -110h175c2.66699 -10.667 4 -21.167 4 -31.5s-1.33301 -20.833 -4 -31.5h-183v-64h183c2.66699 -10.667 4 -21 4 -31s-1.33301 -20.667 -4 -32h-175c16 -74.667 55.667 -112 119 -112
c42 0 84.667 14 128 42c24 -14 38.333 -33.333 43 -58c-54.667 -42 -115.667 -63 -183 -63c-112 0 -179.333 63.667 -202 191h-71c-2 8.66699 -3 19.334 -3 32.001s1 23 3 31h64c-0.666992 6.66699 -1 17.167 -1 31.5s0.333008 25.166 1 32.499h-64c-2 8 -3 18.5 -3 31.5
s1 23.5 3 31.5h70c22.667 126.667 90.334 190 203.001 190c67.333 0 128.333 -20.667 183 -62c-4.66699 -25.333 -19 -45 -43 -59z" />
    <glyph glyph-name="yen.smcp" horiz-adv-x="459" 
d="M411 139l-135.999 0.000976562v-139c-13.333 -2.66699 -29 -4 -47 -4s-33.333 1.33301 -46 4v139h-137c-2.66699 11.333 -4 22 -4 32s1.33301 20.333 4 31h132l-31 65h-101c-2.66699 10.667 -4 21.167 -4 31.5s1.33301 20.833 4 31.5h72l-96 205
c25.333 12 47.166 18 65.499 18s32.833 -11.667 43.5 -35l67 -152c10 -24.667 21 -55.334 33 -92.001h4c10.667 34 22 64.333 34 91l80 181c15.333 3.33301 30 5 44 5s28.333 -2 43 -6l4 -5l-99 -210h71c2.66699 -11.333 4 -22 4 -32s-1.33301 -20.333 -4 -31h-101l-30 -65
h131c2.66699 -10.667 4 -21 4 -31s-1.33301 -20.667 -4 -32z" />
    <glyph glyph-name="ae.smcp" horiz-adv-x="780" 
d="M359 127l-48 -0.998047h-83l-54 1l-70 -128c-12.667 -2.66699 -27.834 -4 -45.501 -4s-32.5 2.33301 -44.5 7l-3 6l294 528c12.667 6 32.667 9 60 9h355c2 -9.33301 3 -21.833 3 -37.5s-2.66699 -30.167 -8 -43.5h-263l1 -51v-98l55 1h162
c3.33301 -8.66699 5 -21.834 5 -39.501s-1.66699 -30.834 -5 -39.501h-217v-114l-1 -44c22.667 1.33301 42.334 2 59.001 2h225c0 -15.333 -0.666992 -27 -2 -35c-6 -31.333 -26.333 -47 -61 -47h-258c-17.333 0 -31 5.33301 -41 16s-15 25 -15 43v69zM310 204.002l49 -1
v265h-5l-79 -156l-60 -109l40 1h55z" />
    <glyph glyph-name="agrave.smcp" horiz-adv-x="540" 
d="M381 125l-52 -1h-123l-56 1l-44 -126c-11.333 -2.66699 -26 -4 -44 -4s-32.667 2.33301 -44 7l-4 5l200 538c14 2.66699 33 4 57 4s42.667 -1.33301 56 -4l199 -541c-16 -7.33301 -33.167 -11 -51.5 -11s-31.833 3.16699 -40.5 9.5s-16 18.5 -22 36.5zM178 204
l46.999 0.999023h87c1.33301 0 7.33301 -0.166992 18 -0.5s18.334 -0.5 23.001 -0.5l-37 103c-19.333 58.667 -35.333 110.334 -48 155.001h-4c-11.333 -40.667 -25 -85 -41 -133zM210.999 786.999l142 -158.001c-7.33301 -19.333 -21.666 -32.666 -42.999 -39.999l-169 133
c5.33301 14 14.666 27.167 27.999 39.5s27.333 20.833 42 25.5z" />
    <glyph glyph-name="aacute.smcp" horiz-adv-x="540" 
d="M381 125l-52 -1h-123l-56 1l-44 -126c-11.333 -2.66699 -26 -4 -44 -4s-32.667 2.33301 -44 7l-4 5l200 538c14 2.66699 33 4 57 4s42.667 -1.33301 56 -4l199 -541c-16 -7.33301 -33.167 -11 -51.5 -11s-31.833 3.16699 -40.5 9.5s-16 18.5 -22 36.5zM178 204
l46.999 0.999023h87c1.33301 0 7.33301 -0.166992 18 -0.5s18.334 -0.5 23.001 -0.5l-37 103c-19.333 58.667 -35.333 110.334 -48 155.001h-4c-11.333 -40.667 -25 -85 -41 -133zM198.999 628.999l142 158.001c14.667 -4.66699 28.667 -13.167 42 -25.5
s22.666 -25.5 27.999 -39.5l-169 -133c-21.333 7.33301 -35.666 20.666 -42.999 39.999z" />
    <glyph glyph-name="acircumflex.smcp" horiz-adv-x="540" 
d="M381 125l-52 -1h-123l-56 1l-44 -126c-11.333 -2.66699 -26 -4 -44 -4s-32.667 2.33301 -44 7l-4 5l200 538c14 2.66699 33 4 57 4s42.667 -1.33301 56 -4l199 -541c-16 -7.33301 -33.167 -11 -51.5 -11s-31.833 3.16699 -40.5 9.5s-16 18.5 -22 36.5zM178 204
l46.999 0.999023h87c1.33301 0 7.33301 -0.166992 18 -0.5s18.334 -0.5 23.001 -0.5l-37 103c-19.333 58.667 -35.333 110.334 -48 155.001h-4c-11.333 -40.667 -25 -85 -41 -133zM366.999 597.999l-94 91l-100 -97c-19.333 8 -34.333 21.667 -45 41l106 134
c10.667 3.33301 23 5 37 5s29.333 -1.66699 46 -5l98 -126c-10 -22 -26 -36.333 -48 -43z" />
    <glyph glyph-name="atilde.smcp" horiz-adv-x="540" 
d="M381 125l-52 -1h-123l-56 1l-44 -126c-11.333 -2.66699 -26 -4 -44 -4s-32.667 2.33301 -44 7l-4 5l200 538c14 2.66699 33 4 57 4s42.667 -1.33301 56 -4l199 -541c-16 -7.33301 -33.167 -11 -51.5 -11s-31.833 3.16699 -40.5 9.5s-16 18.5 -22 36.5zM178 204
l46.999 0.999023h87c1.33301 0 7.33301 -0.166992 18 -0.5s18.334 -0.5 23.001 -0.5l-37 103c-19.333 58.667 -35.333 110.334 -48 155.001h-4c-11.333 -40.667 -25 -85 -41 -133zM283.999 622.999l-56.001 28.002c-13.333 6 -25.333 9 -36 9s-22.667 -8.33301 -36 -25
l-11 -15c-10 0 -19.667 2.83301 -29 8.5s-15.666 12.834 -18.999 21.501l9 20c9.33301 22 22.666 39.5 39.999 52.5s35.333 19.5 54 19.5s38.667 -5.33301 60 -16l56 -27c10.667 -6 22 -9 34 -9s24.667 8.33301 38 25l11 15c10 -0.666992 19.667 -3.83398 29 -9.50098
s15.666 -12.834 18.999 -21.501l-9 -19c-10 -22.667 -23.667 -40.334 -41 -53.001s-35.166 -19 -53.499 -19s-38.166 5 -59.499 15z" />
    <glyph glyph-name="adieresis.smcp" horiz-adv-x="540" 
d="M381 125l-52 -1h-123l-56 1l-44 -126c-11.333 -2.66699 -26 -4 -44 -4s-32.667 2.33301 -44 7l-4 5l200 538c14 2.66699 33 4 57 4s42.667 -1.33301 56 -4l199 -541c-16 -7.33301 -33.167 -11 -51.5 -11s-31.833 3.16699 -40.5 9.5s-16 18.5 -22 36.5zM178 204
l46.999 0.999023h87c1.33301 0 7.33301 -0.166992 18 -0.5s18.334 -0.5 23.001 -0.5l-37 103c-19.333 58.667 -35.333 110.334 -48 155.001h-4c-11.333 -40.667 -25 -85 -41 -133zM309.999 662.999c0 13.333 2.66699 25.999 8 37.999c11.333 7.33301 26.833 11 46.5 11
s35.167 -3.66699 46.5 -11c4.66699 -12.667 7 -25.667 7 -39s-2.33301 -25.666 -7 -36.999c-12.667 -8 -28.5 -12 -47.5 -12s-34.167 4 -45.5 12c-5.33301 12 -8 24.667 -8 38zM125.999 662.998c0 12.667 2.33301 25.332 7 37.999c11.333 7.33301 26.833 11 46.5 11
s35.167 -3.66699 46.5 -11c5.33301 -12 8 -25 8 -39s-2.66699 -26.333 -8 -37c-11.333 -8 -26.5 -12 -45.5 -12s-34.833 4 -47.5 12c-4.66699 12.667 -7 25.334 -7 38.001z" />
    <glyph glyph-name="aring.smcp" horiz-adv-x="540" 
d="M381 125l-52 -1h-123l-56 1l-44 -126c-11.333 -2.66699 -26 -4 -44 -4s-32.667 2.33301 -44 7l-4 5l200 538c14 2.66699 33 4 57 4s42.667 -1.33301 56 -4l199 -541c-16 -7.33301 -33.167 -11 -51.5 -11s-31.833 3.16699 -40.5 9.5s-16 18.5 -22 36.5zM178 204
l46.999 0.999023h87c1.33301 0 7.33301 -0.166992 18 -0.5s18.334 -0.5 23.001 -0.5l-37 103c-19.333 58.667 -35.333 110.334 -48 155.001h-4c-11.333 -40.667 -25 -85 -41 -133zM153.999 701.999c0 31.333 11 57.666 33 78.999s50.333 32 85 32s63 -10.667 85 -32
s33 -47.666 33 -78.999s-11 -57.833 -33 -79.5s-50.333 -32.5 -85 -32.5s-63 10.833 -85 32.5s-33 48.167 -33 79.5zM235.999 740.999c-9.33301 -10.667 -14 -23.834 -14 -39.501s4.66699 -28.667 14 -39s21.333 -15.5 36 -15.5s26.667 5.16699 36 15.5s14 23.333 14 39
s-4.66699 28.834 -14 39.501s-21.333 16 -36 16s-26.667 -5.33301 -36 -16z" />
    </font>
</defs>
</svg>
