<?xml version="1.0" standalone="no"?>
<!DOCTYPE svg PUBLIC "-//W3C//DTD SVG 1.1//EN" "http://www.w3.org/Graphics/SVG/1.1/DTD/svg11.dtd" >
<svg>
<metadata>
Created by FontForge 20090914 at Sun Aug  4 13:15:56 2013
 By www-data
Copyright (c) 2011 by Anna Giedrys (http://ancymonic.com), with Reserved Font Names "Signika".
</metadata>
<defs>
<font id="SignikaNegative-Bold" horiz-adv-x="398" >
  <font-face 
    font-family="Signika Negative"
    font-weight="700"
    font-stretch="normal"
    units-per-em="1000"
    panose-1="2 1 0 3 2 6 0 0 0 4"
    ascent="800"
    descent="-200"
    x-height="498.001"
    cap-height="689"
    bbox="-122 -288.001 1007 935.003"
    underline-thickness="50"
    underline-position="-100"
    unicode-range="U+000D-U+20AC"
  />
<missing-glyph horiz-adv-x="186" 
 />
    <glyph glyph-name=".notdef" horiz-adv-x="186" 
 />
    <glyph glyph-name=".null" horiz-adv-x="0" 
 />
    <glyph glyph-name=".null" horiz-adv-x="0" 
 />
    <glyph glyph-name="CR" unicode="&#xd;" horiz-adv-x="186" 
 />
    <glyph glyph-name="space" unicode=" " horiz-adv-x="220" 
 />
    <glyph glyph-name="exclam" unicode="!" horiz-adv-x="305" 
d="M92 207l-20.001 443c38.667 28 91.334 42 158.001 42l9 -11l-34 -474c-14.667 -4.66699 -33.5 -7 -56.5 -7s-41.833 2.33301 -56.5 7zM76.999 119c19.333 10.667 43.501 16 72.501 16s52.5 -5.33301 70.5 -16c7.33301 -12.667 11 -31.667 11 -57
s-3.66699 -44.333 -11 -57c-16.667 -10.667 -40.334 -16 -71.001 -16s-54.667 5.33301 -72 16c-7.33301 12.667 -11 31.667 -11 57s3.66699 44.333 11 57z" />
    <glyph glyph-name="quotedbl" unicode="&#x22;" horiz-adv-x="443" 
d="M255 725c0 11.333 2.33203 27.666 6.99902 48.999c19.333 11.333 41.333 17 66 17s46.667 -5.66699 66 -17c4.66699 -21.333 7 -37.666 7 -48.999s-2.33301 -28.333 -7 -51c-14 -74.667 -23.667 -134.667 -29 -180c-8.66699 -5.33301 -21 -8 -37 -8
s-28.333 2.66699 -37 8c-5.33301 45.333 -12.666 92.333 -21.999 141s-14 78.667 -14 90zM41.999 725c0 11.333 2.33203 27.666 6.99902 48.999c19.333 11.333 41.333 17 66 17s46.667 -5.66699 66 -17c4.66699 -21.333 7 -37.666 7 -48.999s-2 -28.333 -6 -51
c-14.667 -74.667 -24.667 -134.667 -30 -180c-8.66699 -5.33301 -21 -8 -37 -8s-28.333 2.66699 -37 8c-5.33301 45.333 -12.666 92.333 -21.999 141s-14 78.667 -14 90z" />
    <glyph glyph-name="numbersign" unicode="#" horiz-adv-x="708" 
d="M461 527l28 122.997c16 6.66699 37.833 10 65.5 10s49.167 -3.33301 64.5 -10l-28 -123h93c6 -17.333 9 -37 9 -59s-3 -41.667 -9 -59h-119l-35 -156h101c6 -17.333 9 -37.166 9 -59.499s-3 -41.833 -9 -58.5h-128l-27 -123c-16 -6.66699 -38 -10 -66 -10
s-49.333 3.33301 -64 10l27 123h-120l-27 -123c-16 -6.66699 -38 -10 -66 -10s-49.333 3.33301 -64 10l27 123h-95c-6 16.667 -9 36.334 -9 59.001s3 42.334 9 59.001h122l35 156h-105c-6 17.333 -9 37 -9 59s3 41.667 9 59h131l28 123c16 6.66699 38 10 66 10
s49.333 -3.33301 64 -10l-28 -123h120zM315 408.997l-35 -156h120l35 156h-120z" />
    <glyph glyph-name="dollar" unicode="$" horiz-adv-x="508" 
d="M23 95c0.666992 19.333 6.49805 40.335 17.498 63.002s23.833 38.334 38.5 47.001c69.333 -36 128.666 -54 177.999 -54c20 0 36.167 3.83301 48.5 11.5s18.5 18.5 18.5 32.5c0 23.333 -16.333 40.666 -49 51.999l-95 34c-88.667 34 -133 87 -133 159
c0 43.333 14.167 80.166 42.5 110.499s65.5 49.833 111.5 58.5v81c12.667 2.66699 30.5 4 53.5 4s41.167 -1.33301 54.5 -4v-79c48.667 -5.33301 101 -20 157 -44c0 -21.333 -4.66699 -42.5 -14 -63.5s-21.666 -38.167 -36.999 -51.5c-66.667 26.667 -119 40 -157 40
c-17.333 0 -31.166 -3.83301 -41.499 -11.5s-15.5 -17.834 -15.5 -30.501c0 -16.667 16.667 -30.667 50 -42l93 -36c91.333 -34 137 -91 137 -171c0 -44 -16 -80.833 -48 -110.5s-74.667 -48.167 -128 -55.5v-76c-10 -2 -28.167 -3 -54.5 -3s-44.166 1 -53.499 3v77
c-71.333 9.33301 -129.333 29 -174 59z" />
    <glyph glyph-name="percent" unicode="%" horiz-adv-x="979" 
d="M764 -13c-113.333 0 -169.999 72 -169.999 216c0 79.333 16 135 48 167s72.667 48 122 48s88.666 -15 117.999 -45c34.667 -34 52 -91 52 -171s-17.333 -137 -52 -171c-28.667 -29.333 -68 -44 -118 -44zM714.001 203c0 -40 3.33301 -70.668 10 -92.001s20 -32 40 -32
s33.167 10.5 39.5 31.5s9.5 51.833 9.5 92.5s-3.16699 71.334 -9.5 92.001s-19.5 31 -39.5 31s-33.333 -10.5 -40 -31.5s-10 -51.5 -10 -91.5zM215.001 695.999c49.333 0 89.999 -16 121.999 -48s48 -88 48 -168s-17.333 -136.667 -52 -170c-28 -30 -67.167 -45 -117.5 -45
s-90.166 15 -119.499 45c-34 33.333 -51 90 -51 170s17 137.333 51 172c30 29.333 69.667 44 119 44zM166 480.999c0 -40.667 3.16699 -71.5 9.5 -92.5s19.5 -31.5 39.5 -31.5s33.167 10.5 39.5 31.5s9.5 51.833 9.5 92.5s-3.16699 71.334 -9.5 92.001s-19.5 31 -39.5 31
s-33.167 -10.333 -39.5 -31s-9.5 -51.334 -9.5 -92.001zM228 -0.000976562l378.001 683c20 4.66699 37.333 7 52 7c46.667 0 77 -2.33301 91 -7l-377 -683c-20 -4.66699 -37.333 -7 -52 -7c-46.667 0 -77.334 2.33301 -92.001 7z" />
    <glyph glyph-name="ampersand" unicode="&#x26;" horiz-adv-x="652" 
d="M531 296l0.999023 -60.9971v-76c0 -53.333 2.33301 -106.333 7 -159c-18 -6 -40.333 -9 -67 -9s-50 2.33301 -70 7l-10 44c-42.667 -38 -94.667 -57 -156 -57s-109.166 18.5 -143.499 55.5s-51.5 80.667 -51.5 131s12.333 92.166 37 125.499s55 55.666 91 66.999
c-29.333 11.333 -53 30.666 -71 57.999s-27 58.666 -27 93.999c0 54 19.5 97.833 58.5 131.5s93.5 50.5 163.5 50.5s137.333 -11 202 -33v-19c0 -10 -3.33301 -24.667 -10 -44s-16 -35.666 -28 -48.999c-58 18 -103.5 27 -136.5 27s-56.833 -7.16699 -71.5 -21.5
s-22 -32.833 -22 -55.5c0 -54 34.333 -81 103 -81h192c39.333 0 74.333 6.33301 105 19c12.667 -16 19 -39.333 19 -70c0 -50 -30.667 -75 -92 -75h-23zM384.999 234.003c0 26 0.332031 46.667 0.999023 62h-68c-39.333 0 -69.333 -9 -90 -27s-31 -42.667 -31 -74
s7.5 -54.833 22.5 -70.5s34.5 -23.5 58.5 -23.5c40.667 0 76.334 13.333 107.001 40v93z" />
    <glyph glyph-name="quotesingle" unicode="'" horiz-adv-x="237" 
d="M41 725c0 11.333 2.33203 27.666 6.99902 48.999c19.333 11.333 41.333 17 66 17s46.667 -5.66699 66 -17c4.66699 -21.333 7 -37.666 7 -48.999s-2.33301 -28.333 -7 -51c-14 -74.667 -23.667 -134.667 -29 -180c-8.66699 -5.33301 -21 -8 -37 -8s-28.333 2.66699 -37 8
c-5.33301 45.333 -12.666 92.333 -21.999 141s-14 78.667 -14 90z" />
    <glyph glyph-name="parenleft" unicode="(" horiz-adv-x="369" 
d="M249 553.5c-22.667 -77.667 -34 -154.667 -34 -231s11.333 -153.333 34 -231s56.334 -147.5 101.001 -209.5c-16.667 -38 -45.334 -64 -86.001 -78c-65.333 62.667 -115.833 141.5 -151.5 236.5s-53.5 189.167 -53.5 282.5s17.833 187.5 53.5 282.5
s86.167 173.5 151.5 235.5c40.667 -14 69.334 -40 86.001 -78c-44.667 -62 -78.334 -131.833 -101.001 -209.5z" />
    <glyph glyph-name="parenright" unicode=")" horiz-adv-x="369" 
d="M120 91.5c22.667 77.667 34 154.667 34 231s-11.333 153.333 -34 231s-56.334 147.5 -101.001 209.5c16.667 38 45.334 64 86.001 78c65.333 -62 115.833 -140.5 151.5 -235.5s53.5 -189.167 53.5 -282.5s-17.833 -187.5 -53.5 -282.5s-86.167 -173.833 -151.5 -236.5
c-40.667 14 -69.334 40 -86.001 78c44.667 62 78.334 131.833 101.001 209.5z" />
    <glyph glyph-name="asterisk" unicode="*" horiz-adv-x="518" 
d="M37 525l0.00292969 15.502c0 8.33301 3.83301 24 11.5 47s16.5 40.5 26.5 52.5l58 -23c22 -7.33301 52.667 -25.333 92 -54c-14.667 46.667 -22.334 81.334 -23.001 104.001l-3 63c13.333 6 33.166 9 59.499 9s46.5 -3 60.5 -9l-3 -63c-1.33301 -20.667 -9 -55 -23 -103
c34 23.333 64.333 40.666 91 51.999l59 23c9.33301 -11.333 18.166 -29.333 26.499 -54s12.166 -44.667 11.499 -60l-62 -17c-24 -6 -59.333 -9 -106 -9c37.333 -28 63.666 -51.667 78.999 -71l40 -49c-7.33301 -12.667 -21.5 -26.834 -42.5 -42.501
s-38.833 -25.167 -53.5 -28.5l-35 53c-13.333 20 -27.333 52.333 -42 97c-15.333 -43.333 -29.666 -75.333 -42.999 -96l-34 -53c-14.667 2.66699 -32.5 11.667 -53.5 27s-35.5 29.666 -43.5 42.999l39 50c14.667 18.667 41.334 42 80.001 70c-46 0 -81 3.33301 -105 10z
" />
    <glyph glyph-name="plus" unicode="+" horiz-adv-x="530" 
d="M202 357l-1 66.999v90c18.667 3.33301 40.167 5 64.5 5s45.5 -1.66699 63.5 -5v-90l-1 -67l65 1h84c4 -21.333 6 -41.666 6 -60.999s-2 -39 -6 -59h-84l-65 1l1 -64v-91c-18 -3.33301 -39.333 -5 -64 -5s-46 1.66699 -64 5v91l1 64l-65 -1h-84c-4 18.667 -6 38.667 -6 60
s2 41.333 6 60h84z" />
    <glyph glyph-name="comma" unicode="," horiz-adv-x="292" 
d="M221 124c8.66699 -21.333 13.001 -46.999 13.001 -76.999c0 -48.667 -15.167 -93.834 -45.5 -135.501s-73.5 -71.5 -129.5 -89.5c-12 6 -21 15.167 -27 27.5s-9 21.833 -9 28.5v14c24.667 8.66699 45.5 22 62.5 40s26.833 38 29.5 60c-19.333 4 -33.666 9 -42.999 15
c-7.33301 14.667 -11 34.167 -11 58.5s3.66699 43.833 11 58.5c21.333 12 47.166 18 77.499 18s54.166 -6 71.499 -18z" />
    <glyph glyph-name="hyphen" unicode="-" horiz-adv-x="373" 
d="M325 209h-277c-4 16 -6 36 -6 60s2 44 6 60h277c4 -16 6 -36 6 -60s-2 -44 -6 -60z" />
    <glyph glyph-name="period" unicode="." horiz-adv-x="283" 
d="M54 66c0 24 4 43.667 12 59c20.667 12 46 18 76 18s55.333 -6 76 -18c7.33301 -15.333 11 -35 11 -59s-3.66699 -43.667 -11 -59c-18 -11.333 -43.333 -17 -76 -17s-58 5.66699 -76 17c-8 15.333 -12 35 -12 59z" />
    <glyph glyph-name="slash" unicode="/" horiz-adv-x="447" 
d="M2 -70l314 837c50.667 -6 93 -22 127 -48l-314 -837c-52 6 -94.333 22 -127 48z" />
    <glyph glyph-name="zero" unicode="0" horiz-adv-x="530" 
d="M32 324c0 64 4.66699 117.833 14 161.5s28.333 81.5 57 113.5c44 42.667 98 64 162 64c37.333 0 68.333 -5.5 93 -16.5s47.667 -26.833 69 -47.5c28.667 -32 47.667 -69.833 57 -113.5s14 -97.5 14 -161.5s-4.66699 -117.833 -14 -161.5s-28.333 -81.5 -57 -113.5
c-44 -42.667 -98 -64 -162 -64s-118 21.333 -162 64c-28.667 32 -47.667 69.833 -57 113.5s-14 97.5 -14 161.5zM185 324c0 -94.667 6.16602 -155.831 18.499 -183.498s32.833 -41.5 61.5 -41.5s48.334 12.333 59.001 37c14 31.333 21 94.166 21 188.499
s-6.16699 155.333 -18.5 183s-32.833 41.5 -61.5 41.5s-49.167 -13.833 -61.5 -41.5s-18.5 -88.834 -18.5 -183.501z" />
    <glyph glyph-name="one" unicode="1" horiz-adv-x="530" 
d="M223 121l-1 73v145c0 10 1 29.333 3 58s3.33301 48.334 4 59.001c-36 -40.667 -80.667 -72.334 -134 -95.001c-15.333 6.66699 -29 18 -41 34s-19.333 33.333 -22 52c94 58.667 159 125.667 195 201c20.667 4 44 6 70 6s49.333 -2 70 -6v-454l-1 -73l67 1h56
c4.66699 -16.667 7 -36.667 7 -60s-2.33301 -44 -7 -62h-412c-4.66699 22 -7 42.5 -7 61.5s2.33301 39.167 7 60.5h83z" />
    <glyph glyph-name="two" unicode="2" horiz-adv-x="530" 
d="M486 126c0 -20 -1 -38.667 -3 -56c-8 -47.333 -38.333 -71 -91 -71h-301c-34 36 -51 66.333 -51 91c0 50.667 38.667 110.334 116 179.001l107 97c36.667 33.333 55 67 55 101c0 21.333 -6.5 39 -19.5 53s-30.833 21 -53.5 21s-42 -8.66699 -58 -26
s-27.333 -38.333 -34 -63c-19.333 0 -39.666 4.16699 -60.999 12.5s-36.333 19.166 -45 32.499c13.333 48 38.833 87.667 76.5 119s85.667 47 144 47s106.666 -18.333 144.999 -55s57.5 -85 57.5 -145c0 -40 -10.333 -75 -31 -105s-50.667 -61.667 -90 -95l-72 -62
c-46.667 -38.667 -74.667 -67 -84 -85c51.333 6.66699 101 10 149 10h144z" />
    <glyph glyph-name="three" unicode="3" horiz-adv-x="530" 
d="M434 498l-80 -81.998c-8.66699 -8.66699 -19 -17.334 -31 -26.001c50 -6 90.167 -25.5 120.5 -58.5s45.5 -76.5 45.5 -130.5c0 -66.667 -23.167 -119.334 -69.5 -158.001s-102.833 -58 -169.5 -58c-86 0 -156.667 24 -212 72c7.33301 36.667 28.333 69 63 97
c41.333 -32.667 84.666 -49 129.999 -49c32 0 57.667 9.16699 77 27.5s29 42.333 29 72s-8.66699 52.667 -26 69s-37.5 24.5 -60.5 24.5s-43.5 -4 -61.5 -12c-12 5.33301 -23.167 15.5 -33.5 30.5s-17.833 31.167 -22.5 48.5l98 101c32 32 54.667 52.667 68 62l-4 7
c-27.333 -8 -60.666 -12 -99.999 -12h-124c-6.66699 17.333 -10 37.833 -10 61.5s4.33301 44.834 13 63.501h359c20 -36.667 30 -65.834 30 -87.501s-9.66699 -42.5 -29 -62.5z" />
    <glyph glyph-name="four" unicode="4" horiz-adv-x="530" 
d="M417 118l1.00098 -70v-48c-20.667 -4 -44.667 -6 -72 -6s-51.333 2 -72 6v48l1 70l-71 -2h-149c-21.333 34.667 -32 65.334 -32 92.001c0 12.667 6 34.334 18 65.001l163 383c8.66699 1.33301 19.167 2 31.5 2s30 -2.33301 53 -7s40.167 -13.334 51.5 -26.001l-74 -175
c-38.667 -96.667 -73.334 -167.334 -104.001 -212.001l3 -5c24 2 60.333 4 109 6v61c0 36.667 9 65.5 27 86.5s43.333 31.5 76 31.5h34l7 -6v-102l-1 -70l56 1h30c2.66699 -16 4 -35 4 -57s-3 -44 -9 -66h-81z" />
    <glyph glyph-name="five" unicode="5" horiz-adv-x="530" 
d="M450 648c6.66699 -20 9.99902 -40.332 9.99902 -60.999c0 -42 -21.333 -63 -64 -63h-177v-29l-4 -51l-3 -19c20 5.33301 39.667 8 59 8c66 0 118 -19.333 156 -58s57 -92.834 57 -162.501s-24.333 -125 -73 -166s-106.334 -61.5 -173.001 -61.5
c-81.333 0 -147.666 23 -198.999 69c3.33301 15.333 10.833 32.833 22.5 52.5s24.5 34.5 38.5 44.5c42 -30 81 -45 117 -45s64 9.5 84 28.5s30 45.833 30 80.5s-9.83301 60.667 -29.5 78s-44.834 26 -75.501 26s-59.667 -10.667 -87 -32
c-13.333 2.66699 -27.166 9 -41.499 19s-25.166 20.667 -32.499 32l17 302l7 8h361z" />
    <glyph glyph-name="six" unicode="6" horiz-adv-x="530" 
d="M271 -15c-158 0 -237.001 111.669 -237.001 335.002c0 107.333 23.833 191.333 71.5 252s114.5 91 200.5 91c62 0 115.333 -11.667 160 -35c-2.66699 -44.667 -18.667 -78.667 -48 -102c-31.333 13.333 -64.666 20 -99.999 20c-80.667 0 -123.667 -51.333 -129 -154
c36.667 28.667 81 43 133 43s94 -17.833 126 -53.5s48 -89.834 48 -162.501s-21.5 -129.834 -64.5 -171.501s-96.5 -62.5 -160.5 -62.5zM188.999 270.002c0 -116 28 -174 84 -174c25.333 0 44.333 10 57 30s19 47 19 81c0 72.667 -24.333 109 -73 109
c-30.667 0 -59.667 -11.667 -87 -35v-11z" />
    <glyph glyph-name="seven" unicode="7" horiz-adv-x="530" 
d="M60 648l409.001 -0.00195312c17.333 -38.667 26 -68 26 -88s-6.66699 -39.667 -20 -59l-39 -53c-84.667 -119.333 -133.667 -253.666 -147 -402.999l-4 -45c-19.333 -4 -43.333 -6 -72 -6s-55 2 -79 6l4 47c14 154.667 62 286.334 144 395.001l12 17
c16.667 23.333 37.667 47 63 71l-5 5c-32.667 -8 -79.334 -12 -140.001 -12h-158c-5.33301 14.667 -8 33 -8 55s4.66699 45.333 14 70z" />
    <glyph glyph-name="eight" unicode="8" horiz-adv-x="530" 
d="M28 165c0 68 36.668 124.002 110.001 168.002c-62.667 38.667 -94 90 -94 154c0 50 21 91.833 63 125.5s95.333 50.5 160 50.5s117 -16.167 157 -48.5s60 -73.833 60 -124.5c0 -58.667 -31.333 -105.334 -94 -140.001c74.667 -44 112 -103.333 112 -178
c-0.666992 -57.333 -24.167 -102.833 -70.5 -136.5s-104.333 -50.5 -174 -50.5s-125.334 16.167 -167.001 48.5s-62.5 76.166 -62.5 131.499zM260.001 277.002l-25 9c-38 -30.667 -57 -68 -57 -112c0 -25.333 8 -45.833 24 -61.5s37 -23.5 63 -23.5s46.667 8 62 24
s23 36 23 60c0 47.333 -30 82 -90 104zM190.001 487.002c0 -38 29.333 -67 88 -87l13 -5c33.333 23.333 50 53 50 89c0 21.333 -7.16699 38.833 -21.5 52.5s-32.5 20.5 -54.5 20.5s-40 -6.66699 -54 -20s-21 -30 -21 -50z" />
    <glyph glyph-name="nine" unicode="9" horiz-adv-x="530" 
d="M259 663c158 0 237.002 -111.669 237.002 -335.002c0 -107.333 -23.833 -191.333 -71.5 -252s-114.5 -91 -200.5 -91c-62 0 -115.333 11.667 -160 35c2.66699 44.667 18.667 78.667 48 102c31.333 -13.333 64.666 -20 99.999 -20c80 0 122.667 51 128 153
c-36.667 -28 -80.834 -42 -132.501 -42s-93.5 17.833 -125.5 53.5s-48 89.834 -48 162.501s21.5 129.834 64.5 171.501s96.5 62.5 160.5 62.5zM341.002 377.998c0 116 -28 174 -84 174c-25.333 0 -44.333 -10 -57 -30s-19 -47 -19 -81c0 -72.667 24.333 -109 73 -109
c30.667 0 59.667 11.667 87 35v11z" />
    <glyph glyph-name="colon" unicode=":" horiz-adv-x="291" 
d="M58 66c0 24 4 43.667 12 59c20.667 12 46 18 76 18s55.333 -6 76 -18c7.33301 -15.333 11 -35 11 -59s-3.66699 -43.667 -11 -59c-18 -11.333 -43.333 -17 -76 -17s-58 5.66699 -76 17c-8 15.333 -12 35 -12 59zM58 378c0 24 4 43.667 12 59c20.667 12 46 18 76 18
s55.333 -6 76 -18c7.33301 -15.333 11 -35 11 -59s-3.66699 -43.667 -11 -59c-18 -11.333 -43.333 -17 -76 -17s-58 5.66699 -76 17c-8 15.333 -12 35 -12 59z" />
    <glyph glyph-name="semicolon" unicode=";" horiz-adv-x="295" 
d="M221 124c8.66699 -21.333 13.001 -46.999 13.001 -76.999c0 -48.667 -15.167 -93.834 -45.5 -135.501s-73.5 -71.5 -129.5 -89.5c-12 6 -21 15.167 -27 27.5s-9 21.833 -9 28.5v14c24.667 8.66699 45.5 22 62.5 40s26.833 38 29.5 60c-19.333 4 -33.666 9 -42.999 15
c-7.33301 14.667 -11 34.167 -11 58.5s3.66699 43.833 11 58.5c21.333 12 47.166 18 77.499 18s54.166 -6 71.499 -18zM60.001 378.001c0 24 4 43.667 12 59c20.667 12 46 18 76 18s55.333 -6 76 -18c7.33301 -15.333 11 -35 11 -59s-3.66699 -43.667 -11 -59
c-18 -11.333 -43.333 -17 -76 -17s-58 5.66699 -76 17c-8 15.333 -12 35 -12 59z" />
    <glyph glyph-name="less" unicode="&#x3c;" horiz-adv-x="530" 
d="M52 354l356.998 196.998c18.667 -10 34.334 -25.833 47.001 -47.5s19.334 -44.167 20.001 -67.5l-191 -98c-24.667 -13.333 -52.667 -25.333 -84 -36v-8c34.667 -11.333 62.667 -23 84 -35l191 -99c-2 -23.333 -9.5 -46.166 -22.5 -68.499s-28.167 -38.166 -45.5 -47.499
l-356 197c-5.33301 19.333 -8 38.5 -8 57.5s2.66699 37.5 8 55.5z" />
    <glyph glyph-name="equal" unicode="=" horiz-adv-x="530" 
d="M477 128h-424c-4 16 -6 35.833 -6 59.5s2 43.834 6 60.501h424c4 -16.667 6 -36.834 6 -60.501s-2 -43.5 -6 -59.5zM477 351h-424c-4 16 -6 36 -6 60s2 44 6 60h424c4 -16 6 -36 6 -60s-2 -44 -6 -60z" />
    <glyph glyph-name="greater" unicode="&#x3e;" horiz-adv-x="530" 
d="M478 242l-356.998 -195.999c-18.667 10 -34.334 25.833 -47.001 47.5s-19.334 44.167 -20.001 67.5l191 98c24.667 13.333 52.667 25.333 84 36v7c-31.333 10.667 -59.333 22.667 -84 36l-191 98c2 23.333 9.5 46.333 22.5 69s28.167 38.667 45.5 48l356 -198
c5.33301 -19.333 8 -38.333 8 -57s-2.66699 -37.334 -8 -56.001z" />
    <glyph glyph-name="question" unicode="?" horiz-adv-x="417" 
d="M3 641c63.333 38 129.168 56.999 197.501 56.999s120.333 -16.5 156 -49.5s53.5 -76.5 53.5 -130.5c0 -86 -43.333 -152 -130 -198l-61 -32l-10 -80c-15.333 -5.33301 -33.833 -8 -55.5 -8s-40.5 2.66699 -56.5 8l-8 149l12 15l54 25c66 30 99 64.667 99 104
c0 21.333 -7 38.166 -21 50.499s-36 18.5 -66 18.5s-67 -11.667 -111 -35c-13.333 10.667 -25.333 26.334 -36 47.001s-16.334 40.334 -17.001 59.001zM83.002 115.999c17.333 10.667 41.166 16 71.499 16s54.166 -5.33301 71.499 -16c7.33301 -12.667 11 -31.667 11 -57
s-3.66699 -44.333 -11 -57c-19.333 -10.667 -43.166 -16 -71.499 -16s-52.166 5.33301 -71.499 16c-7.33301 12.667 -11 31.667 -11 57s3.66699 44.333 11 57z" />
    <glyph glyph-name="at" unicode="@" horiz-adv-x="975" 
d="M692 411l-0.99707 -247.997c0 -35.333 10.667 -53 32 -53c48.667 0 73 63 73 189c0 85.333 -26.5 152.666 -79.5 201.999s-125.333 74 -217 74s-166.334 -32.667 -224.001 -98s-86.5 -149.833 -86.5 -253.5s24.667 -181.5 74 -233.5s118.333 -78 207 -78
c66 0 131.667 12.667 197 38c24.667 -26.667 37 -60.334 37 -101.001c-76 -33.333 -157.667 -50 -245 -50c-127.333 0 -229 35.5 -305 106.5s-114 175.167 -114 312.5s43.833 249.5 131.5 336.5s197.167 130.5 328.5 130.5s238 -34.833 320 -104.5
s123 -164.834 123 -285.501c0 -95.333 -21.833 -168 -65.5 -218s-94.834 -75 -153.501 -75s-104.334 19.667 -137.001 59c-43.333 -42 -90 -63 -140 -63s-89.167 20.833 -117.5 62.5s-42.5 99.334 -42.5 173.001s18.833 134.167 56.5 181.5s90.167 71 157.5 71
c36.667 0 72.5 -7.33301 107.5 -22s62.833 -32.334 83.5 -53.001zM441.503 139.003c8.33301 -20 23.332 -30 44.999 -30s43.834 12.333 66.501 37v217c-16 12.667 -33.333 19 -52 19c-48 0 -72 -49.333 -72 -148c0 -43.333 4.16699 -75 12.5 -95z" />
    <glyph glyph-name="A" unicode="A" horiz-adv-x="634" 
d="M240 146c-18.667 0 -32.6689 0.333008 -42.002 1l-44 -148c-15.333 -4 -37.666 -6 -66.999 -6s-53 3.66699 -71 11l-6 8l222 671c24 4 53.667 6 89 6s64.333 -2.33301 87 -7l216 -672c-22 -12.667 -48.333 -19 -79 -19s-52.667 5.83301 -66 17.5s-24.333 33.5 -33 65.5
l-21 73c-9.33301 -0.666992 -23.666 -1 -42.999 -1h-142zM232.998 266l41.999 1h77c3.33301 0 9.33301 -0.166992 18 -0.5s15.334 -0.5 20.001 -0.5l-76 276h-5c-6 -32.667 -22 -94 -48 -184z" />
    <glyph glyph-name="B" unicode="B" horiz-adv-x="613" 
d="M85 685c105.333 2.66699 181.001 4 227.001 4c72.667 0 129.5 -15.167 170.5 -45.5s61.5 -75.833 61.5 -136.5c0 -30 -8.16699 -57.667 -24.5 -83s-37.5 -43.666 -63.5 -54.999c33.333 -10.667 61.666 -32.334 84.999 -65.001s35 -68.667 35 -108
c0 -66.667 -21.667 -117 -65 -151s-104.333 -51 -183 -51c-50 0 -131 1.33301 -243 4l-7 7v673zM316.001 304h-88.001v-202c22.667 0.666992 52.834 1 90.501 1s64.5 9.83301 80.5 29.5s24 43 24 70s-8.33301 50.667 -25 71s-44 30.5 -82 30.5zM228 580
l-0.000976562 -166.999h77c32.667 0 55.834 8.16699 69.501 24.5s20.5 36.166 20.5 59.499c0 54.667 -30 82 -90 82c-33.333 0 -59 0.333008 -77 1z" />
    <glyph glyph-name="C" unicode="C" horiz-adv-x="608" 
d="M437 416l0.000976562 10.002c0 42 -8.5 77.667 -25.5 107s-46.833 44 -89.5 44s-74 -20 -94 -60s-30 -97.833 -30 -173.5s12.333 -132.167 37 -169.5s60.5 -56 107.5 -56s102.833 23.667 167.5 71c15.333 -10.667 30.166 -25.5 44.499 -44.5s23.166 -36.833 26.499 -53.5
c-30 -30 -69.333 -55.167 -118 -75.5s-96.167 -30.5 -142.5 -30.5s-85.333 6.83301 -117 20.5s-57.667 31.667 -78 54s-37.166 49.166 -50.499 80.499c-24.667 57.333 -37 123.666 -37 198.999c0 119.333 27.167 209 81.5 269s121.5 90 201.5 90s143.5 -19.667 190.5 -59
s70.5 -88.333 70.5 -147c0 -56 -29 -84 -87 -84c-18.667 0 -38 2.66699 -58 8z" />
    <glyph glyph-name="D" unicode="D" horiz-adv-x="665" 
d="M602.5 514.5c15.667 -48.333 23.5 -105.999 23.5 -172.999s-7.66699 -124.833 -23 -173.5s-45 -90 -89 -124c-20.667 -16.667 -48.334 -29.167 -83.001 -37.5s-72 -12.5 -112 -12.5s-118 1.33301 -234 4l-7 7v673l7 7c76.667 2.66699 159 4 247 4
c31.333 0 64.333 -4.33301 99 -13s62.334 -21.334 83.001 -38.001c43.333 -34 72.833 -75.167 88.5 -123.5zM254 114.001l78 -1c91.333 0 137 76 137 228s-45.667 228 -137 228l-102 1v-457c0.666992 0.666992 8.66699 1 24 1z" />
    <glyph glyph-name="E" unicode="E" horiz-adv-x="572" 
d="M228 193l-0.998047 -69.002v-1c29.333 1.33301 53.666 2 72.999 2h236c0 -24 -1 -42 -3 -54c-9.33301 -49.333 -42 -74 -98 -74h-270c-27.333 0 -48.833 8 -64.5 24s-23.5 38 -23.5 66v589l7 7h427c3.33301 -15.333 5 -34.666 5 -57.999s-4 -46.666 -12 -69.999h-277
l1 -71v-79c17.333 0.666992 39.666 1 66.999 1h157c6 -16 9 -36.5 9 -61.5s-3 -46.167 -9 -63.5h-224v-88z" />
    <glyph glyph-name="F" unicode="F" horiz-adv-x="533" 
d="M231 0c-20.667 -4 -46.167 -5.99902 -76.5 -5.99902s-55.833 2 -76.5 6v677l7 6h423c4.66699 -16 7 -35.667 7 -59c0 -47.333 -27.333 -71 -82 -71h-203c0.666992 -18.667 1 -46.334 1 -83.001v-67h217c5.33301 -16 8 -36.833 8 -62.5s-2.66699 -46.5 -8 -62.5h-217v-278
z" />
    <glyph glyph-name="G" unicode="G" horiz-adv-x="653" 
d="M342 384l155.998 1h2c66.667 0 100 -32 100 -96v-262c-82.667 -28 -172 -42 -268 -42s-169 31.333 -219 94s-75 148.667 -75 258c0 58.667 8.83301 111.5 26.5 158.5s41.5 85.167 71.5 114.5c60 58.667 133.333 88 220 88s167.334 -24 242.001 -72
c-2 -20.667 -9.83301 -41.5 -23.5 -62.5s-28.834 -36.833 -45.501 -47.5c-54.667 36.667 -109.667 55 -165 55c-113.333 0 -170 -77.5 -170 -232.5s56.667 -232.5 170 -232.5c28.667 0 59.334 3 92.001 9v73c0 30 0.666992 53 2 69h-55
c-25.333 0 -43.666 4.83301 -54.999 14.5s-17 26.167 -17 49.5s3.66699 44.333 11 63z" />
    <glyph glyph-name="H" unicode="H" horiz-adv-x="685" 
d="M455 415l-1 74v194c20 4 45.5 6 76.5 6s56.5 -2 76.5 -6v-683c-20.667 -4 -46.167 -6 -76.5 -6s-55.833 2 -76.5 6v215l1 74l-51 -1h-123l-51 1l1 -74v-215c-20 -4 -45.667 -6 -77 -6s-56.666 2 -75.999 6v683c19.333 4 44.666 6 75.999 6s57 -2 77 -6v-194l-1 -74l51 1
h123z" />
    <glyph glyph-name="I" unicode="I" horiz-adv-x="314" 
d="M80 0v683c20 4 45.5 6 76.5 6s56.5 -2 76.5 -6v-683c-20 -4 -45.5 -6 -76.5 -6s-56.5 2 -76.5 6z" />
    <glyph glyph-name="J" unicode="J" horiz-adv-x="468" 
d="M63 147c32 -20.667 64.166 -31.001 96.499 -31.001s55 10.333 68 31s19.5 53.334 19.5 98.001v438c20 4 45.5 6 76.5 6s56.5 -2 76.5 -6v-423c0 -82 -14.667 -146.333 -44 -193c-32.667 -51.333 -94 -77 -184 -77c-62 0 -116 14.667 -162 44
c6.66699 44 24.334 81.667 53.001 113z" />
    <glyph glyph-name="K" unicode="K" horiz-adv-x="617" 
d="M609 38c-20.667 -30.667 -54.3311 -45.999 -100.998 -45.999c-26.667 0 -46.5 6.66699 -59.5 20s-24.167 35.666 -33.5 66.999l-40 121c-10.667 32.667 -23.334 55.834 -38.001 69.501s-34.334 20.5 -59.001 20.5c-7.33301 0 -23 -0.666992 -47 -2v-288
c-20 -4 -45.667 -6 -77 -6s-56.666 2 -75.999 6v683c19.333 4 44.666 6 75.999 6s57 -2 77 -6v-267l29 1c12 0 20.667 2.16699 26 6.5s11.666 13.166 18.999 26.499l99 185c10 19.333 20.5 33 31.5 41s30.333 12 58 12s54.834 -1.33301 81.501 -4l8 -11l-125 -233
c-15.333 -29.333 -33.333 -52.666 -54 -69.999c30.667 -6.66699 54.167 -19.334 70.5 -38.001s30.166 -44 41.499 -76l42 -127c0.666992 -1.33301 2.33398 -6 5.00098 -14s4.5 -13 5.5 -15s2.66699 -6.16699 5 -12.5s4.5 -10.833 6.5 -13.5s4.5 -6.5 7.5 -11.5
s6.5 -9.16699 10.5 -12.5z" />
    <glyph glyph-name="L" unicode="L" horiz-adv-x="521" 
d="M323 129h177c0 -22 -1.33301 -41 -4 -57c-8 -50 -41.333 -75 -100 -75h-230c-27.333 0 -49 8 -65 24s-24 38 -24 66v596l7 6h56c60 0 90 -32 90 -96v-467c33.333 2 64.333 3 93 3z" />
    <glyph glyph-name="M" unicode="M" horiz-adv-x="830" 
d="M57 2l52.999 680c25.333 4.66699 58.833 7 100.5 7s74.834 -2.33301 99.501 -7l64 -254c18 -74 30.667 -133.667 38 -179h6c7.33301 45.333 20 105 38 179l64 254c25.333 4.66699 58.666 7 99.999 7s74.333 -2.33301 99 -7l53 -680c-18.667 -5.33301 -42.667 -8 -72 -8
s-53.333 1.66699 -72 5l-16 290c-5.33301 92 -8 167.667 -8 227h-7l-104 -415c-18 -3.33301 -43.833 -5 -77.5 -5s-60.167 1.66699 -79.5 5l-103 415h-7c-1.33301 -81.333 -4 -157 -8 -227l-16 -290c-18.667 -3.33301 -42.667 -5 -72 -5s-53.666 2.66699 -72.999 8z" />
    <glyph glyph-name="N" unicode="N" horiz-adv-x="694" 
d="M609 689l6.99902 -6v-680c-25.333 -6 -55.166 -9 -89.499 -9s-64.833 2 -91.5 6l-166 366c-28 66.667 -47 113.667 -57 141l-4 -1c8 -94.667 12 -191.667 12 -291v-215c-20 -4 -43.833 -6 -71.5 -6s-51.167 2 -70.5 6v680c24 6 53.167 9 87.5 9s64.833 -2 91.5 -6
l162 -365l63 -151l4 1c-8 92 -12 188.333 -12 289v140c0 33.333 6.66699 57 20 71s35 21 65 21h50z" />
    <glyph glyph-name="O" unicode="O" horiz-adv-x="665" 
d="M197 341.5c0 -159 45.167 -238.5 135.5 -238.5s135.5 79.5 135.5 238.5s-45.167 238.5 -135.5 238.5s-135.5 -79.5 -135.5 -238.5zM145 48c-71.333 59.333 -107 157.166 -107 293.499s35.667 234.166 107 293.499c51.333 42 114 63 188 63s136.667 -21 188 -63
c71.333 -59.333 107 -157.166 107 -293.499s-35.667 -234.166 -107 -293.499c-51.333 -42 -114 -63 -188 -63s-136.667 21 -188 63z" />
    <glyph glyph-name="P" unicode="P" horiz-adv-x="586" 
d="M490 629c44 -40 65.999 -98.167 65.999 -174.5s-22.167 -134.833 -66.5 -175.5s-102.833 -61 -175.5 -61h-83v-218c-20 -4 -45.667 -6 -77 -6s-56.666 2 -75.999 6v678l7 7c112 2.66699 188.333 4 229 4c73.333 0 132 -20 176 -60zM230.999 572v-239.001
c19.333 0.666992 42.333 1 69 1s47.834 6.83301 63.501 20.5s25.667 28.5 30 44.5s6.5 36.833 6.5 62.5s-7.16699 50.334 -21.5 74.001s-37.833 35.5 -70.5 35.5s-58.334 0.333008 -77.001 1z" />
    <glyph glyph-name="Q" unicode="Q" horiz-adv-x="669" 
d="M438 -104l-102.998 89h-1c-74.667 0 -137.334 20.667 -188.001 62c-72 61.333 -108 159.666 -108 294.999s36 233.333 108 294c49.333 41.333 111.833 62 187.5 62s138.167 -20.667 187.5 -62c72 -61.333 108 -159.666 108 -294.999c0 -118 -26.333 -205.333 -79 -262
c-19.333 -22 -40.333 -37.667 -63 -47l24 -17c45.333 -32 87.333 -48 126 -48c-0.666992 -32.667 -10.334 -59 -29.001 -79s-41 -30 -67 -30c-40 0 -74.333 12.667 -103 38zM333.002 580c-92 0 -138 -79.5 -138 -238.5s46 -238.5 138 -238.5s138 79.5 138 238.5
s-46 238.5 -138 238.5z" />
    <glyph glyph-name="R" unicode="R" horiz-adv-x="613" 
d="M562 473c0 -44.667 -12.166 -83.334 -36.499 -116.001s-52.833 -55 -85.5 -67c34 -12 59.333 -42.333 76 -91l32 -89c11.333 -32 27.666 -56.333 48.999 -73c-10 -13.333 -24.333 -24.333 -43 -33s-39.667 -13 -63 -13s-41.333 6.66699 -54 20s-24.667 36.333 -36 69
l-38 109c-6.66699 20.667 -16.5 36.667 -29.5 48s-32.167 17 -57.5 17h-47v-254c-20 -4 -45.333 -6 -76 -6s-55.667 2 -75 6v678l7 7c112 2.66699 190.667 4 236 4c72.667 0 131 -18.167 175 -54.5s66 -90.166 66 -161.499zM229.001 574v-203c44 1.33301 70.667 2 80 2
c64.667 0 97 33.333 97 100s-32.333 100 -97 100c-33.333 0 -60 0.333008 -80 1z" />
    <glyph glyph-name="S" unicode="S" horiz-adv-x="557" 
d="M17 60c2 21.333 8.66699 42.501 20 63.501s24.666 37.833 39.999 50.5c72.667 -44 140 -66 202 -66c28.667 0 50.5 6.83301 65.5 20.5s22.5 30.167 22.5 49.5c0 33.333 -22.333 60 -67 80l-118 50c-94.667 41.333 -142 102.333 -142 183c0 60.667 23 110.334 69 149.001
s106.5 58 181.5 58s149.167 -19 222.5 -57c-3.33301 -46 -20.666 -84.333 -51.999 -115c-68 32.667 -128 49 -180 49c-27.333 0 -48.333 -6.5 -63 -19.5s-22 -27.833 -22 -44.5c0 -26.667 20.667 -49 62 -67l120 -50c48 -20.667 85.167 -47.834 111.5 -81.501
s39.5 -71.834 39.5 -114.501c0 -63.333 -22.5 -114.666 -67.5 -153.999s-109.5 -59 -193.5 -59c-41.333 0 -84.5 6.66699 -129.5 20s-85.5 31.666 -121.5 54.999z" />
    <glyph glyph-name="T" unicode="T" horiz-adv-x="507" 
d="M330 557l1 -74.002v-483c-20.667 -4 -46.167 -6 -76.5 -6s-55.833 2 -76.5 6v483l1 74h-1l-62 -1h-106c-3.33301 19.333 -5 40.5 -5 63.5s1.66699 44.167 5 63.5h490c5.33301 -17.333 8 -37.666 8 -60.999s-6.33301 -40.166 -19 -50.499s-33 -15.5 -61 -15.5h-35l-62 1
h-1z" />
    <glyph glyph-name="U" unicode="U" horiz-adv-x="673" 
d="M604 683l0.00195312 -432c0 -84.667 -23.333 -150.167 -70 -196.5s-112.667 -69.5 -198 -69.5s-151.333 23.167 -198 69.5s-70 111.833 -70 196.5v432l7 6h56c60 0 90 -32 90 -96v-344c0 -48 9.16699 -83.667 27.5 -107s47.666 -35 87.999 -35s69.5 11.667 87.5 35
s27 59 27 107v434c20 4 45.667 6 77 6s56.666 -2 75.999 -6z" />
    <glyph glyph-name="V" unicode="V" horiz-adv-x="602" 
d="M314 128l136.001 555c17.333 4 39.5 6 66.5 6s50.167 -3.33301 69.5 -10l7 -9l-189 -670c-36 -4 -72.333 -6 -109 -6s-63.167 4.66699 -79.5 14s-28.5 28 -36.5 56l-169 605c36 15.333 66 23 90 23s42.333 -6 55 -18s22.667 -31.333 30 -58l80 -295
c13.333 -46.667 26.333 -106.667 39 -180c1.33301 -8.66699 4.66602 -13 9.99902 -13z" />
    <glyph glyph-name="W" unicode="W" horiz-adv-x="896" 
d="M136 64l-119.001 610c27.333 12 54.333 18 81 18s46.167 -6 58.5 -18s20.833 -34 25.5 -66l45 -270c14.667 -84.667 23.167 -140.167 25.5 -166.5s4 -40.333 5 -42s3.5 -2.5 7.5 -2.5l86 543c28 4.66699 60.833 7 98.5 7s70.167 -2.33301 97.5 -7l79 -529
c0.666992 -6.66699 1.83398 -10.667 3.50098 -12s4.16699 -2 7.5 -2c6.66699 61.333 16.667 132.333 30 213l60 343c18.667 4 41 6 67 6s50.667 -3.33301 74 -10l7 -10l-134 -668c-40.667 -4.66699 -79.334 -7 -116.001 -7s-62.667 4.66699 -78 14s-25.333 28 -30 56
l-36 223c-15.333 108 -25.333 186 -30 234h-8c-8.66699 -73.333 -20 -151.333 -34 -234l-47 -286c-43.333 -4.66699 -82.666 -7 -117.999 -7s-60.833 4.5 -76.5 13.5s-26.167 27.833 -31.5 56.5z" />
    <glyph glyph-name="X" unicode="X" horiz-adv-x="612" 
d="M434 683c16 4 38.1689 5.99902 66.502 5.99902s54.166 -4.33301 77.499 -13l4 -8l-188 -310l208 -334c-31.333 -22 -61.166 -33 -89.499 -33s-49.833 4.33301 -64.5 13s-29 24.334 -43 47.001l-110 177l-136 -228c-16 -4 -37.667 -6 -65 -6s-54 4.33301 -80 13l-4 9
l207 337l-190 306c31.333 22 61.166 33 89.499 33s49.666 -4.33301 63.999 -13s28.5 -24 42.5 -46l93 -150z" />
    <glyph glyph-name="Y" unicode="Y" horiz-adv-x="537" 
d="M324 505l70.999 178c16.667 4 38.5 6 65.5 6s50.833 -3.66699 71.5 -11l6 -9l-193 -458v-211c-20 -4 -45.667 -6 -77 -6s-56.666 2 -75.999 6v215l-193 450c31.333 17.333 60 26 86 26s45 -4.66699 57 -14s22.333 -25 31 -47l52 -130c16 -41.333 31 -88.333 45 -141h6
c10.667 43.333 26.667 92 48 146z" />
    <glyph glyph-name="Z" unicode="Z" horiz-adv-x="577" 
d="M57 149l226.999 316c21.333 30 48 63 80 99l-3 3c-45.333 -6 -96.666 -9 -153.999 -9h-146c-4 14.667 -6 32.334 -6 53.001s3.66699 44.667 11 72h438c14 -50 21 -83 21 -99s-5.66699 -32.333 -17 -49l-227 -316c-21.333 -30 -47.333 -61.667 -78 -95l3 -3
c57.333 4 106 6 146 6h63c43.333 0 81 7.66699 113 23c6.66699 -21.333 10 -44.833 10 -70.5s-9 -45.334 -27 -59.001s-42.333 -20.5 -73 -20.5h-382c-11.333 50.667 -17 84 -17 100s6 32.333 18 49z" />
    <glyph glyph-name="bracketleft" unicode="[" horiz-adv-x="388" 
d="M350 -153l-243 -9.00195l-9 8v973l9 7l243 -8c3.33301 -11.333 5 -27.166 5 -47.499s-3.66699 -38.5 -11 -54.5l-100 -3v-761l100 -3c7.33301 -17.333 11 -36.166 11 -56.499s-1.66699 -35.5 -5 -45.5z" />
    <glyph glyph-name="backslash" unicode="\" horiz-adv-x="447" 
d="M318 -118l-314 837c34 26 76.333 42 127 48l314 -837c-34 -26 -76.333 -42 -127 -48z" />
    <glyph glyph-name="bracketright" unicode="]" horiz-adv-x="388" 
d="M281 -162l-243 9c-3.33301 7.33301 -5 21.833 -5 43.5s3.66699 41.167 11 58.5l100 3v761l-100 3c-7.33301 16 -11 35 -11 57s1.66699 37 5 45l243 8l8 -7v-973z" />
    <glyph glyph-name="asciicircum" unicode="^" horiz-adv-x="530" 
d="M500 306c-20 -4.66699 -44.333 -7 -73 -7s-51.667 2.33301 -69 7l-53 127c-10 23.333 -22 58 -36 104h-8c-14 -46 -26 -80.667 -36 -104l-53 -127c-17.333 -4.66699 -33 -7 -47 -7c-43.333 0 -75 2.33301 -95 7l156 342c18 4.66699 44.833 7 80.5 7
s61.5 -2.33301 77.5 -7z" />
    <glyph glyph-name="underscore" unicode="_" horiz-adv-x="560" 
d="M561 -174h-562c-4 15.333 -6 33.833 -6 55.5s2 40.5 6 56.5h562c4 -20 6 -39 6 -57s-2 -36.333 -6 -55z" />
    <glyph glyph-name="grave" unicode="`" 
d="M145 765l154 -167.001c-4.66699 -13.333 -13 -25.333 -25 -36s-24.333 -18 -37 -22l-183 138c6 18.667 18 36.334 36 53.001s36.333 28 55 34z" />
    <glyph glyph-name="a" unicode="a" horiz-adv-x="512" 
d="M481 69c-2.66699 -13.333 -8.83105 -27.6689 -18.498 -43.002s-19.167 -26.666 -28.5 -33.999c-46 2 -80.667 19.667 -104 53c-42.667 -40 -89.834 -60 -141.501 -60s-90.667 15.333 -117 46s-39.5 65.667 -39.5 105c0 56.667 18.833 99.667 56.5 129s84.5 44 140.5 44
c22 0 47 -1 75 -3v22c0 44 -22.667 66 -68 66c-28.667 0 -78.334 -10.667 -149.001 -32c-20 23.333 -32 58 -36 104c31.333 13.333 68.5 24 111.5 32s81.167 12 114.5 12c50 0 91.833 -13.833 125.5 -41.5s50.5 -70.5 50.5 -128.5v-204
c0 -31.333 9.33301 -53.666 28 -66.999zM226.003 95.9971c26 0 52 11 78 33v83c-14.667 0.666992 -34.667 1 -60 1c-44.667 0 -67 -22.333 -67 -67c0 -14 4.5 -25.833 13.5 -35.5s20.833 -14.5 35.5 -14.5z" />
    <glyph glyph-name="b" unicode="b" horiz-adv-x="534" 
d="M456.5 439c30.333 -46 45.5 -108.499 45.5 -187.499s-22.167 -142.167 -66.5 -189.5s-103.166 -71 -176.499 -71s-139 11.333 -197 34v704l7 7h56c30 0 51.333 -6.83301 64 -20.5s19 -36.834 19 -69.501v-174c36.667 24 75.667 36 117 36
c57.333 0 101.166 -23 131.499 -69zM282 388.001c-28 0 -52.667 -11.667 -74 -35v-250c18 -3.33301 35 -5 51 -5c60.667 0 91 52 91 156c0 88 -22.667 132.667 -68 134z" />
    <glyph glyph-name="c" unicode="c" horiz-adv-x="474" 
d="M313 281l0.00292969 8.99805c0 37.333 -3.83301 65.333 -11.5 84s-24 28 -49 28s-42.667 -12.167 -53 -36.5s-15.5 -63.166 -15.5 -116.499s7.5 -91.166 22.5 -113.499s38.167 -33.5 69.5 -33.5s68 14.333 110 43c12 -6.66699 23.667 -18.5 35 -35.5
s18.666 -32.833 21.999 -47.5c-22.667 -23.333 -51.334 -42 -86.001 -56s-70.334 -21 -107.001 -21c-70 0 -123.833 23.667 -161.5 71s-56.5 113.5 -56.5 198.5s21.667 149.333 65 193s94.5 65.5 153.5 65.5s106.5 -15.333 142.5 -46s54 -70 54 -118
c0 -24 -6.5 -42.167 -19.5 -54.5s-31.333 -18.5 -55 -18.5s-43.5 1.66699 -59.5 5z" />
    <glyph glyph-name="d" unicode="d" horiz-adv-x="537" 
d="M78.5 55c-30.333 46.667 -45.5 110.499 -45.5 191.499s19.167 144.833 57.5 191.5s85.833 70 142.5 70c30 0 61.667 -7.66699 95 -23v244l7 7h58c29.333 0 50 -6.66699 62 -20s18 -36.666 18 -69.999v-502c0 -36 9.33301 -61 28 -75
c-2.66699 -13.333 -8.5 -27.5 -17.5 -42.5s-18.5 -26.5 -28.5 -34.5c-46.667 2 -81.334 20.667 -104.001 56c-38.667 -42 -86.167 -63 -142.5 -63s-99.666 23.333 -129.999 70zM251 104.999c29.333 0 55 14.333 77 43v223c-28.667 17.333 -52 26 -70 26
c-48 0 -72 -51.667 -72 -155c0 -46 6 -80.333 18 -103s27.667 -34 47 -34z" />
    <glyph glyph-name="e" unicode="e" horiz-adv-x="497" 
d="M448 201l-265.001 0.000976562c2 -32 10 -56.833 24 -74.5s38.667 -26.5 74 -26.5s77.333 10.333 126 31c20.667 -20 34.334 -49.667 41.001 -89c-54 -38 -119.333 -57 -196 -57c-41.333 0 -77 7.16699 -107 21.5s-53 34.166 -69 59.499c-29.333 48.667 -44 111 -44 187
s18.333 138.333 55 187s89.667 73 159 73s122.5 -19.833 159.5 -59.5s55.5 -90.5 55.5 -152.5c0 -34.667 -4.33301 -68 -13 -100zM305.999 381.501c-11.333 17 -28.833 25.5 -52.5 25.5s-41 -8.33301 -52 -25s-17.5 -42.667 -19.5 -78h141v12
c0 26.667 -5.66699 48.5 -17 65.5z" />
    <glyph glyph-name="f" unicode="f" horiz-adv-x="354" 
d="M90 0l-0.000976562 394.001l-86 -1c-4 16.667 -6 34.5 -6 53.5s2 36.5 6 52.5l78 -1c-3.33301 25.333 -5 48.666 -5 69.999c0 50 15.833 91.167 47.5 123.5s73.334 48.5 125.001 48.5s101.167 -9 148.5 -27v-16c0 -8.66699 -2.83301 -22.167 -8.5 -40.5
s-13.5 -32.5 -23.5 -42.5c-32.667 9.33301 -58.667 14 -78 14c-45.333 0 -68 -23.667 -68 -71c0 -16.667 1.66699 -36.667 5 -60l132 2c4 -16 6 -33.5 6 -52.5s-2 -36.833 -6 -53.5l-122 2v-395c-22 -4 -46.167 -6 -72.5 -6s-50.5 2 -72.5 6z" />
    <glyph glyph-name="g" unicode="g" horiz-adv-x="535" 
d="M78.5 60c-30.333 46.667 -45.5 110.331 -45.5 190.998s19.167 144.5 57.5 191.5s84.666 70.5 138.999 70.5s99.5 -15.667 135.5 -47c22.667 24.667 53 38 91 40c10 -7.33301 19.667 -18.666 29 -33.999s15 -29.333 17 -42c-18.667 -14 -28 -39 -28 -75v-269
c0 -113.333 -16.667 -191.666 -50 -234.999c-38 -48 -99.667 -72 -185 -72c-64.667 0 -126.667 11 -186 33c0 18 3.5 37.5 10.5 58.5s15.833 37.5 26.5 49.5c44 -20 89 -30 135 -30c69.333 0 104 35.667 104 107v34c-36 -27.333 -74.667 -41 -116 -41
c-59.333 0 -104.166 23.333 -134.499 70zM329 146.997v219c-24.667 23.333 -48 35 -70 35c-48.667 0 -73 -51.333 -73 -154c0 -46 5.83301 -80.333 17.5 -103s27.167 -34 46.5 -34c28.667 0 55 12.333 79 37z" />
    <glyph glyph-name="h" unicode="h" horiz-adv-x="543" 
d="M484 331l0.00195312 -207.998c0 -42.667 7.66699 -75.667 23 -99c-26 -21.333 -55.167 -32 -87.5 -32s-54.5 7.66699 -66.5 23s-18 38.666 -18 69.999v218c0 24.667 -3.33301 42.5 -10 53.5s-18.667 16.5 -36 16.5c-28 0 -55 -12.667 -81 -38v-335
c-20.667 -4 -44.5 -6 -71.5 -6s-51.833 2 -74.5 6v729l7 7h58c29.333 0 50.166 -6.83301 62.499 -20.5s18.5 -36.834 18.5 -69.501v-196c45.333 38 90.666 57 135.999 57s80 -16 104 -48s36 -74.667 36 -128z" />
    <glyph glyph-name="i" unicode="i" horiz-adv-x="294" 
d="M233 387v-387c-20 -4 -44.333 -6 -73 -6s-54 2 -76 6v336c0 38 -15.667 57 -47 57h-14c-4 16.667 -6 34 -6 52s2 35.333 6 52c33.333 3.33301 61.666 5 84.999 5h20c32.667 0 58.334 -10.333 77.001 -31s28 -48.667 28 -84zM54 641c0 19.333 3.66699 38 11 56
c18.667 10 43.167 15 73.5 15s53.833 -5 70.5 -15c7.33301 -18 11 -36.667 11 -56s-3.66699 -38 -11 -56c-16.667 -10 -41 -15 -73 -15s-55.667 5 -71 15c-7.33301 18 -11 36.667 -11 56z" />
    <glyph glyph-name="j" unicode="j" horiz-adv-x="301" 
d="M240 387v-360.001c0 -77.333 -12.167 -134.166 -36.5 -170.499s-73.833 -61.833 -148.5 -76.5c-10.667 8.66699 -20 21.667 -28 39s-12.333 34.666 -13 51.999c30 12.667 50.667 27.334 62 44.001s17 42.667 17 78v343c0 38 -15.667 57 -47 57h-23c-4 16.667 -6 34 -6 52
s2 35.333 6 52c38 3.33301 69 5 93 5h20c32.667 0 58.167 -10.333 76.5 -31s27.5 -48.667 27.5 -84zM58 640.999c0 19.333 3.66699 38 11 56c18.667 10 43.167 15 73.5 15s53.833 -5 70.5 -15c7.33301 -18 11 -36.667 11 -56s-3.66699 -38 -11 -56
c-16.667 -10 -41 -15 -73 -15s-55.667 5 -71 15c-7.33301 18 -11 36.667 -11 56z" />
    <glyph glyph-name="k" unicode="k" horiz-adv-x="520" 
d="M241 202l-32.998 -0.99707v-201c-20.667 -4 -44.667 -6 -72 -6s-52 2 -74 6v729l7 7h58c29.333 0 50.166 -6.83301 62.499 -20.5s18.5 -36.834 18.5 -69.501v-322h18c12 0 21.333 6 28 18l57 105c18 36.667 46 55 84 55c19.333 0 47 -0.666992 83 -2l6 -8l-81 -152
c-12.667 -23.333 -29.334 -42 -50.001 -56c40 -14.667 68.333 -43.667 85 -87l25 -74c10.667 -28.667 19.167 -48.334 25.5 -59.001s13.833 -19 22.5 -25c-26.667 -31.333 -60 -47 -100 -47c-21.333 0 -37.5 5 -48.5 15s-20.833 27.667 -29.5 53l-30 88
c-8 21.333 -16.5 35.666 -25.5 42.999s-21.167 11 -36.5 11z" />
    <glyph glyph-name="l" unicode="l" horiz-adv-x="311" 
d="M249 109l29.002 0.00195312c8 -21.333 12 -41.833 12 -61.5s-1 -33.834 -3 -42.501c-40 -6.66699 -78.333 -10 -115 -10s-64.334 10.667 -83.001 32s-28 55.333 -28 102v600l7 7h58c29.333 0 50.166 -6.83301 62.499 -20.5s18.5 -36.834 18.5 -69.501v-490
c0 -31.333 14 -47 42 -47z" />
    <glyph glyph-name="m" unicode="m" horiz-adv-x="807" 
d="M330 302c0 48 -15.667 72.001 -47 72.001c-22.667 -0.666992 -46.667 -13.334 -72 -38.001v-336c-20.667 -4 -45.167 -6 -73.5 -6s-53.5 2 -75.5 6v498l7 7h56c41.333 0 68 -21 80 -63c48 43.333 94 65 138 65c54 0 93 -23.333 117 -70
c51.333 46.667 100.666 70 147.999 70s82.333 -14.667 105 -44s34 -67.666 34 -114.999v-225c0 -41.333 8 -74.333 24 -99c-26 -21.333 -55.167 -32 -87.5 -32s-54.666 7.66699 -66.999 23s-18.5 38.666 -18.5 69.999v218c0 47.333 -16.333 71 -49 71
c-20.667 0 -44 -13 -70 -39v-335c-21.333 -4 -46 -6 -74 -6s-53 2 -75 6v302z" />
    <glyph glyph-name="n" unicode="n" horiz-adv-x="547" 
d="M487 331l0.000976562 -207.999c0 -42.667 8 -75.667 24 -99c-26 -21.333 -55.167 -32 -87.5 -32s-54.666 7.66699 -66.999 23s-18.5 38.666 -18.5 69.999v218c0 24.667 -3.33301 42.667 -10 54s-18.334 17 -35.001 17c-28.667 0 -56 -13 -82 -39v-335
c-20.667 -4 -45.167 -6 -73.5 -6s-53.5 2 -75.5 6v498l7 7h56c41.333 0 67.666 -20 78.999 -60c48.667 41.333 96 62 142 62s81 -16 105 -48s36 -74.667 36 -128z" />
    <glyph glyph-name="o" unicode="o" horiz-adv-x="522" 
d="M418 455c48 -48 72 -116.5 72 -205.5s-24 -157.5 -72 -205.5c-39.333 -39.333 -91.666 -59 -156.999 -59s-117.666 19.667 -156.999 59c-48 48 -72 116.5 -72 205.5s24 157.5 72 205.5c39.333 38.667 91.666 58 156.999 58s117.666 -19.333 156.999 -58zM185 249
c0 -48.667 5.16699 -86.167 15.5 -112.5s30.5 -39.5 60.5 -39.5s50.167 13.167 60.5 39.5s15.5 63.833 15.5 112.5s-5.16699 86.334 -15.5 113.001s-30.5 40 -60.5 40s-50.167 -13.333 -60.5 -40s-15.5 -64.334 -15.5 -113.001z" />
    <glyph glyph-name="p" unicode="p" horiz-adv-x="537" 
d="M457.5 443c30.333 -46.667 45.501 -110.499 45.501 -191.499s-19 -144.833 -57 -191.5s-85.333 -70 -142 -70c-30 0 -61.667 7.66699 -95 23v-139c0 -32.667 -6.33301 -55.834 -19 -69.501s-33.667 -20.5 -63 -20.5h-58l-7 7v707l7 7h40c37.333 0 65 -16.333 83 -49
c38 38 84.167 57 138.5 57s96.666 -23.333 126.999 -70zM286.001 393.001c-29.333 0 -55 -14 -77 -42v-224c26.667 -16.667 49.667 -25 69 -25c48.667 0 73 51.333 73 154c0 46 -6 80.333 -18 103s-27.667 34 -47 34z" />
    <glyph glyph-name="q" unicode="q" horiz-adv-x="537" 
d="M328 -126l0.000976562 154.997c-36 -26 -74.333 -39 -115 -39c-59.333 0 -104.166 23.333 -134.499 70s-45.5 110.334 -45.5 191.001s19.167 144.5 57.5 191.5s84.5 70.5 138.5 70.5s99 -15.667 135 -47c21.333 24.667 51.666 38 90.999 40
c9.33301 -6.66699 18.666 -17.667 27.999 -33s15.666 -29.666 18.999 -42.999c-18.667 -13.333 -28 -38.333 -28 -75v-564l-7 -7h-58c-29.333 0 -50.166 6.83301 -62.499 20.5s-18.5 36.834 -18.5 69.501zM250.001 109.997c29.333 0 55.333 12 78 36v221
c-24.667 22.667 -47.667 34 -69 34c-48.667 0 -73 -51.333 -73 -154c0 -46 5.83301 -80.333 17.5 -103s27.167 -34 46.5 -34z" />
    <glyph glyph-name="r" unicode="r" horiz-adv-x="393" 
d="M33 429c2.66699 13.333 8.66797 27.668 18.001 43.001s18.666 26.666 27.999 33.999c59.333 -6 100 -36 122 -90c25.333 59.333 67.333 89 126 89c22 0 43.667 -2.66699 65 -8c0 -19.333 -3.33301 -42.5 -10 -69.5s-15.667 -50.167 -27 -69.5
c-14 4.66699 -30.667 7.66699 -50 9c-35.333 0 -64 -18 -86 -54v-313c-20 -4 -44.333 -6 -73 -6s-54 2 -76 6v326c0 50 -12.333 84.333 -37 103z" />
    <glyph glyph-name="s" unicode="s" horiz-adv-x="442" 
d="M21 35c0.666992 16 5.16699 34.001 13.5 54.001s17.833 35.333 28.5 46c52 -27.333 98.333 -41 139 -41c20 0 35.5 3.5 46.5 10.5s16.5 16.167 16.5 27.5c0 21.333 -16 37.666 -48 48.999l-55 20c-84 30.667 -126 80.334 -126 149.001c0 50 17.333 89.667 52 119
s81 44 139 44c28.667 0 60.334 -4 95.001 -12s63.667 -17.667 87 -29c0.666992 -18 -3.16602 -37.667 -11.499 -59s-18.5 -36.333 -30.5 -45c-54.667 24.667 -100.667 37 -138 37c-14.667 0 -26 -3.33301 -34 -10s-12 -15.334 -12 -26.001c0 -16.667 14 -30.334 42 -41.001
l61 -22c88.667 -32.667 133 -85.667 133 -159c0 -49.333 -18.333 -88.666 -55 -117.999s-88.334 -44 -155.001 -44s-129.334 16.667 -188.001 50z" />
    <glyph glyph-name="t" unicode="t" horiz-adv-x="371" 
d="M348 499c4 -18 6 -35.668 6 -53.001s-2 -35 -6 -53l-120 2v-239c0 -31.333 14.667 -47 44 -47h58c8 -24 12 -45.333 12 -64s-1.33301 -32 -4 -40c-48 -6.66699 -92 -10 -132 -10c-82 0 -123 44.667 -123 134v265l-78 -1c-4 14.667 -6 32.334 -6 53.001s2 38.334 6 53.001
l78 -1v61c0 33.333 6 56.666 18 69.999s32.667 20 62 20h58l7 -7v-145z" />
    <glyph glyph-name="u" unicode="u" horiz-adv-x="549" 
d="M60 167l-0.00195312 208.999c0 42 -8 74.667 -24 98c24.667 21.333 53.5 32 86.5 32s55.667 -7.66699 68 -23s18.5 -38.333 18.5 -69v-219c0 -24.667 3.33301 -42.5 10 -53.5s18.334 -16.5 35.001 -16.5c28.667 0 55.667 12.333 81 37v336c20.667 4 45.334 6 74.001 6
s54 -2 76 -6v-356c0 -36.667 9.33301 -61.667 28 -75c-2.66699 -13.333 -8.66699 -27.166 -18 -41.499s-19 -25.5 -29 -33.5c-53.333 2 -91.333 25.333 -114 70c-50.667 -47.333 -100 -71 -148 -71s-84 16.167 -108 48.5s-36 74.833 -36 127.5z" />
    <glyph glyph-name="v" unicode="v" horiz-adv-x="476" 
d="M247 114l91.998 384c14.667 3.33301 34.834 5 60.501 5s49.167 -3.66699 70.5 -11l5 -7c-65.333 -232 -112.333 -393.667 -141 -485c-33.333 -4 -67.666 -6 -102.999 -6s-60.666 4.83301 -75.999 14.5s-27.333 28.834 -36 57.501l-122 421c32.667 13.333 60.5 20 83.5 20
s41.333 -5.33301 55 -16s23.5 -28.334 29.5 -53.001l48 -191c4.66699 -16.667 9.66699 -40.167 15 -70.5s8.66602 -48.5 9.99902 -54.5c0.666992 -5.33301 3.66699 -8 9 -8z" />
    <glyph glyph-name="w" unicode="w" horiz-adv-x="752" 
d="M105 65l-98 423.999c28.667 12 55.334 18 80.001 18s42.167 -5 52.5 -15s17.5 -26 21.5 -48l33 -168c13.333 -67.333 22.333 -120 27 -158c0.666992 -5.33301 3.33398 -8 8.00098 -8l59 383c21.333 5.33301 50.666 8 87.999 8s66.333 -2.66699 87 -8l60 -375
c0.666992 -5.33301 3.33398 -8 8.00098 -8c8.66699 60.667 18 116 28 166l46 222c16 4 38.5 6 67.5 6s51.833 -4 68.5 -12l4 -9l-117 -483c-24 -4 -56 -6 -96 -6s-67 4.5 -81 13.5s-23 27.5 -27 55.5l-19 112c-1.33301 10.667 -3.66602 28.334 -6.99902 53.001
c-8.66699 57.333 -15.334 103.333 -20.001 138h-6c-4.66699 -40 -14 -103 -28 -189l-30 -177c-30.667 -4 -64.334 -6 -101.001 -6s-62.334 4.83301 -77.001 14.5s-25 28.5 -31 56.5z" />
    <glyph glyph-name="x" unicode="x" horiz-adv-x="478" 
d="M325 498c16 4 35.8291 6 59.4961 6s47.834 -3.33301 72.501 -10l4 -10l-141 -218l158 -242c-33.333 -22 -66.666 -33 -99.999 -33s-59.666 15 -78.999 45l-69 107l-85 -143c-12 -4 -32.833 -6 -62.5 -6s-54.5 3.66699 -74.5 11l-4 10l154 239l-143 221
c30.667 22 64.334 33 101.001 33c18 0 32.5 -3.66699 43.5 -11s21.833 -19 32.5 -35l57 -88z" />
    <glyph glyph-name="y" unicode="y" horiz-adv-x="493" 
d="M487 483l-125 -469.001c-20.667 -78 -48.5 -136.333 -83.5 -175s-87.833 -58 -158.5 -58c-40 0 -79.333 6.66699 -118 20v18.5c0 9 2.5 23.167 7.5 42.5s12.5 34.333 22.5 45c34.667 -10 64 -15 88 -15c50 0 83.667 29 101 87l4 14c-56 1.33301 -89.333 22 -100 62
l-119 432c29.333 13.333 56.833 20 82.5 20s44.167 -4.66699 55.5 -14s20 -26 26 -50l50 -198c5.33301 -19.333 13.333 -63.666 24 -132.999c0.666992 -4.66699 3.66699 -7 9 -7l90 393c16.667 4 38.5 6 65.5 6s51.5 -3.66699 73.5 -11z" />
    <glyph glyph-name="z" unicode="z" horiz-adv-x="449" 
d="M47 129l125 167.002c13.333 17.333 40 48.666 80 93.999l-3 5c-46.667 -5.33301 -88.334 -8 -125.001 -8h-81c-3.33301 12.667 -5 29 -5 49s2.66699 40.667 8 62h347c12.667 -38 19 -65.333 19 -82s-4.66699 -31.667 -14 -45l-128 -171c-28.667 -38 -54 -68.333 -76 -91
l3 -4c32 3.33301 59 5 81 5h37c40.667 0 72.334 5.33301 95.001 16c10 -25.333 15 -45.333 15 -60c0 -44 -27 -66 -81 -66h-301c-11.333 34 -17 59.167 -17 75.5s7 34.166 21 53.499z" />
    <glyph glyph-name="braceleft" unicode="{" horiz-adv-x="391" 
d="M44 375c24.667 4.66699 45 17.5 61 38.5s24 44.833 24 71.5v162c0 50 14.333 89.833 43 119.5s67 48.5 115 56.5l65 10c10 -10.667 17.5 -24.5 22.5 -41.5s7.5 -29.333 7.5 -37s-0.666992 -13.5 -2 -17.5l-59 -20c-12 -4 -22.167 -12.167 -30.5 -24.5
s-12.5 -27.833 -12.5 -46.5v-159c0 -34 -8 -65.5 -24 -94.5s-37 -49.5 -63 -61.5v-8c26 -11.333 47 -31.5 63 -60.5s24 -60.833 24 -95.5v-158c0 -18.667 4.16699 -34.167 12.5 -46.5s18.5 -20.5 30.5 -24.5l59 -20c1.33301 -4 2 -9.83301 2 -17.5s-2.5 -20.167 -7.5 -37.5
s-12.5 -31.333 -22.5 -42l-65 11c-48 7.33301 -86.333 26 -115 56s-43 70 -43 120v161c0 26.667 -8 50.667 -24 72s-36.333 34.333 -61 39c-4.66699 11.333 -7 27 -7 47s2.33301 36 7 48z" />
    <glyph glyph-name="bar" unicode="|" horiz-adv-x="268" 
d="M65 -142l0.000976562 915c16 4.66699 38.667 7 68 7s52.666 -2.33301 69.999 -7v-915c-17.333 -4 -40.5 -6 -69.5 -6s-51.833 2 -68.5 6z" />
    <glyph glyph-name="braceright" unicode="}" horiz-adv-x="391" 
d="M347 375c4.66699 -12 6.99902 -28 6.99902 -48s-2.33301 -35.667 -7 -47c-24 -4.66699 -44 -17.667 -60 -39s-24 -45.333 -24 -72v-161c0 -50 -14.5 -90 -43.5 -120s-67.5 -48.667 -115.5 -56l-64 -11c-10 10.667 -17.5 24.667 -22.5 42s-7.5 29.833 -7.5 37.5
s0.666992 13.5 2 17.5l59 20c12 4 22 12.167 30 24.5s12 27.833 12 46.5v158c0 34.667 8.16699 66.5 24.5 95.5s37.5 49.167 63.5 60.5v8c-26 12 -47.167 32.5 -63.5 61.5s-24.5 60.5 -24.5 94.5v159c0 18.667 -4 34.167 -12 46.5s-18 20.5 -30 24.5l-59 20
c-1.33301 4 -2 9.83301 -2 17.5s2.5 20 7.5 37s12.5 30.833 22.5 41.5l64 -10c48 -8 86.5 -27 115.5 -57s43.5 -69.667 43.5 -119v-162c0 -26.667 7.83301 -50.5 23.5 -71.5s35.834 -33.833 60.501 -38.5z" />
    <glyph glyph-name="asciitilde" unicode="~" horiz-adv-x="626" 
d="M298 381l82.9951 -38.001c16.667 -7.33301 33.334 -11 50.001 -11s33.334 9.33301 50.001 28l24 25c16.667 -1.33301 33.834 -7.16602 51.501 -17.499s30.167 -23.5 37.5 -39.5l-20 -32c-40 -67.333 -92.333 -101 -157 -101c-28.667 0 -58.334 7 -89.001 21l-83 37
c-16 8 -32.5 12 -49.5 12s-33.833 -9.33301 -50.5 -28l-24 -26c-17.333 1.33301 -34.666 7.33301 -51.999 18s-29.666 24 -36.999 40l19 32c40.667 67.333 93.334 101 158.001 101c28 0 57.667 -7 89 -21z" />
    <glyph glyph-name="exclamdown" unicode="&#xa1;" horiz-adv-x="305" 
d="M213 291l21 -444c-38.667 -27.333 -91.667 -41 -159 -41l-8 11l33 474c16 4 35 6 57 6s40.667 -2 56 -6zM229 379c-18.667 -10.667 -42.999 -16 -72.999 -16s-53.667 5.33301 -71 16c-7.33301 12.667 -11 31.667 -11 57s3.66699 44.333 11 57
c19.333 10.667 43.166 16 71.499 16s52.5 -5.33301 72.5 -16c6.66699 -13.333 10 -32.333 10 -57s-3.33301 -43.667 -10 -57z" />
    <glyph glyph-name="cent" unicode="&#xa2;" horiz-adv-x="464" 
d="M188 -33l0.000976562 100c-57.333 12.667 -98.333 42.5 -123 89.5s-37 105.167 -37 174.5s15.167 125.333 45.5 168s69.5 70 117.5 82v101c11.333 2.66699 28.833 4 52.5 4s41.834 -1.33301 54.501 -4v-98c42 -8.66699 75.833 -27 101.5 -55s38.5 -60 38.5 -96
c0 -54 -26.667 -81 -80 -81c-22.667 0 -40.334 2 -53.001 6v7c0 75.333 -20.667 113 -62 113c-23.333 0 -39.833 -12.333 -49.5 -37s-14.5 -63.667 -14.5 -117c0 -96.667 30.333 -145 91 -145c31.333 0 67.666 14.333 108.999 43c12 -9.33301 23.5 -21.833 34.5 -37.5
s17.833 -30.5 20.5 -44.5c-33.333 -37.333 -79.666 -62 -138.999 -74v-99c-9.33301 -2 -27.333 -3 -54 -3s-44.334 1 -53.001 3z" />
    <glyph glyph-name="sterling" unicode="&#xa3;" horiz-adv-x="537" 
d="M241 362l171 0.999023c5.33301 -13.333 8 -30.833 8 -52.5s-2.66699 -39.834 -8 -54.501c-70 0 -122.333 0.333008 -157 1c-4.66699 -50.667 -22.334 -97 -53.001 -139l3 -3c58.667 4.66699 116.334 7 173.001 7h131c0 -20.667 -0.666992 -37 -2 -49
c-9.33301 -50 -42.666 -75 -99.999 -75h-342c-11.333 51.333 -17 84.5 -17 99.5s6 30.833 18 47.5l13 20c23.333 33.333 37.333 63.666 42 90.999h-72c-5.33301 14.667 -8 32.834 -8 54.501s2.66699 39.167 8 52.5c5.33301 0 14.166 -0.166992 26.499 -0.5
s21.5 -0.5 27.5 -0.5c-23.333 46.667 -35 85.334 -35 116.001c0 48 19 90.833 57 128.5s91 56.5 159 56.5c42.667 0 82.667 -8 120 -24s68 -34.667 92 -56c-3.33301 -20 -12.333 -38.5 -27 -55.5s-31.334 -28.833 -50.001 -35.5c-41.333 32.667 -82.666 49 -123.999 49
c-24 0 -43.667 -6.66699 -59 -20s-23 -30.666 -23 -51.999s9.33301 -57 28 -107z" />
    <glyph glyph-name="currency" unicode="&#xa4;" horiz-adv-x="589" 
d="M94 217c-20 34 -29.999 72.834 -29.999 116.501s9.66699 82.167 29 115.5l-69 77c13.333 27.333 38.333 52.666 75 75.999l81 -73c33.333 16.667 70.666 25 111.999 25s79.333 -8.33301 114 -25l83 75c30.667 -18 56 -43 76 -75l-71 -80c19.333 -33.333 29 -72 29 -116
s-10.333 -83 -31 -117l70 -78c-17.333 -30 -42.333 -55.333 -75 -76l-84 74c-32.667 -15.333 -69.5 -23 -110.5 -23s-77.833 7.66699 -110.5 23l-83 -73c-30 18 -55 43.333 -75 76zM230.501 414.001c-13.667 -20.667 -20.5 -47.332 -20.5 -79.999
s6.83301 -59.334 20.5 -80.001s34.667 -31 63 -31s49.333 10.167 63 30.5s20.5 47 20.5 80s-6.83301 59.833 -20.5 80.5s-34.667 31 -63 31s-49.333 -10.333 -63 -31z" />
    <glyph glyph-name="yen" unicode="&#xa5;" horiz-adv-x="544" 
d="M489 152h-146.001v-152c-20 -4 -44.5 -6 -73.5 -6s-53.167 2 -72.5 6v152h-146c-4.66699 16.667 -7 31.834 -7 45.501s2.33301 29.5 7 47.5h140l-30 67h-110c-4.66699 16.667 -7 31.667 -7 45s2.33301 29.333 7 48h68l-102 227c36 18 65.333 27 88 27s39 -4 49 -12
s18.333 -21 25 -39l49 -120c14.667 -34 29.334 -78 44.001 -132h6c16.667 54 33 99 49 135l68 157c16.667 4.66699 36.5 7 59.5 7s46.5 -3 70.5 -9l6 -7l-109 -234h67c4 -16 6 -31.833 6 -47.5s-2 -30.834 -6 -45.501h-110l-31 -67h141c4 -15.333 6 -31 6 -47
s-2 -31.333 -6 -46z" />
    <glyph glyph-name="brokenbar" unicode="&#xa6;" horiz-adv-x="262" 
d="M63 -142v387c16.667 4.66699 39.167 7 67.5 7s51.166 -2.33301 68.499 -7v-387c-17.333 -4 -40.166 -6 -68.499 -6s-50.833 2 -67.5 6zM63 386v387c16.667 4.66699 39.167 7 67.5 7s51.166 -2.33301 68.499 -7v-387c-17.333 -4 -40.166 -6 -68.499 -6s-50.833 2 -67.5 6z
" />
    <glyph glyph-name="section" unicode="&#xa7;" horiz-adv-x="498" 
d="M472 310c0 -57.333 -32.9971 -106.334 -98.9971 -147.001c44 -32 66 -71.333 66 -118s-18.333 -85.167 -55 -115.5s-87.334 -45.5 -152.001 -45.5s-121.334 14 -170.001 42c-0.666992 17.333 3.16602 36.166 11.499 56.499s18.5 35.166 30.5 44.499
c52.667 -23.333 97.334 -35 134.001 -35c16 0 29 3.5 39 10.5s15 16.167 15 27.5c0 18.667 -14.333 33.667 -43 45l-58 24c-52.667 22 -93.167 46 -121.5 72s-42.5 60 -42.5 102c0 56.667 33 105.334 99 146.001c-43.333 31.333 -65 70.333 -65 117s18 85.334 54 116.001
s82.667 46 140 46s112.666 -12.333 165.999 -37v-17c0 -8.66699 -3.83301 -22.5 -11.5 -41.5s-17.5 -33.167 -29.5 -42.5c-48 19.333 -87.667 29 -119 29c-15.333 0 -28 -3.5 -38 -10.5s-15 -16.167 -15 -27.5c0 -18 14.333 -32.333 43 -43l57 -24
c52 -21.333 92.333 -45.166 121 -71.499s43 -60.5 43 -102.5zM234.003 368.999l-13 5.00098c-34 -20 -51 -45 -51 -75c0 -18 8 -33.667 24 -47s40 -26 72 -38l12 -5c34.667 18.667 52 43.667 52 75s-32 59.666 -96 84.999z" />
    <glyph glyph-name="dieresis" unicode="&#xa8;" 
d="M228 622c0 18 2.66699 34.001 8 48.001c18 10.667 39 16 63 16s44.667 -5.33301 62 -16c6 -14 9 -30.333 9 -49s-3 -34.334 -9 -47.001c-17.333 -10.667 -38 -16 -62 -16s-45 5.33301 -63 16c-5.33301 14 -8 30 -8 48zM28 622.001c0 18 3 33.999 9 47.999
c17.333 10.667 38 16 62 16s45 -5.33301 63 -16c5.33301 -14 8 -30.167 8 -48.5s-2.66699 -34.166 -8 -47.499c-18 -10.667 -39 -16 -63 -16s-44.667 5.33301 -62 16c-6 14 -9 30 -9 48z" />
    <glyph glyph-name="copyright" unicode="&#xa9;" horiz-adv-x="791" 
d="M33 341c0 102.667 34.667 188.834 104 258.501s155.333 104.5 258 104.5s188.834 -34.833 258.501 -104.5s104.5 -155.834 104.5 -258.501s-34.833 -188.667 -104.5 -258s-155.834 -104 -258.501 -104s-188.667 34.667 -258 104s-104 155.333 -104 258zM145 341
c0 -74.667 23.5 -137.334 70.5 -188.001s106.833 -76 179.5 -76s132.667 25.333 180 76s71 113.334 71 188.001s-23.667 137.5 -71 188.5s-107.333 76.5 -180 76.5s-132.5 -25.5 -179.5 -76.5s-70.5 -113.833 -70.5 -188.5zM443 366c0 58 -16.667 87 -50 87
c-36 0 -54 -36 -54 -108s25.667 -108 77 -108c20 0 48 11 84 33c22.667 -16 36 -38 40 -66c-14.667 -16 -35.834 -29.333 -63.501 -40s-54.167 -16 -79.5 -16c-61.333 0 -105.666 18.5 -132.999 55.5s-41 85.667 -41 146s17.333 106.5 52 138.5s74.5 48 119.5 48
s81.5 -11.167 109.5 -33.5s42 -49.833 42 -82.5c0 -39.333 -20.667 -59 -62 -59c-17.333 0 -31 1.66699 -41 5z" />
    <glyph glyph-name="ordfeminine" unicode="&#xaa;" horiz-adv-x="453" 
d="M414 344c-1.33301 -12 -6.49902 -24.332 -15.499 -36.999s-19.167 -22 -30.5 -28c-37.333 1.33301 -66 15.333 -86 42c-37.333 -31.333 -75.833 -47 -115.5 -47s-70.834 12 -93.501 36s-34 53 -34 87c0 45.333 15 79.5 45 102.5s68.333 34.5 115 34.5
c17.333 0 37 -1 59 -3v25c0 16 -5 28 -15 36s-25.333 12 -46 12s-56.667 -8 -108 -24c-18 20 -28 47 -30 81c59.333 24.667 120.333 37 183 37c40 0 74.167 -11.333 102.5 -34s42.5 -57.334 42.5 -104.001v-158c0 -28.667 9 -48 27 -58zM171.001 376.501
c8 -7.66699 19.667 -11.499 35 -11.499s33 8 53 24c-0.666992 4 -1 10.333 -1 19v45c-22.667 1.33301 -38.667 2 -48 2c-34 0 -51 -17 -51 -51c0 -10.667 4 -19.834 12 -27.501z" />
    <glyph glyph-name="guillemotleft" unicode="&#xab;" horiz-adv-x="609" 
d="M573 410l-124 -151.999l128 -156c-4.66699 -15.333 -15.5 -30.666 -32.5 -45.999s-33.5 -25 -49.5 -29l-202 185c-4.66699 11.333 -7 25.666 -7 42.999s2.33301 31.666 7 42.999l200 188c16 -3.33301 32.167 -12.833 48.5 -28.5s26.833 -31.5 31.5 -47.5zM311 410.001
l-124 -151.999l128 -156c-4.66699 -15.333 -15.5 -30.666 -32.5 -45.999s-33.5 -25 -49.5 -29l-202 185c-4.66699 11.333 -7 25.666 -7 42.999s2.33301 31.666 7 42.999l200 188c16 -3.33301 32.167 -12.833 48.5 -28.5s26.833 -31.5 31.5 -47.5z" />
    <glyph glyph-name="logicalnot" unicode="&#xac;" horiz-adv-x="530" 
d="M351 245l-65 -1.00098h-238c-4 16 -6 35.833 -6 59.5s2 43.834 6 60.501h423l7 -7v-234c-16.667 -3.33301 -37 -5 -61 -5s-46.333 1.66699 -67 5v61z" />
    <glyph glyph-name="uni00AD" unicode="&#xad;" horiz-adv-x="373" 
d="M325 209h-277c-4 16 -6 36 -6 60s2 44 6 60h277c4 -16 6 -36 6 -60s-2 -44 -6 -60z" />
    <glyph glyph-name="registered" unicode="&#xae;" horiz-adv-x="600" 
d="M28 471c0 76.667 26.167 141.334 78.5 194.001s116.833 79 193.5 79s141.167 -26.333 193.5 -79s78.5 -117.334 78.5 -194.001s-26.167 -141.167 -78.5 -193.5s-116.833 -78.5 -193.5 -78.5s-141.167 26.167 -193.5 78.5s-78.5 116.833 -78.5 193.5zM115 471
c0 -53.333 17.667 -98.666 53 -135.999s79.333 -56 132 -56s96.667 18.667 132 56s53 82.666 53 135.999s-17.667 98.833 -53 136.5s-79.333 56.5 -132 56.5s-96.667 -18.833 -132 -56.5s-53 -83.167 -53 -136.5zM200 601l107 2.99805c34.667 0 60.167 -7 76.5 -21
s24.5 -31 24.5 -51s-4.83301 -35.667 -14.5 -47s-21.5 -18.666 -35.5 -21.999c12 -5.33301 23 -17.666 33 -36.999l11 -23c8 -15.333 15.667 -25 23 -29c-12.667 -18 -29.167 -27 -49.5 -27s-35.833 10 -46.5 30l-21 43c-6.66699 12 -16 18 -28 18h-8v-86
c-9.33301 -2.66699 -22 -4 -38 -4s-28.333 1.33301 -37 4v247zM272 494.998l24 1c21.333 0 32 8.5 32 25.5s-9.66699 25.5 -29 25.5h-27v-52z" />
    <glyph glyph-name="macron" unicode="&#xaf;" 
d="M351 572h-303c-5.33301 16.667 -8 34.334 -8 53.001s2.66699 37 8 55h303c4.66699 -18.667 7 -36.834 7 -54.501s-2.33301 -35.5 -7 -53.5z" />
    <glyph glyph-name="degree" unicode="&#xb0;" horiz-adv-x="347" 
d="M15 515c0 46.667 15 84.834 45 114.501s68 44.5 114 44.5s83.833 -14.833 113.5 -44.5s44.5 -67.834 44.5 -114.501s-14.833 -84.834 -44.5 -114.501s-67.5 -44.5 -113.5 -44.5s-84 14.833 -114 44.5s-45 67.834 -45 114.501zM119 515c0 -20 5 -36 15 -48
s23.167 -18 39.5 -18s29.5 6 39.5 18s15 28 15 48s-5 36 -15 48s-23.167 18 -39.5 18s-29.5 -6 -39.5 -18s-15 -28 -15 -48z" />
    <glyph glyph-name="plusminus" unicode="&#xb1;" horiz-adv-x="530" 
d="M204 415l-1.00195 69v66c16.667 4 37.5 6 62.5 6s45.833 -2 62.5 -6v-66l-1 -69l63 1h76c4 -16.667 6 -34.5 6 -53.5s-2 -37.167 -6 -54.5h-76l-63 1l1 -67v-67c-17.333 -3.33301 -38.166 -5 -62.499 -5s-45.166 1.66699 -62.499 5v67l1 67l-64 -1h-76
c-4 17.333 -6 35.5 -6 54.5s2 36.833 6 53.5h76zM465.998 0h-402c-4 16.667 -6 35.334 -6 56.001s2 39.334 6 56.001h402c4 -16.667 6 -35.334 6 -56.001s-2 -39.334 -6 -56.001z" />
    <glyph glyph-name="twosuperior" unicode="&#xb2;" horiz-adv-x="420" 
d="M367 429c0 -25.333 -0.670898 -42.335 -2.00391 -51.002c-7.33301 -38.667 -31.666 -58 -72.999 -58h-212c-26 34 -39 59 -39 75c0 34 22.333 69.667 67 107l88 73c19.333 16.667 29 34.334 29 53.001c0 10.667 -3.66699 19.667 -11 27s-16.666 11 -27.999 11
s-21.166 -4.66699 -29.499 -14s-14.166 -20.666 -17.499 -33.999c-15.333 0.666992 -33.166 5 -53.499 13s-33.833 17 -40.5 27c7.33301 34 25 62.333 53 85s63.5 34 106.5 34s78.833 -13.167 107.5 -39.5s43 -59.833 43 -100.5c0 -55.333 -27 -103.333 -81 -144l-57 -42
l-23 -16c-10.667 -7.33301 -18.334 -13 -23.001 -17c40 7.33301 75 11 105 11h91z" />
    <glyph glyph-name="threesuperior" unicode="&#xb3;" horiz-adv-x="420" 
d="M319 645l-46.9971 -38.999c-8.66699 -7.33301 -17 -13 -25 -17c33.333 -3.33301 60.666 -16.666 81.999 -39.999s32 -52 32 -86c0 -45.333 -16.333 -81 -49 -107s-72.334 -39 -119.001 -39c-63.333 0 -114.333 16 -153 48c5.33301 31.333 21.666 58.333 48.999 81
c30.667 -20.667 56.834 -31 78.501 -31s37.834 4.66699 48.501 14s16 21.666 16 36.999s-4.5 27.833 -13.5 37.5s-22.167 14.5 -39.5 14.5c-2.66699 0 -12.334 -1.66699 -29.001 -5c-10 3.33301 -20.167 11.833 -30.5 25.5s-16.833 26.5 -19.5 38.5l67 59
c6 5.33301 21.333 16.666 46 33.999l-3 4c-18.667 -4 -45.334 -6 -80.001 -6h-67c-4.66699 14 -7 31 -7 51s3.33301 37 10 51h254c17.333 -30 26 -54.5 26 -73.5s-9 -36.167 -27 -51.5z" />
    <glyph glyph-name="acute" unicode="&#xb4;" 
d="M106 598l154.002 167.001c18.667 -6 37.167 -17.333 55.5 -34s30.166 -34.334 35.499 -53.001l-183 -138c-12.667 4 -24.834 11.333 -36.501 22s-20.167 22.667 -25.5 36z" />
    <glyph glyph-name="paragraph" unicode="&#xb6;" horiz-adv-x="740" 
d="M277 63l-0.000976562 175.002h-13c-69.333 0 -126 19.333 -170 58s-66 95.667 -66 171s22.167 131.166 66.5 167.499s103.833 54.5 178.5 54.5c6 0 55 -1.66699 147 -5l7 -7v-584c0 -44.667 -3.5 -81.667 -10.5 -111s-20.5 -55.333 -40.5 -78
c-37.333 -42 -95.666 -63 -174.999 -63c-52 0 -100.333 8.33301 -145 25c0 16 2.83301 34.667 8.5 56s13.5 38.666 23.5 51.999c36.667 -14 70 -21 100 -21s52.333 8 67 24s22 44.667 22 86zM487.999 -130.998v807l7 7h225c4.66699 -14 7 -35.333 7 -64s-2.33301 -50 -7 -64
h-29c-12 0 -29.333 0.666992 -52 2v-688c-20 -4 -45.333 -6 -76 -6s-55.667 2 -75 6z" />
    <glyph glyph-name="periodcentered" unicode="&#xb7;" horiz-adv-x="326" 
d="M81 286c0 24 3.66992 43.667 11.0029 59c19.333 12 43.166 18 71.499 18s52.166 -6 71.499 -18c6.66699 -16 10 -35.667 10 -59s-3.33301 -43 -10 -59c-16.667 -11.333 -40.334 -17 -71.001 -17s-54.667 5.66699 -72 17c-7.33301 15.333 -11 35 -11 59z" />
    <glyph glyph-name="cedilla" unicode="&#xb8;" 
d="M136 -77c6 24.667 14.667 50.332 26 76.999h79c-7.33301 -14 -12.666 -24.667 -15.999 -32c30.667 -2 55 -11.167 73 -27.5s27 -38.833 27 -67.5s-12.667 -53.167 -38 -73.5s-56.5 -30.5 -93.5 -30.5s-67.167 7.66699 -90.5 23
c1.33301 26.667 9.66602 48.334 24.999 65.001c13.333 -8.66699 29 -13 47 -13c24.667 0 37 10 37 30c0 9.33301 -3 16.833 -9 22.5s-13 8.5 -21 8.5s-16 -1.33301 -24 -4c-10 4.66699 -17.333 12 -22 22z" />
    <glyph glyph-name="onesuperior" unicode="&#xb9;" horiz-adv-x="420" 
d="M37 622c36.667 22 65.165 43.8311 85.498 65.498s38.166 48.5 53.499 80.5c20.667 4 39.167 6 55.5 6s36.5 -2 60.5 -6v-339h82c4 -16.667 6 -34.667 6 -54s-2 -37 -6 -53h-302c-4 16.667 -6 34.5 -6 53.5s2 36.833 6 53.5h99v95c0 11.333 1.33301 38.333 4 81
c-17.333 -21.333 -44.666 -41 -81.999 -59c-13.333 6.66699 -25.166 17.334 -35.499 32.001s-17.166 29.334 -20.499 44.001z" />
    <glyph glyph-name="ordmasculine" unicode="&#xba;" horiz-adv-x="450" 
d="M350 653c39.333 -41.333 59 -97.5 59 -168.5s-19.667 -126.5 -59 -166.5c-30.667 -30 -72.334 -45 -125.001 -45s-94.334 15 -125.001 45c-40 40 -60 95.667 -60 167s20 127.333 60 168c30.667 30 72.334 45 125.001 45s94.334 -15 125.001 -45zM225 604
c-40.667 0 -61 -39.5 -61 -118.5s20.333 -118.5 61 -118.5s61 39.5 61 118.5s-20.333 118.5 -61 118.5z" />
    <glyph glyph-name="guillemotright" unicode="&#xbb;" horiz-adv-x="609" 
d="M36 103l124 153l-128 155c4.66699 15.333 15.5 30.833 32.5 46.5s33.5 25.167 49.5 28.5l202 -185c5.33301 -11.333 8 -25.5 8 -42.5s-2.66699 -31.167 -8 -42.5l-200 -189c-16.667 4 -33 13.833 -49 29.5s-26.333 31.167 -31 46.5zM298 103l124 153l-128 155
c4.66699 15.333 15.5 30.833 32.5 46.5s33.5 25.167 49.5 28.5l202 -185c5.33301 -11.333 8 -25.5 8 -42.5s-2.66699 -31.167 -8 -42.5l-200 -189c-16.667 4 -33 13.833 -49 29.5s-26.333 31.167 -31 46.5z" />
    <glyph glyph-name="onequarter" unicode="&#xbc;" horiz-adv-x="1040" 
d="M27 537c36.667 22 65.165 43.8301 85.498 65.4971s38.166 48.5 53.499 80.5c20.667 4 39.167 6 55.5 6s36.5 -2 60.5 -6v-339h82c4 -17.333 6 -35.5 6 -54.5s-2 -36.5 -6 -52.5h-302c-4 16.667 -6 34.334 -6 53.001s2 36.667 6 54h99v95c0 11.333 1.33301 38.333 4 81
c-17.333 -21.333 -44.666 -41 -81.999 -59c-13.333 6.66699 -25.166 17.334 -35.499 32.001s-17.166 29.334 -20.499 44.001zM291.998 -0.00292969l378.001 683c20 4.66699 37.333 7 52 7c46.667 0 77 -2.33301 91 -7l-377 -683c-20 -4.66699 -37.333 -7 -52 -7
c-46.667 0 -77.334 2.33301 -92.001 7zM980.999 76.9971l-31.998 0.99707v-70c-14.667 -4 -33.834 -6 -57.501 -6s-43.834 2 -60.501 6v21l1 49l-54 -1h-106c-18 30.667 -27 54.334 -27 71.001s5 34 15 52l114 257c5.33301 0.666992 13.166 1 23.499 1
s25.5 -2.16699 45.5 -6.5s36.333 -11.166 49 -20.499l-55 -120c-29.333 -66 -53.666 -111 -72.999 -135l2 -2c24 2.66699 45.667 4 65 4v34c0 28 7.66699 50 23 66s36.333 24 63 24h29l4 -5v-46l-1 -72h54c2.66699 -11.333 4 -26.166 4 -44.499s-3.33301 -37.5 -10 -57.5
h-16z" />
    <glyph glyph-name="onehalf" unicode="&#xbd;" horiz-adv-x="1040" 
d="M280 0l378.001 683c20 4.66699 37.333 7 52 7c46.667 0 77 -2.33301 91 -7l-377 -683c-20 -4.66699 -37.333 -7 -52 -7c-46.667 0 -77.334 2.33301 -92.001 7zM27.001 537c36.667 22 65.165 43.8301 85.498 65.4971s38.166 48.5 53.499 80.5c20.667 4 39.167 6 55.5 6
s36.5 -2 60.5 -6v-339h82c4 -17.333 6 -35.5 6 -54.5s-2 -36.5 -6 -52.5h-302c-4 16.667 -6 34.334 -6 53.001s2 36.667 6 54h99v95c0 11.333 1.33301 38.333 4 81c-17.333 -21.333 -44.666 -41 -81.999 -59c-13.333 6.66699 -25.166 17.334 -35.499 32.001
s-17.166 29.334 -20.499 44.001zM995.999 113.997c0 -25.333 -0.671875 -42.3359 -2.00488 -51.0029c-7.33301 -38.667 -31.666 -58 -72.999 -58h-212c-26 34 -39 59 -39 75c0 34 22.333 69.667 67 107l88 73c19.333 16.667 29 34.334 29 53.001
c0 10.667 -3.66699 19.667 -11 27s-16.666 11 -27.999 11s-21.166 -4.66699 -29.499 -14s-14.166 -20.666 -17.499 -33.999c-15.333 0.666992 -33.166 5 -53.499 13s-33.833 17 -40.5 27c7.33301 34 25 62.333 53 85s63.5 34 106.5 34s78.833 -13.167 107.5 -39.5
s43 -59.833 43 -100.5c0 -55.333 -27 -103.333 -81 -144l-57 -42c-4 -3.33301 -11.5 -8.66602 -22.5 -15.999s-18.833 -13 -23.5 -17c40 7.33301 75 11 105 11h91z" />
    <glyph glyph-name="threequarters" unicode="&#xbe;" horiz-adv-x="1040" 
d="M266 0l378.001 683c20 4.66699 37.333 7 52 7c46.667 0 77 -2.33301 91 -7l-377 -683c-20 -4.66699 -37.333 -7 -52 -7c-46.667 0 -77.334 2.33301 -92.001 7zM323.001 560l-46.9971 -38.999c-8.66699 -7.33301 -17 -13 -25 -17
c33.333 -3.33301 60.666 -16.666 81.999 -39.999s32 -52 32 -86c0 -45.333 -16.333 -81 -49 -107s-72.334 -39 -119.001 -39c-63.333 0 -114.333 16 -153 48c5.33301 31.333 21.666 58.333 48.999 81c30.667 -20.667 56.834 -31 78.501 -31s37.834 4.66699 48.501 14
s16 21.666 16 36.999s-4.5 27.833 -13.5 37.5s-22.167 14.5 -39.5 14.5c-2.66699 0 -12.334 -1.66699 -29.001 -5c-10 3.33301 -20.167 11.833 -30.5 25.5s-16.833 26.5 -19.5 38.5l67 59c6 5.33301 21.333 16.666 46 33.999l-3 4c-18.667 -4 -45.334 -6 -80.001 -6h-67
c-4.66699 14 -7 31 -7 51s3.33301 37 10 51h254c17.333 -30 26 -54.5 26 -73.5s-9 -36.167 -27 -51.5zM962.004 77.001l-31.998 0.99707v-70c-14.667 -4 -33.834 -6 -57.501 -6s-43.834 2 -60.501 6v21l1 49l-54 -1h-106c-18 30.667 -27 54.334 -27 71.001s5 34 15 52
l114 257c5.33301 0.666992 13.166 1 23.499 1s25.5 -2.16699 45.5 -6.5s36.333 -11.166 49 -20.499l-55 -120c-29.333 -66 -53.666 -111 -72.999 -135l2 -2c24 2.66699 45.667 4 65 4v34c0 28 7.66699 50 23 66s36.333 24 63 24h29l4 -5v-46l-1 -72h54
c2.66699 -11.333 4 -26.166 4 -44.499s-3.33301 -37.5 -10 -57.5h-16z" />
    <glyph glyph-name="questiondown" unicode="&#xbf;" horiz-adv-x="417" 
d="M421 -146c-63.333 -38 -129.334 -56.999 -198.001 -56.999s-120.834 16.5 -156.501 49.5s-53.5 76.833 -53.5 131.5c0 85.333 43.667 151 131 197l61 32l9 80c16 5.33301 34.833 8 56.5 8s40.5 -2.66699 56.5 -8l8 -149l-12 -15l-54 -24
c-66.667 -31.333 -100 -66.333 -100 -105c0 -21.333 7 -38.166 21 -50.499s36.333 -18.5 67 -18.5s67.334 11.667 110.001 35c14 -10.667 26.333 -26.334 37 -47.001s16.334 -40.334 17.001 -59.001zM268.999 363.001c-30.667 0 -54.333 5.33301 -71 16
c-7.33301 12.667 -11 31.667 -11 57s3.66699 44.333 11 57c18 10.667 41.5 16 70.5 16s53.167 -5.33301 72.5 -16c7.33301 -12.667 11 -31.667 11 -57s-3.66699 -44.333 -11 -57c-17.333 -10.667 -41.333 -16 -72 -16z" />
    <glyph glyph-name="Agrave" unicode="&#xc0;" horiz-adv-x="634" 
d="M240 146c-18.667 0 -32.6689 0.333008 -42.002 1l-44 -148c-15.333 -4 -37.666 -6 -66.999 -6s-53 3.66699 -71 11l-6 8l222 671c24 4 53.667 6 89 6s64.333 -2.33301 87 -7l216 -672c-22 -12.667 -48.333 -19 -79 -19s-52.667 5.83301 -66 17.5s-24.333 33.5 -33 65.5
l-21 73c-9.33301 -0.666992 -23.666 -1 -42.999 -1h-142zM232.998 266l41.999 1h77c3.33301 0 9.33301 -0.166992 18 -0.5s15.334 -0.5 20.001 -0.5l-76 276h-5c-6 -32.667 -22 -94 -48 -184zM229.997 934l221 -135c-5.33301 -34.667 -19.333 -58.667 -42 -72l-238 94
c2 20.667 9 42.167 21 64.5s24.667 38.5 38 48.5z" />
    <glyph glyph-name="Aacute" unicode="&#xc1;" horiz-adv-x="634" 
d="M240 146c-18.667 0 -32.6689 0.333008 -42.002 1l-44 -148c-15.333 -4 -37.666 -6 -66.999 -6s-53 3.66699 -71 11l-6 8l222 671c24 4 53.667 6 89 6s64.333 -2.33301 87 -7l216 -672c-22 -12.667 -48.333 -19 -79 -19s-52.667 5.83301 -66 17.5s-24.333 33.5 -33 65.5
l-21 73c-9.33301 -0.666992 -23.666 -1 -42.999 -1h-142zM232.998 266l41.999 1h77c3.33301 0 9.33301 -0.166992 18 -0.5s15.334 -0.5 20.001 -0.5l-76 276h-5c-6 -32.667 -22 -94 -48 -184zM198.997 799l220.999 135.001c13.333 -10 26 -26.167 38 -48.5
s19 -43.833 21 -64.5l-238 -94c-10 6 -19.167 16.167 -27.5 30.5s-13.166 28.166 -14.499 41.499z" />
    <glyph glyph-name="Acircumflex" unicode="&#xc2;" horiz-adv-x="634" 
d="M240 146c-18.667 0 -32.6689 0.333008 -42.002 1l-44 -148c-15.333 -4 -37.666 -6 -66.999 -6s-53 3.66699 -71 11l-6 8l222 671c24 4 53.667 6 89 6s64.333 -2.33301 87 -7l216 -672c-22 -12.667 -48.333 -19 -79 -19s-52.667 5.83301 -66 17.5s-24.333 33.5 -33 65.5
l-21 73c-9.33301 -0.666992 -23.666 -1 -42.999 -1h-142zM232.998 266l41.999 1h77c3.33301 0 9.33301 -0.166992 18 -0.5s15.334 -0.5 20.001 -0.5l-76 276h-5c-6 -32.667 -22 -94 -48 -184zM434.997 735l-117.001 75l-119 -86c-11.333 4 -23.5 12.167 -36.5 24.5
s-21.167 24.833 -24.5 37.5l118 120c20.667 4.66699 41.334 7 62.001 7s41.667 -2 63 -6l113 -110c-4 -14 -12 -26.667 -24 -38s-23.667 -19.333 -35 -24z" />
    <glyph glyph-name="Atilde" unicode="&#xc3;" horiz-adv-x="634" 
d="M240 146c-18.667 0 -32.6689 0.333008 -42.002 1l-44 -148c-15.333 -4 -37.666 -6 -66.999 -6s-53 3.66699 -71 11l-6 8l222 671c24 4 53.667 6 89 6s64.333 -2.33301 87 -7l216 -672c-22 -12.667 -48.333 -19 -79 -19s-52.667 5.83301 -66 17.5s-24.333 33.5 -33 65.5
l-21 73c-9.33301 -0.666992 -23.666 -1 -42.999 -1h-142zM232.998 266l41.999 1h77c3.33301 0 9.33301 -0.166992 18 -0.5s15.334 -0.5 20.001 -0.5l-76 276h-5c-6 -32.667 -22 -94 -48 -184zM321.997 758l-48.001 23.001c-10.667 6 -22 9 -34 9s-23.333 -8 -34 -24l-9 -12
c-14.667 0 -29.5 4.16699 -44.5 12.5s-25.167 18.833 -30.5 31.5l9 20c27.333 56.667 67.666 85 120.999 85c23.333 0 45.333 -5.66699 66 -17l48 -23c10.667 -6 21.834 -9 33.501 -9s23.167 8 34.5 24l9 13c14.667 0 29.334 -4.33301 44.001 -13s25 -19.334 31 -32.001
l-9 -19c-12.667 -26.667 -29.5 -47.667 -50.5 -63s-43 -23 -66 -23s-46.5 5.66699 -70.5 17z" />
    <glyph glyph-name="Adieresis" unicode="&#xc4;" horiz-adv-x="634" 
d="M240 146c-18.667 0 -32.6689 0.333008 -42.002 1l-44 -148c-15.333 -4 -37.666 -6 -66.999 -6s-53 3.66699 -71 11l-6 8l222 671c24 4 53.667 6 89 6s64.333 -2.33301 87 -7l216 -672c-22 -12.667 -48.333 -19 -79 -19s-52.667 5.83301 -66 17.5s-24.333 33.5 -33 65.5
l-21 73c-9.33301 -0.666992 -23.666 -1 -42.999 -1h-142zM232.998 266l41.999 1h77c3.33301 0 9.33301 -0.166992 18 -0.5s15.334 -0.5 20.001 -0.5l-76 276h-5c-6 -32.667 -22 -94 -48 -184zM374.997 850c18.667 10.667 39 16 61 16s41.333 -5.33301 58 -16
c8 -10.667 12 -27.167 12 -49.5s-4 -38.5 -12 -48.5c-16 -11.333 -35.333 -17 -58 -17s-43 5.66699 -61 17c-9.33301 10 -14 26 -14 48s4.66699 38.667 14 50zM202.997 866c22.667 0 43.333 -5.33203 62 -15.999c8 -9.33301 12 -25.833 12 -49.5s-4 -39.834 -12 -48.501
c-18 -11.333 -38.667 -17 -62 -17s-42.333 5.66699 -57 17c-8 10 -12 26.167 -12 48.5s4 38.833 12 49.5c15.333 10.667 34.333 16 57 16z" />
    <glyph glyph-name="Aring" unicode="&#xc5;" horiz-adv-x="634" 
d="M402 683l5.99902 -0.999023l216 -672c-22 -12.667 -48.333 -19 -79 -19s-52.667 5.83301 -66 17.5s-24.333 33.5 -33 65.5l-21 73c-9.33301 -0.666992 -23.666 -1 -42.999 -1h-142c-18.667 0 -32.667 0.333008 -42 1l-44 -148c-15.333 -4 -37.666 -6 -66.999 -6
s-53 3.66699 -71 11l-6 8l222 671c2 0 3.66699 0.333008 5 1c-37.333 23.333 -56 57.666 -56 102.999c0 36 12.833 66 38.5 90s59.167 36 100.5 36s74.666 -12 99.999 -36s38 -56.167 38 -96.5s-18.667 -72.833 -56 -97.5zM232.999 266.001l41.999 1h77
c3.33301 0 9.33301 -0.166992 18 -0.5s15.334 -0.5 20.001 -0.5l-76 276h-5c-6 -32.667 -22 -94 -48 -184zM269.998 787.001c0 -14.667 4.66699 -26.834 14 -36.501s21.333 -14.5 36 -14.5s26.5 4.83301 35.5 14.5s13.5 21.834 13.5 36.501s-4.5 26.834 -13.5 36.501
s-20.833 14.5 -35.5 14.5s-26.667 -4.83301 -36 -14.5s-14 -21.834 -14 -36.501z" />
    <glyph glyph-name="AE" unicode="&#xc6;" horiz-adv-x="885" 
d="M539 195l-1.00098 -71v-1c29.333 1.33301 53.333 2 72 2h239c0 -24 -1 -42 -3 -54c-8 -49.333 -40.667 -74 -98 -74h-270c-27.333 0 -48.666 8 -63.999 24s-23 38 -23 66v60c-8.66699 -0.666992 -21 -1 -37 -1h-89c-18.667 0 -32.667 0.333008 -42 1l-63 -147
c-15.333 -4 -39.5 -6 -72.5 -6s-58.5 3.33301 -76.5 10l-5 8l300 658c19.333 8.66699 50 13 92 13h426c4 -18.667 6 -38.5 6 -59.5s-4.33301 -43.833 -13 -68.5h-279l1 -71v-79c17.333 0.666992 39.333 1 66 1h161c5.33301 -16.667 8 -37.167 8 -61.5
s-2.66699 -45.5 -8 -63.5h-227v-86zM352.999 266l38.001 -1v277h-4c-24.667 -68 -49.334 -129.667 -74.001 -185l-40 -92l35 1h45z" />
    <glyph glyph-name="Ccedilla" unicode="&#xc7;" horiz-adv-x="608" 
d="M255 -77c5.33301 22.667 11.999 43.998 19.999 63.998c-42.667 4.66699 -80 17.834 -112 39.501s-56.667 49.5 -74 83.5c-34 66 -51 142.333 -51 229c0 119.333 27.167 209 81.5 269s121.5 90 201.5 90s143.5 -19.667 190.5 -59s70.5 -88.333 70.5 -147
c0 -56 -29 -84 -87 -84c-18.667 0 -38 2.66699 -58 8v10c0 42 -8.5 77.667 -25.5 107s-46.833 44 -89.5 44s-74 -20 -94 -60s-30 -97.833 -30 -173.5s12.333 -132.167 37 -169.5s60.5 -56 107.5 -56s102.833 23.667 167.5 71c15.333 -10.667 30.166 -25.5 44.499 -44.5
s23.166 -36.833 26.499 -53.5c-26 -26 -59.167 -48.5 -99.5 -67.5s-83.166 -31.167 -128.499 -36.5c-3.33301 -5.33301 -6.33301 -11.666 -9 -18.999c30.667 -2 55 -11.167 73 -27.5s27 -38.833 27 -67.5s-12.667 -53.167 -38 -73.5s-56.666 -30.5 -93.999 -30.5
s-67 7.66699 -89 23c1.33301 27.333 9.33301 49 24 65c14.667 -8.66699 30.334 -13 47.001 -13c25.333 0 38 10 38 30c0 9.33301 -3.16699 16.833 -9.5 22.5s-13.5 8.5 -21.5 8.5s-16 -1.33301 -24 -4c-10 4.66699 -17.333 12 -22 22z" />
    <glyph glyph-name="Egrave" unicode="&#xc8;" horiz-adv-x="572" 
d="M228 193l-0.998047 -69.002v-1c29.333 1.33301 53.666 2 72.999 2h236c0 -24 -1 -42 -3 -54c-9.33301 -49.333 -42 -74 -98 -74h-270c-27.333 0 -48.833 8 -64.5 24s-23.5 38 -23.5 66v589l7 7h427c3.33301 -15.333 5 -34.666 5 -57.999s-4 -46.666 -12 -69.999h-277
l1 -71v-79c17.333 0.666992 39.666 1 66.999 1h157c6 -16 9 -36.5 9 -61.5s-3 -46.167 -9 -63.5h-224v-88zM209.002 933.998l221 -135c-5.33301 -34.667 -19.333 -58.667 -42 -72l-238 94c2 20.667 9 42.167 21 64.5s24.667 38.5 38 48.5z" />
    <glyph glyph-name="Eacute" unicode="&#xc9;" horiz-adv-x="572" 
d="M228 193l-0.998047 -69.002v-1c29.333 1.33301 53.666 2 72.999 2h236c0 -24 -1 -42 -3 -54c-9.33301 -49.333 -42 -74 -98 -74h-270c-27.333 0 -48.833 8 -64.5 24s-23.5 38 -23.5 66v589l7 7h427c3.33301 -15.333 5 -34.666 5 -57.999s-4 -46.666 -12 -69.999h-277
l1 -71v-79c17.333 0.666992 39.666 1 66.999 1h157c6 -16 9 -36.5 9 -61.5s-3 -46.167 -9 -63.5h-224v-88zM178.002 798.998l220.999 135.001c13.333 -10 26 -26.167 38 -48.5s19 -43.833 21 -64.5l-238 -94c-10 6 -19.167 16.167 -27.5 30.5s-13.166 28.166 -14.499 41.499
z" />
    <glyph glyph-name="Ecircumflex" unicode="&#xca;" horiz-adv-x="572" 
d="M228 193l-0.998047 -69.002v-1c29.333 1.33301 53.666 2 72.999 2h236c0 -24 -1 -42 -3 -54c-9.33301 -49.333 -42 -74 -98 -74h-270c-27.333 0 -48.833 8 -64.5 24s-23.5 38 -23.5 66v589l7 7h427c3.33301 -15.333 5 -34.666 5 -57.999s-4 -46.666 -12 -69.999h-277
l1 -71v-79c17.333 0.666992 39.666 1 66.999 1h157c6 -16 9 -36.5 9 -61.5s-3 -46.167 -9 -63.5h-224v-88zM414.002 734.998l-117.001 75l-119 -86c-11.333 4 -23.5 12.167 -36.5 24.5s-21.167 24.833 -24.5 37.5l118 120c20.667 4.66699 41.334 7 62.001 7s41.667 -2 63 -6
l113 -110c-4 -14 -12 -26.667 -24 -38s-23.667 -19.333 -35 -24z" />
    <glyph glyph-name="Edieresis" unicode="&#xcb;" horiz-adv-x="572" 
d="M228 193l-0.998047 -69.002v-1c29.333 1.33301 53.666 2 72.999 2h236c0 -24 -1 -42 -3 -54c-9.33301 -49.333 -42 -74 -98 -74h-270c-27.333 0 -48.833 8 -64.5 24s-23.5 38 -23.5 66v589l7 7h427c3.33301 -15.333 5 -34.666 5 -57.999s-4 -46.666 -12 -69.999h-277
l1 -71v-79c17.333 0.666992 39.666 1 66.999 1h157c6 -16 9 -36.5 9 -61.5s-3 -46.167 -9 -63.5h-224v-88zM354.002 849.998c18.667 10.667 39 16 61 16s41.333 -5.33301 58 -16c8 -10.667 12 -27.167 12 -49.5s-4 -38.5 -12 -48.5c-16 -11.333 -35.333 -17 -58 -17
s-43 5.66699 -61 17c-9.33301 10 -14 26 -14 48s4.66699 38.667 14 50zM182.002 865.998c22.667 0 43.333 -5.33203 62 -15.999c8 -9.33301 12 -25.833 12 -49.5s-4 -39.834 -12 -48.501c-18 -11.333 -38.667 -17 -62 -17s-42.333 5.66699 -57 17c-8 10 -12 26.167 -12 48.5
s4 38.833 12 49.5c15.333 10.667 34.333 16 57 16z" />
    <glyph glyph-name="Igrave" unicode="&#xcc;" horiz-adv-x="314" 
d="M80 0v683c20 4 45.5 6 76.5 6s56.5 -2 76.5 -6v-683c-20 -4 -45.5 -6 -76.5 -6s-56.5 2 -76.5 6zM67 935l221 -135c-5.33301 -34.667 -19.333 -58.667 -42 -72l-238 94c2 20.667 9 42.167 21 64.5s24.667 38.5 38 48.5z" />
    <glyph glyph-name="Iacute" unicode="&#xcd;" horiz-adv-x="314" 
d="M80 0v683c20 4 45.5 6 76.5 6s56.5 -2 76.5 -6v-683c-20 -4 -45.5 -6 -76.5 -6s-56.5 2 -76.5 6zM36 800l220.999 135.001c13.333 -10 26 -26.167 38 -48.5s19 -43.833 21 -64.5l-238 -94c-10 6 -19.167 16.167 -27.5 30.5s-13.166 28.166 -14.499 41.499z" />
    <glyph glyph-name="Icircumflex" unicode="&#xce;" horiz-adv-x="314" 
d="M80 0v683c20 4 45.5 6 76.5 6s56.5 -2 76.5 -6v-683c-20 -4 -45.5 -6 -76.5 -6s-56.5 2 -76.5 6zM272 736l-117.001 75l-119 -86c-11.333 4 -23.5 12.167 -36.5 24.5s-21.167 24.833 -24.5 37.5l118 120c20.667 4.66699 41.334 7 62.001 7s41.667 -2 63 -6l113 -110
c-4 -14 -12 -26.667 -24 -38s-23.667 -19.333 -35 -24z" />
    <glyph glyph-name="Idieresis" unicode="&#xcf;" horiz-adv-x="314" 
d="M80 0v683c20 4 45.5 6 76.5 6s56.5 -2 76.5 -6v-683c-20 -4 -45.5 -6 -76.5 -6s-56.5 2 -76.5 6zM212 851c18.667 10.667 39 16 61 16s41.333 -5.33301 58 -16c8 -10.667 12 -27.167 12 -49.5s-4 -38.5 -12 -48.5c-16 -11.333 -35.333 -17 -58 -17s-43 5.66699 -61 17
c-9.33301 10 -14 26 -14 48s4.66699 38.667 14 50zM40 867c22.667 0 43.333 -5.33203 62 -15.999c8 -9.33301 12 -25.833 12 -49.5s-4 -39.834 -12 -48.501c-18 -11.333 -38.667 -17 -62 -17s-42.333 5.66699 -57 17c-8 10 -12 26.167 -12 48.5s4 38.833 12 49.5
c15.333 10.667 34.333 16 57 16z" />
    <glyph glyph-name="Eth" unicode="&#xd0;" horiz-adv-x="680" 
d="M617.5 514c15.667 -48.667 23.498 -106.331 23.498 -172.998s-7.66699 -124.334 -23 -173.001s-44.666 -90 -87.999 -124c-21.333 -16.667 -49.166 -29.167 -83.499 -37.5s-71.666 -12.5 -111.999 -12.5s-118.5 1.33301 -234.5 4l-7 7v280h-68
c-4.66699 14.667 -7 35 -7 61s2.33301 46.667 7 62h68v270l7 7c77.333 2.66699 160 4 248 4c31.333 0 64.166 -4.33301 98.499 -13s62.166 -21.334 83.499 -38.001c42.667 -34 71.834 -75.333 87.501 -124zM347.998 569.003l-106 0.999023v-162h131c4 -20 6 -40.667 6 -62
s-2 -41.666 -6 -60.999h-131v-172h106c90.667 0 136 76.333 136 229c0 108 -21.667 177 -65 207c-19.333 13.333 -43 20 -71 20z" />
    <glyph glyph-name="Ntilde" unicode="&#xd1;" horiz-adv-x="694" 
d="M609 689l6.99902 -6v-680c-25.333 -6 -55.166 -9 -89.499 -9s-64.833 2 -91.5 6l-166 366c-28 66.667 -47 113.667 -57 141l-4 -1c8 -94.667 12 -191.667 12 -291v-215c-20 -4 -43.833 -6 -71.5 -6s-51.167 2 -70.5 6v680c24 6 53.167 9 87.5 9s64.833 -2 91.5 -6
l162 -365l63 -151l4 1c-8 92 -12 188.333 -12 289v140c0 33.333 6.66699 57 20 71s35 21 65 21h50zM351.999 758l-48.001 23.001c-10.667 6 -22 9 -34 9s-23.333 -8 -34 -24l-9 -12c-14.667 0 -29.5 4.16699 -44.5 12.5s-25.167 18.833 -30.5 31.5l9 20
c27.333 56.667 67.666 85 120.999 85c23.333 0 45.333 -5.66699 66 -17l48 -23c10.667 -6 21.834 -9 33.501 -9s23.167 8 34.5 24l9 13c14.667 0 29.334 -4.33301 44.001 -13s25 -19.334 31 -32.001l-9 -19c-12.667 -26.667 -29.5 -47.667 -50.5 -63s-43 -23 -66 -23
s-46.5 5.66699 -70.5 17z" />
    <glyph glyph-name="Ograve" unicode="&#xd2;" horiz-adv-x="665" 
d="M197 341.5c0 -159 45.167 -238.5 135.5 -238.5s135.5 79.5 135.5 238.5s-45.167 238.5 -135.5 238.5s-135.5 -79.5 -135.5 -238.5zM145 48c-71.333 59.333 -107 157.166 -107 293.499s35.667 234.166 107 293.499c51.333 42 114 63 188 63s136.667 -21 188 -63
c71.333 -59.333 107 -157.166 107 -293.499s-35.667 -234.166 -107 -293.499c-51.333 -42 -114 -63 -188 -63s-136.667 21 -188 63zM243 934l221 -135c-5.33301 -34.667 -19.333 -58.667 -42 -72l-238 94c2 20.667 9 42.167 21 64.5s24.667 38.5 38 48.5z" />
    <glyph glyph-name="Oacute" unicode="&#xd3;" horiz-adv-x="665" 
d="M197 341.5c0 -159 45.167 -238.5 135.5 -238.5s135.5 79.5 135.5 238.5s-45.167 238.5 -135.5 238.5s-135.5 -79.5 -135.5 -238.5zM145 48c-71.333 59.333 -107 157.166 -107 293.499s35.667 234.166 107 293.499c51.333 42 114 63 188 63s136.667 -21 188 -63
c71.333 -59.333 107 -157.166 107 -293.499s-35.667 -234.166 -107 -293.499c-51.333 -42 -114 -63 -188 -63s-136.667 21 -188 63zM212 799l220.999 135.001c13.333 -10 26 -26.167 38 -48.5s19 -43.833 21 -64.5l-238 -94c-10 6 -19.167 16.167 -27.5 30.5
s-13.166 28.166 -14.499 41.499z" />
    <glyph glyph-name="Ocircumflex" unicode="&#xd4;" horiz-adv-x="665" 
d="M197 341.5c0 -159 45.167 -238.5 135.5 -238.5s135.5 79.5 135.5 238.5s-45.167 238.5 -135.5 238.5s-135.5 -79.5 -135.5 -238.5zM145 48c-71.333 59.333 -107 157.166 -107 293.499s35.667 234.166 107 293.499c51.333 42 114 63 188 63s136.667 -21 188 -63
c71.333 -59.333 107 -157.166 107 -293.499s-35.667 -234.166 -107 -293.499c-51.333 -42 -114 -63 -188 -63s-136.667 21 -188 63zM448 735l-117.001 75l-119 -86c-11.333 4 -23.5 12.167 -36.5 24.5s-21.167 24.833 -24.5 37.5l118 120c20.667 4.66699 41.334 7 62.001 7
s41.667 -2 63 -6l113 -110c-4 -14 -12 -26.667 -24 -38s-23.667 -19.333 -35 -24z" />
    <glyph glyph-name="Otilde" unicode="&#xd5;" horiz-adv-x="665" 
d="M197 341.5c0 -159 45.167 -238.5 135.5 -238.5s135.5 79.5 135.5 238.5s-45.167 238.5 -135.5 238.5s-135.5 -79.5 -135.5 -238.5zM145 48c-71.333 59.333 -107 157.166 -107 293.499s35.667 234.166 107 293.499c51.333 42 114 63 188 63s136.667 -21 188 -63
c71.333 -59.333 107 -157.166 107 -293.499s-35.667 -234.166 -107 -293.499c-51.333 -42 -114 -63 -188 -63s-136.667 21 -188 63zM329 766l-49.001 22.999c-12 6 -23.5 9 -34.5 9s-22.833 -8 -35.5 -24l-10 -13c-14.667 0 -29.5 4.33301 -44.5 13
s-25.167 19.334 -30.5 32.001l9 19c12 26 28.667 46.833 50 62.5s44.333 23.5 69 23.5s48.334 -5.66699 71.001 -17l49 -23c12 -6 23.667 -9 35 -9s23 8 35 24l10 12c14.667 0 29.334 -4.16699 44.001 -12.5s25 -18.833 31 -31.5l-9 -20
c-12 -26 -28.833 -46.833 -50.5 -62.5s-44.334 -23.5 -68.001 -23.5s-47.5 6 -71.5 18z" />
    <glyph glyph-name="Odieresis" unicode="&#xd6;" horiz-adv-x="665" 
d="M197 341.5c0 -159 45.167 -238.5 135.5 -238.5s135.5 79.5 135.5 238.5s-45.167 238.5 -135.5 238.5s-135.5 -79.5 -135.5 -238.5zM145 48c-71.333 59.333 -107 157.166 -107 293.499s35.667 234.166 107 293.499c51.333 42 114 63 188 63s136.667 -21 188 -63
c71.333 -59.333 107 -157.166 107 -293.499s-35.667 -234.166 -107 -293.499c-51.333 -42 -114 -63 -188 -63s-136.667 21 -188 63zM388 850c18.667 10.667 39 16 61 16s41.333 -5.33301 58 -16c8 -10.667 12 -27.167 12 -49.5s-4 -38.5 -12 -48.5
c-16 -11.333 -35.333 -17 -58 -17s-43 5.66699 -61 17c-9.33301 10 -14 26 -14 48s4.66699 38.667 14 50zM216 866c22.667 0 43.333 -5.33203 62 -15.999c8 -9.33301 12 -25.833 12 -49.5s-4 -39.834 -12 -48.501c-18 -11.333 -38.667 -17 -62 -17s-42.333 5.66699 -57 17
c-8 10 -12 26.167 -12 48.5s4 38.833 12 49.5c15.333 10.667 34.333 16 57 16z" />
    <glyph glyph-name="multiply" unicode="&#xd7;" horiz-adv-x="530" 
d="M264 212l-118 -119c-16.667 8 -33.667 20 -51 36c-17.333 18.667 -29.333 35.667 -36 51l120 118l-120 119c8.66699 20 20.667 37 36 51c16.667 16.667 33.667 28.667 51 36l78 -78l40 -42l118 120c38.667 -18.667 68 -47.667 88 -87l-119 -119l119 -118
c-18 -38.667 -47.333 -67.667 -88 -87l-76 78z" />
    <glyph glyph-name="Oslash" unicode="&#xd8;" horiz-adv-x="669" 
d="M127 65c-59.333 62 -88.998 157.332 -88.998 285.999s36 223.334 108 284.001c50 42 112.667 63 188 63c42.667 0 81.334 -6.66699 116.001 -20l45 78c39.333 -6 70.666 -23.333 93.999 -52l-49 -86c60.667 -62.667 91 -154.667 91 -276
c0 -134.667 -36 -232.667 -108 -294c-50 -42 -113 -63 -189 -63c-42.667 0 -81.334 6.66699 -116.001 20l-43 -75c-17.333 2.66699 -34.833 8.66699 -52.5 18s-31.834 20.333 -42.501 33zM478.002 341.999c0 50 -5.00098 93.667 -15.001 131l-188 -361
c18.667 -8.66699 38.334 -13 59.001 -13c96 0 144 81 144 243zM190.001 341.999c0 -53.333 5.00098 -97 15.001 -131l188 360c-18.667 8.66699 -38.334 13 -59.001 13c-96 0 -144 -80.667 -144 -242z" />
    <glyph glyph-name="Ugrave" unicode="&#xd9;" horiz-adv-x="673" 
d="M604 683l0.00195312 -432c0 -84.667 -23.333 -150.167 -70 -196.5s-112.667 -69.5 -198 -69.5s-151.333 23.167 -198 69.5s-70 111.833 -70 196.5v432l7 6h56c60 0 90 -32 90 -96v-344c0 -48 9.16699 -83.667 27.5 -107s47.666 -35 87.999 -35s69.5 11.667 87.5 35
s27 59 27 107v434c20 4 45.667 6 77 6s56.666 -2 75.999 -6zM244.002 934l221 -135c-5.33301 -34.667 -19.333 -58.667 -42 -72l-238 94c2 20.667 9 42.167 21 64.5s24.667 38.5 38 48.5z" />
    <glyph glyph-name="Uacute" unicode="&#xda;" horiz-adv-x="673" 
d="M604 683l0.00195312 -432c0 -84.667 -23.333 -150.167 -70 -196.5s-112.667 -69.5 -198 -69.5s-151.333 23.167 -198 69.5s-70 111.833 -70 196.5v432l7 6h56c60 0 90 -32 90 -96v-344c0 -48 9.16699 -83.667 27.5 -107s47.666 -35 87.999 -35s69.5 11.667 87.5 35
s27 59 27 107v434c20 4 45.667 6 77 6s56.666 -2 75.999 -6zM213.002 799l220.999 135.001c13.333 -10 26 -26.167 38 -48.5s19 -43.833 21 -64.5l-238 -94c-10 6 -19.167 16.167 -27.5 30.5s-13.166 28.166 -14.499 41.499z" />
    <glyph glyph-name="Ucircumflex" unicode="&#xdb;" horiz-adv-x="673" 
d="M604 683l0.00195312 -432c0 -84.667 -23.333 -150.167 -70 -196.5s-112.667 -69.5 -198 -69.5s-151.333 23.167 -198 69.5s-70 111.833 -70 196.5v432l7 6h56c60 0 90 -32 90 -96v-344c0 -48 9.16699 -83.667 27.5 -107s47.666 -35 87.999 -35s69.5 11.667 87.5 35
s27 59 27 107v434c20 4 45.667 6 77 6s56.666 -2 75.999 -6zM449.002 735l-117.001 75l-119 -86c-11.333 4 -23.5 12.167 -36.5 24.5s-21.167 24.833 -24.5 37.5l118 120c20.667 4.66699 41.334 7 62.001 7s41.667 -2 63 -6l113 -110c-4 -14 -12 -26.667 -24 -38
s-23.667 -19.333 -35 -24z" />
    <glyph glyph-name="Udieresis" unicode="&#xdc;" horiz-adv-x="673" 
d="M604 683l0.00195312 -432c0 -84.667 -23.333 -150.167 -70 -196.5s-112.667 -69.5 -198 -69.5s-151.333 23.167 -198 69.5s-70 111.833 -70 196.5v432l7 6h56c60 0 90 -32 90 -96v-344c0 -48 9.16699 -83.667 27.5 -107s47.666 -35 87.999 -35s69.5 11.667 87.5 35
s27 59 27 107v434c20 4 45.667 6 77 6s56.666 -2 75.999 -6zM389.002 850c18.667 10.667 39 16 61 16s41.333 -5.33301 58 -16c8 -10.667 12 -27.167 12 -49.5s-4 -38.5 -12 -48.5c-16 -11.333 -35.333 -17 -58 -17s-43 5.66699 -61 17c-9.33301 10 -14 26 -14 48
s4.66699 38.667 14 50zM217.002 866c22.667 0 43.333 -5.33203 62 -15.999c8 -9.33301 12 -25.833 12 -49.5s-4 -39.834 -12 -48.501c-18 -11.333 -38.667 -17 -62 -17s-42.333 5.66699 -57 17c-8 10 -12 26.167 -12 48.5s4 38.833 12 49.5c15.333 10.667 34.333 16 57 16z
" />
    <glyph glyph-name="Yacute" unicode="&#xdd;" horiz-adv-x="526" 
d="M318 505l70.999 178c16.667 4 38.5 6 65.5 6s50.833 -3.66699 71.5 -11l6 -9l-193 -458v-211c-20 -4 -45.667 -6 -77 -6s-56.666 2 -75.999 6v215l-193 450c31.333 17.333 60 26 86 26s45 -4.66699 57 -14s22.333 -25 31 -47l52 -130c16 -41.333 31 -88.333 45 -141h6
c10.667 43.333 26.667 92 48 146zM144.999 799l220.999 135.001c13.333 -10 26 -26.167 38 -48.5s19 -43.833 21 -64.5l-238 -94c-10 6 -19.167 16.167 -27.5 30.5s-13.166 28.166 -14.499 41.499z" />
    <glyph glyph-name="Thorn" unicode="&#xde;" horiz-adv-x="588" 
d="M78 0v683c19.333 4 44.666 6 75.999 6s57 -2 77 -6v-95c18 0.666992 45 1 81 1c74.667 0 134 -18.5 178 -55.5s66 -93.333 66 -169s-22.333 -132.5 -67 -170.5s-103.667 -57 -177 -57h-81v-137c-20 -4 -45.667 -6 -77 -6s-56.666 2 -75.999 6zM299 471l-68.001 1v-219
c38.667 1.33301 61.334 2 68.001 2c67.333 0 101 36 101 108s-33.667 108 -101 108z" />
    <glyph glyph-name="germandbls" unicode="&#xdf;" horiz-adv-x="653" 
d="M97 0l-0.00195312 364.006l-86 -1c-4 16.667 -6 35.667 -6 57s2 40.666 6 57.999l86 -1v23c0 64.667 21.333 114.167 64 148.5s100.5 51.5 173.5 51.5s131.833 -18.833 176.5 -56.5s67 -88.167 67 -151.5c0 -24.667 -5.66699 -50.334 -17 -77.001
c-21.333 -4.66699 -37.666 -12.834 -48.999 -24.501s-17 -23.667 -17 -36s7.66699 -25.833 23 -40.5l38 -37c47.333 -46 71 -92.333 71 -139s-18.5 -83.834 -55.5 -111.501s-82 -41.5 -135 -41.5s-99.833 9.66699 -140.5 29c0.666992 16.667 4.83398 35.167 12.501 55.5
s17.167 36.166 28.5 47.499c26.667 -13.333 50 -20 70 -20s35.5 4 46.5 12s16.5 19.667 16.5 35s-10.333 32.666 -31 51.999l-40 37c-42 38.667 -63 76 -63 112c0 22 7.83301 44 23.5 66s37.167 39 64.5 51c1.33301 13.333 2 23 2 29c0 26.667 -8 49.167 -24 67.5
s-38.333 27.5 -67 27.5c-58 0 -87 -34 -87 -102v-484c-22 -4 -47.167 -6 -75.5 -6s-53.5 2 -75.5 6z" />
    <glyph glyph-name="agrave" unicode="&#xe0;" horiz-adv-x="512" 
d="M481 69c-2.66699 -13.333 -8.83105 -27.6689 -18.498 -43.002s-19.167 -26.666 -28.5 -33.999c-46 2 -80.667 19.667 -104 53c-42.667 -40 -89.834 -60 -141.501 -60s-90.667 15.333 -117 46s-39.5 65.667 -39.5 105c0 56.667 18.833 99.667 56.5 129s84.5 44 140.5 44
c22 0 47 -1 75 -3v22c0 44 -22.667 66 -68 66c-28.667 0 -78.334 -10.667 -149.001 -32c-20 23.333 -32 58 -36 104c31.333 13.333 68.5 24 111.5 32s81.167 12 114.5 12c50 0 91.833 -13.833 125.5 -41.5s50.5 -70.5 50.5 -128.5v-204
c0 -31.333 9.33301 -53.666 28 -66.999zM226.003 95.9971c26 0 52 11 78 33v83c-14.667 0.666992 -34.667 1 -60 1c-44.667 0 -67 -22.333 -67 -67c0 -14 4.5 -25.833 13.5 -35.5s20.833 -14.5 35.5 -14.5zM196.003 764.997l154 -167.001
c-4.66699 -13.333 -13 -25.333 -25 -36s-24.333 -18 -37 -22l-183 138c6 18.667 18 36.334 36 53.001s36.333 28 55 34z" />
    <glyph glyph-name="aacute" unicode="&#xe1;" horiz-adv-x="512" 
d="M481 69c-2.66699 -13.333 -8.83105 -27.6689 -18.498 -43.002s-19.167 -26.666 -28.5 -33.999c-46 2 -80.667 19.667 -104 53c-42.667 -40 -89.834 -60 -141.501 -60s-90.667 15.333 -117 46s-39.5 65.667 -39.5 105c0 56.667 18.833 99.667 56.5 129s84.5 44 140.5 44
c22 0 47 -1 75 -3v22c0 44 -22.667 66 -68 66c-28.667 0 -78.334 -10.667 -149.001 -32c-20 23.333 -32 58 -36 104c31.333 13.333 68.5 24 111.5 32s81.167 12 114.5 12c50 0 91.833 -13.833 125.5 -41.5s50.5 -70.5 50.5 -128.5v-204
c0 -31.333 9.33301 -53.666 28 -66.999zM226.003 95.9971c26 0 52 11 78 33v83c-14.667 0.666992 -34.667 1 -60 1c-44.667 0 -67 -22.333 -67 -67c0 -14 4.5 -25.833 13.5 -35.5s20.833 -14.5 35.5 -14.5zM158.003 597.997l154.002 167.001
c18.667 -6 37.167 -17.333 55.5 -34s30.166 -34.334 35.499 -53.001l-183 -138c-12.667 4 -24.834 11.333 -36.501 22s-20.167 22.667 -25.5 36z" />
    <glyph glyph-name="acircumflex" unicode="&#xe2;" horiz-adv-x="512" 
d="M481 69c-2.66699 -13.333 -8.83105 -27.6689 -18.498 -43.002s-19.167 -26.666 -28.5 -33.999c-46 2 -80.667 19.667 -104 53c-42.667 -40 -89.834 -60 -141.501 -60s-90.667 15.333 -117 46s-39.5 65.667 -39.5 105c0 56.667 18.833 99.667 56.5 129s84.5 44 140.5 44
c22 0 47 -1 75 -3v22c0 44 -22.667 66 -68 66c-28.667 0 -78.334 -10.667 -149.001 -32c-20 23.333 -32 58 -36 104c31.333 13.333 68.5 24 111.5 32s81.167 12 114.5 12c50 0 91.833 -13.833 125.5 -41.5s50.5 -70.5 50.5 -128.5v-204
c0 -31.333 9.33301 -53.666 28 -66.999zM226.003 95.9971c26 0 52 11 78 33v83c-14.667 0.666992 -34.667 1 -60 1c-44.667 0 -67 -22.333 -67 -67c0 -14 4.5 -25.833 13.5 -35.5s20.833 -14.5 35.5 -14.5zM345.003 550.997l-92 87l-97 -94
c-28.667 11.333 -50.667 30.333 -66 57l105 136c16 5.33301 29.667 8 41 8c35.333 0 62.333 -2.66699 81 -8l93 -125c-5.33301 -14 -14.5 -26.667 -27.5 -38s-25.5 -19 -37.5 -23z" />
    <glyph glyph-name="atilde" unicode="&#xe3;" horiz-adv-x="512" 
d="M481 69c-2.66699 -13.333 -8.83105 -27.6689 -18.498 -43.002s-19.167 -26.666 -28.5 -33.999c-46 2 -80.667 19.667 -104 53c-42.667 -40 -89.834 -60 -141.501 -60s-90.667 15.333 -117 46s-39.5 65.667 -39.5 105c0 56.667 18.833 99.667 56.5 129s84.5 44 140.5 44
c22 0 47 -1 75 -3v22c0 44 -22.667 66 -68 66c-28.667 0 -78.334 -10.667 -149.001 -32c-20 23.333 -32 58 -36 104c31.333 13.333 68.5 24 111.5 32s81.167 12 114.5 12c50 0 91.833 -13.833 125.5 -41.5s50.5 -70.5 50.5 -128.5v-204
c0 -31.333 9.33301 -53.666 28 -66.999zM226.003 95.9971c26 0 52 11 78 33v83c-14.667 0.666992 -34.667 1 -60 1c-44.667 0 -67 -22.333 -67 -67c0 -14 4.5 -25.833 13.5 -35.5s20.833 -14.5 35.5 -14.5zM251.003 571.997l-45.001 22.999c-10.667 6 -21.167 9 -31.5 9
s-21.5 -8 -33.5 -24l-9 -13c-14 0 -28 4.33301 -42 13s-23.333 19.334 -28 32.001l8 19c11.333 26 27 46.833 47 62.5s41.333 23.5 64 23.5s44.667 -5.66699 66 -17l45 -23c10.667 -6 21.334 -9 32.001 -9s21.667 8 33 24l9 12c14 0 27.833 -4.16699 41.5 -12.5
s23.167 -18.833 28.5 -31.5l-8 -20c-11.333 -26 -27.166 -46.833 -47.499 -62.5s-41.333 -23.5 -63 -23.5s-43.834 6 -66.501 18z" />
    <glyph glyph-name="adieresis" unicode="&#xe4;" horiz-adv-x="512" 
d="M481 69c-2.66699 -13.333 -8.83105 -27.6689 -18.498 -43.002s-19.167 -26.666 -28.5 -33.999c-46 2 -80.667 19.667 -104 53c-42.667 -40 -89.834 -60 -141.501 -60s-90.667 15.333 -117 46s-39.5 65.667 -39.5 105c0 56.667 18.833 99.667 56.5 129s84.5 44 140.5 44
c22 0 47 -1 75 -3v22c0 44 -22.667 66 -68 66c-28.667 0 -78.334 -10.667 -149.001 -32c-20 23.333 -32 58 -36 104c31.333 13.333 68.5 24 111.5 32s81.167 12 114.5 12c50 0 91.833 -13.833 125.5 -41.5s50.5 -70.5 50.5 -128.5v-204
c0 -31.333 9.33301 -53.666 28 -66.999zM226.003 95.9971c26 0 52 11 78 33v83c-14.667 0.666992 -34.667 1 -60 1c-44.667 0 -67 -22.333 -67 -67c0 -14 4.5 -25.833 13.5 -35.5s20.833 -14.5 35.5 -14.5zM278.003 621.997c0 18 2.66699 34.001 8 48.001
c18 10.667 39 16 63 16s44.667 -5.33301 62 -16c6 -14 9 -30.333 9 -49s-3 -34.334 -9 -47.001c-17.333 -10.667 -38 -16 -62 -16s-45 5.33301 -63 16c-5.33301 14 -8 30 -8 48zM78.0029 621.998c0 18 3 33.999 9 47.999c17.333 10.667 38 16 62 16s45 -5.33301 63 -16
c5.33301 -14 8 -30.167 8 -48.5s-2.66699 -34.166 -8 -47.499c-18 -10.667 -39 -16 -63 -16s-44.667 5.33301 -62 16c-6 14 -9 30 -9 48z" />
    <glyph glyph-name="aring" unicode="&#xe5;" horiz-adv-x="512" 
d="M481 69c-2.66699 -13.333 -8.83105 -27.6689 -18.498 -43.002s-19.167 -26.666 -28.5 -33.999c-46 2 -80.667 19.667 -104 53c-42.667 -40 -89.834 -60 -141.501 -60s-90.667 15.333 -117 46s-39.5 65.667 -39.5 105c0 56.667 18.833 99.667 56.5 129s84.5 44 140.5 44
c22 0 47 -1 75 -3v22c0 44 -22.667 66 -68 66c-28.667 0 -78.334 -10.667 -149.001 -32c-20 23.333 -32 58 -36 104c31.333 13.333 68.5 24 111.5 32s81.167 12 114.5 12c50 0 91.833 -13.833 125.5 -41.5s50.5 -70.5 50.5 -128.5v-204
c0 -31.333 9.33301 -53.666 28 -66.999zM226.003 95.9971c26 0 52 11 78 33v83c-14.667 0.666992 -34.667 1 -60 1c-44.667 0 -67 -22.333 -67 -67c0 -14 4.5 -25.833 13.5 -35.5s20.833 -14.5 35.5 -14.5zM149.003 578.497c-25.333 24.333 -38 54.333 -38 90
s12.667 65.667 38 90s58.666 36.5 99.999 36.5s74.666 -12.167 99.999 -36.5s38 -54.333 38 -90s-12.667 -65.667 -38 -90s-58.666 -36.5 -99.999 -36.5s-74.666 12.167 -99.999 36.5zM200.003 668.997c0 -14.667 4.5 -26.834 13.5 -36.501s20.833 -14.5 35.5 -14.5
s26.5 4.83301 35.5 14.5s13.5 21.834 13.5 36.501s-4.5 26.834 -13.5 36.501s-20.833 14.5 -35.5 14.5s-26.5 -4.83301 -35.5 -14.5s-13.5 -21.834 -13.5 -36.501z" />
    <glyph glyph-name="ae" unicode="&#xe6;" horiz-adv-x="759" 
d="M715 201l-261.998 -0.000976562c2 -32 9.66699 -56.833 23 -74.5s37.166 -26.5 71.499 -26.5s76.5 10.333 126.5 31c21.333 -21.333 34.666 -51 39.999 -89c-52.667 -38 -116.334 -57 -191.001 -57s-130.667 24.333 -168 73c-48.667 -48.667 -106 -73 -172 -73
c-48 0 -85.167 15.167 -111.5 45.5s-39.5 65.833 -39.5 106.5c0 56 18.833 98.667 56.5 128s84.5 44 140.5 44c23.333 0 48.333 -1 75 -3v22c0 44 -22.333 66 -67 66c-33.333 0 -83.333 -10.667 -150 -32c-20 23.333 -32 58 -36 104c70.667 29.333 142.334 44 215.001 44
c52.667 0 94 -16 124 -48c36 34 80 51 132 51c64 0 114.167 -19.833 150.5 -59.5s54.5 -90.5 54.5 -152.5c0 -37.333 -4 -70.666 -12 -99.999zM226.002 95.999c32.667 0 62.668 14.667 90.001 44c-6.66699 23.333 -10.334 47 -11.001 71c-14.667 1.33301 -35 2 -61 2
c-44.667 0 -67 -22.333 -67 -67c0 -14 4.5 -25.833 13.5 -35.5s20.833 -14.5 35.5 -14.5zM521.003 406.999c-22.667 0 -39.333 -8.33301 -50 -25s-17 -42.667 -19 -78h137v11c0 61.333 -22.667 92 -68 92z" />
    <glyph glyph-name="ccedilla" unicode="&#xe7;" horiz-adv-x="474" 
d="M187 -77c7.33301 27.333 14.332 48.9961 20.999 64.9961c-56.667 9.33301 -100.167 37 -130.5 83s-45.5 105 -45.5 177c0 89.333 21.667 155.833 65 199.5s94.5 65.5 153.5 65.5s106.5 -15.333 142.5 -46s54 -70 54 -118c0 -24 -6.5 -42.167 -19.5 -54.5
s-31.333 -18.5 -55 -18.5s-43.5 1.66699 -59.5 5v9c0 37.333 -3.83301 65.333 -11.5 84s-24 28 -49 28s-42.667 -12.167 -53 -36.5s-15.5 -63.166 -15.5 -116.499s7.5 -91.166 22.5 -113.499s38.167 -33.5 69.5 -33.5s68 14.333 110 43c12 -6.66699 23.667 -18.5 35 -35.5
s18.666 -32.833 21.999 -47.5c-39.333 -41.333 -92 -66.333 -158 -75c-3.33301 -5.33301 -6.33301 -11.666 -9 -18.999c30.667 -2 55 -11.167 73 -27.5s27 -38.833 27 -67.5s-12.667 -53.167 -38 -73.5s-56.666 -30.5 -93.999 -30.5s-67 7.66699 -89 23
c1.33301 26.667 9.33301 48.334 24 65.001c14.667 -8.66699 30.334 -13 47.001 -13c25.333 0 38 10 38 30c0 9.33301 -3.16699 16.833 -9.5 22.5s-13.5 8.5 -21.5 8.5s-16 -1.33301 -24 -4c-10 4.66699 -17.333 12 -22 22z" />
    <glyph glyph-name="egrave" unicode="&#xe8;" horiz-adv-x="497" 
d="M448 201l-265.001 0.000976562c2 -32 10 -56.833 24 -74.5s38.667 -26.5 74 -26.5s77.333 10.333 126 31c20.667 -20 34.334 -49.667 41.001 -89c-54 -38 -119.333 -57 -196 -57c-41.333 0 -77 7.16699 -107 21.5s-53 34.166 -69 59.499c-29.333 48.667 -44 111 -44 187
s18.333 138.333 55 187s89.667 73 159 73s122.5 -19.833 159.5 -59.5s55.5 -90.5 55.5 -152.5c0 -34.667 -4.33301 -68 -13 -100zM305.999 381.501c-11.333 17 -28.833 25.5 -52.5 25.5s-41 -8.33301 -52 -25s-17.5 -42.667 -19.5 -78h141v12
c0 26.667 -5.66699 48.5 -17 65.5zM201.999 765.001l154 -167.001c-4.66699 -13.333 -13 -25.333 -25 -36s-24.333 -18 -37 -22l-183 138c6 18.667 18 36.334 36 53.001s36.333 28 55 34z" />
    <glyph glyph-name="eacute" unicode="&#xe9;" horiz-adv-x="497" 
d="M448 201l-265.001 0.000976562c2 -32 10 -56.833 24 -74.5s38.667 -26.5 74 -26.5s77.333 10.333 126 31c20.667 -20 34.334 -49.667 41.001 -89c-54 -38 -119.333 -57 -196 -57c-41.333 0 -77 7.16699 -107 21.5s-53 34.166 -69 59.499c-29.333 48.667 -44 111 -44 187
s18.333 138.333 55 187s89.667 73 159 73s122.5 -19.833 159.5 -59.5s55.5 -90.5 55.5 -152.5c0 -34.667 -4.33301 -68 -13 -100zM305.999 381.501c-11.333 17 -28.833 25.5 -52.5 25.5s-41 -8.33301 -52 -25s-17.5 -42.667 -19.5 -78h141v12
c0 26.667 -5.66699 48.5 -17 65.5zM163.999 598.001l154.002 167.001c18.667 -6 37.167 -17.333 55.5 -34s30.166 -34.334 35.499 -53.001l-183 -138c-12.667 4 -24.834 11.333 -36.501 22s-20.167 22.667 -25.5 36z" />
    <glyph glyph-name="ecircumflex" unicode="&#xea;" horiz-adv-x="497" 
d="M448 201l-265.001 0.000976562c2 -32 10 -56.833 24 -74.5s38.667 -26.5 74 -26.5s77.333 10.333 126 31c20.667 -20 34.334 -49.667 41.001 -89c-54 -38 -119.333 -57 -196 -57c-41.333 0 -77 7.16699 -107 21.5s-53 34.166 -69 59.499c-29.333 48.667 -44 111 -44 187
s18.333 138.333 55 187s89.667 73 159 73s122.5 -19.833 159.5 -59.5s55.5 -90.5 55.5 -152.5c0 -34.667 -4.33301 -68 -13 -100zM305.999 381.501c-11.333 17 -28.833 25.5 -52.5 25.5s-41 -8.33301 -52 -25s-17.5 -42.667 -19.5 -78h141v12
c0 26.667 -5.66699 48.5 -17 65.5zM350.999 551.001l-92 87l-97 -94c-28.667 11.333 -50.667 30.333 -66 57l105 136c16 5.33301 29.667 8 41 8c35.333 0 62.333 -2.66699 81 -8l93 -125c-5.33301 -14 -14.5 -26.667 -27.5 -38s-25.5 -19 -37.5 -23z" />
    <glyph glyph-name="edieresis" unicode="&#xeb;" horiz-adv-x="497" 
d="M448 201l-265.001 0.000976562c2 -32 10 -56.833 24 -74.5s38.667 -26.5 74 -26.5s77.333 10.333 126 31c20.667 -20 34.334 -49.667 41.001 -89c-54 -38 -119.333 -57 -196 -57c-41.333 0 -77 7.16699 -107 21.5s-53 34.166 -69 59.499c-29.333 48.667 -44 111 -44 187
s18.333 138.333 55 187s89.667 73 159 73s122.5 -19.833 159.5 -59.5s55.5 -90.5 55.5 -152.5c0 -34.667 -4.33301 -68 -13 -100zM305.999 381.501c-11.333 17 -28.833 25.5 -52.5 25.5s-41 -8.33301 -52 -25s-17.5 -42.667 -19.5 -78h141v12
c0 26.667 -5.66699 48.5 -17 65.5zM283.999 622.001c0 18 2.66699 34.001 8 48.001c18 10.667 39 16 63 16s44.667 -5.33301 62 -16c6 -14 9 -30.333 9 -49s-3 -34.334 -9 -47.001c-17.333 -10.667 -38 -16 -62 -16s-45 5.33301 -63 16c-5.33301 14 -8 30 -8 48z
M83.999 622.002c0 18 3 33.999 9 47.999c17.333 10.667 38 16 62 16s45 -5.33301 63 -16c5.33301 -14 8 -30.167 8 -48.5s-2.66699 -34.166 -8 -47.499c-18 -10.667 -39 -16 -63 -16s-44.667 5.33301 -62 16c-6 14 -9 30 -9 48z" />
    <glyph glyph-name="igrave" unicode="&#xec;" horiz-adv-x="287" 
d="M227 387v-387c-20 -4 -44.333 -6 -73 -6s-54 2 -76 6v336c0 38 -15.667 57 -47 57h-14c-4 16.667 -6 34 -6 52s2 35.333 6 52c33.333 3.33301 61.666 5 84.999 5h20c32.667 0 58.334 -10.333 77.001 -31s28 -48.667 28 -84zM77 765l154 -167.001
c-4.66699 -13.333 -13 -25.333 -25 -36s-24.333 -18 -37 -22l-183 138c6 18.667 18 36.334 36 53.001s36.333 28 55 34z" />
    <glyph glyph-name="iacute" unicode="&#xed;" horiz-adv-x="287" 
d="M227 387v-387c-20 -4 -44.333 -6 -73 -6s-54 2 -76 6v336c0 38 -15.667 57 -47 57h-14c-4 16.667 -6 34 -6 52s2 35.333 6 52c33.333 3.33301 61.666 5 84.999 5h20c32.667 0 58.334 -10.333 77.001 -31s28 -48.667 28 -84zM40 598l154.002 167.001
c18.667 -6 37.167 -17.333 55.5 -34s30.166 -34.334 35.499 -53.001l-183 -138c-12.667 4 -24.834 11.333 -36.501 22s-20.167 22.667 -25.5 36z" />
    <glyph glyph-name="icircumflex" unicode="&#xee;" horiz-adv-x="287" 
d="M227 387v-387c-20 -4 -44.333 -6 -73 -6s-54 2 -76 6v336c0 38 -15.667 57 -47 57h-14c-4 16.667 -6 34 -6 52s2 35.333 6 52c33.333 3.33301 61.666 5 84.999 5h20c32.667 0 58.334 -10.333 77.001 -31s28 -48.667 28 -84zM227 551l-92 87l-97 -94
c-28.667 11.333 -50.667 30.333 -66 57l105 136c16 5.33301 29.667 8 41 8c35.333 0 62.333 -2.66699 81 -8l93 -125c-5.33301 -14 -14.5 -26.667 -27.5 -38s-25.5 -19 -37.5 -23z" />
    <glyph glyph-name="idieresis" unicode="&#xef;" horiz-adv-x="287" 
d="M227 387v-387c-20 -4 -44.333 -6 -73 -6s-54 2 -76 6v336c0 38 -15.667 57 -47 57h-14c-4 16.667 -6 34 -6 52s2 35.333 6 52c33.333 3.33301 61.666 5 84.999 5h20c32.667 0 58.334 -10.333 77.001 -31s28 -48.667 28 -84zM160 622c0 18 2.66699 34.001 8 48.001
c18 10.667 39 16 63 16s44.667 -5.33301 62 -16c6 -14 9 -30.333 9 -49s-3 -34.334 -9 -47.001c-17.333 -10.667 -38 -16 -62 -16s-45 5.33301 -63 16c-5.33301 14 -8 30 -8 48zM-40 622.001c0 18 3 33.999 9 47.999c17.333 10.667 38 16 62 16s45 -5.33301 63 -16
c5.33301 -14 8 -30.167 8 -48.5s-2.66699 -34.166 -8 -47.499c-18 -10.667 -39 -16 -63 -16s-44.667 5.33301 -62 16c-6 14 -9 30 -9 48z" />
    <glyph glyph-name="eth" unicode="&#xf0;" horiz-adv-x="519" 
d="M88 571l72.998 49.999c-20.667 14.667 -42 28.334 -64 41.001c2 17.333 8.83301 35 20.5 53s24.167 30.333 37.5 37c39.333 -16.667 76 -36.334 110 -59.001l85 58c24.667 -17.333 40.667 -40.333 48 -69l-64 -44c102.667 -98.667 154 -228.334 154 -389.001
c0 -89.333 -24 -157.666 -72 -204.999c-39.333 -39.333 -91.666 -59 -156.999 -59s-117.666 19.667 -156.999 59c-47.333 46.667 -71 112.334 -71 197.001s24 149 72 193c39.333 35.333 87.333 53 144 53c14.667 0 29 -2.66699 43 -8c-12 29.333 -32.667 58 -62 86l-92 -63
c-25.333 17.333 -41.333 40.333 -48 69zM319.998 134.999c10.667 27.333 15.9971 64.832 15.9971 112.499s-3.66699 85.834 -11 114.501c-23.333 12.667 -44.666 19 -63.999 19c-52 0 -78 -47 -78 -141c0 -44.667 5.33301 -80.167 16 -106.5s30.834 -39.5 60.501 -39.5
s49.834 13.667 60.501 41z" />
    <glyph glyph-name="ntilde" unicode="&#xf1;" horiz-adv-x="547" 
d="M487 331l0.000976562 -207.999c0 -42.667 8 -75.667 24 -99c-26 -21.333 -55.167 -32 -87.5 -32s-54.666 7.66699 -66.999 23s-18.5 38.666 -18.5 69.999v218c0 24.667 -3.33301 42.667 -10 54s-18.334 17 -35.001 17c-28.667 0 -56 -13 -82 -39v-335
c-20.667 -4 -45.167 -6 -73.5 -6s-53.5 2 -75.5 6v498l7 7h56c41.333 0 67.666 -20 78.999 -60c48.667 41.333 96 62 142 62s81 -16 105 -48s36 -74.667 36 -128zM282.001 572.001l-45.001 22.999c-10.667 6 -21.167 9 -31.5 9s-21.5 -8 -33.5 -24l-9 -13
c-14 0 -28 4.33301 -42 13s-23.333 19.334 -28 32.001l8 19c11.333 26 27 46.833 47 62.5s41.333 23.5 64 23.5s44.667 -5.66699 66 -17l45 -23c10.667 -6 21.334 -9 32.001 -9s21.667 8 33 24l9 12c14 0 27.833 -4.16699 41.5 -12.5s23.167 -18.833 28.5 -31.5l-8 -20
c-11.333 -26 -27.166 -46.833 -47.499 -62.5s-41.333 -23.5 -63 -23.5s-43.834 6 -66.501 18z" />
    <glyph glyph-name="ograve" unicode="&#xf2;" horiz-adv-x="522" 
d="M418 455c48 -48 72 -116.5 72 -205.5s-24 -157.5 -72 -205.5c-39.333 -39.333 -91.666 -59 -156.999 -59s-117.666 19.667 -156.999 59c-48 48 -72 116.5 -72 205.5s24 157.5 72 205.5c39.333 38.667 91.666 58 156.999 58s117.666 -19.333 156.999 -58zM185 249
c0 -48.667 5.16699 -86.167 15.5 -112.5s30.5 -39.5 60.5 -39.5s50.167 13.167 60.5 39.5s15.5 63.833 15.5 112.5s-5.16699 86.334 -15.5 113.001s-30.5 40 -60.5 40s-50.167 -13.333 -60.5 -40s-15.5 -64.334 -15.5 -113.001zM207 765l154 -167.001
c-4.66699 -13.333 -13 -25.333 -25 -36s-24.333 -18 -37 -22l-183 138c6 18.667 18 36.334 36 53.001s36.333 28 55 34z" />
    <glyph glyph-name="oacute" unicode="&#xf3;" horiz-adv-x="522" 
d="M418 455c48 -48 72 -116.5 72 -205.5s-24 -157.5 -72 -205.5c-39.333 -39.333 -91.666 -59 -156.999 -59s-117.666 19.667 -156.999 59c-48 48 -72 116.5 -72 205.5s24 157.5 72 205.5c39.333 38.667 91.666 58 156.999 58s117.666 -19.333 156.999 -58zM185 249
c0 -48.667 5.16699 -86.167 15.5 -112.5s30.5 -39.5 60.5 -39.5s50.167 13.167 60.5 39.5s15.5 63.833 15.5 112.5s-5.16699 86.334 -15.5 113.001s-30.5 40 -60.5 40s-50.167 -13.333 -60.5 -40s-15.5 -64.334 -15.5 -113.001zM169 598l154.002 167.001
c18.667 -6 37.167 -17.333 55.5 -34s30.166 -34.334 35.499 -53.001l-183 -138c-12.667 4 -24.834 11.333 -36.501 22s-20.167 22.667 -25.5 36z" />
    <glyph glyph-name="ocircumflex" unicode="&#xf4;" horiz-adv-x="522" 
d="M418 455c48 -48 72 -116.5 72 -205.5s-24 -157.5 -72 -205.5c-39.333 -39.333 -91.666 -59 -156.999 -59s-117.666 19.667 -156.999 59c-48 48 -72 116.5 -72 205.5s24 157.5 72 205.5c39.333 38.667 91.666 58 156.999 58s117.666 -19.333 156.999 -58zM185 249
c0 -48.667 5.16699 -86.167 15.5 -112.5s30.5 -39.5 60.5 -39.5s50.167 13.167 60.5 39.5s15.5 63.833 15.5 112.5s-5.16699 86.334 -15.5 113.001s-30.5 40 -60.5 40s-50.167 -13.333 -60.5 -40s-15.5 -64.334 -15.5 -113.001zM357 551l-92 87l-97 -94
c-28.667 11.333 -50.667 30.333 -66 57l105 136c16 5.33301 29.667 8 41 8c35.333 0 62.333 -2.66699 81 -8l93 -125c-5.33301 -14 -14.5 -26.667 -27.5 -38s-25.5 -19 -37.5 -23z" />
    <glyph glyph-name="otilde" unicode="&#xf5;" horiz-adv-x="522" 
d="M418 455c48 -48 72 -116.5 72 -205.5s-24 -157.5 -72 -205.5c-39.333 -39.333 -91.666 -59 -156.999 -59s-117.666 19.667 -156.999 59c-48 48 -72 116.5 -72 205.5s24 157.5 72 205.5c39.333 38.667 91.666 58 156.999 58s117.666 -19.333 156.999 -58zM185 249
c0 -48.667 5.16699 -86.167 15.5 -112.5s30.5 -39.5 60.5 -39.5s50.167 13.167 60.5 39.5s15.5 63.833 15.5 112.5s-5.16699 86.334 -15.5 113.001s-30.5 40 -60.5 40s-50.167 -13.333 -60.5 -40s-15.5 -64.334 -15.5 -113.001zM263 572l-45.001 22.999
c-10.667 6 -21.167 9 -31.5 9s-21.5 -8 -33.5 -24l-9 -13c-14 0 -28 4.33301 -42 13s-23.333 19.334 -28 32.001l8 19c11.333 26 27 46.833 47 62.5s41.333 23.5 64 23.5s44.667 -5.66699 66 -17l45 -23c10.667 -6 21.334 -9 32.001 -9s21.667 8 33 24l9 12
c14 0 27.833 -4.16699 41.5 -12.5s23.167 -18.833 28.5 -31.5l-8 -20c-11.333 -26 -27.166 -46.833 -47.499 -62.5s-41.333 -23.5 -63 -23.5s-43.834 6 -66.501 18z" />
    <glyph glyph-name="odieresis" unicode="&#xf6;" horiz-adv-x="522" 
d="M418 455c48 -48 72 -116.5 72 -205.5s-24 -157.5 -72 -205.5c-39.333 -39.333 -91.666 -59 -156.999 -59s-117.666 19.667 -156.999 59c-48 48 -72 116.5 -72 205.5s24 157.5 72 205.5c39.333 38.667 91.666 58 156.999 58s117.666 -19.333 156.999 -58zM185 249
c0 -48.667 5.16699 -86.167 15.5 -112.5s30.5 -39.5 60.5 -39.5s50.167 13.167 60.5 39.5s15.5 63.833 15.5 112.5s-5.16699 86.334 -15.5 113.001s-30.5 40 -60.5 40s-50.167 -13.333 -60.5 -40s-15.5 -64.334 -15.5 -113.001zM290 622c0 18 2.66699 34.001 8 48.001
c18 10.667 39 16 63 16s44.667 -5.33301 62 -16c6 -14 9 -30.333 9 -49s-3 -34.334 -9 -47.001c-17.333 -10.667 -38 -16 -62 -16s-45 5.33301 -63 16c-5.33301 14 -8 30 -8 48zM90 622.001c0 18 3 33.999 9 47.999c17.333 10.667 38 16 62 16s45 -5.33301 63 -16
c5.33301 -14 8 -30.167 8 -48.5s-2.66699 -34.166 -8 -47.499c-18 -10.667 -39 -16 -63 -16s-44.667 5.33301 -62 16c-6 14 -9 30 -9 48z" />
    <glyph glyph-name="divide" unicode="&#xf7;" horiz-adv-x="530" 
d="M190 477c0 18.667 3.33398 35.667 10.001 51c18 10 40.167 15 66.5 15s47.166 -5 62.499 -15c7.33301 -14.667 11 -31.667 11 -51s-3.66699 -36.333 -11 -51c-14.667 -9.33301 -36 -14 -64 -14s-49.667 4.66699 -65 14c-6.66699 15.333 -10 32.333 -10 51zM200.001 68
c-6.66699 15.333 -10 32.502 -10 51.502s3.33301 36.167 10 51.5c18.667 9.33301 40.667 14 66 14s46.333 -4.66699 63 -14c7.33301 -14.667 11 -31.834 11 -51.501s-3.66699 -36.834 -11 -51.501c-16.667 -9.33301 -38.5 -14 -65.5 -14s-48.167 4.66699 -63.5 14z
M477.001 239.002h-424c-4 16 -6 35.833 -6 59.5s2 43.834 6 60.501h424c4 -16.667 6 -36.834 6 -60.501s-2 -43.5 -6 -59.5z" />
    <glyph glyph-name="oslash" unicode="&#xf8;" horiz-adv-x="525" 
d="M420 455c47.333 -46.667 71.002 -115.501 71.002 -206.501s-23.667 -159.167 -71 -204.5c-38.667 -39.333 -91.334 -59 -158.001 -59c-33.333 0 -62 4.66699 -86 14l-34 -59c-32 6.66699 -57 20.667 -75 42l36 62c-46 46 -69 114.333 -69 205s23.333 159.334 70 206.001
c39.333 38.667 92 58 158 58c31.333 0 59.666 -4.33301 84.999 -13l34 59c32 -8 57 -21.667 75 -41zM353.002 249.999c0 29.333 -1.66699 53 -5 71l-118 -224c10 -4 21 -6 33 -6c60 0 90 53 90 159zM178.002 327.999c-4 -21.333 -6.00098 -47 -6.00098 -77
s1.66699 -54 5 -72l117 223c-9.33301 4 -19.666 6 -30.999 6c-24 0 -43.167 -8 -57.5 -24s-23.5 -34.667 -27.5 -56z" />
    <glyph glyph-name="ugrave" unicode="&#xf9;" horiz-adv-x="549" 
d="M60 167l-0.00195312 208.999c0 42 -8 74.667 -24 98c24.667 21.333 53.5 32 86.5 32s55.667 -7.66699 68 -23s18.5 -38.333 18.5 -69v-219c0 -24.667 3.33301 -42.5 10 -53.5s18.334 -16.5 35.001 -16.5c28.667 0 55.667 12.333 81 37v336c20.667 4 45.334 6 74.001 6
s54 -2 76 -6v-356c0 -36.667 9.33301 -61.667 28 -75c-2.66699 -13.333 -8.66699 -27.166 -18 -41.499s-19 -25.5 -29 -33.5c-53.333 2 -91.333 25.333 -114 70c-50.667 -47.333 -100 -71 -148 -71s-84 16.167 -108 48.5s-36 74.833 -36 127.5zM211.998 764.999
l154 -167.001c-4.66699 -13.333 -13 -25.333 -25 -36s-24.333 -18 -37 -22l-183 138c6 18.667 18 36.334 36 53.001s36.333 28 55 34z" />
    <glyph glyph-name="uacute" unicode="&#xfa;" horiz-adv-x="549" 
d="M60 167l-0.00195312 208.999c0 42 -8 74.667 -24 98c24.667 21.333 53.5 32 86.5 32s55.667 -7.66699 68 -23s18.5 -38.333 18.5 -69v-219c0 -24.667 3.33301 -42.5 10 -53.5s18.334 -16.5 35.001 -16.5c28.667 0 55.667 12.333 81 37v336c20.667 4 45.334 6 74.001 6
s54 -2 76 -6v-356c0 -36.667 9.33301 -61.667 28 -75c-2.66699 -13.333 -8.66699 -27.166 -18 -41.499s-19 -25.5 -29 -33.5c-53.333 2 -91.333 25.333 -114 70c-50.667 -47.333 -100 -71 -148 -71s-84 16.167 -108 48.5s-36 74.833 -36 127.5zM173.998 597.999
l154.002 167.001c18.667 -6 37.167 -17.333 55.5 -34s30.166 -34.334 35.499 -53.001l-183 -138c-12.667 4 -24.834 11.333 -36.501 22s-20.167 22.667 -25.5 36z" />
    <glyph glyph-name="ucircumflex" unicode="&#xfb;" horiz-adv-x="549" 
d="M60 167l-0.00195312 208.999c0 42 -8 74.667 -24 98c24.667 21.333 53.5 32 86.5 32s55.667 -7.66699 68 -23s18.5 -38.333 18.5 -69v-219c0 -24.667 3.33301 -42.5 10 -53.5s18.334 -16.5 35.001 -16.5c28.667 0 55.667 12.333 81 37v336c20.667 4 45.334 6 74.001 6
s54 -2 76 -6v-356c0 -36.667 9.33301 -61.667 28 -75c-2.66699 -13.333 -8.66699 -27.166 -18 -41.499s-19 -25.5 -29 -33.5c-53.333 2 -91.333 25.333 -114 70c-50.667 -47.333 -100 -71 -148 -71s-84 16.167 -108 48.5s-36 74.833 -36 127.5zM361.998 550.999l-92 87
l-97 -94c-28.667 11.333 -50.667 30.333 -66 57l105 136c16 5.33301 29.667 8 41 8c35.333 0 62.333 -2.66699 81 -8l93 -125c-5.33301 -14 -14.5 -26.667 -27.5 -38s-25.5 -19 -37.5 -23z" />
    <glyph glyph-name="udieresis" unicode="&#xfc;" horiz-adv-x="549" 
d="M60 167l-0.00195312 208.999c0 42 -8 74.667 -24 98c24.667 21.333 53.5 32 86.5 32s55.667 -7.66699 68 -23s18.5 -38.333 18.5 -69v-219c0 -24.667 3.33301 -42.5 10 -53.5s18.334 -16.5 35.001 -16.5c28.667 0 55.667 12.333 81 37v336c20.667 4 45.334 6 74.001 6
s54 -2 76 -6v-356c0 -36.667 9.33301 -61.667 28 -75c-2.66699 -13.333 -8.66699 -27.166 -18 -41.499s-19 -25.5 -29 -33.5c-53.333 2 -91.333 25.333 -114 70c-50.667 -47.333 -100 -71 -148 -71s-84 16.167 -108 48.5s-36 74.833 -36 127.5zM294.998 621.999
c0 18 2.66699 34.001 8 48.001c18 10.667 39 16 63 16s44.667 -5.33301 62 -16c6 -14 9 -30.333 9 -49s-3 -34.334 -9 -47.001c-17.333 -10.667 -38 -16 -62 -16s-45 5.33301 -63 16c-5.33301 14 -8 30 -8 48zM94.998 622c0 18 3 33.999 9 47.999c17.333 10.667 38 16 62 16
s45 -5.33301 63 -16c5.33301 -14 8 -30.167 8 -48.5s-2.66699 -34.166 -8 -47.499c-18 -10.667 -39 -16 -63 -16s-44.667 5.33301 -62 16c-6 14 -9 30 -9 48z" />
    <glyph glyph-name="yacute" unicode="&#xfd;" horiz-adv-x="493" 
d="M487 483l-125 -469.001c-20.667 -78 -48.5 -136.333 -83.5 -175s-87.833 -58 -158.5 -58c-40 0 -79.333 6.66699 -118 20v18.5c0 9 2.5 23.167 7.5 42.5s12.5 34.333 22.5 45c34.667 -10 64 -15 88 -15c50 0 83.667 29 101 87l4 14c-56 1.33301 -89.333 22 -100 62
l-119 432c29.333 13.333 56.833 20 82.5 20s44.167 -4.66699 55.5 -14s20 -26 26 -50l50 -198c5.33301 -19.333 13.333 -63.666 24 -132.999c0.666992 -4.66699 3.66699 -7 9 -7l90 393c16.667 4 38.5 6 65.5 6s51.5 -3.66699 73.5 -11zM154 597.999l154.002 167.001
c18.667 -6 37.167 -17.333 55.5 -34s30.166 -34.334 35.499 -53.001l-183 -138c-12.667 4 -24.834 11.333 -36.501 22s-20.167 22.667 -25.5 36z" />
    <glyph glyph-name="thorn" unicode="&#xfe;" horiz-adv-x="533" 
d="M500 264c0 -89.333 -19.168 -157.331 -57.501 -203.998s-84.166 -70 -137.499 -70c-32 0 -65 7.33301 -99 22v-138c0 -32.667 -6.16699 -55.834 -18.5 -69.501s-33.166 -20.5 -62.499 -20.5h-56l-7 7v938l7 7h56c29.333 0 50.166 -6.83301 62.499 -20.5
s18.5 -36.834 18.5 -69.501v-179c34 27.333 72.333 41 115 41c54.667 0 98.167 -22.833 130.5 -68.5s48.5 -104.167 48.5 -175.5zM282.999 389.002c-29.333 0 -55 -13.999 -77 -41.999v-221c28 -16.667 51 -25 69 -25c48.667 0 73 51 73 153c0 45.333 -6 79.166 -18 101.499
s-27.667 33.5 -47 33.5z" />
    <glyph glyph-name="ydieresis" unicode="&#xff;" horiz-adv-x="493" 
d="M487 483l-125 -469.001c-20.667 -78 -48.5 -136.333 -83.5 -175s-87.833 -58 -158.5 -58c-40 0 -79.333 6.66699 -118 20v18.5c0 9 2.5 23.167 7.5 42.5s12.5 34.333 22.5 45c34.667 -10 64 -15 88 -15c50 0 83.667 29 101 87l4 14c-56 1.33301 -89.333 22 -100 62
l-119 432c29.333 13.333 56.833 20 82.5 20s44.167 -4.66699 55.5 -14s20 -26 26 -50l50 -198c5.33301 -19.333 13.333 -63.666 24 -132.999c0.666992 -4.66699 3.66699 -7 9 -7l90 393c16.667 4 38.5 6 65.5 6s51.5 -3.66699 73.5 -11zM274 621.999
c0 18 2.66699 34.001 8 48.001c18 10.667 39 16 63 16s44.667 -5.33301 62 -16c6 -14 9 -30.333 9 -49s-3 -34.334 -9 -47.001c-17.333 -10.667 -38 -16 -62 -16s-45 5.33301 -63 16c-5.33301 14 -8 30 -8 48zM74 622c0 18 3 33.999 9 47.999c17.333 10.667 38 16 62 16
s45 -5.33301 63 -16c5.33301 -14 8 -30.167 8 -48.5s-2.66699 -34.166 -8 -47.499c-18 -10.667 -39 -16 -63 -16s-44.667 5.33301 -62 16c-6 14 -9 30 -9 48z" />
    <glyph glyph-name="Aogonek" unicode="&#x104;" horiz-adv-x="634" 
d="M10 12l221.999 671c24 4 53.667 6 89 6s64.333 -2.33301 87 -7l216 -672l-9 -5c-50.667 -28 -76 -59 -76 -93c0 -24.667 14 -37 42 -37c15.333 0 32.333 4.66699 51 14c20 -17.333 30.333 -39.666 31 -66.999c-30 -26.667 -65.5 -40 -106.5 -40s-72.5 9 -94.5 27
s-33 42 -33 72c0 41.333 21.333 80.666 64 117.999c-20.667 10 -36.334 35 -47.001 75l-21 73c-9.33301 -0.666992 -23.666 -1 -42.999 -1h-142c-18.667 0 -32.667 0.333008 -42 1l-44 -148c-15.333 -4 -37.666 -6 -66.999 -6s-53 3.66699 -71 11zM232.999 266l41.999 1h77
c3.33301 0 9.33301 -0.166992 18 -0.5s15.334 -0.5 20.001 -0.5l-76 276h-5c-6 -32.667 -22 -94 -48 -184z" />
    <glyph glyph-name="aogonek" unicode="&#x105;" horiz-adv-x="541" 
d="M477 -111c19.333 -16.667 30.001 -39.001 32.001 -67.001c-30 -26.667 -65.667 -40 -107 -40s-72.833 9 -94.5 27s-32.5 42 -32.5 72c0 50 28 95.667 84 137c-11.333 8 -20.666 17.333 -27.999 28c-44.667 -40.667 -92.5 -61 -143.5 -61s-89.667 15.333 -116 46
s-39.5 65.667 -39.5 105c0 56.667 18.833 99.667 56.5 129s84.5 44 140.5 44c22 0 47 -1 75 -3v22c0 44 -22.667 66 -68 66c-28.667 0 -78.334 -10.667 -149.001 -32c-20 23.333 -32 58 -36 104c31.333 13.333 68.5 24 111.5 32s81.167 12 114.5 12
c50 0 91.833 -13.833 125.5 -41.5s50.5 -70.5 50.5 -128.5v-204c0 -29.333 10.333 -51.666 31 -66.999c-8 -26.667 -26.667 -54 -56 -82s-44 -53 -44 -75c0 -12 4 -21.167 12 -27.5s19.167 -9.5 33.5 -9.5s30.166 4.66699 47.499 14zM226.001 95.999c26 0 52 11 78 33v83
c-14.667 0.666992 -34.667 1 -60 1c-44.667 0 -67 -22.333 -67 -67c0 -14 4.5 -25.833 13.5 -35.5s20.833 -14.5 35.5 -14.5z" />
    <glyph glyph-name="Cacute" unicode="&#x106;" horiz-adv-x="608" 
d="M437 416l0.000976562 10.002c0 42 -8.5 77.667 -25.5 107s-46.833 44 -89.5 44s-74 -20 -94 -60s-30 -97.833 -30 -173.5s12.333 -132.167 37 -169.5s60.5 -56 107.5 -56s102.833 23.667 167.5 71c15.333 -10.667 30.166 -25.5 44.499 -44.5s23.166 -36.833 26.499 -53.5
c-30 -30 -69.333 -55.167 -118 -75.5s-96.167 -30.5 -142.5 -30.5s-85.333 6.83301 -117 20.5s-57.667 31.667 -78 54s-37.166 49.166 -50.499 80.499c-24.667 57.333 -37 123.666 -37 198.999c0 119.333 27.167 209 81.5 269s121.5 90 201.5 90s143.5 -19.667 190.5 -59
s70.5 -88.333 70.5 -147c0 -56 -29 -84 -87 -84c-18.667 0 -38 2.66699 -58 8zM205.001 800.002l220.999 135.001c13.333 -10 26 -26.167 38 -48.5s19 -43.833 21 -64.5l-238 -94c-10 6 -19.167 16.167 -27.5 30.5s-13.166 28.166 -14.499 41.499z" />
    <glyph glyph-name="cacute" unicode="&#x107;" horiz-adv-x="474" 
d="M313 281l0.00292969 8.99805c0 37.333 -3.83301 65.333 -11.5 84s-24 28 -49 28s-42.667 -12.167 -53 -36.5s-15.5 -63.166 -15.5 -116.499s7.5 -91.166 22.5 -113.499s38.167 -33.5 69.5 -33.5s68 14.333 110 43c12 -6.66699 23.667 -18.5 35 -35.5
s18.666 -32.833 21.999 -47.5c-22.667 -23.333 -51.334 -42 -86.001 -56s-70.334 -21 -107.001 -21c-70 0 -123.833 23.667 -161.5 71s-56.5 113.5 -56.5 198.5s21.667 149.333 65 193s94.5 65.5 153.5 65.5s106.5 -15.333 142.5 -46s54 -70 54 -118
c0 -24 -6.5 -42.167 -19.5 -54.5s-31.333 -18.5 -55 -18.5s-43.5 1.66699 -59.5 5zM161.003 597.998l154.002 167.001c18.667 -6 37.167 -17.333 55.5 -34s30.166 -34.334 35.499 -53.001l-183 -138c-12.667 4 -24.834 11.333 -36.501 22s-20.167 22.667 -25.5 36z" />
    <glyph glyph-name="Ccaron" unicode="&#x10c;" horiz-adv-x="608" 
d="M437 416l0.000976562 10.002c0 42 -8.5 77.667 -25.5 107s-46.833 44 -89.5 44s-74 -20 -94 -60s-30 -97.833 -30 -173.5s12.333 -132.167 37 -169.5s60.5 -56 107.5 -56s102.833 23.667 167.5 71c15.333 -10.667 30.166 -25.5 44.499 -44.5s23.166 -36.833 26.499 -53.5
c-30 -30 -69.333 -55.167 -118 -75.5s-96.167 -30.5 -142.5 -30.5s-85.333 6.83301 -117 20.5s-57.667 31.667 -78 54s-37.166 49.166 -50.499 80.499c-24.667 57.333 -37 123.666 -37 198.999c0 119.333 27.167 209 81.5 269s121.5 90 201.5 90s143.5 -19.667 190.5 -59
s70.5 -88.333 70.5 -147c0 -56 -29 -84 -87 -84c-18.667 0 -38 2.66699 -58 8zM204.001 916.002l117.002 -74l120 86c11.333 -4 23.666 -12 36.999 -24s21.666 -24.333 24.999 -37l-119 -121c-20.667 -5.33301 -41.5 -8 -62.5 -8s-42.167 2.33301 -63.5 7l-113 110
c4 14 12 26.667 24 38s23.667 19 35 23z" />
    <glyph glyph-name="ccaron" unicode="&#x10d;" horiz-adv-x="474" 
d="M313 281l0.00292969 8.99805c0 37.333 -3.83301 65.333 -11.5 84s-24 28 -49 28s-42.667 -12.167 -53 -36.5s-15.5 -63.166 -15.5 -116.499s7.5 -91.166 22.5 -113.499s38.167 -33.5 69.5 -33.5s68 14.333 110 43c12 -6.66699 23.667 -18.5 35 -35.5
s18.666 -32.833 21.999 -47.5c-22.667 -23.333 -51.334 -42 -86.001 -56s-70.334 -21 -107.001 -21c-70 0 -123.833 23.667 -161.5 71s-56.5 113.5 -56.5 198.5s21.667 149.333 65 193s94.5 65.5 153.5 65.5s106.5 -15.333 142.5 -46s54 -70 54 -118
c0 -24 -6.5 -42.167 -19.5 -54.5s-31.333 -18.5 -55 -18.5s-43.5 1.66699 -59.5 5zM156.003 747.998l91.999 -86.999l99 95c29.333 -10 51.333 -29 66 -57l-106 -137c-17.333 -6 -31.666 -9 -42.999 -9s-23 0.166992 -35 0.5s-27 3.16602 -45 8.49902l-93 125
c6.66699 14 16.5 26.667 29.5 38s24.833 19 35.5 23z" />
    <glyph glyph-name="Dcaron" unicode="&#x10e;" horiz-adv-x="665" 
d="M602.5 514.5c15.667 -48.333 23.5 -105.999 23.5 -172.999s-7.66699 -124.833 -23 -173.5s-45 -90 -89 -124c-20.667 -16.667 -48.334 -29.167 -83.001 -37.5s-72 -12.5 -112 -12.5s-118 1.33301 -234 4l-7 7v673l7 7c76.667 2.66699 159 4 247 4
c31.333 0 64.333 -4.33301 99 -13s62.334 -21.334 83.001 -38.001c43.333 -34 72.833 -75.167 88.5 -123.5zM254 114.001l78 -1c91.333 0 137 76 137 228s-45.667 228 -137 228l-102 1v-457c0.666992 0.666992 8.66699 1 24 1zM197 915.001l117.002 -74l120 86
c11.333 -4 23.666 -12 36.999 -24s21.666 -24.333 24.999 -37l-119 -121c-20.667 -5.33301 -41.5 -8 -62.5 -8s-42.167 2.33301 -63.5 7l-113 110c4 14 12 26.667 24 38s23.667 19 35 23z" />
    <glyph glyph-name="dcaron" unicode="&#x10f;" horiz-adv-x="655" 
d="M78.5 55c-30.333 46.667 -45.5 110.499 -45.5 191.499s19.167 144.833 57.5 191.5s85.833 70 142.5 70c30 0 61.667 -7.66699 95 -23v244l7 7h58c29.333 0 50 -6.66699 62 -20s18 -36.666 18 -69.999v-502c0 -36 9.33301 -61 28 -75
c-2.66699 -13.333 -8.5 -27.5 -17.5 -42.5s-18.5 -26.5 -28.5 -34.5c-46.667 2 -81.334 20.667 -104.001 56c-38.667 -42 -86.167 -63 -142.5 -63s-99.666 23.333 -129.999 70zM251 104.999c29.333 0 55 14.333 77 43v223c-28.667 17.333 -52 26 -70 26
c-48 0 -72 -51.667 -72 -155c0 -46 6 -80.333 18 -103s27.667 -34 47 -34zM615 555.999c-8.66699 -3.33301 -21.168 -5 -37.501 -5s-31.5 3.66699 -45.5 11l11 232c10.667 2.66699 21.334 4 32.001 4c40.667 0 71.667 -7.66699 93 -23z" />
    <glyph glyph-name="Eogonek" unicode="&#x118;" horiz-adv-x="573" 
d="M228 193l-0.998047 -69.002v-1c29.333 1.33301 53.666 2 72.999 2h236c0 -24 -1 -42 -3 -54c-6 -33.333 -22.667 -55 -50 -65c-55.333 -24 -83 -55.333 -83 -94c0 -24.667 14 -37 42 -37c16.667 0 33.667 4.66699 51 14c19.333 -16.667 30 -39 32 -67
c-31.333 -26.667 -67.5 -40 -108.5 -40s-72.333 9 -94 27s-32.5 42.333 -32.5 73c0 44 20.333 82.333 61 115h-186c-27.333 0 -48.833 8 -64.5 24s-23.5 38 -23.5 66v589l7 7h427c3.33301 -15.333 5 -34.666 5 -57.999s-4 -46.666 -12 -69.999h-277l1 -71v-79
c17.333 0.666992 39.666 1 66.999 1h157c6 -16 9 -36.5 9 -61.5s-3 -46.167 -9 -63.5h-224v-88z" />
    <glyph glyph-name="eogonek" unicode="&#x119;" horiz-adv-x="497" 
d="M448 201h-265.001c2 -32 10 -56.833 24 -74.5s38.667 -26.5 74 -26.5s77.333 10.333 126 31c20.667 -20 34.334 -49.667 41.001 -89c-18 -13.333 -38.333 -24 -61 -32c-43.333 -32 -65 -64.667 -65 -98c0 -12 4 -21.167 12 -27.5s19 -9.5 33 -9.5s30.333 4.66699 49 14
c20 -17.333 30.333 -39.666 31 -66.999c-30 -26.667 -65.667 -40 -107 -40s-72.833 9.16699 -94.5 27.5s-32.5 44 -32.5 77s18 65.833 54 98.5h-15c-41.333 0 -77 7.16699 -107 21.5s-53 34.166 -69 59.499c-29.333 48.667 -44 111 -44 187s18.333 138.333 55 187
s89.667 73 159 73s122.5 -19.833 159.5 -59.5s55.5 -90.5 55.5 -152.5c0 -34.667 -4.33301 -68 -13 -100zM305.999 381.5c-11.333 17 -28.833 25.5 -52.5 25.5s-41 -8.33301 -52 -25s-17.5 -42.667 -19.5 -78h141v12c0 26.667 -5.66699 48.5 -17 65.5z" />
    <glyph glyph-name="Ecaron" unicode="&#x11a;" horiz-adv-x="572" 
d="M228 193l-0.998047 -69.002v-1c29.333 1.33301 53.666 2 72.999 2h236c0 -24 -1 -42 -3 -54c-9.33301 -49.333 -42 -74 -98 -74h-270c-27.333 0 -48.833 8 -64.5 24s-23.5 38 -23.5 66v589l7 7h427c3.33301 -15.333 5 -34.666 5 -57.999s-4 -46.666 -12 -69.999h-277
l1 -71v-79c17.333 0.666992 39.666 1 66.999 1h157c6 -16 9 -36.5 9 -61.5s-3 -46.167 -9 -63.5h-224v-88zM177.002 914.998l117.002 -74l120 86c11.333 -4 23.666 -12 36.999 -24s21.666 -24.333 24.999 -37l-119 -121c-20.667 -5.33301 -41.5 -8 -62.5 -8
s-42.167 2.33301 -63.5 7l-113 110c4 14 12 26.667 24 38s23.667 19 35 23z" />
    <glyph glyph-name="ecaron" unicode="&#x11b;" horiz-adv-x="497" 
d="M448 201l-265.001 0.000976562c2 -32 10 -56.833 24 -74.5s38.667 -26.5 74 -26.5s77.333 10.333 126 31c20.667 -20 34.334 -49.667 41.001 -89c-54 -38 -119.333 -57 -196 -57c-41.333 0 -77 7.16699 -107 21.5s-53 34.166 -69 59.499c-29.333 48.667 -44 111 -44 187
s18.333 138.333 55 187s89.667 73 159 73s122.5 -19.833 159.5 -59.5s55.5 -90.5 55.5 -152.5c0 -34.667 -4.33301 -68 -13 -100zM305.999 381.501c-11.333 17 -28.833 25.5 -52.5 25.5s-41 -8.33301 -52 -25s-17.5 -42.667 -19.5 -78h141v12
c0 26.667 -5.66699 48.5 -17 65.5zM158.999 748.001l91.999 -86.999l99 95c29.333 -10 51.333 -29 66 -57l-106 -137c-17.333 -6 -31.666 -9 -42.999 -9s-23 0.166992 -35 0.5s-27 3.16602 -45 8.49902l-93 125c6.66699 14 16.5 26.667 29.5 38s24.833 19 35.5 23z" />
    <glyph glyph-name="Hbar" unicode="&#x126;" horiz-adv-x="693" 
d="M234 287l1 -74v-213c-20 -4 -45.667 -6 -77 -6s-56.666 2 -75.999 6v489h-65c-5.33301 16.667 -8 34.834 -8 54.501s2.66699 38.5 8 56.5h65v83c19.333 4 44.666 6 75.999 6s57 -2 77 -6v-83h223v83c20 4 45.5 6 76.5 6s56.5 -2 76.5 -6v-83h66
c4.66699 -18.667 7 -37.334 7 -56.001s-2.33301 -37 -7 -55h-66v-489c-20.667 -4 -46.167 -6 -76.5 -6s-55.833 2 -76.5 6v213l1 74l-51 -1h-123zM234 411l51 1h123l51 -1l-1 76v2h-223v-2z" />
    <glyph glyph-name="hbar" unicode="&#x127;" horiz-adv-x="546" 
d="M487 331l0.00195312 -208c0 -42.667 7.66699 -75.667 23 -99c-26 -21.333 -55.167 -32 -87.5 -32s-54.5 7.66699 -66.5 23s-18 38.666 -18 69.999v218c0 24.667 -3.33301 42.5 -10 53.5s-18.667 16.5 -36 16.5c-28 0 -55 -12.667 -81 -38v-335
c-20.667 -4 -44.334 -6 -71.001 -6s-51.667 2 -75 6v560l-74 -1c-4 16.667 -6 32 -6 46s2 30 6 48l74 -1v77l7 7h58c28.667 0 49.167 -6.5 61.5 -19.5s18.833 -34.833 19.5 -65.5l146 2c4 -14.667 6 -30.667 6 -48s-2 -32.666 -6 -45.999l-146 2v-111
c45.333 38 90.666 57 135.999 57s80 -16 104 -48s36 -74.667 36 -128z" />
    <glyph glyph-name="Itilde" unicode="&#x128;" horiz-adv-x="314" 
d="M80 0v683c20 4 45.5 6 76.5 6s56.5 -2 76.5 -6v-683c-20 -4 -45.5 -6 -76.5 -6s-56.5 2 -76.5 6zM159 759l-48.001 23.001c-10.667 6 -22 9 -34 9s-23.333 -8 -34 -24l-9 -12c-14.667 0 -29.5 4.16699 -44.5 12.5s-25.167 18.833 -30.5 31.5l9 20
c27.333 56.667 67.666 85 120.999 85c23.333 0 45.333 -5.66699 66 -17l48 -23c10.667 -6 21.834 -9 33.501 -9s23.167 8 34.5 24l9 13c14.667 0 29.334 -4.33301 44.001 -13s25 -19.334 31 -32.001l-9 -19c-12.667 -26.667 -29.5 -47.667 -50.5 -63s-43 -23 -66 -23
s-46.5 5.66699 -70.5 17z" />
    <glyph glyph-name="itilde" unicode="&#x129;" horiz-adv-x="287" 
d="M227 387v-387c-20 -4 -44.333 -6 -73 -6s-54 2 -76 6v336c0 38 -15.667 57 -47 57h-14c-4 16.667 -6 34 -6 52s2 35.333 6 52c33.333 3.33301 61.666 5 84.999 5h20c32.667 0 58.334 -10.333 77.001 -31s28 -48.667 28 -84zM133 572l-45.001 22.999
c-10.667 6 -21.167 9 -31.5 9s-21.5 -8 -33.5 -24l-9 -13c-14 0 -28 4.33301 -42 13s-23.333 19.334 -28 32.001l8 19c11.333 26 27 46.833 47 62.5s41.333 23.5 64 23.5s44.667 -5.66699 66 -17l45 -23c10.667 -6 21.334 -9 32.001 -9s21.667 8 33 24l9 12
c14 0 27.833 -4.16699 41.5 -12.5s23.167 -18.833 28.5 -31.5l-8 -20c-11.333 -26 -27.166 -46.833 -47.499 -62.5s-41.333 -23.5 -63 -23.5s-43.834 6 -66.501 18z" />
    <glyph glyph-name="dotlessi" unicode="&#x131;" horiz-adv-x="294" 
d="M233 387v-387c-20 -4 -44.333 -6 -73 -6s-54 2 -76 6v336c0 38 -15.667 57 -47 57h-14c-4 16.667 -6 34 -6 52s2 35.333 6 52c33.333 3.33301 61.666 5 84.999 5h20c32.667 0 58.334 -10.333 77.001 -31s28 -48.667 28 -84z" />
    <glyph glyph-name="IJ" unicode="&#x132;" horiz-adv-x="775" 
d="M80 0v683c20 4 45.5 6 76.5 6s56.5 -2 76.5 -6v-683c-20 -4 -45.5 -6 -76.5 -6s-56.5 2 -76.5 6zM370 147c32 -20.667 64.166 -31.001 96.499 -31.001s55 10.333 68 31s19.5 53.334 19.5 98.001v438c20 4 45.5 6 76.5 6s56.5 -2 76.5 -6v-423
c0 -82 -14.667 -146.333 -44 -193c-32.667 -51.333 -94 -77 -184 -77c-62 0 -116 14.667 -162 44c6.66699 44 24.334 81.667 53.001 113z" />
    <glyph glyph-name="ij" unicode="&#x133;" horiz-adv-x="587" 
d="M233 387v-387c-20 -4 -44.333 -6 -73 -6s-54 2 -76 6v336c0 38 -15.667 57 -47 57h-14c-4 16.667 -6 34 -6 52s2 35.333 6 52c33.333 3.33301 61.666 5 84.999 5h20c32.667 0 58.334 -10.333 77.001 -31s28 -48.667 28 -84zM54 641c0 19.333 3.66699 38 11 56
c18.667 10 43.167 15 73.5 15s53.833 -5 70.5 -15c7.33301 -18 11 -36.667 11 -56s-3.66699 -38 -11 -56c-16.667 -10 -41 -15 -73 -15s-55.667 5 -71 15c-7.33301 18 -11 36.667 -11 56zM526 387v-360.002c0 -77.333 -12.167 -134.166 -36.5 -170.499
s-73.833 -61.833 -148.5 -76.5c-10.667 8.66699 -20 21.667 -28 39s-12.333 34.666 -13 51.999c30 12.667 50.667 27.334 62 44.001s17 42.667 17 78v343c0 38 -15.667 57 -47 57h-23c-4 17.333 -6 34.833 -6 52.5s2 34.834 6 51.501c38 3.33301 69 5 93 5h20
c32.667 0 58.167 -10.333 76.5 -31s27.5 -48.667 27.5 -84zM344 640.998c0 19.333 3.66699 38 11 56c18.667 10 43.167 15 73.5 15s53.833 -5 70.5 -15c7.33301 -18 11 -36.667 11 -56s-3.66699 -38 -11 -56c-16.667 -10 -41 -15 -73 -15s-55.667 5 -71 15
c-7.33301 18 -11 36.667 -11 56z" />
    <glyph glyph-name="Jcircumflex" unicode="&#x134;" horiz-adv-x="468" 
d="M63 147c32 -20.667 64.166 -31.001 96.499 -31.001s55 10.333 68 31s19.5 53.334 19.5 98.001v438c20 4 45.5 6 76.5 6s56.5 -2 76.5 -6v-423c0 -82 -14.667 -146.333 -44 -193c-32.667 -51.333 -94 -77 -184 -77c-62 0 -116 14.667 -162 44
c6.66699 44 24.334 81.667 53.001 113zM438.999 734.999l-117.001 75l-119 -86c-11.333 4 -23.5 12.167 -36.5 24.5s-21.167 24.833 -24.5 37.5l118 120c20.667 4.66699 41.334 7 62.001 7s41.667 -2 63 -6l113 -110c-4 -14 -12 -26.667 -24 -38s-23.667 -19.333 -35 -24z
" />
    <glyph glyph-name="jcircumflex" unicode="&#x135;" horiz-adv-x="291" 
d="M232 387v-360.001c0 -77.333 -12.167 -134.166 -36.5 -170.499s-73.833 -61.833 -148.5 -76.5c-10.667 8.66699 -20 21.667 -28 39s-12.333 34.666 -13 51.999c30 12.667 50.667 27.334 62 44.001s17 42.667 17 78v343c0 38 -15.667 57 -47 57h-23c-4 16.667 -6 34 -6 52
s2 35.333 6 52c38 3.33301 69 5 93 5h20c32.667 0 58.167 -10.333 76.5 -31s27.5 -48.667 27.5 -84zM228 550.999l-92 87l-97 -94c-28.667 11.333 -50.667 30.333 -66 57l105 136c16 5.33301 29.667 8 41 8c35.333 0 62.333 -2.66699 81 -8l93 -125
c-5.33301 -14 -14.5 -26.667 -27.5 -38s-25.5 -19 -37.5 -23z" />
    <glyph glyph-name="Kcommaaccent" unicode="&#x136;" horiz-adv-x="617" 
d="M609 38c-20.667 -30.667 -54.3311 -45.999 -100.998 -45.999c-26.667 0 -46.5 6.66699 -59.5 20s-24.167 35.666 -33.5 66.999l-40 121c-10.667 32.667 -23.334 55.834 -38.001 69.501s-34.334 20.5 -59.001 20.5c-7.33301 0 -23 -0.666992 -47 -2v-288
c-20 -4 -45.667 -6 -77 -6s-56.666 2 -75.999 6v683c19.333 4 44.666 6 75.999 6s57 -2 77 -6v-267l29 1c12 0 20.667 2.16699 26 6.5s11.666 13.166 18.999 26.499l99 185c10 19.333 20.5 33 31.5 41s30.333 12 58 12s54.834 -1.33301 81.501 -4l8 -11l-125 -233
c-15.333 -29.333 -33.333 -52.666 -54 -69.999c30.667 -6.66699 54.167 -19.334 70.5 -38.001s30.166 -44 41.499 -76l42 -127c0.666992 -1.33301 2.33398 -6 5.00098 -14s4.5 -13 5.5 -15s2.66699 -6.16699 5 -12.5s4.5 -10.833 6.5 -13.5s4.5 -6.5 7.5 -11.5
s6.5 -9.16699 10.5 -12.5zM267.003 -74.999c22 16 49.665 24 82.998 24c16.667 0 32.334 -2.66699 47.001 -8c8 -16 12 -36 12 -60c0 -39.333 -13.333 -73.833 -40 -103.5s-63 -51.5 -109 -65.5c-25.333 8.66699 -40.666 29 -45.999 61c44 25.333 66 58.333 66 99
c0 18 -4.33301 35.667 -13 53z" />
    <glyph glyph-name="kcommaaccent" unicode="&#x137;" horiz-adv-x="520" 
d="M241 202l-32.998 -0.99707v-201c-20.667 -4 -44.667 -6 -72 -6s-52 2 -74 6v729l7 7h58c29.333 0 50.166 -6.83301 62.499 -20.5s18.5 -36.834 18.5 -69.501v-322h18c12 0 21.333 6 28 18l57 105c18 36.667 46 55 84 55c19.333 0 47 -0.666992 83 -2l6 -8l-81 -152
c-12.667 -23.333 -29.334 -42 -50.001 -56c40 -14.667 68.333 -43.667 85 -87l25 -74c10.667 -28.667 19.167 -48.334 25.5 -59.001s13.833 -19 22.5 -25c-26.667 -31.333 -60 -47 -100 -47c-21.333 0 -37.5 5 -48.5 15s-20.833 27.667 -29.5 53l-30 88
c-8 21.333 -16.5 35.666 -25.5 42.999s-21.167 11 -36.5 11zM213.002 -74.9971c22 16 49.665 24 82.998 24c16.667 0 32.334 -2.66699 47.001 -8c8 -16 12 -36 12 -60c0 -39.333 -13.333 -73.833 -40 -103.5s-63 -51.5 -109 -65.5c-25.333 8.66699 -40.666 29 -45.999 61
c44 25.333 66 58.333 66 99c0 18 -4.33301 35.667 -13 53z" />
    <glyph glyph-name="kgreenlandic" unicode="&#x138;" horiz-adv-x="520" 
d="M241 202l-32.998 -0.99707v-201c-20.667 -4 -44.667 -6 -72 -6s-52 2 -74 6v498l7 7h58c29.333 0 50.166 -6.83301 62.499 -20.5s18.5 -36.834 18.5 -69.501v-91h18c12 0 21.333 6 28 18l57 105c18 36.667 46 55 84 55c19.333 0 47 -0.666992 83 -2l6 -8l-81 -152
c-12.667 -23.333 -29.334 -42 -50.001 -56c40 -14.667 68.333 -43.667 85 -87l25 -74c10.667 -28.667 19.167 -48.334 25.5 -59.001s13.833 -19 22.5 -25c-26.667 -31.333 -60 -47 -100 -47c-21.333 0 -37.5 5 -48.5 15s-20.833 27.667 -29.5 53l-30 88
c-8 21.333 -16.5 35.666 -25.5 42.999s-21.167 11 -36.5 11z" />
    <glyph glyph-name="Ldot" unicode="&#x13f;" horiz-adv-x="521" 
d="M323 129h177c0 -22 -1.33301 -41 -4 -57c-8 -50 -41.333 -75 -100 -75h-230c-27.333 0 -49 8 -65 24s-24 38 -24 66v596l7 6h56c60 0 90 -32 90 -96v-467c33.333 2 64.333 3 93 3zM347 304c-7.33301 14.667 -11 33.5 -11 56.5s3.66699 41.833 11 56.5
c17.333 12 39 18 65 18s47.667 -6 65 -18c6 -14 9 -32.833 9 -56.5s-3 -42.5 -9 -56.5c-15.333 -11.333 -37 -17 -65 -17s-49.667 5.66699 -65 17z" />
    <glyph glyph-name="ldot" unicode="&#x140;" horiz-adv-x="395" 
d="M249 109l29.002 0.00195312c8 -21.333 12 -41.833 12 -61.5s-1 -33.834 -3 -42.501c-40 -6.66699 -78.333 -10 -115 -10s-64.334 10.667 -83.001 32s-28 55.333 -28 102v600l7 7h58c29.333 0 50.166 -6.83301 62.499 -20.5s18.5 -36.834 18.5 -69.501v-490
c0 -31.333 14 -47 42 -47zM267.002 305.002c-7.33301 14.667 -11 33.5 -11 56.5s3.66699 41.833 11 56.5c17.333 12 39 18 65 18s47.667 -6 65 -18c6 -14 9 -32.833 9 -56.5s-3 -42.5 -9 -56.5c-15.333 -11.333 -37 -17 -65 -17s-49.667 5.66699 -65 17z" />
    <glyph glyph-name="Lslash" unicode="&#x141;" horiz-adv-x="531" 
d="M240 593v-159l157 56l11 -6c5.33301 -16.667 8 -34.5 8 -53.5s-1.66699 -38.5 -5 -58.5l-171 -59v-187c33.333 2 64.333 3 93 3h177c0 -22 -1.33301 -41 -4 -57c-8 -50 -41.333 -75 -100 -75h-230c-27.333 0 -49 8 -65 24s-24 38 -24 66v179l-70 -25l-10 6
c-6 16.667 -9 34.5 -9 53.5s2 38.5 6 58.5l83 29v295l7 6h56c60 0 90 -32 90 -96z" />
    <glyph glyph-name="lslash" unicode="&#x142;" horiz-adv-x="360" 
d="M284 109l29.0029 -0.000976562c8 -24 12 -45.333 12 -64s-1.33301 -32 -4 -40c-38.667 -6.66699 -76.334 -10 -113.001 -10s-64.334 10.667 -83.001 32s-28 55.333 -28 102v140l-68 -33l-11 5c-5.33301 16 -8 33 -8 51s2 36.667 6 56l81 40v341l7 7h56
c29.333 0 50.166 -6.83301 62.499 -20.5s18.5 -36.834 18.5 -69.501v-187l75 38l11 -6c5.33301 -15.333 8 -32.166 8 -50.499s-1.66699 -37.166 -5 -56.499l-89 -44v-184c0 -31.333 14.333 -47 43 -47z" />
    <glyph glyph-name="Nacute" unicode="&#x143;" horiz-adv-x="694" 
d="M609 689l6.99902 -6v-680c-25.333 -6 -55.166 -9 -89.499 -9s-64.833 2 -91.5 6l-166 366c-28 66.667 -47 113.667 -57 141l-4 -1c8 -94.667 12 -191.667 12 -291v-215c-20 -4 -43.833 -6 -71.5 -6s-51.167 2 -70.5 6v680c24 6 53.167 9 87.5 9s64.833 -2 91.5 -6
l162 -365l63 -151l4 1c-8 92 -12 188.333 -12 289v140c0 33.333 6.66699 57 20 71s35 21 65 21h50zM228.999 799l220.999 135.001c13.333 -10 26 -26.167 38 -48.5s19 -43.833 21 -64.5l-238 -94c-10 6 -19.167 16.167 -27.5 30.5s-13.166 28.166 -14.499 41.499z" />
    <glyph glyph-name="nacute" unicode="&#x144;" horiz-adv-x="547" 
d="M487 331l0.000976562 -207.999c0 -42.667 8 -75.667 24 -99c-26 -21.333 -55.167 -32 -87.5 -32s-54.666 7.66699 -66.999 23s-18.5 38.666 -18.5 69.999v218c0 24.667 -3.33301 42.667 -10 54s-18.334 17 -35.001 17c-28.667 0 -56 -13 -82 -39v-335
c-20.667 -4 -45.167 -6 -73.5 -6s-53.5 2 -75.5 6v498l7 7h56c41.333 0 67.666 -20 78.999 -60c48.667 41.333 96 62 142 62s81 -16 105 -48s36 -74.667 36 -128zM189.001 598.001l154.002 167.001c18.667 -6 37.167 -17.333 55.5 -34s30.166 -34.334 35.499 -53.001
l-183 -138c-12.667 4 -24.834 11.333 -36.501 22s-20.167 22.667 -25.5 36z" />
    <glyph glyph-name="Ncaron" unicode="&#x147;" horiz-adv-x="694" 
d="M609 689l6.99902 -6v-680c-25.333 -6 -55.166 -9 -89.499 -9s-64.833 2 -91.5 6l-166 366c-28 66.667 -47 113.667 -57 141l-4 -1c8 -94.667 12 -191.667 12 -291v-215c-20 -4 -43.833 -6 -71.5 -6s-51.167 2 -70.5 6v680c24 6 53.167 9 87.5 9s64.833 -2 91.5 -6
l162 -365l63 -151l4 1c-8 92 -12 188.333 -12 289v140c0 33.333 6.66699 57 20 71s35 21 65 21h50zM227.999 915l117.002 -74l120 86c11.333 -4 23.666 -12 36.999 -24s21.666 -24.333 24.999 -37l-119 -121c-20.667 -5.33301 -41.5 -8 -62.5 -8s-42.167 2.33301 -63.5 7
l-113 110c4 14 12 26.667 24 38s23.667 19 35 23z" />
    <glyph glyph-name="ncaron" unicode="&#x148;" horiz-adv-x="547" 
d="M487 331l0.000976562 -207.999c0 -42.667 8 -75.667 24 -99c-26 -21.333 -55.167 -32 -87.5 -32s-54.666 7.66699 -66.999 23s-18.5 38.666 -18.5 69.999v218c0 24.667 -3.33301 42.667 -10 54s-18.334 17 -35.001 17c-28.667 0 -56 -13 -82 -39v-335
c-20.667 -4 -45.167 -6 -73.5 -6s-53.5 2 -75.5 6v498l7 7h56c41.333 0 67.666 -20 78.999 -60c48.667 41.333 96 62 142 62s81 -16 105 -48s36 -74.667 36 -128zM184.001 748.001l91.999 -86.999l99 95c29.333 -10 51.333 -29 66 -57l-106 -137
c-17.333 -6 -31.666 -9 -42.999 -9s-23 0.166992 -35 0.5s-27 3.16602 -45 8.49902l-93 125c6.66699 14 16.5 26.667 29.5 38s24.833 19 35.5 23z" />
    <glyph glyph-name="OE" unicode="&#x152;" horiz-adv-x="914" 
d="M579 194l-0.998047 -69v-1c29.333 1.33301 53.666 2 72.999 2h236c0 -24 -1 -42 -3 -54c-8 -49.333 -40.333 -74 -97 -74h-312c-63.333 -8.66699 -110 -13 -140 -13c-74.667 0 -137.667 21 -189 63c-72 60.667 -108 158.5 -108 293.5s36 232.833 108 293.5
c51.333 42 114.333 63 189 63c32 0 79.333 -5 142 -15h385c4 -18.667 6 -38.5 6 -59.5s-4.33301 -43.833 -13 -68.5h-277l1 -71v-79c17.333 0.666992 39.666 1 66.999 1h158c6 -18.667 9 -39.167 9 -61.5s-3 -43.5 -9 -63.5h-225v-87zM334.002 103c29.333 0 61.667 5 97 15
v447c-35.333 10 -67.333 15 -96 15c-93.333 0 -140 -79.5 -140 -238.5s46.333 -238.5 139 -238.5z" />
    <glyph glyph-name="oe" unicode="&#x153;" horiz-adv-x="804" 
d="M760 201l-263 0.000976562c2 -32 9.83301 -56.833 23.5 -74.5s37.834 -26.5 72.501 -26.5s76.334 10.333 125.001 31c20.667 -20 34.334 -49.333 41.001 -88c-52 -38.667 -114.5 -58 -187.5 -58s-126.167 20 -159.5 60c-36.667 -40 -87.334 -60 -152.001 -60
s-116.667 19.667 -156 59c-48 46 -72 114.167 -72 204.5s24 159.166 72 206.499c39.333 38.667 91.666 58 156.999 58s116.666 -21.333 153.999 -64c34 42.667 83.667 64 149 64s116.333 -19.833 153 -59.5s55 -90.5 55 -152.5c0 -34 -4 -67.333 -12 -100zM185 249.001
c0 -48.667 5.16699 -86.167 15.5 -112.5s30.5 -39.5 60.5 -39.5s50.167 13.167 60.5 39.5s15.5 63.833 15.5 112.5s-5.16699 86.334 -15.5 113.001s-30.5 40 -60.5 40s-50.167 -13.333 -60.5 -40s-15.5 -64.334 -15.5 -113.001zM566 407.001
c-22.667 0 -39.5 -8.33301 -50.5 -25s-17.5 -42.667 -19.5 -78h138v11c0 61.333 -22.667 92 -68 92z" />
    <glyph glyph-name="Racute" unicode="&#x154;" horiz-adv-x="613" 
d="M562 473c0 -44.667 -12.166 -83.334 -36.499 -116.001s-52.833 -55 -85.5 -67c34 -12 59.333 -42.333 76 -91l32 -89c11.333 -32 27.666 -56.333 48.999 -73c-10 -13.333 -24.333 -24.333 -43 -33s-39.667 -13 -63 -13s-41.333 6.66699 -54 20s-24.667 36.333 -36 69
l-38 109c-6.66699 20.667 -16.5 36.667 -29.5 48s-32.167 17 -57.5 17h-47v-254c-20 -4 -45.333 -6 -76 -6s-55.667 2 -75 6v678l7 7c112 2.66699 190.667 4 236 4c72.667 0 131 -18.167 175 -54.5s66 -90.166 66 -161.499zM229.001 574v-203c44 1.33301 70.667 2 80 2
c64.667 0 97 33.333 97 100s-32.333 100 -97 100c-33.333 0 -60 0.333008 -80 1zM182.001 799l220.999 135.001c13.333 -10 26 -26.167 38 -48.5s19 -43.833 21 -64.5l-238 -94c-10 6 -19.167 16.167 -27.5 30.5s-13.166 28.166 -14.499 41.499z" />
    <glyph glyph-name="racute" unicode="&#x155;" horiz-adv-x="393" 
d="M33 429c2.66699 13.333 8.66797 27.668 18.001 43.001s18.666 26.666 27.999 33.999c59.333 -6 100 -36 122 -90c25.333 59.333 67.333 89 126 89c22 0 43.667 -2.66699 65 -8c0 -19.333 -3.33301 -42.5 -10 -69.5s-15.667 -50.167 -27 -69.5
c-14 4.66699 -30.667 7.66699 -50 9c-35.333 0 -64 -18 -86 -54v-313c-20 -4 -44.333 -6 -73 -6s-54 2 -76 6v326c0 50 -12.333 84.333 -37 103zM117.001 598.002l154.002 167.001c18.667 -6 37.167 -17.333 55.5 -34s30.166 -34.334 35.499 -53.001l-183 -138
c-12.667 4 -24.834 11.333 -36.501 22s-20.167 22.667 -25.5 36z" />
    <glyph glyph-name="Rcommaaccent" unicode="&#x156;" horiz-adv-x="613" 
d="M562 473c0 -44.667 -12.166 -83.334 -36.499 -116.001s-52.833 -55 -85.5 -67c34 -12 59.333 -42.333 76 -91l32 -89c11.333 -32 27.666 -56.333 48.999 -73c-10 -13.333 -24.333 -24.333 -43 -33s-39.667 -13 -63 -13s-41.333 6.66699 -54 20s-24.667 36.333 -36 69
l-38 109c-6.66699 20.667 -16.5 36.667 -29.5 48s-32.167 17 -57.5 17h-47v-254c-20 -4 -45.333 -6 -76 -6s-55.667 2 -75 6v678l7 7c112 2.66699 190.667 4 236 4c72.667 0 131 -18.167 175 -54.5s66 -90.166 66 -161.499zM229.001 574v-203c44 1.33301 70.667 2 80 2
c64.667 0 97 33.333 97 100s-32.333 100 -97 100c-33.333 0 -60 0.333008 -80 1zM263.001 -75c22 16 49.665 24 82.998 24c16.667 0 32.334 -2.66699 47.001 -8c8 -16 12 -36 12 -60c0 -39.333 -13.333 -73.833 -40 -103.5s-63 -51.5 -109 -65.5
c-25.333 8.66699 -40.666 29 -45.999 61c44 25.333 66 58.333 66 99c0 18 -4.33301 35.667 -13 53z" />
    <glyph glyph-name="rcommaaccent" unicode="&#x157;" horiz-adv-x="393" 
d="M33 429c2.66699 13.333 8.66797 27.668 18.001 43.001s18.666 26.666 27.999 33.999c59.333 -6 100 -36 122 -90c25.333 59.333 67.333 89 126 89c22 0 43.667 -2.66699 65 -8c0 -19.333 -3.33301 -42.5 -10 -69.5s-15.667 -50.167 -27 -69.5
c-14 4.66699 -30.667 7.66699 -50 9c-35.333 0 -64 -18 -86 -54v-313c-20 -4 -44.333 -6 -73 -6s-54 2 -76 6v326c0 50 -12.333 84.333 -37 103zM85.001 -74.998c22 16 49.665 24 82.998 24c16.667 0 32.334 -2.66699 47.001 -8c8 -16 12 -36 12 -60
c0 -39.333 -13.333 -73.833 -40 -103.5s-63 -51.5 -109 -65.5c-25.333 8.66699 -40.666 29 -45.999 61c44 25.333 66 58.333 66 99c0 18 -4.33301 35.667 -13 53z" />
    <glyph glyph-name="Rcaron" unicode="&#x158;" horiz-adv-x="613" 
d="M562 473c0 -44.667 -12.166 -83.334 -36.499 -116.001s-52.833 -55 -85.5 -67c34 -12 59.333 -42.333 76 -91l32 -89c11.333 -32 27.666 -56.333 48.999 -73c-10 -13.333 -24.333 -24.333 -43 -33s-39.667 -13 -63 -13s-41.333 6.66699 -54 20s-24.667 36.333 -36 69
l-38 109c-6.66699 20.667 -16.5 36.667 -29.5 48s-32.167 17 -57.5 17h-47v-254c-20 -4 -45.333 -6 -76 -6s-55.667 2 -75 6v678l7 7c112 2.66699 190.667 4 236 4c72.667 0 131 -18.167 175 -54.5s66 -90.166 66 -161.499zM229.001 574v-203c44 1.33301 70.667 2 80 2
c64.667 0 97 33.333 97 100s-32.333 100 -97 100c-33.333 0 -60 0.333008 -80 1zM181.001 915l117.002 -74l120 86c11.333 -4 23.666 -12 36.999 -24s21.666 -24.333 24.999 -37l-119 -121c-20.667 -5.33301 -41.5 -8 -62.5 -8s-42.167 2.33301 -63.5 7l-113 110
c4 14 12 26.667 24 38s23.667 19 35 23z" />
    <glyph glyph-name="rcaron" unicode="&#x159;" horiz-adv-x="393" 
d="M33 429c2.66699 13.333 8.66797 27.668 18.001 43.001s18.666 26.666 27.999 33.999c59.333 -6 100 -36 122 -90c25.333 59.333 67.333 89 126 89c22 0 43.667 -2.66699 65 -8c0 -19.333 -3.33301 -42.5 -10 -69.5s-15.667 -50.167 -27 -69.5
c-14 4.66699 -30.667 7.66699 -50 9c-35.333 0 -64 -18 -86 -54v-313c-20 -4 -44.333 -6 -73 -6s-54 2 -76 6v326c0 50 -12.333 84.333 -37 103zM112.001 748.002l91.999 -86.999l99 95c29.333 -10 51.333 -29 66 -57l-106 -137c-17.333 -6 -31.666 -9 -42.999 -9
s-23 0.166992 -35 0.5s-27 3.16602 -45 8.49902l-93 125c6.66699 14 16.5 26.667 29.5 38s24.833 19 35.5 23z" />
    <glyph glyph-name="Sacute" unicode="&#x15a;" horiz-adv-x="557" 
d="M17 60c2 21.333 8.66699 42.501 20 63.501s24.666 37.833 39.999 50.5c72.667 -44 140 -66 202 -66c28.667 0 50.5 6.83301 65.5 20.5s22.5 30.167 22.5 49.5c0 33.333 -22.333 60 -67 80l-118 50c-94.667 41.333 -142 102.333 -142 183c0 60.667 23 110.334 69 149.001
s106.5 58 181.5 58s149.167 -19 222.5 -57c-3.33301 -46 -20.666 -84.333 -51.999 -115c-68 32.667 -128 49 -180 49c-27.333 0 -48.333 -6.5 -63 -19.5s-22 -27.833 -22 -44.5c0 -26.667 20.667 -49 62 -67l120 -50c48 -20.667 85.167 -47.834 111.5 -81.501
s39.5 -71.834 39.5 -114.501c0 -63.333 -22.5 -114.666 -67.5 -153.999s-109.5 -59 -193.5 -59c-41.333 0 -84.5 6.66699 -129.5 20s-85.5 31.666 -121.5 54.999zM164 799.001l220.999 135.001c13.333 -10 26 -26.167 38 -48.5s19 -43.833 21 -64.5l-238 -94
c-10 6 -19.167 16.167 -27.5 30.5s-13.166 28.166 -14.499 41.499z" />
    <glyph glyph-name="sacute" unicode="&#x15b;" horiz-adv-x="442" 
d="M21 35c0.666992 16 5.16699 34.001 13.5 54.001s17.833 35.333 28.5 46c52 -27.333 98.333 -41 139 -41c20 0 35.5 3.5 46.5 10.5s16.5 16.167 16.5 27.5c0 21.333 -16 37.666 -48 48.999l-55 20c-84 30.667 -126 80.334 -126 149.001c0 50 17.333 89.667 52 119
s81 44 139 44c28.667 0 60.334 -4 95.001 -12s63.667 -17.667 87 -29c0.666992 -18 -3.16602 -37.667 -11.499 -59s-18.5 -36.333 -30.5 -45c-54.667 24.667 -100.667 37 -138 37c-14.667 0 -26 -3.33301 -34 -10s-12 -15.334 -12 -26.001c0 -16.667 14 -30.334 42 -41.001
l61 -22c88.667 -32.667 133 -85.667 133 -159c0 -49.333 -18.333 -88.666 -55 -117.999s-88.334 -44 -155.001 -44s-129.334 16.667 -188.001 50zM131 598.001l154.002 167.001c18.667 -6 37.167 -17.333 55.5 -34s30.166 -34.334 35.499 -53.001l-183 -138
c-12.667 4 -24.834 11.333 -36.501 22s-20.167 22.667 -25.5 36z" />
    <glyph glyph-name="Scaron" unicode="&#x160;" horiz-adv-x="557" 
d="M17 60c2 21.333 8.66699 42.501 20 63.501s24.666 37.833 39.999 50.5c72.667 -44 140 -66 202 -66c28.667 0 50.5 6.83301 65.5 20.5s22.5 30.167 22.5 49.5c0 33.333 -22.333 60 -67 80l-118 50c-94.667 41.333 -142 102.333 -142 183c0 60.667 23 110.334 69 149.001
s106.5 58 181.5 58s149.167 -19 222.5 -57c-3.33301 -46 -20.666 -84.333 -51.999 -115c-68 32.667 -128 49 -180 49c-27.333 0 -48.333 -6.5 -63 -19.5s-22 -27.833 -22 -44.5c0 -26.667 20.667 -49 62 -67l120 -50c48 -20.667 85.167 -47.834 111.5 -81.501
s39.5 -71.834 39.5 -114.501c0 -63.333 -22.5 -114.666 -67.5 -153.999s-109.5 -59 -193.5 -59c-41.333 0 -84.5 6.66699 -129.5 20s-85.5 31.666 -121.5 54.999zM163 915.001l117.002 -74l120 86c11.333 -4 23.666 -12 36.999 -24s21.666 -24.333 24.999 -37l-119 -121
c-20.667 -5.33301 -41.5 -8 -62.5 -8s-42.167 2.33301 -63.5 7l-113 110c4 14 12 26.667 24 38s23.667 19 35 23z" />
    <glyph glyph-name="scaron" unicode="&#x161;" horiz-adv-x="442" 
d="M21 35c0.666992 16 5.16699 34.001 13.5 54.001s17.833 35.333 28.5 46c52 -27.333 98.333 -41 139 -41c20 0 35.5 3.5 46.5 10.5s16.5 16.167 16.5 27.5c0 21.333 -16 37.666 -48 48.999l-55 20c-84 30.667 -126 80.334 -126 149.001c0 50 17.333 89.667 52 119
s81 44 139 44c28.667 0 60.334 -4 95.001 -12s63.667 -17.667 87 -29c0.666992 -18 -3.16602 -37.667 -11.499 -59s-18.5 -36.333 -30.5 -45c-54.667 24.667 -100.667 37 -138 37c-14.667 0 -26 -3.33301 -34 -10s-12 -15.334 -12 -26.001c0 -16.667 14 -30.334 42 -41.001
l61 -22c88.667 -32.667 133 -85.667 133 -159c0 -49.333 -18.333 -88.666 -55 -117.999s-88.334 -44 -155.001 -44s-129.334 16.667 -188.001 50zM126 748.001l91.999 -86.999l99 95c29.333 -10 51.333 -29 66 -57l-106 -137c-17.333 -6 -31.666 -9 -42.999 -9
s-23 0.166992 -35 0.5s-27 3.16602 -45 8.49902l-93 125c6.66699 14 16.5 26.667 29.5 38s24.833 19 35.5 23z" />
    <glyph glyph-name="Tcaron" unicode="&#x164;" horiz-adv-x="507" 
d="M330 557l1 -74.002v-483c-20.667 -4 -46.167 -6 -76.5 -6s-55.833 2 -76.5 6v483l1 74h-1l-62 -1h-106c-3.33301 19.333 -5 40.5 -5 63.5s1.66699 44.167 5 63.5h490c5.33301 -17.333 8 -37.666 8 -60.999s-6.33301 -40.166 -19 -50.499s-33 -15.5 -61 -15.5h-35l-62 1
h-1zM132 914.998l117.002 -74l120 86c11.333 -4 23.666 -12 36.999 -24s21.666 -24.333 24.999 -37l-119 -121c-20.667 -5.33301 -41.5 -8 -62.5 -8s-42.167 2.33301 -63.5 7l-113 110c4 14 12 26.667 24 38s23.667 19 35 23z" />
    <glyph glyph-name="tcaron" unicode="&#x165;" horiz-adv-x="405" 
d="M348 499c4 -18 6 -35.668 6 -53.001s-2 -35 -6 -53l-120 2v-239c0 -31.333 14.667 -47 44 -47h58c8 -24 12 -45.333 12 -64s-1.33301 -32 -4 -40c-48 -6.66699 -92 -10 -132 -10c-82 0 -123 44.667 -123 134v265l-78 -1c-4 14.667 -6 32.334 -6 53.001s2 38.334 6 53.001
l78 -1v61c0 33.333 6 56.666 18 69.999s32.667 20 62 20h58l7 -7v-145zM369 555.999c-8.66699 -3.33301 -21.168 -5 -37.501 -5s-31.5 3.66699 -45.5 11l11 232c10.667 2.66699 21.334 4 32.001 4c40.667 0 71.667 -7.66699 93 -23z" />
    <glyph glyph-name="Uring" unicode="&#x16e;" horiz-adv-x="673" 
d="M604 683l0.00195312 -432c0 -84.667 -23.333 -150.167 -70 -196.5s-112.667 -69.5 -198 -69.5s-151.333 23.167 -198 69.5s-70 111.833 -70 196.5v432l7 6h56c60 0 90 -32 90 -96v-344c0 -48 9.16699 -83.667 27.5 -107s47.666 -35 87.999 -35s69.5 11.667 87.5 35
s27 59 27 107v434c20 4 45.667 6 77 6s56.666 -2 75.999 -6zM196.002 787c0 36 12.667 66 38 90s58.666 36 99.999 36s74.666 -12 99.999 -36s38 -54 38 -90s-12.667 -66 -38 -90s-58.666 -36 -99.999 -36s-74.666 12 -99.999 36s-38 54 -38 90zM285.002 787
c0 -14.667 4.5 -26.834 13.5 -36.501s20.833 -14.5 35.5 -14.5s26.5 4.83301 35.5 14.5s13.5 21.834 13.5 36.501s-4.5 26.834 -13.5 36.501s-20.833 14.5 -35.5 14.5s-26.5 -4.83301 -35.5 -14.5s-13.5 -21.834 -13.5 -36.501z" />
    <glyph glyph-name="uring" unicode="&#x16f;" horiz-adv-x="549" 
d="M60 167l-0.00195312 208.999c0 42 -8 74.667 -24 98c24.667 21.333 53.5 32 86.5 32s55.667 -7.66699 68 -23s18.5 -38.333 18.5 -69v-219c0 -24.667 3.33301 -42.5 10 -53.5s18.334 -16.5 35.001 -16.5c28.667 0 55.667 12.333 81 37v336c20.667 4 45.334 6 74.001 6
s54 -2 76 -6v-356c0 -36.667 9.33301 -61.667 28 -75c-2.66699 -13.333 -8.66699 -27.166 -18 -41.499s-19 -25.5 -29 -33.5c-53.333 2 -91.333 25.333 -114 70c-50.667 -47.333 -100 -71 -148 -71s-84 16.167 -108 48.5s-36 74.833 -36 127.5zM165.998 578.499
c-25.333 24.333 -38 54.333 -38 90s12.667 65.667 38 90s58.666 36.5 99.999 36.5s74.666 -12.167 99.999 -36.5s38 -54.333 38 -90s-12.667 -65.667 -38 -90s-58.666 -36.5 -99.999 -36.5s-74.666 12.167 -99.999 36.5zM216.998 668.999
c0 -14.667 4.5 -26.834 13.5 -36.501s20.833 -14.5 35.5 -14.5s26.5 4.83301 35.5 14.5s13.5 21.834 13.5 36.501s-4.5 26.834 -13.5 36.501s-20.833 14.5 -35.5 14.5s-26.5 -4.83301 -35.5 -14.5s-13.5 -21.834 -13.5 -36.501z" />
    <glyph glyph-name="Ydieresis" unicode="&#x178;" horiz-adv-x="526" 
d="M318 505l70.999 178c16.667 4 38.5 6 65.5 6s50.833 -3.66699 71.5 -11l6 -9l-193 -458v-211c-20 -4 -45.667 -6 -77 -6s-56.666 2 -75.999 6v215l-193 450c31.333 17.333 60 26 86 26s45 -4.66699 57 -14s22.333 -25 31 -47l52 -130c16 -41.333 31 -88.333 45 -141h6
c10.667 43.333 26.667 92 48 146zM320.999 850c18.667 10.667 39 16 61 16s41.333 -5.33301 58 -16c8 -10.667 12 -27.167 12 -49.5s-4 -38.5 -12 -48.5c-16 -11.333 -35.333 -17 -58 -17s-43 5.66699 -61 17c-9.33301 10 -14 26 -14 48s4.66699 38.667 14 50zM148.999 866
c22.667 0 43.333 -5.33203 62 -15.999c8 -9.33301 12 -25.833 12 -49.5s-4 -39.834 -12 -48.501c-18 -11.333 -38.667 -17 -62 -17s-42.333 5.66699 -57 17c-8 10 -12 26.167 -12 48.5s4 38.833 12 49.5c15.333 10.667 34.333 16 57 16z" />
    <glyph glyph-name="Zacute" unicode="&#x179;" horiz-adv-x="577" 
d="M57 149l226.999 316c21.333 30 48 63 80 99l-3 3c-45.333 -6 -96.666 -9 -153.999 -9h-146c-4 14.667 -6 32.334 -6 53.001s3.66699 44.667 11 72h438c14 -50 21 -83 21 -99s-5.66699 -32.333 -17 -49l-227 -316c-21.333 -30 -47.333 -61.667 -78 -95l3 -3
c57.333 4 106 6 146 6h63c43.333 0 81 7.66699 113 23c6.66699 -21.333 10 -44.833 10 -70.5s-9 -45.334 -27 -59.001s-42.333 -20.5 -73 -20.5h-382c-11.333 50.667 -17 84 -17 100s6 32.333 18 49zM166.999 799l220.999 135.001c13.333 -10 26 -26.167 38 -48.5
s19 -43.833 21 -64.5l-238 -94c-10 6 -19.167 16.167 -27.5 30.5s-13.166 28.166 -14.499 41.499z" />
    <glyph glyph-name="zacute" unicode="&#x17a;" horiz-adv-x="449" 
d="M47 129l125 167.002c13.333 17.333 40 48.666 80 93.999l-3 5c-46.667 -5.33301 -88.334 -8 -125.001 -8h-81c-3.33301 12.667 -5 29 -5 49s2.66699 40.667 8 62h347c12.667 -38 19 -65.333 19 -82s-4.66699 -31.667 -14 -45l-128 -171c-28.667 -38 -54 -68.333 -76 -91
l3 -4c32 3.33301 59 5 81 5h37c40.667 0 72.334 5.33301 95.001 16c10 -25.333 15 -45.333 15 -60c0 -44 -27 -66 -81 -66h-301c-11.333 34 -17 59.167 -17 75.5s7 34.166 21 53.499zM134 598.002l154.002 167.001c18.667 -6 37.167 -17.333 55.5 -34
s30.166 -34.334 35.499 -53.001l-183 -138c-12.667 4 -24.834 11.333 -36.501 22s-20.167 22.667 -25.5 36z" />
    <glyph glyph-name="Zdotaccent" unicode="&#x17b;" horiz-adv-x="577" 
d="M57 149l226.999 316c21.333 30 48 63 80 99l-3 3c-45.333 -6 -96.666 -9 -153.999 -9h-146c-4 14.667 -6 32.334 -6 53.001s3.66699 44.667 11 72h438c14 -50 21 -83 21 -99s-5.66699 -32.333 -17 -49l-227 -316c-21.333 -30 -47.333 -61.667 -78 -95l3 -3
c57.333 4 106 6 146 6h63c43.333 0 81 7.66699 113 23c6.66699 -21.333 10 -44.833 10 -70.5s-9 -45.334 -27 -59.001s-42.333 -20.5 -73 -20.5h-382c-11.333 50.667 -17 84 -17 100s6 32.333 18 49zM204.999 814c0 19.333 3.66699 38 11 56c21.333 10 46 15 74 15
s51.333 -5 70 -15c7.33301 -18 11 -36.667 11 -56s-3.66699 -38.333 -11 -57c-18.667 -10 -43.167 -15 -73.5 -15s-53.833 5 -70.5 15c-7.33301 18.667 -11 37.667 -11 57z" />
    <glyph glyph-name="zdotaccent" unicode="&#x17c;" horiz-adv-x="449" 
d="M47 129l125 167.002c13.333 17.333 40 48.666 80 93.999l-3 5c-46.667 -5.33301 -88.334 -8 -125.001 -8h-81c-3.33301 12.667 -5 29 -5 49s2.66699 40.667 8 62h347c12.667 -38 19 -65.333 19 -82s-4.66699 -31.667 -14 -45l-128 -171c-28.667 -38 -54 -68.333 -76 -91
l3 -4c32 3.33301 59 5 81 5h37c40.667 0 72.334 5.33301 95.001 16c10 -25.333 15 -45.333 15 -60c0 -44 -27 -66 -81 -66h-301c-11.333 34 -17 59.167 -17 75.5s7 34.166 21 53.499zM142 641.002c0 19.333 3.66699 38 11 56c18.667 10 43.167 15 73.5 15
s53.833 -5 70.5 -15c7.33301 -18 11 -36.667 11 -56s-3.66699 -38 -11 -56c-16.667 -10 -41 -15 -73 -15s-55.667 5 -71 15c-7.33301 18 -11 36.667 -11 56z" />
    <glyph glyph-name="Zcaron" unicode="&#x17d;" horiz-adv-x="577" 
d="M57 149l226.999 316c21.333 30 48 63 80 99l-3 3c-45.333 -6 -96.666 -9 -153.999 -9h-146c-4 14.667 -6 32.334 -6 53.001s3.66699 44.667 11 72h438c14 -50 21 -83 21 -99s-5.66699 -32.333 -17 -49l-227 -316c-21.333 -30 -47.333 -61.667 -78 -95l3 -3
c57.333 4 106 6 146 6h63c43.333 0 81 7.66699 113 23c6.66699 -21.333 10 -44.833 10 -70.5s-9 -45.334 -27 -59.001s-42.333 -20.5 -73 -20.5h-382c-11.333 50.667 -17 84 -17 100s6 32.333 18 49zM165.999 915l117.002 -74l120 86c11.333 -4 23.666 -12 36.999 -24
s21.666 -24.333 24.999 -37l-119 -121c-20.667 -5.33301 -41.5 -8 -62.5 -8s-42.167 2.33301 -63.5 7l-113 110c4 14 12 26.667 24 38s23.667 19 35 23z" />
    <glyph glyph-name="zcaron" unicode="&#x17e;" horiz-adv-x="449" 
d="M47 129l125 167.002c13.333 17.333 40 48.666 80 93.999l-3 5c-46.667 -5.33301 -88.334 -8 -125.001 -8h-81c-3.33301 12.667 -5 29 -5 49s2.66699 40.667 8 62h347c12.667 -38 19 -65.333 19 -82s-4.66699 -31.667 -14 -45l-128 -171c-28.667 -38 -54 -68.333 -76 -91
l3 -4c32 3.33301 59 5 81 5h37c40.667 0 72.334 5.33301 95.001 16c10 -25.333 15 -45.333 15 -60c0 -44 -27 -66 -81 -66h-301c-11.333 34 -17 59.167 -17 75.5s7 34.166 21 53.499zM129 748.002l91.999 -86.999l99 95c29.333 -10 51.333 -29 66 -57l-106 -137
c-17.333 -6 -31.666 -9 -42.999 -9s-23 0.166992 -35 0.5s-27 3.16602 -45 8.49902l-93 125c6.66699 14 16.5 26.667 29.5 38s24.833 19 35.5 23z" />
    <glyph glyph-name="dotlessj" unicode="&#x237;" horiz-adv-x="301" 
d="M240 387v-360.001c0 -77.333 -12.167 -134.166 -36.5 -170.499s-73.833 -61.833 -148.5 -76.5c-10.667 8.66699 -20 21.667 -28 39s-12.333 34.666 -13 51.999c30 12.667 50.667 27.334 62 44.001s17 42.667 17 78v343c0 38 -15.667 57 -47 57h-23c-4 16.667 -6 34 -6 52
s2 35.333 6 52c38 3.33301 69 5 93 5h20c32.667 0 58.167 -10.333 76.5 -31s27.5 -48.667 27.5 -84z" />
    <glyph glyph-name="circumflex" unicode="&#x2c6;" 
d="M295 551l-92 87l-97 -94c-28.667 11.333 -50.667 30.333 -66 57l105 136c16 5.33301 29.667 8 41 8c35.333 0 62.333 -2.66699 81 -8l93 -125c-5.33301 -14 -14.5 -26.667 -27.5 -38s-25.5 -19 -37.5 -23z" />
    <glyph glyph-name="caron" unicode="&#x2c7;" 
d="M103 748l91.999 -86.999l99 95c29.333 -10 51.333 -29 66 -57l-106 -137c-17.333 -6 -31.666 -9 -42.999 -9s-23 0.166992 -35 0.5s-27 3.16602 -45 8.49902l-93 125c6.66699 14 16.5 26.667 29.5 38s24.833 19 35.5 23z" />
    <glyph glyph-name="dotaccent" unicode="&#x2d9;" 
d="M116 641c0 19.333 3.66699 38 11 56c18.667 10 43.167 15 73.5 15s53.833 -5 70.5 -15c7.33301 -18 11 -36.667 11 -56s-3.66699 -38 -11 -56c-16.667 -10 -41 -15 -73 -15s-55.667 5 -71 15c-7.33301 18 -11 36.667 -11 56z" />
    <glyph glyph-name="ring" unicode="&#x2da;" 
d="M99 578.5c-25.333 24.333 -38 54.333 -38 90s12.667 65.667 38 90s58.666 36.5 99.999 36.5s74.666 -12.167 99.999 -36.5s38 -54.333 38 -90s-12.667 -65.667 -38 -90s-58.666 -36.5 -99.999 -36.5s-74.666 12.167 -99.999 36.5zM150 669
c0 -14.667 4.5 -26.834 13.5 -36.501s20.833 -14.5 35.5 -14.5s26.5 4.83301 35.5 14.5s13.5 21.834 13.5 36.501s-4.5 26.834 -13.5 36.501s-20.833 14.5 -35.5 14.5s-26.5 -4.83301 -35.5 -14.5s-13.5 -21.834 -13.5 -36.501z" />
    <glyph glyph-name="tilde" unicode="&#x2dc;" 
d="M201 572l-45.001 22.999c-10.667 6 -21.167 9 -31.5 9s-21.5 -8 -33.5 -24l-9 -13c-14 0 -28 4.33301 -42 13s-23.333 19.334 -28 32.001l8 19c11.333 26 27 46.833 47 62.5s41.333 23.5 64 23.5s44.667 -5.66699 66 -17l45 -23c10.667 -6 21.334 -9 32.001 -9
s21.667 8 33 24l9 12c14 0 27.833 -4.16699 41.5 -12.5s23.167 -18.833 28.5 -31.5l-8 -20c-11.333 -26 -27.166 -46.833 -47.499 -62.5s-41.333 -23.5 -63 -23.5s-43.834 6 -66.501 18z" />
    <glyph glyph-name="mu" unicode="&#x3bc;" horiz-adv-x="552" 
d="M487 498v-355.002c0 -37.333 9.33301 -62.666 28 -75.999c-2.66699 -13.333 -8.66699 -27.166 -18 -41.499s-19 -25.5 -29 -33.5c-48 2 -83.667 21.667 -107 59c-25.333 -40 -61.333 -60 -108 -60c-19.333 0 -37.333 4.66699 -54 14v-123
c0 -33.333 -4.83301 -58.5 -14.5 -75.5s-30 -25.5 -61 -25.5s-59.5 10 -85.5 30c15.333 22 23 55.333 23 100v587c20.667 4 45 6 73 6s53 -2 75 -6v-305c0 -51.333 20.333 -77 61 -77c25.333 0 48 12 68 36v346c20 4 44.333 6 73 6s54 -2 76 -6z" />
    <glyph glyph-name="germandbls.cap" unicode="&#x1e9e;" horiz-adv-x="653" 
d="M97 0l-0.00195312 364.006l-86 -1c-4 16.667 -6 35.667 -6 57s2 40.666 6 57.999l86 -1v23c0 64.667 21.333 114.167 64 148.5s100.5 51.5 173.5 51.5s131.833 -18.833 176.5 -56.5s67 -88.167 67 -151.5c0 -24.667 -5.66699 -50.334 -17 -77.001
c-21.333 -4.66699 -37.666 -12.834 -48.999 -24.501s-17 -23.667 -17 -36s7.66699 -25.833 23 -40.5l38 -37c47.333 -46 71 -92.333 71 -139s-18.5 -83.834 -55.5 -111.501s-82 -41.5 -135 -41.5s-99.833 9.66699 -140.5 29c0.666992 16.667 4.83398 35.167 12.501 55.5
s17.167 36.166 28.5 47.499c26.667 -13.333 50 -20 70 -20s35.5 4 46.5 12s16.5 19.667 16.5 35s-10.333 32.666 -31 51.999l-40 37c-42 38.667 -63 76 -63 112c0 22 7.83301 44 23.5 66s37.167 39 64.5 51c1.33301 13.333 2 23 2 29c0 26.667 -8 49.167 -24 67.5
s-38.333 27.5 -67 27.5c-58 0 -87 -34 -87 -102v-484c-22 -4 -47.167 -6 -75.5 -6s-53.5 2 -75.5 6z" />
    <glyph glyph-name="endash" unicode="&#x2013;" horiz-adv-x="552" 
d="M490 209h-427c-4.66699 15.333 -7 34.333 -7 57s2.33301 41.667 7 57h427c4.66699 -15.333 7 -34.333 7 -57s-2.33301 -41.667 -7 -57z" />
    <glyph glyph-name="emdash" unicode="&#x2014;" horiz-adv-x="813" 
d="M739 209h-664c-4.66699 15.333 -7 34.333 -7 57s2.33301 41.667 7 57h664c4 -16 6 -35 6 -57s-2 -41 -6 -57z" />
    <glyph glyph-name="quoteleft" unicode="&#x2018;" horiz-adv-x="263" 
d="M52 506c-8.66699 21.333 -13.001 47 -13.001 77c0 48 14.167 90.833 42.5 128.5s69.5 64.167 123.5 79.5c23.333 -12 35 -31.333 35 -58c0 -3.33301 -0.333008 -7 -1 -11c-20 -6 -38.833 -16.5 -56.5 -31.5s-26.834 -32.833 -27.501 -53.5c24.667 -4 40 -8.66699 46 -14
c7.33301 -14.667 11 -34.167 11 -58.5s-3.66699 -43.833 -11 -58.5c-21.333 -12 -46.666 -18 -75.999 -18s-53.666 6 -72.999 18z" />
    <glyph glyph-name="quoteright" unicode="&#x2019;" horiz-adv-x="263" 
d="M211 773c8.66699 -24 12.999 -49.666 12.999 -76.999c0 -48 -14.167 -90.667 -42.5 -128s-69.833 -64 -124.5 -80c-22.667 12 -34 31.333 -34 58c0 3.33301 0.333008 7 1 11c20.667 7.33301 39.5 18.166 56.5 32.499s25.833 31.833 26.5 52.5
c-22.667 4 -37.667 8.66699 -45 14c-7.33301 14.667 -11 34.667 -11 60s3.66699 44.333 11 57c20.667 12 46.334 18 77.001 18s54.667 -6 72 -18z" />
    <glyph glyph-name="quotesinglbase" unicode="&#x201a;" horiz-adv-x="263" 
d="M210 122c8 -22 12 -47.6689 12 -77.002c0 -48 -14.167 -90.667 -42.5 -128s-69.5 -64 -123.5 -80c-22.667 12 -34 32 -34 60v9c20.667 6.66699 39.667 17.334 57 32.001s26.333 32.334 27 53.001c-22.667 4 -37.667 8.66699 -45 14c-7.33301 12.667 -11 32.167 -11 58.5
s3.66699 45.833 11 58.5c20.667 12 45.5 18 74.5 18s53.833 -6 74.5 -18z" />
    <glyph glyph-name="quotedblleft" unicode="&#x201c;" horiz-adv-x="492" 
d="M49 506c-8.66699 21.333 -13.001 47 -13.001 77c0 48 14.167 90.833 42.5 128.5s69.5 64.167 123.5 79.5c23.333 -12 35 -31.333 35 -58c0 -3.33301 -0.333008 -7 -1 -11c-20 -6 -38.833 -16.5 -56.5 -31.5s-26.834 -32.833 -27.501 -53.5c24.667 -4 40 -8.66699 46 -14
c7.33301 -14.667 11 -34.167 11 -58.5s-3.66699 -43.833 -11 -58.5c-21.333 -12 -46.666 -18 -75.999 -18s-53.666 6 -72.999 18zM278.999 506c-8.66699 21.333 -13.001 47 -13.001 77c0 48 14.167 90.833 42.5 128.5s69.5 64.167 123.5 79.5c23.333 -12 35 -31.333 35 -58
c0 -3.33301 -0.333008 -7 -1 -11c-20 -6 -38.833 -16.5 -56.5 -31.5s-26.834 -32.833 -27.501 -53.5c24.667 -4 40 -8.66699 46 -14c7.33301 -14.667 11 -34.167 11 -58.5s-3.66699 -43.833 -11 -58.5c-21.333 -12 -46.666 -18 -75.999 -18s-53.666 6 -72.999 18z" />
    <glyph glyph-name="quotedblright" unicode="&#x201d;" horiz-adv-x="492" 
d="M215 773c8.66699 -24 12.999 -49.666 12.999 -76.999c0 -48 -14.167 -90.667 -42.5 -128s-69.833 -64 -124.5 -80c-22.667 12 -34 31.333 -34 58c0 3.33301 0.333008 7 1 11c20.667 7.33301 39.5 18.166 56.5 32.499s25.833 31.833 26.5 52.5
c-22.667 4 -37.667 8.66699 -45 14c-7.33301 14.667 -11 34.667 -11 60s3.66699 44.333 11 57c20.667 12 46.334 18 77.001 18s54.667 -6 72 -18zM444.999 773.001c8.66699 -24 12.999 -49.666 12.999 -76.999c0 -48 -14.167 -90.667 -42.5 -128s-69.833 -64 -124.5 -80
c-22.667 12 -34 31.333 -34 58c0 3.33301 0.333008 7 1 11c20.667 7.33301 39.5 18.166 56.5 32.499s25.833 31.833 26.5 52.5c-22.667 4 -37.667 8.66699 -45 14c-7.33301 14.667 -11 34.667 -11 60s3.66699 44.333 11 57c20.667 12 46.334 18 77.001 18s54.667 -6 72 -18z
" />
    <glyph glyph-name="quotedblbase" unicode="&#x201e;" horiz-adv-x="492" 
d="M210 122c8 -22 12 -47.6689 12 -77.002c0 -48 -14.167 -90.667 -42.5 -128s-69.5 -64 -123.5 -80c-22.667 12 -34 32 -34 60v9c20.667 6.66699 39.667 17.334 57 32.001s26.333 32.334 27 53.001c-22.667 4 -37.667 8.66699 -45 14c-7.33301 12.667 -11 32.167 -11 58.5
s3.66699 45.833 11 58.5c20.667 12 45.5 18 74.5 18s53.833 -6 74.5 -18zM440 121.998c8 -22 12 -47.6689 12 -77.002c0 -48 -14.167 -90.667 -42.5 -128s-69.5 -64 -123.5 -80c-22.667 12 -34 32 -34 60v9c20.667 6.66699 39.667 17.334 57 32.001s26.333 32.334 27 53.001
c-22.667 4 -37.667 8.66699 -45 14c-7.33301 12.667 -11 32.167 -11 58.5s3.66699 45.833 11 58.5c20.667 12 45.5 18 74.5 18s53.833 -6 74.5 -18z" />
    <glyph glyph-name="bullet" unicode="&#x2022;" horiz-adv-x="460" 
d="M97 268c0 40.667 6 73 18 97c31.333 19.333 70.166 29 116.499 29s85.166 -9.66699 116.499 -29c11.333 -26.667 17 -59 17 -97s-5.66699 -70.333 -17 -97c-27.333 -18 -66.166 -27 -116.499 -27s-89.166 9 -116.499 27c-12 24 -18 56.333 -18 97z" />
    <glyph glyph-name="guilsinglleft" unicode="&#x2039;" horiz-adv-x="347" 
d="M311 410l-124 -151.999l128 -156c-4.66699 -15.333 -15.5 -30.666 -32.5 -45.999s-33.5 -25 -49.5 -29l-202 185c-4.66699 11.333 -7 25.666 -7 42.999s2.33301 31.666 7 42.999l200 188c16 -3.33301 32.167 -12.833 48.5 -28.5s26.833 -31.5 31.5 -47.5z" />
    <glyph glyph-name="guilsinglright" unicode="&#x203a;" horiz-adv-x="347" 
d="M36 103l124 153l-128 155c4.66699 15.333 15.5 30.833 32.5 46.5s33.5 25.167 49.5 28.5l202 -185c5.33301 -11.333 8 -25.5 8 -42.5s-2.66699 -31.167 -8 -42.5l-200 -189c-16.667 4 -33 13.833 -49 29.5s-26.333 31.167 -31 46.5z" />
    <glyph glyph-name="fraction" unicode="&#x2044;" horiz-adv-x="278" 
d="M-122 0l378.001 683c20 4.66699 37.333 7 52 7c46.667 0 77 -2.33301 91 -7l-377 -683c-20 -4.66699 -37.333 -7 -52 -7c-46.667 0 -77.334 2.33301 -92.001 7z" />
    <glyph glyph-name="foursuperior" unicode="&#x2074;" horiz-adv-x="420" 
d="M363 391l-31.998 0.99707v-70c-14.667 -4 -33.834 -6 -57.501 -6s-43.834 2 -60.501 6v21l1 49l-54 -1h-106c-18 30.667 -27 54.334 -27 71.001s5 34 15 52l114 257c5.33301 0.666992 13.166 1 23.499 1s25.5 -2.16699 45.5 -6.5s36.333 -11.166 49 -20.499l-55 -120
c-29.333 -66 -53.666 -111 -72.999 -135l2 -2c24 2.66699 45.667 4 65 4v34c0 28 7.66699 50 23 66s36.333 24 63 24h29l4 -5v-46l-1 -72h54c2.66699 -11.333 4 -26.166 4 -44.499s-3.33301 -37.5 -10 -57.5h-16z" />
    <glyph glyph-name="Euro" unicode="&#x20ac;" horiz-adv-x="561" 
d="M491 487c-48 37.333 -96.999 55.999 -146.999 55.999s-83 -31 -99 -93h168c3.33301 -16.667 5 -32.5 5 -47.5s-1.66699 -30.167 -5 -45.5h-180v-67h180c3.33301 -16 5 -31.667 5 -47s-1.66699 -30.666 -5 -45.999h-168c16 -61.333 48.833 -92 98.5 -92
s98.834 18.333 147.501 55c35.333 -20 56 -49.333 62 -88c-68 -58 -143.333 -87 -226 -87c-126 0 -203 70.667 -231 212h-82c-4 12 -6 27.333 -6 46s2 34.334 6 47.001h72c-0.666992 7.33301 -1 18.333 -1 33s0.333008 26 1 34h-72c-4 12 -6 27.167 -6 45.5
s2 34.166 6 47.499h82c28 142 105 213 231 213c81.333 0 156.666 -29 225.999 -87c-2.66699 -16.667 -9.83398 -33.5 -21.501 -50.5s-25.167 -29.833 -40.5 -38.5z" />
    <glyph glyph-name="nonmarkingreturn" horiz-adv-x="333" 
 />
    <glyph glyph-name="nbspace" horiz-adv-x="220" 
 />
    <glyph glyph-name="commaaccent" 
d="M139 -75c22 16 49.665 24 82.998 24c16.667 0 32.334 -2.66699 47.001 -8c8 -16 12 -36 12 -60c0 -39.333 -13.333 -73.833 -40 -103.5s-63 -51.5 -109 -65.5c-25.333 8.66699 -40.666 29 -45.999 61c44 25.333 66 58.333 66 99c0 18 -4.33301 35.667 -13 53z" />
    <glyph glyph-name="grave.cap" 
d="M109 934l221 -135c-5.33301 -34.667 -19.333 -58.667 -42 -72l-238 94c2 20.667 9 42.167 21 64.5s24.667 38.5 38 48.5z" />
    <glyph glyph-name="acute.cap" 
d="M78 799l220.999 135.001c13.333 -10 26 -26.167 38 -48.5s19 -43.833 21 -64.5l-238 -94c-10 6 -19.167 16.167 -27.5 30.5s-13.166 28.166 -14.499 41.499z" />
    <glyph glyph-name="circumflex.cap" 
d="M314 735l-117.001 75l-119 -86c-11.333 4 -23.5 12.167 -36.5 24.5s-21.167 24.833 -24.5 37.5l118 120c20.667 4.66699 41.334 7 62.001 7s41.667 -2 63 -6l113 -110c-4 -14 -12 -26.667 -24 -38s-23.667 -19.333 -35 -24z" />
    <glyph glyph-name="dieresis.cap" 
d="M254 850c18.667 10.667 39 16 61 16s41.333 -5.33301 58 -16c8 -10.667 12 -27.167 12 -49.5s-4 -38.5 -12 -48.5c-16 -11.333 -35.333 -17 -58 -17s-43 5.66699 -61 17c-9.33301 10 -14 26 -14 48s4.66699 38.667 14 50zM82 866c22.667 0 43.333 -5.33203 62 -15.999
c8 -9.33301 12 -25.833 12 -49.5s-4 -39.834 -12 -48.501c-18 -11.333 -38.667 -17 -62 -17s-42.333 5.66699 -57 17c-8 10 -12 26.167 -12 48.5s4 38.833 12 49.5c15.333 10.667 34.333 16 57 16z" />
    <glyph glyph-name="caron.cap" 
d="M77 915l117.002 -74l120 86c11.333 -4 23.666 -12 36.999 -24s21.666 -24.333 24.999 -37l-119 -121c-20.667 -5.33301 -41.5 -8 -62.5 -8s-42.167 2.33301 -63.5 7l-113 110c4 14 12 26.667 24 38s23.667 19 35 23z" />
    <glyph glyph-name="ring.cap" 
d="M61 787c0 36 12.667 66 38 90s58.666 36 99.999 36s74.666 -12 99.999 -36s38 -54 38 -90s-12.667 -66 -38 -90s-58.666 -36 -99.999 -36s-74.666 12 -99.999 36s-38 54 -38 90zM150 787c0 -14.667 4.5 -26.834 13.5 -36.501s20.833 -14.5 35.5 -14.5
s26.5 4.83301 35.5 14.5s13.5 21.834 13.5 36.501s-4.5 26.834 -13.5 36.501s-20.833 14.5 -35.5 14.5s-26.5 -4.83301 -35.5 -14.5s-13.5 -21.834 -13.5 -36.501z" />
    <glyph glyph-name="tilde.cap" 
d="M201 758l-48.001 23.001c-10.667 6 -22 9 -34 9s-23.333 -8 -34 -24l-9 -12c-14.667 0 -29.5 4.16699 -44.5 12.5s-25.167 18.833 -30.5 31.5l9 20c27.333 56.667 67.666 85 120.999 85c23.333 0 45.333 -5.66699 66 -17l48 -23c10.667 -6 21.834 -9 33.501 -9
s23.167 8 34.5 24l9 13c14.667 0 29.334 -4.33301 44.001 -13s25 -19.334 31 -32.001l-9 -19c-12.667 -26.667 -29.5 -47.667 -50.5 -63s-43 -23 -66 -23s-46.5 5.66699 -70.5 17z" />
    <glyph glyph-name="dotaccent.cap" 
d="M116 814c0 19.333 3.66699 38 11 56c21.333 10 46 15 74 15s51.333 -5 70 -15c7.33301 -18 11 -36.667 11 -56s-3.66699 -38.333 -11 -57c-18.667 -10 -43.167 -15 -73.5 -15s-53.833 5 -70.5 15c-7.33301 18.667 -11 37.667 -11 57z" />
    <glyph glyph-name="caron.alt" horiz-adv-x="459" 
d="M275 559c-8.66699 -3.33301 -21.168 -5 -37.501 -5s-31.5 3.66699 -45.5 11l11 232c10.667 2.66699 21.334 4 32.001 4c40.667 0 71.667 -7.66699 93 -23z" />
    <glyph glyph-name="commaaccent.cap" 
d="M139 -75c22 16 49.665 24 82.998 24c16.667 0 32.334 -2.66699 47.001 -8c8 -16 12 -36 12 -60c0 -39.333 -13.333 -73.833 -40 -103.5s-63 -51.5 -109 -65.5c-25.333 8.66699 -40.666 29 -45.999 61c44 25.333 66 58.333 66 99c0 18 -4.33301 35.667 -13 53z" />
    <glyph glyph-name="a.smcp" horiz-adv-x="571" 
d="M211 100c-14.667 0 -25.667 0.333008 -33 1l-33 -101c-16.667 -4.66699 -39 -7 -67 -7s-50.333 3.66699 -67 11l-5 8l195 538c25.333 4 54 6 86 6s61.333 -2 88 -6l191 -543c-24.667 -10.667 -50.334 -16 -77.001 -16s-47.167 4.16699 -61.5 12.5s-25.5 25.5 -33.5 51.5
l-15 46c-7.33301 -0.666992 -18.666 -1 -33.999 -1h-134zM216 218l31.998 1h66c2.66699 0 7.33398 -0.166992 14.001 -0.5s11.334 -0.5 14.001 -0.5l-13 42c-5.33301 17.333 -20.333 75.333 -45 174h-6c-1.33301 -4 -8 -28.333 -20 -73s-21 -77 -27 -97z" />
    <glyph glyph-name="b.smcp" horiz-adv-x="562" 
d="M79 551c70.667 2.66699 139.667 4 207 4c141.333 0 212 -48.667 212 -146c0 -24.667 -6.66699 -47.5 -20 -68.5s-31.333 -35.5 -54 -43.5c29.333 -8.66699 53.833 -26 73.5 -52s29.5 -54.333 29.5 -85c0 -109.333 -76.333 -164 -229 -164c-66.667 0 -139.667 1 -219 3
l-6 5v541zM219 100l77 1.00098c53.333 0 80 22 80 66c0 19.333 -7 35.666 -21 48.999s-36.333 20 -67 20h-69v-136zM219 453.001v-113h59c48.667 0 73 18.667 73 56s-24 56 -72 56c-26 0 -46 0.333008 -60 1z" />
    <glyph glyph-name="c.smcp" horiz-adv-x="545" 
d="M381 305c0 46 -6.49902 81.166 -19.499 105.499s-36.5 36.5 -70.5 36.5c-69.333 0 -104 -58.333 -104 -175c0 -108 38.667 -162 116 -162c45.333 0 93 18.333 143 55c14.667 -8 29 -21.667 43 -41s22.667 -37.333 26 -54c-66 -56.667 -144 -85 -234 -85
c-46 0 -85.667 8.33301 -119 25s-59 39.334 -77 68.001c-34.667 55.333 -52 120.333 -52 195c0 96 25.167 168.667 75.5 218s112.333 74 186 74s130 -18.167 169 -54.5s58.5 -78.833 58.5 -127.5c0 -54.667 -30.333 -82 -91 -82c-10.667 0 -27.334 1.33301 -50.001 4z" />
    <glyph glyph-name="d.smcp" horiz-adv-x="604" 
d="M548.5 413c14.333 -39.333 21.501 -85.833 21.501 -139.5s-7 -100 -21 -139s-40.667 -71.833 -80 -98.5s-94.333 -40 -165 -40s-145.667 1 -225 3l-6 6v540l6 6c105.333 2.66699 175.666 4 210.999 4c78 0 137 -13.833 177 -41.5s67.167 -61.167 81.5 -100.5z
M223.001 110l77.001 1c77.333 0 116 54.667 116 164s-38.667 164 -116 164c-32.667 0 -58.334 0.333008 -77.001 1v-330z" />
    <glyph glyph-name="e.smcp" horiz-adv-x="526" 
d="M223 177l-1 -58.999v-2c29.333 2.66699 51.666 4 66.999 4h199c0 -21.333 -0.666992 -38 -2 -50c-9.33301 -48 -39.666 -72 -90.999 -72h-234c-27.333 0 -48.833 7.66699 -64.5 23s-23.5 36.333 -23.5 63v461l6 5h391c3.33301 -14 5 -32.167 5 -54.5s-4 -44.5 -12 -66.5
h-241l1 -53v-41c16 0.666992 36.333 1 61 1h132c5.33301 -12.667 8 -31.834 8 -57.501s-2.66699 -45.5 -8 -59.5h-193v-42z" />
    <glyph glyph-name="f.smcp" horiz-adv-x="485" 
d="M462 550c4.66699 -16 7 -34.333 7 -55c0 -46 -25 -69 -75 -69h-169v-101h181c5.33301 -15.333 8 -35 8 -59s-2.66699 -43.667 -8 -59h-181v-207c-20.667 -4 -46 -6 -76 -6s-55.333 2 -76 6v546l6 4h383z" />
    <glyph glyph-name="g.smcp" horiz-adv-x="585" 
d="M298 317c31.333 1.33301 78.668 2.00098 142.001 2.00098c35.333 0 60.333 -6.66699 75 -20s22 -33.666 22 -60.999v-220c-25.333 -8.66699 -60.5 -16.334 -105.5 -23.001s-87.833 -10 -128.5 -10c-92.667 0 -160.834 25.833 -204.501 77.5s-65.5 123.667 -65.5 216
s26.833 163.166 80.5 212.499s120.334 74 200.001 74s151.167 -16.667 214.5 -50c-1.33301 -20 -7.83301 -41 -19.5 -63s-24.5 -37.667 -38.5 -47c-50 26 -97.833 39 -143.5 39s-80.334 -14.667 -104.001 -44s-35.5 -72.333 -35.5 -129c0 -115.333 47.667 -173 143 -173
c24 0 46.667 2 68 6v37c0 17.333 0.666992 36 2 56h-42c-45.333 0 -68 20 -68 60c0 25.333 2.66699 45.333 8 60z" />
    <glyph glyph-name="h.smcp" horiz-adv-x="630" 
d="M407 346l-1 59v145c19.333 4.66699 44.5 7 75.5 7s56.167 -2.33301 75.5 -7v-550c-20.667 -4 -46 -6 -76 -6s-55 2 -75 6v166l1 59l-44 -1h-95l-44 1l1 -59v-166c-20.667 -4 -46.167 -6 -76.5 -6s-55.5 2 -75.5 6v550c19.333 4.66699 44.5 7 75.5 7
s56.5 -2.33301 76.5 -7v-145l-1 -59l44 1h95z" />
    <glyph glyph-name="i.smcp" horiz-adv-x="303" 
d="M76 0v550c19.333 4 44.333 6 75 6s56 -2 76 -6v-550c-20 -4 -45.333 -6 -76 -6s-55.667 2 -75 6z" />
    <glyph glyph-name="j.smcp" horiz-adv-x="426" 
d="M52 134c28.667 -19.333 57 -29.001 85 -29.001c50 0 75 33.667 75 101v344c20 4 46.167 6 78.5 6s56.833 -2 73.5 -6v-339c0 -75.333 -16.167 -131.666 -48.5 -168.999s-85.5 -56 -159.5 -56c-28.667 0 -57.667 4.16699 -87 12.5s-52 18.5 -68 30.5
c8 43.333 25 78.333 51 105z" />
    <glyph glyph-name="k.smcp" horiz-adv-x="572" 
d="M556 37c-10.667 -13.333 -25.166 -24.167 -43.499 -32.5s-38.166 -12.333 -59.499 -12s-38.166 5.83301 -50.499 16.5s-23.5 28 -33.5 52l-44 107c-8 20 -16.667 34 -26 42c-12.667 10.667 -37.334 14.667 -74.001 12v-222c-20.667 -4 -46.167 -6 -76.5 -6
s-55.5 2 -75.5 6v550c20 4 45.167 6 75.5 6s55.833 -2 76.5 -6v-207h11c15.333 0 24.833 2.33301 28.5 7s8.16699 11.334 13.5 20.001l79 137c10 18 20.333 30.833 31 38.5s29.167 11.5 55.5 11.5s54.166 -2.33301 83.499 -7l9 -9l-105 -176
c-16.667 -28.667 -34.667 -50.334 -54 -65.001c23.333 -6.66699 41.666 -17.167 54.999 -31.5s25.333 -33.833 36 -58.5l37 -91c16.667 -40.667 33.667 -68 51 -82z" />
    <glyph glyph-name="l.smcp" horiz-adv-x="480" 
d="M135 555c58.667 0 88 -31.333 88 -94v-343c36.667 3.33301 67 5 91 5h145c-1.33301 -28.667 -2.66602 -46 -3.99902 -52c-8.66699 -49.333 -41 -74 -97 -74h-199c-26.667 0 -47.834 7.66699 -63.501 23s-23.5 36.333 -23.5 63v466l6 6h57z" />
    <glyph glyph-name="m.smcp" horiz-adv-x="756" 
d="M540 302l0.99707 57.999c0 14.667 -0.333008 29 -1 43h-6l-79 -319c-24.667 -3.33301 -51.167 -5 -79.5 -5s-53.5 1.66699 -75.5 5l-78 319h-7c0 -113.333 -1.33301 -185 -4 -215l-14 -188c-20 -4 -43.667 -6 -71 -6s-51.666 2.66699 -72.999 8l56 548
c26.667 5.33301 59.334 8 98.001 8s69 -2.66699 91 -8l53 -222c6 -20.667 14 -61.667 24 -123h6c7.33301 49.333 15.333 90.333 24 123l52 222c26.667 5.33301 58.5 8 95.5 8s68.5 -2.66699 94.5 -8l56 -548c-21.333 -5.33301 -45.666 -8 -72.999 -8s-51 2 -71 6l-16 189
c-2 26.667 -3 64.334 -3 113.001z" />
    <glyph glyph-name="n.smcp" horiz-adv-x="638" 
d="M558 557l5.99902 -7.00195v-547c-24 -6 -54.333 -9 -91 -9s-64.334 2 -83.001 6l-128 259c-3.33301 6.66699 -12.166 26.834 -26.499 60.501s-23.833 54.834 -28.5 63.501l-3 -1c5.33301 -102.667 8 -175.667 8 -219v-163c-19.333 -4 -42.5 -6 -69.5 -6
s-50.167 2 -69.5 6v547c28.667 6 60.5 9 95.5 9s60.5 -2 76.5 -6l126 -258c4 -8 14.5 -31.333 31.5 -70s26.5 -60 28.5 -64l4 1c-8.66699 140.667 -13 215 -13 223v92c0 32 6.83301 53.833 20.5 65.5s35.834 17.5 66.501 17.5h49z" />
    <glyph glyph-name="o.smcp" horiz-adv-x="604" 
d="M302 454c-76.667 0 -115 -59.5 -115 -178.5s38.333 -178.5 115 -178.5s115 59.5 115 178.5s-38.333 178.5 -115 178.5zM131 35c-65.333 49.333 -98 129.167 -98 239.5s32.667 190.166 98 239.499c45.333 34 102.5 51 171.5 51s125.833 -16.667 170.5 -50
c66 -51.333 99 -131.666 99 -240.999s-33 -189 -99 -239c-43.333 -33.333 -100.333 -50 -171 -50s-127.667 16.667 -171 50z" />
    <glyph glyph-name="p.smcp" horiz-adv-x="531" 
d="M79 551l204 3.99902c68 0 122.167 -15.833 162.5 -47.5s60.5 -79.167 60.5 -142.5s-20.333 -111.166 -61 -143.499s-94.667 -48.5 -162 -48.5h-58v-173c-20.667 -4 -46.167 -6 -76.5 -6s-55.5 2 -75.5 6v545zM225 442.999l-0.000976562 -159c12.667 0.666992 28 1 46 1
c54 0 81 26.167 81 78.5s-27 78.5 -81 78.5c-15.333 0 -30.666 0.333008 -45.999 1z" />
    <glyph glyph-name="q.smcp" horiz-adv-x="606" 
d="M131 35c-65.333 49.333 -98.002 129.168 -98.002 239.501s32.667 190.166 98 239.499c45.333 34 102.5 51 171.5 51s125.833 -16.667 170.5 -50c66 -51.333 99 -131.666 99 -240.999c0 -82 -21 -147.333 -63 -196c-15.333 -18.667 -33 -33.667 -53 -45
c16.667 -13.333 34.5 -23.5 53.5 -30.5s32.333 -10.833 40 -11.5s19.834 -1.33398 36.501 -2.00098c-1.33301 -34 -11.5 -60.333 -30.5 -79s-44.833 -28 -77.5 -28s-64 14.333 -94 43l-68 60h-7c-75.333 0 -134.666 16.667 -177.999 50zM301.998 454.002
c-76.667 0 -115 -59.5 -115 -178.5s38.333 -178.5 115 -178.5s115 59.5 115 178.5s-38.333 178.5 -115 178.5z" />
    <glyph glyph-name="r.smcp" horiz-adv-x="567" 
d="M517 384c0 -36 -11.667 -67.166 -35 -93.499s-49.666 -42.833 -78.999 -49.5c31.333 -10.667 56.333 -35.334 75 -74.001l27 -63c13.333 -30 28.333 -52.333 45 -67c-10 -12.667 -24.167 -23.5 -42.5 -32.5s-38 -13.5 -59 -13.5s-38.167 5.16699 -51.5 15.5
s-25 27.5 -35 51.5l-45 102c-7.33301 15.333 -15.833 25.333 -25.5 30s-24.167 7 -43.5 7h-25v-197c-20 -4 -45 -6 -75 -6s-55 2 -75 6v545l6 6c105.333 2.66699 177.666 4 216.999 4c66 0 119.333 -13.5 160 -40.5s61 -70.5 61 -130.5zM289 446.001l-66 1.00098v-136l59 1
c54 0 81 22.667 81 68c0 19.333 -6 35.166 -18 47.499s-30.667 18.5 -56 18.5z" />
    <glyph glyph-name="s.smcp" horiz-adv-x="507" 
d="M19 42c0 19.333 5.33008 40.1709 15.9971 62.5039s23.334 38.5 38.001 48.5c62.667 -33.333 122 -50 178 -50c20.667 0.666992 37.334 5.16699 50.001 13.5s19 19.833 19 34.5c0 21.333 -16.667 38 -50 50l-91 33c-96 34.667 -144 87 -144 157
c0 51.333 19.833 93.166 59.5 125.499s94.5 48.5 164.5 48.5s139 -14.333 207 -43c0 -22 -4.5 -43.5 -13.5 -64.5s-21.167 -37.5 -36.5 -49.5c-60 26 -114.667 39 -164 39c-18.667 -0.666992 -33.167 -4.83398 -43.5 -12.501s-15.5 -16.834 -15.5 -27.501
s3.83301 -18.667 11.5 -24s20.5 -11.333 38.5 -18l90 -32c99.333 -36.667 149 -94.667 149 -174c0 -54 -21.167 -96.333 -63.5 -127s-97.166 -46.334 -164.499 -47.001c-94.667 0 -173 19 -235 57z" />
    <glyph glyph-name="t.smcp" horiz-adv-x="458" 
d="M308 429l1 -61v-368c-18 -4 -42.333 -6 -73 -6s-56.667 2 -78 6v368l1 61h-1l-56 -1h-94c-4 18.667 -6 39.5 -6 62.5s2 42.833 6 59.5h447c4.66699 -16 7 -34.333 7 -55c0 -44.667 -25 -67 -75 -67h-25l-53 1h-1z" />
    <glyph glyph-name="u.smcp" horiz-adv-x="612" 
d="M548 550v-344.999c0 -69.333 -20.833 -123.333 -62.5 -162s-101.5 -58 -179.5 -58s-137.833 19.333 -179.5 58s-62.5 92.667 -62.5 162v345l5 6h55c60.667 0 91 -32 91 -96v-254c0 -68 30.333 -102 91 -102c32.667 0 56 8.66699 70 26s21 42.666 21 75.999v344
c20 4 45.333 6 76 6s55.667 -2 75 -6z" />
    <glyph glyph-name="v.smcp" horiz-adv-x="542" 
d="M283 114l114 436c17.333 4 38 6 62 6s47.667 -3.33301 71 -10l7 -7l-166 -539c-23.333 -4 -56 -6 -98 -6s-71 4.5 -87 13.5s-27.667 26.5 -35 52.5l-145 480c26.667 11.333 53.334 17 80.001 17s46.5 -5.33301 59.5 -16s23.167 -29 30.5 -55l58 -189
c14 -50 27 -108 39 -174c1.33301 -6 4.66602 -9 9.99902 -9z" />
    <glyph glyph-name="w.smcp" horiz-adv-x="820" 
d="M120 58l-102.998 484.998c22.667 9.33301 48.667 14 78 14s49.5 -6 60.5 -18s19.5 -34 25.5 -66l36 -204c8 -39.333 13.667 -73.166 17 -101.499s5.5 -43.166 6.5 -44.499s3.16699 -2 6.5 -2l73 422c28 4 58.667 6 92 6s64.666 -2 93.999 -6l67 -410
c0.666992 -6 1.66699 -9.5 3 -10.5s3.33301 -1.5 6 -1.5c5.33301 49.333 12.666 99 21.999 149l52 280c15.333 3.33301 37.5 5 66.5 5s52.833 -3.66699 71.5 -11l7 -8l-117 -536c-26 -5.33301 -67.667 -8 -125 -8c-25.333 0 -45.666 4.5 -60.999 13.5s-25.333 26.5 -30 52.5
l-28 162c-8 49.333 -16.667 112.333 -26 189h-6c-12.667 -86.667 -22.334 -149.667 -29.001 -189l-39 -220c-28.667 -4.66699 -70.667 -7 -126 -7c-26.667 0 -47.5 4.33301 -62.5 13s-25.5 26 -31.5 52z" />
    <glyph glyph-name="x.smcp" horiz-adv-x="551" 
d="M378 550l0.000976562 1.00098c16.667 3.33301 38.667 5 66 5s53 -3.33301 77 -10l1 -8l-161 -243l185 -271c-30 -21.333 -65 -32 -105 -32c-20 0 -37.167 4.66699 -51.5 14s-28.5 24.666 -42.5 45.999l-83 122l-111 -174c-18 -4 -41 -6 -69 -6s-52.667 3.66699 -74 11
l-5 7l181 276l-161 239c32 20.667 66.667 31 104 31c20 0 36.667 -4.5 50 -13.5s27.666 -24.167 42.999 -45.5l62 -92z" />
    <glyph glyph-name="y.smcp" horiz-adv-x="471" 
d="M278 413l53.999 137c16.667 4 35.667 6 57 6s46 -3 74 -9l6 -8l-160 -377v-162c-19.333 -4 -44 -6 -74 -6s-54.667 2 -74 6v166l-159 371c30 14 58.667 21 86 21c40 0 67 -18.667 81 -56l40 -103c14 -36.667 23.333 -72 28 -106h6
c22.667 78.667 34.334 118.667 35.001 120z" />
    <glyph glyph-name="z.smcp" horiz-adv-x="521" 
d="M52 139l191.003 222.999c24 26.667 49.667 51.334 77 74.001l-2 3c-46.667 -5.33301 -94.334 -8 -143.001 -8h-119c-3.33301 15.333 -5 32 -5 50s3.33301 41 10 69h398c14 -50 21 -82.5 21 -97.5s-5.66699 -28.833 -17 -41.5l-191 -222
c-22.667 -27.333 -46.334 -51 -71.001 -71l2 -4c1.33301 0 46.666 2.33301 135.999 7l35 1c50 2.66699 85 9 105 19c6 -20 9 -41.5 9 -64.5s-9.5 -41.667 -28.5 -56s-42.833 -21.5 -71.5 -21.5h-338c-10.667 50 -16 81.667 -16 95s6 28.333 18 45z" />
    <glyph glyph-name="ampersand.smcp" horiz-adv-x="591" 
d="M307 347l164.999 0.00195312c38.667 0 71.334 6.33301 98.001 19c12 -16 18 -37.667 18 -65c0 -47.333 -30 -71 -90 -71h-11c0.666992 -11.333 1 -30.333 1 -57v-75c0 -22.667 2.66699 -55.334 8 -98.001c-16 -6.66699 -38.667 -10 -68 -10s-52 2 -68 6l-9 38
c-36.667 -32 -83 -48 -139 -48s-99.167 15.167 -129.5 45.5s-45.5 65.833 -45.5 106.5s11 74.5 33 101.5s49.333 44.833 82 53.5c-26 8.66699 -46.833 24 -62.5 46s-23.5 47.333 -23.5 76c0 45.333 18.333 81.666 55 108.999s86.5 41 149.5 41s124.833 -9.33301 185.5 -28
c0.666992 -4.66699 1 -9 1 -13c0 -36 -12.667 -68 -38 -96c-54.667 16 -95.5 24 -122.5 24s-46.167 -4.66699 -57.5 -14s-17 -21.333 -17 -36c0 -36.667 28.333 -55 85 -55zM344.999 125.002v105h-51c-69.333 0 -104 -23.667 -104 -71c0 -21.333 6.5 -37 19.5 -47
s29.167 -15 48.5 -15c33.333 0 62.333 9.33301 87 28z" />
    <glyph glyph-name="zero.smcp" horiz-adv-x="482" 
d="M44 137.5c-7.33301 38.333 -10.998 79.667 -10.998 124s0.833008 77.833 2.5 100.5s7.16699 48.5 16.5 77.5s23 52.167 41 69.5c37.333 37.333 86.666 56 147.999 56s110.666 -18.667 147.999 -56c25.333 -25.333 41.666 -57.166 48.999 -95.499s11 -79.5 11 -123.5
s-0.833008 -77.333 -2.5 -100s-7.16699 -48.5 -16.5 -77.5s-23 -52.5 -41 -70.5c-38 -38 -87.333 -57 -148 -57s-110 19 -148 57c-25.333 25.333 -41.666 57.166 -48.999 95.499zM241.002 457.001c-21.333 0 -37 -8.83301 -47 -26.5s-15 -69.334 -15 -155.001
s5 -137.334 15 -155.001s25.667 -26.5 47 -26.5s37 8.83301 47 26.5s15 69.334 15 155.001s-5 137.334 -15 155.001s-25.667 26.5 -47 26.5z" />
    <glyph glyph-name="one.smcp" horiz-adv-x="482" 
d="M197 116l-1 62.999v104c0 0.666992 2.66699 31.334 8 92.001c-29.333 -31.333 -67.333 -57 -114 -77c-14.667 6.66699 -27.5 18.167 -38.5 34.5s-17.833 33.5 -20.5 51.5c44 25.333 79 50.833 105 76.5s48 55.5 66 89.5c20 3.33301 43 5 69 5s49 -1.66699 69 -5v-371
l-1 -63l64 2h40c4 -17.333 6 -37 6 -59s-2 -41.667 -6 -59h-372c-4.66699 21.333 -7 41.333 -7 60s2.33301 38 7 58h66z" />
    <glyph glyph-name="two.smcp" horiz-adv-x="482" 
d="M441 122c0 -23.333 -1.33301 -41.666 -4 -54.999c-8 -46 -37.667 -69 -89 -69h-261c-11.333 10.667 -22.5 24.5 -33.5 41.5s-16.5 31.833 -16.5 44.5c0 42 34 92.667 102 152l96 85c26 22.667 39 45.667 39 69c0 14.667 -4.66699 27.167 -14 37.5s-22.333 15.5 -39 15.5
s-31.5 -6.5 -44.5 -19.5s-22.833 -29.5 -29.5 -49.5c-20 0 -39.833 4.66699 -59.5 14s-34.167 20.666 -43.5 33.999c11.333 42 33.833 76.333 67.5 103s76.5 40 128.5 40s95.333 -16.5 130 -49.5s52 -76.667 52 -131s-33 -108.5 -99 -162.5l-70 -58
c-34 -27.333 -53.667 -45 -59 -53c54.667 7.33301 99 11 133 11h114z" />
    <glyph glyph-name="three.smcp" horiz-adv-x="482" 
d="M392 408l-65.999 -60.001c-8.66699 -7.33301 -19 -14.666 -31 -21.999c44 -5.33301 79.833 -22.166 107.5 -50.499s41.5 -63.833 41.5 -106.5c0 -56.667 -21.167 -101.5 -63.5 -134.5s-93.833 -49.5 -154.5 -49.5c-76 0 -139.333 20.667 -190 62
c3.33301 17.333 10.5 35.166 21.5 53.499s23.833 32.5 38.5 42.5c38 -27.333 76 -41 114 -41c25.333 0 45.5 6.33301 60.5 19s22.5 29.5 22.5 50.5s-6.5 37.667 -19.5 50s-28.5 18.5 -46.5 18.5s-35.333 -3 -52 -9c-12.667 5.33301 -24.834 16.5 -36.501 33.5
s-19.5 32.833 -23.5 47.5h1l77 71c10 8.66699 31.333 25.667 64 51l-3 4c-21.333 -4.66699 -53 -7 -95 -7h-98c-6.66699 18.667 -10 38.667 -10 60s4.33301 41 13 59h326c18.667 -34.667 28 -63 28 -85s-8.66699 -41 -26 -57z" />
    <glyph glyph-name="four.smcp" horiz-adv-x="482" 
d="M387 91l1.00098 -64.998v-26c-20.667 -4 -43.5 -6 -68.5 -6s-47.5 2 -67.5 6v26l1 65l-71 -2h-128c-20.667 34.667 -31 62.167 -31 82.5s5.33301 41.166 16 62.499l153 323c8 1.33301 18 2 30 2s28.667 -2.66699 50 -8s38.666 -14.333 51.999 -27l-69 -145
c-28 -58 -59 -116.667 -93 -176l3 -4l87 7v44c0 31.333 9 57.5 27 78.5s41.333 31.5 70 31.5h34l6 -7v-59l-2 -86v-1l42 1h27c2.66699 -14 4 -31.333 4 -52s-3.66699 -42.334 -11 -65.001h-62z" />
    <glyph glyph-name="five.smcp" horiz-adv-x="482" 
d="M36 45c2.66699 14.667 9.83594 31.999 21.5029 51.999s24.167 34.667 37.5 44c35.333 -26 72.666 -39 111.999 -39c25.333 0 45.833 7 61.5 21s23.5 33 23.5 57s-7.5 43 -22.5 57s-34.833 21 -59.5 21s-49.334 -10 -74.001 -30
c-12.667 2.66699 -26.334 9.33398 -41.001 20.001s-25.667 22 -33 34l16 262l8 6h329c6.66699 -18.667 10 -38.667 10 -60c0 -39.333 -21 -59 -63 -59h-152v-14l-2 -38l-2 -22c16.667 3.33301 32.667 5 48 5c54 0 98.5 -16.333 133.5 -49s52.5 -77.667 52.5 -135
s-21.5 -103.833 -64.5 -139.5s-97.833 -53.5 -164.5 -53.5s-125 20 -175 60z" />
    <glyph glyph-name="six.smcp" horiz-adv-x="482" 
d="M392 38c-38 -35.333 -86.502 -52.999 -145.502 -52.999s-106.167 16.667 -141.5 50c-47.333 46.667 -71 128.667 -71 246c0 89.333 21.5 159 64.5 209s103.5 75 181.5 75c55.333 0 104 -9.66699 146 -29c-5.33301 -42 -21 -74 -47 -96c-33.333 10.667 -63.333 16 -90 16
c-65.333 0 -100.666 -41 -105.999 -123c32.667 19.333 68.334 29 107.001 29c54 0 94 -15.833 120 -47.5s39 -76.834 39 -135.501s-19 -105.667 -57 -141zM182.998 217.001c0 -84.667 22 -127 66 -127c38 0 57 27 57 81s-18.333 81 -55 81c-22 0 -44.667 -6.66699 -68 -20
v-15z" />
    <glyph glyph-name="seven.smcp" horiz-adv-x="482" 
d="M53 550h371c19.333 -34.667 29 -61.834 29 -81.501s-6 -37.5 -18 -53.5l-36 -47c-43.333 -55.333 -75.166 -108.833 -95.499 -160.5s-31.833 -113.5 -34.5 -185.5l-1 -22c-16.667 -4.66699 -40.5 -7 -71.5 -7s-57.167 2.33301 -78.5 7l2 23
c10 135.333 56.333 251 139 347l15 17c11.333 14.667 26.666 30.334 45.999 47.001l-3 5c-38 -6.66699 -80.667 -10 -128 -10h-143c-4.66699 17.333 -7 36 -7 56s4.66699 41.667 14 65z" />
    <glyph glyph-name="eight.smcp" horiz-adv-x="482" 
d="M27 133c0 61.333 32.334 109.002 97.001 143.002c-54 33.333 -81 74.166 -81 122.499s18.667 88.166 56 119.499s85.5 47 144.5 47s106.167 -14 141.5 -42s53 -65.5 53 -112.5s-24 -84.5 -72 -112.5c59.333 -36.667 89 -83.167 89 -139.5s-20.667 -99.333 -62 -129
s-93.833 -44.5 -157.5 -44.5s-114.334 13.5 -152.001 40.5s-56.5 62.833 -56.5 107.5zM238.001 225.002l-12 4.99902c-38 -22 -57 -50.667 -57 -86c0 -17.333 6.33301 -31.666 19 -42.999s30 -17 52 -17s39 6.16699 51 18.5s18 26.5 18 42.5c0 35.333 -23.667 62 -71 80z
M184.001 414.001c0 -27.333 22.998 -49.332 68.998 -65.999l12 -5c24 19.333 36 41.666 36 66.999c0 14.667 -5.16699 27.5 -15.5 38.5s-24.666 16.5 -42.999 16.5s-32.666 -5 -42.999 -15s-15.5 -22 -15.5 -36z" />
    <glyph glyph-name="nine.smcp" horiz-adv-x="482" 
d="M91.5 512c37.667 35.333 86.502 52.999 146.502 52.999s106.667 -16.667 140 -50c47.333 -46 71 -128 71 -246c0 -89.333 -21.5 -159 -64.5 -209s-103.5 -75 -181.5 -75c-54 0 -102.333 10 -145 30c5.33301 40.667 20.666 72.667 45.999 96
c35.333 -11.333 65.666 -17 90.999 -17c65.333 0 100 40.667 104 122c-32 -18.667 -67.333 -28 -106 -28c-53.333 0 -93 15.833 -119 47.5s-39 76.834 -39 135.501s18.833 105.667 56.5 141zM232.002 297.999c21.333 0 44 6.33301 68 19v16
c0 50.667 -6.16699 84.5 -18.5 101.5s-27.833 25.5 -46.5 25.5c-38 0 -57 -27 -57 -81s18 -81 54 -81z" />
    <glyph glyph-name="currency.smcp" horiz-adv-x="480" 
d="M66 173c-14.667 27.333 -22 58.499 -22 93.499s7 65.5 21 91.5l-56 64c14 27.333 39 52 75 74l68 -61c26.667 11.333 55.334 17 86.001 17s59.334 -5.33301 86.001 -16l72 63c28 -16 53.333 -41 76 -75l-59 -68c14 -28 21 -58.5 21 -91.5s-7.66699 -63.833 -23 -92.5
l57 -64c-16 -29.333 -41 -54.666 -75 -75.999l-72 63c-24.667 -9.33301 -52.334 -14 -83.001 -14s-58.334 5 -83.001 15l-71 -62c-26.667 15.333 -51.667 40 -75 74zM180 265.999c0 -24.667 4.83301 -44.833 14.5 -60.5s24.5 -23.5 44.5 -23.5c40 0 60 28 60 84
c0 25.333 -5 46 -15 62s-25 24 -45 24c-39.333 0 -59 -28.667 -59 -86z" />
    <glyph glyph-name="dollar.smcp" horiz-adv-x="455" 
d="M19 77c1.33301 18.667 7.00293 38.333 17.0029 59s22 36 36 46c58.667 -30 111.667 -45 159 -45c34 0 51 10 51 30c0 15.333 -12 27.333 -36 36l-86 31c-80 30 -120 76 -120 138c0 38 12.167 69.833 36.5 95.5s57.833 43.167 100.5 52.5v66
c11.333 3.33301 28.666 5 51.999 5s40.666 -1.66699 51.999 -5v-62c49.333 -6 95.666 -19.333 138.999 -40c-0.666992 -44.667 -17.334 -79.334 -50.001 -104.001c-50 24 -96 36 -138 36c-30.667 0 -46 -10.333 -46 -31c0 -11.333 13 -22 39 -32l78 -28
c86 -31.333 129 -81.333 129 -150c0 -41.333 -14.167 -74.666 -42.5 -99.999s-65.833 -41.333 -112.5 -48v-61c-11.333 -2.66699 -28.166 -4 -50.499 -4s-39.833 1.33301 -52.5 4v60c-61.333 7.33301 -113 24.333 -155 51z" />
    <glyph glyph-name="cent.smcp" horiz-adv-x="419" 
d="M165 -31l-0.000976562 80c-50.667 12.667 -86.834 39.667 -108.501 81s-32.5 92 -32.5 152s13.333 109 40 147s61.334 62.667 104.001 74v82c14 2 30.833 3 50.5 3s37.167 -1 52.5 -3v-80c38.667 -8 69.334 -24.5 92.001 -49.5s34 -56.833 34 -95.5
c0 -51.333 -26 -77 -78 -77c-19.333 0 -36.333 2 -51 6c0 39.333 -3.5 67.5 -10.5 84.5s-20 25.5 -39 25.5s-32.833 -10.167 -41.5 -30.5s-13 -53.5 -13 -99.5c0 -76.667 26.667 -115 80 -115c31.333 0 64.333 10 99 30c11.333 -7.33301 22 -18.666 32 -33.999
s16.667 -30.333 20 -45c-32.667 -30.667 -74.667 -50.334 -126 -59.001v-77c-10 -2.66699 -26.667 -4 -50 -4s-41.333 1.33301 -54 4z" />
    <glyph glyph-name="sterling.smcp" horiz-adv-x="477" 
d="M222 317l145.998 0.998047c5.33301 -13.333 8 -29.666 8 -48.999s-2.66699 -35.666 -8 -48.999c-58 0 -101.333 0.333008 -130 1c-6 -41.333 -21.333 -77.333 -46 -108l3 -2c34 4 87 6 159 6h99c0 -18.667 -1 -33.667 -3 -45c-8 -49.333 -40.667 -74 -98 -74h-289
c-11.333 48.667 -17 79.334 -17 92.001s6 28.667 18 48l10 17c16.667 28 27 49.667 31 65h-57c-5.33301 13.333 -8 29.833 -8 49.5s2.66699 35.834 8 48.501h39c-16 34.667 -24 64.667 -24 90c0 42.667 17.333 79.5 52 110.5s79.667 46.5 135 46.5
c78.667 0 142.334 -23.667 191.001 -71c-6 -18.667 -15.5 -36 -28.5 -52s-27.833 -28 -44.5 -36c-37.333 28 -71.666 42 -102.999 42c-18.667 0 -33.667 -5.33301 -45 -16s-17 -24.834 -17 -42.501s6.33301 -41.834 19 -72.501z" />
    <glyph glyph-name="Euro.smcp" horiz-adv-x="496" 
d="M433 412c-40.667 26 -81.668 39.0029 -123.001 39.0029s-69.333 -22.333 -84 -67h135c4 -14.667 6 -28.334 6 -41.001s-2 -26.334 -6 -41.001h-147v-54h147c4 -14.667 6 -28.334 6 -41.001s-2 -26.334 -6 -41.001h-134c15.333 -44 43.833 -66 85.5 -66
s81.834 12.667 120.501 38c15.333 -8.66699 28.5 -20.667 39.5 -36s17.5 -31 19.5 -47c-60 -46.667 -122.667 -70 -188 -70s-115 16.667 -149 50s-57.333 77 -70 131h-75c-3.33301 12 -5 25.667 -5 41s1.66699 29 5 41h65c-0.666992 5.33301 -1 14 -1 26v28h-64
c-3.33301 12 -5 25.667 -5 41s1.66699 29 5 41h74c27.333 120.667 98 181 212 181c72.667 0 138 -22.667 196 -68c-2 -16.667 -8.66699 -33.167 -20 -49.5s-24.333 -28.166 -39 -35.499z" />
    <glyph glyph-name="yen.smcp" horiz-adv-x="490" 
d="M448 121l-134.001 -0.000976562v-121c-20 -4 -44 -6 -72 -6s-51.333 2 -70 6v121h-134c-4.66699 16.667 -7 30.667 -7 42s2.33301 25.333 7 42h127l-27 57h-100c-4.66699 16.667 -7 30.334 -7 41.001s2.33301 25 7 43h61l-86 188c34.667 17.333 66.5 26 95.5 26
s49.5 -15 61.5 -45l45 -109c10 -23.333 20.333 -55.333 31 -96h4c10 36 21 67.667 33 95l62 146c17.333 4 37.333 6 60 6s46.334 -3 71.001 -9l5 -7l-93 -195h60c4 -20 6 -34.5 6 -43.5s-2 -22.5 -6 -40.5h-100l-27 -57h127c4 -18 6 -32 6 -42s-2 -24 -6 -42z" />
    <glyph glyph-name="ae.smcp" horiz-adv-x="800" 
d="M494 115l65.999 3h202c0 -20 -0.666992 -36 -2 -48c-9.33301 -48 -39.666 -72 -90.999 -72h-230c-26.667 0 -47.334 7.66699 -62.001 23s-22 36.333 -22 63v23c-7.33301 -0.666992 -17.666 -1 -30.999 -1h-86l-46 1l-51 -107c-15.333 -4 -37 -6 -65 -6
s-50.667 3.33301 -68 10l-6 9l264 525c16.667 8 48 12 94 12h384c3.33301 -14 5 -32 5 -54s-4 -44 -12 -66h-243l1 -54v-42c15.333 0.666992 35.333 1 60 1h135c5.33301 -14 8 -33.5 8 -58.5s-2.66699 -43.833 -8 -56.5h-195v-43l-1 -61v-1zM322.999 217l32 -1v230l-1 -1h-4
l-76 -165l-31 -64l38 1h42z" />
    <glyph glyph-name="agrave.smcp" horiz-adv-x="571" 
d="M211 100c-14.667 0 -25.667 0.333008 -33 1l-33 -101c-16.667 -4.66699 -39 -7 -67 -7s-50.333 3.66699 -67 11l-5 8l195 538c25.333 4 54 6 86 6s61.333 -2 88 -6l191 -543c-24.667 -10.667 -50.334 -16 -77.001 -16s-47.167 4.16699 -61.5 12.5s-25.5 25.5 -33.5 51.5
l-15 46c-7.33301 -0.666992 -18.666 -1 -33.999 -1h-134zM216 218l31.998 1h66c2.66699 0 7.33398 -0.166992 14.001 -0.5s11.334 -0.5 14.001 -0.5l-13 42c-5.33301 17.333 -20.333 75.333 -45 174h-6c-1.33301 -4 -8 -28.333 -20 -73s-21 -77 -27 -97zM236.998 817
l154 -167.001c-4.66699 -13.333 -13 -25.333 -25 -36s-24.333 -18 -37 -22l-183 138c6 18.667 18 36.334 36 53.001s36.333 28 55 34z" />
    <glyph glyph-name="aacute.smcp" horiz-adv-x="571" 
d="M211 100c-14.667 0 -25.667 0.333008 -33 1l-33 -101c-16.667 -4.66699 -39 -7 -67 -7s-50.333 3.66699 -67 11l-5 8l195 538c25.333 4 54 6 86 6s61.333 -2 88 -6l191 -543c-24.667 -10.667 -50.334 -16 -77.001 -16s-47.167 4.16699 -61.5 12.5s-25.5 25.5 -33.5 51.5
l-15 46c-7.33301 -0.666992 -18.666 -1 -33.999 -1h-134zM216 218l31.998 1h66c2.66699 0 7.33398 -0.166992 14.001 -0.5s11.334 -0.5 14.001 -0.5l-13 42c-5.33301 17.333 -20.333 75.333 -45 174h-6c-1.33301 -4 -8 -28.333 -20 -73s-21 -77 -27 -97zM198.998 650
l154.002 167.001c18.667 -6 37.167 -17.333 55.5 -34s30.166 -34.334 35.499 -53.001l-183 -138c-12.667 4 -24.834 11.333 -36.501 22s-20.167 22.667 -25.5 36z" />
    <glyph glyph-name="acircumflex.smcp" horiz-adv-x="571" 
d="M211 100c-14.667 0 -25.667 0.333008 -33 1l-33 -101c-16.667 -4.66699 -39 -7 -67 -7s-50.333 3.66699 -67 11l-5 8l195 538c25.333 4 54 6 86 6s61.333 -2 88 -6l191 -543c-24.667 -10.667 -50.334 -16 -77.001 -16s-47.167 4.16699 -61.5 12.5s-25.5 25.5 -33.5 51.5
l-15 46c-7.33301 -0.666992 -18.666 -1 -33.999 -1h-134zM216 218l31.998 1h66c2.66699 0 7.33398 -0.166992 14.001 -0.5s11.334 -0.5 14.001 -0.5l-13 42c-5.33301 17.333 -20.333 75.333 -45 174h-6c-1.33301 -4 -8 -28.333 -20 -73s-21 -77 -27 -97zM386.998 603l-92 87
l-97 -94c-28.667 11.333 -50.667 30.333 -66 57l105 136c16 5.33301 29.667 8 41 8c35.333 0 62.333 -2.66699 81 -8l93 -125c-5.33301 -14 -14.5 -26.667 -27.5 -38s-25.5 -19 -37.5 -23z" />
    <glyph glyph-name="atilde.smcp" horiz-adv-x="571" 
d="M211 100c-14.667 0 -25.667 0.333008 -33 1l-33 -101c-16.667 -4.66699 -39 -7 -67 -7s-50.333 3.66699 -67 11l-5 8l195 538c25.333 4 54 6 86 6s61.333 -2 88 -6l191 -543c-24.667 -10.667 -50.334 -16 -77.001 -16s-47.167 4.16699 -61.5 12.5s-25.5 25.5 -33.5 51.5
l-15 46c-7.33301 -0.666992 -18.666 -1 -33.999 -1h-134zM216 218l31.998 1h66c2.66699 0 7.33398 -0.166992 14.001 -0.5s11.334 -0.5 14.001 -0.5l-13 42c-5.33301 17.333 -20.333 75.333 -45 174h-6c-1.33301 -4 -8 -28.333 -20 -73s-21 -77 -27 -97zM292.998 624
l-45.001 22.999c-10.667 6 -21.167 9 -31.5 9s-21.5 -8 -33.5 -24l-9 -13c-14 0 -28 4.33301 -42 13s-23.333 19.334 -28 32.001l8 19c11.333 26 27 46.833 47 62.5s41.333 23.5 64 23.5s44.667 -5.66699 66 -17l45 -23c10.667 -6 21.334 -9 32.001 -9s21.667 8 33 24l9 12
c14 0 27.833 -4.16699 41.5 -12.5s23.167 -18.833 28.5 -31.5l-8 -20c-11.333 -26 -27.166 -46.833 -47.499 -62.5s-41.333 -23.5 -63 -23.5s-43.834 6 -66.501 18z" />
    <glyph glyph-name="adieresis.smcp" horiz-adv-x="571" 
d="M211 100c-14.667 0 -25.667 0.333008 -33 1l-33 -101c-16.667 -4.66699 -39 -7 -67 -7s-50.333 3.66699 -67 11l-5 8l195 538c25.333 4 54 6 86 6s61.333 -2 88 -6l191 -543c-24.667 -10.667 -50.334 -16 -77.001 -16s-47.167 4.16699 -61.5 12.5s-25.5 25.5 -33.5 51.5
l-15 46c-7.33301 -0.666992 -18.666 -1 -33.999 -1h-134zM216 218l31.998 1h66c2.66699 0 7.33398 -0.166992 14.001 -0.5s11.334 -0.5 14.001 -0.5l-13 42c-5.33301 17.333 -20.333 75.333 -45 174h-6c-1.33301 -4 -8 -28.333 -20 -73s-21 -77 -27 -97zM319.998 674
c0 18 2.66699 34.001 8 48.001c18 10.667 39 16 63 16s44.667 -5.33301 62 -16c6 -14 9 -30.333 9 -49s-3 -34.334 -9 -47.001c-17.333 -10.667 -38 -16 -62 -16s-45 5.33301 -63 16c-5.33301 14 -8 30 -8 48zM119.998 674.001c0 18 3 33.999 9 47.999
c17.333 10.667 38 16 62 16s45 -5.33301 63 -16c5.33301 -14 8 -30.167 8 -48.5s-2.66699 -34.166 -8 -47.499c-18 -10.667 -39 -16 -63 -16s-44.667 5.33301 -62 16c-6 14 -9 30 -9 48z" />
    <glyph glyph-name="aring.smcp" horiz-adv-x="571" 
d="M211 100c-14.667 0 -25.667 0.333008 -33 1l-33 -101c-16.667 -4.66699 -39 -7 -67 -7s-50.333 3.66699 -67 11l-5 8l195 538c25.333 4 54 6 86 6s61.333 -2 88 -6l191 -543c-24.667 -10.667 -50.334 -16 -77.001 -16s-47.167 4.16699 -61.5 12.5s-25.5 25.5 -33.5 51.5
l-15 46c-7.33301 -0.666992 -18.666 -1 -33.999 -1h-134zM216 218l31.998 1h66c2.66699 0 7.33398 -0.166992 14.001 -0.5s11.334 -0.5 14.001 -0.5l-13 42c-5.33301 17.333 -20.333 75.333 -45 174h-6c-1.33301 -4 -8 -28.333 -20 -73s-21 -77 -27 -97zM190.998 630.5
c-25.333 24.333 -38 54.333 -38 90s12.667 65.667 38 90s58.666 36.5 99.999 36.5s74.666 -12.167 99.999 -36.5s38 -54.333 38 -90s-12.667 -65.667 -38 -90s-58.666 -36.5 -99.999 -36.5s-74.666 12.167 -99.999 36.5zM241.998 721c0 -14.667 4.5 -26.834 13.5 -36.501
s20.833 -14.5 35.5 -14.5s26.5 4.83301 35.5 14.5s13.5 21.834 13.5 36.501s-4.5 26.834 -13.5 36.501s-20.833 14.5 -35.5 14.5s-26.5 -4.83301 -35.5 -14.5s-13.5 -21.834 -13.5 -36.501z" />
    <glyph glyph-name="ccedilla.smcp" horiz-adv-x="545" 
d="M229 -77l20.001 63.999c-39.333 3.33301 -73.666 14 -102.999 32s-52 41 -68 69c-30 53.333 -45 115 -45 185c0 96 25.167 168.667 75.5 218s112.333 74 186 74s130 -18.167 169 -54.5s58.5 -78.833 58.5 -127.5c0 -54.667 -30.333 -82 -91 -82
c-10.667 0 -27.334 1.33301 -50.001 4c0 46 -6.5 81.167 -19.5 105.5s-36.5 36.5 -70.5 36.5c-69.333 0 -104 -58.333 -104 -175c0 -108 38.667 -162 116 -162c45.333 0 93 18.333 143 55c14.667 -8 29 -21.667 43 -41s22.667 -37.333 26 -54
c-52 -45.333 -114.333 -72.666 -187 -81.999c-4.66699 -9.33301 -7.66699 -16 -9 -20c30 -2 54 -11.167 72 -27.5s27 -38.833 27 -67.5s-12.667 -53.167 -38 -73.5s-56.666 -30.5 -93.999 -30.5s-67 7.66699 -89 23c1.33301 26.667 9.66602 48.334 24.999 65.001
c13.333 -8.66699 28.666 -13 45.999 -13c25.333 0 38 10 38 30c0 9.33301 -3 16.833 -9 22.5s-13.167 8.5 -21.5 8.5s-16.5 -1.33301 -24.5 -4c-10.667 5.33301 -18 12.666 -22 21.999z" />
    <glyph glyph-name="egrave.smcp" horiz-adv-x="526" 
d="M223 177l-1 -58.999v-2c29.333 2.66699 51.666 4 66.999 4h199c0 -21.333 -0.666992 -38 -2 -50c-9.33301 -48 -39.666 -72 -90.999 -72h-234c-27.333 0 -48.833 7.66699 -64.5 23s-23.5 36.333 -23.5 63v461l6 5h391c3.33301 -14 5 -32.167 5 -54.5s-4 -44.5 -12 -66.5
h-241l1 -53v-41c16 0.666992 36.333 1 61 1h132c5.33301 -12.667 8 -31.834 8 -57.501s-2.66699 -45.5 -8 -59.5h-193v-42zM223 817.001l154 -167.001c-4.66699 -13.333 -13 -25.333 -25 -36s-24.333 -18 -37 -22l-183 138c6 18.667 18 36.334 36 53.001s36.333 28 55 34z
" />
    <glyph glyph-name="eacute.smcp" horiz-adv-x="526" 
d="M223 177l-1 -58.999v-2c29.333 2.66699 51.666 4 66.999 4h199c0 -21.333 -0.666992 -38 -2 -50c-9.33301 -48 -39.666 -72 -90.999 -72h-234c-27.333 0 -48.833 7.66699 -64.5 23s-23.5 36.333 -23.5 63v461l6 5h391c3.33301 -14 5 -32.167 5 -54.5s-4 -44.5 -12 -66.5
h-241l1 -53v-41c16 0.666992 36.333 1 61 1h132c5.33301 -12.667 8 -31.834 8 -57.501s-2.66699 -45.5 -8 -59.5h-193v-42zM185 650.001l154.002 167.001c18.667 -6 37.167 -17.333 55.5 -34s30.166 -34.334 35.499 -53.001l-183 -138c-12.667 4 -24.834 11.333 -36.501 22
s-20.167 22.667 -25.5 36z" />
    <glyph glyph-name="ecircumflex.smcp" horiz-adv-x="526" 
d="M223 177l-1 -58.999v-2c29.333 2.66699 51.666 4 66.999 4h199c0 -21.333 -0.666992 -38 -2 -50c-9.33301 -48 -39.666 -72 -90.999 -72h-234c-27.333 0 -48.833 7.66699 -64.5 23s-23.5 36.333 -23.5 63v461l6 5h391c3.33301 -14 5 -32.167 5 -54.5s-4 -44.5 -12 -66.5
h-241l1 -53v-41c16 0.666992 36.333 1 61 1h132c5.33301 -12.667 8 -31.834 8 -57.501s-2.66699 -45.5 -8 -59.5h-193v-42zM373 603.001l-92 87l-97 -94c-28.667 11.333 -50.667 30.333 -66 57l105 136c16 5.33301 29.667 8 41 8c35.333 0 62.333 -2.66699 81 -8l93 -125
c-5.33301 -14 -14.5 -26.667 -27.5 -38s-25.5 -19 -37.5 -23z" />
    <glyph glyph-name="edieresis.smcp" horiz-adv-x="526" 
d="M223 177l-1 -58.999v-2c29.333 2.66699 51.666 4 66.999 4h199c0 -21.333 -0.666992 -38 -2 -50c-9.33301 -48 -39.666 -72 -90.999 -72h-234c-27.333 0 -48.833 7.66699 -64.5 23s-23.5 36.333 -23.5 63v461l6 5h391c3.33301 -14 5 -32.167 5 -54.5s-4 -44.5 -12 -66.5
h-241l1 -53v-41c16 0.666992 36.333 1 61 1h132c5.33301 -12.667 8 -31.834 8 -57.501s-2.66699 -45.5 -8 -59.5h-193v-42zM306 674.001c0 18 2.66699 34.001 8 48.001c18 10.667 39 16 63 16s44.667 -5.33301 62 -16c6 -14 9 -30.333 9 -49s-3 -34.334 -9 -47.001
c-17.333 -10.667 -38 -16 -62 -16s-45 5.33301 -63 16c-5.33301 14 -8 30 -8 48zM106 674.002c0 18 3 33.999 9 47.999c17.333 10.667 38 16 62 16s45 -5.33301 63 -16c5.33301 -14 8 -30.167 8 -48.5s-2.66699 -34.166 -8 -47.499c-18 -10.667 -39 -16 -63 -16
s-44.667 5.33301 -62 16c-6 14 -9 30 -9 48z" />
    <glyph glyph-name="hbar.smcp" horiz-adv-x="638" 
d="M228 221l1 -58.999v-162c-20.667 -4 -46.167 -6 -76.5 -6s-55.5 2 -75.5 6v401h-58c-4.66699 14 -7 28.833 -7 44.5s2.33301 30.5 7 44.5h58v60c19.333 4.66699 44.5 7 75.5 7s56.5 -2.33301 76.5 -7v-60h181v60c19.333 4.66699 44.5 7 75.5 7s56.167 -2.33301 75.5 -7
v-60h59c4 -14.667 6 -29.334 6 -44.001s-2 -29.667 -6 -45h-59v-401c-20.667 -4 -46 -6 -76 -6s-55 2 -75 6v162l1 59l-44 -1h-95zM228 340.001l44 1h95l44 -1l-1 61h-181z" />
    <glyph glyph-name="igrave.smcp" horiz-adv-x="303" 
d="M76 0v550c19.333 4 44.333 6 75 6s56 -2 76 -6v-550c-20 -4 -45.333 -6 -76 -6s-55.667 2 -75 6zM100 817l154 -167.001c-4.66699 -13.333 -13 -25.333 -25 -36s-24.333 -18 -37 -22l-183 138c6 18.667 18 36.334 36 53.001s36.333 28 55 34z" />
    <glyph glyph-name="iacute.smcp" horiz-adv-x="303" 
d="M76 0v550c19.333 4 44.333 6 75 6s56 -2 76 -6v-550c-20 -4 -45.333 -6 -76 -6s-55.667 2 -75 6zM62 650l154.002 167.001c18.667 -6 37.167 -17.333 55.5 -34s30.166 -34.334 35.499 -53.001l-183 -138c-12.667 4 -24.834 11.333 -36.501 22s-20.167 22.667 -25.5 36z
" />
    <glyph glyph-name="icircumflex.smcp" horiz-adv-x="303" 
d="M76 0v550c19.333 4 44.333 6 75 6s56 -2 76 -6v-550c-20 -4 -45.333 -6 -76 -6s-55.667 2 -75 6zM249 603l-92 87l-97 -94c-28.667 11.333 -50.667 30.333 -66 57l105 136c16 5.33301 29.667 8 41 8c35.333 0 62.333 -2.66699 81 -8l93 -125
c-5.33301 -14 -14.5 -26.667 -27.5 -38s-25.5 -19 -37.5 -23z" />
    <glyph glyph-name="itilde.smcp" horiz-adv-x="303" 
d="M76 0v550c19.333 4 44.333 6 75 6s56 -2 76 -6v-550c-20 -4 -45.333 -6 -76 -6s-55.667 2 -75 6zM155 624l-45.001 22.999c-10.667 6 -21.167 9 -31.5 9s-21.5 -8 -33.5 -24l-9 -13c-14 0 -28 4.33301 -42 13s-23.333 19.334 -28 32.001l8 19
c11.333 26 27 46.833 47 62.5s41.333 23.5 64 23.5s44.667 -5.66699 66 -17l45 -23c10.667 -6 21.334 -9 32.001 -9s21.667 8 33 24l9 12c14 0 27.833 -4.16699 41.5 -12.5s23.167 -18.833 28.5 -31.5l-8 -20c-11.333 -26 -27.166 -46.833 -47.499 -62.5
s-41.333 -23.5 -63 -23.5s-43.834 6 -66.501 18z" />
    </font>
</defs>
</svg>
